<svg xmlns="http://www.w3.org/2000/svg" enable-background="new 0 0 2000 2000" viewBox="-43.761 433.793 2087.534 1351.981"><ellipse cx="714" cy="1689.75" fill="#96caed" rx="103.85" ry="34.57"/><path fill="#96caed" d="M1862.56,1641.2c0,30.63-380.96,22.23-857.34,22.23c-476.38,0-867.77,8.4-867.77-22.23   c0-30.63,398.14-50.72,874.52-50.72C1488.34,1590.48,1862.56,1610.57,1862.56,1641.2z"/><path fill="#cdeaf5" d="M269.84,1636.77c0,0-362.65-235.09-154-512.38c208.65-277.29,620.97-140.78,620.97-140.78   s19.87-357.95,476.91-470.76c457.04-112.81,755.1,344.83,476.91,569.34c0,0,481.88,207.79,129.16,554.57H269.84z"/><path fill="#4d3b95" d="M1808.37,1636.77H1422.8c-6.67,0-12.07-5.4-12.07-12.07v-551.05c0-6.67,5.4-12.07,12.07-12.07h385.57    c6.67,0,12.07,5.4,12.07,12.07v551.05C1820.44,1631.37,1815.04,1636.77,1808.37,1636.77z"/><rect width="232.18" height="11.46" x="1499.5" y="1597.98" fill="#7f6db0"/><rect width="383.34" height="112.93" x="1423.91" y="1208.3" fill="#2b2c6d"/><rect width="360.8" height="95.09" x="1435.19" y="1217.23" fill="#7f6db0"/><path fill="#2b2c6d" d="M1775.12,1264.77c0,14.53-11.63,26.32-25.98,26.32c-14.35,0-25.98-11.78-25.98-26.32     c0-14.54,11.63-26.32,25.98-26.32C1763.49,1238.45,1775.12,1250.24,1775.12,1264.77z"/><rect width="13.78" height="52.21" x="1477.78" y="1238.67" fill="#2b2c6d"/><rect width="13.78" height="52.21" x="1504.09" y="1238.67" fill="#2b2c6d"/><rect width="13.78" height="52.21" x="1530.4" y="1238.67" fill="#2b2c6d"/><rect width="13.78" height="52.21" x="1556.71" y="1238.67" fill="#2b2c6d"/><rect width="13.78" height="52.21" x="1583.01" y="1238.67" fill="#2b2c6d"/><rect width="15.24" height="15.49" x="1617.46" y="1257.03" fill="#2b2c6d"/><rect width="15.24" height="15.49" x="1643.67" y="1257.03" fill="#2b2c6d"/><rect width="15.24" height="15.49" x="1669.87" y="1257.03" fill="#2b2c6d"/><rect width="383.34" height="112.94" x="1423.91" y="1080.5" fill="#2b2c6d"/><rect width="360.8" height="95.09" x="1435.19" y="1089.42" fill="#7f6db0"/><path fill="#2b2c6d" d="M1775.12,1136.96c0,14.53-11.63,26.32-25.98,26.32c-14.35,0-25.98-11.78-25.98-26.32     c0-14.54,11.63-26.32,25.98-26.32C1763.49,1110.65,1775.12,1122.43,1775.12,1136.96z"/><rect width="13.78" height="52.21" x="1477.78" y="1110.86" fill="#2b2c6d"/><rect width="13.78" height="52.21" x="1504.09" y="1110.86" fill="#2b2c6d"/><rect width="13.78" height="52.21" x="1530.4" y="1110.86" fill="#2b2c6d"/><rect width="13.78" height="52.21" x="1556.71" y="1110.86" fill="#2b2c6d"/><rect width="13.78" height="52.21" x="1583.01" y="1110.86" fill="#2b2c6d"/><rect width="15.24" height="15.49" x="1617.46" y="1129.22" fill="#2b2c6d"/><rect width="15.24" height="15.49" x="1643.67" y="1129.22" fill="#2b2c6d"/><rect width="15.24" height="15.49" x="1669.87" y="1129.22" fill="#2b2c6d"/><rect width="383.34" height="112.93" x="1423.91" y="1335.12" fill="#2b2c6d"/><rect width="360.8" height="95.08" x="1435.19" y="1344.04" fill="#7f6db0"/><path fill="#2b2c6d" d="M1775.12,1391.59c0,14.53-11.63,26.32-25.98,26.32c-14.35,0-25.98-11.78-25.98-26.32     c0-14.53,11.63-26.32,25.98-26.32C1763.49,1365.27,1775.12,1377.05,1775.12,1391.59z"/><rect width="13.78" height="52.21" x="1477.78" y="1365.48" fill="#2b2c6d"/><rect width="13.78" height="52.21" x="1504.09" y="1365.48" fill="#2b2c6d"/><rect width="13.78" height="52.21" x="1530.4" y="1365.48" fill="#2b2c6d"/><rect width="13.78" height="52.21" x="1556.71" y="1365.48" fill="#2b2c6d"/><rect width="13.78" height="52.21" x="1583.01" y="1365.48" fill="#2b2c6d"/><rect width="15.24" height="15.49" x="1617.46" y="1383.84" fill="#2b2c6d"/><rect width="15.24" height="15.49" x="1643.67" y="1383.84" fill="#2b2c6d"/><rect width="15.24" height="15.49" x="1669.87" y="1383.84" fill="#2b2c6d"/><rect width="383.34" height="112.94" x="1423.91" y="1461.93" fill="#2b2c6d"/><rect width="360.8" height="95.08" x="1435.19" y="1470.86" fill="#7f6db0"/><ellipse cx="1749.15" cy="1518.4" fill="#2b2c6d" rx="25.98" ry="26.32"/><rect width="13.78" height="52.21" x="1477.78" y="1492.3" fill="#2b2c6d"/><rect width="13.78" height="52.21" x="1504.09" y="1492.3" fill="#2b2c6d"/><rect width="13.78" height="52.21" x="1530.4" y="1492.3" fill="#2b2c6d"/><rect width="13.78" height="52.21" x="1556.71" y="1492.3" fill="#2b2c6d"/><rect width="13.78" height="52.21" x="1583.01" y="1492.3" fill="#2b2c6d"/><rect width="15.24" height="15.49" x="1617.46" y="1510.65" fill="#2b2c6d"/><rect width="15.24" height="15.49" x="1643.67" y="1510.65" fill="#2b2c6d"/><rect width="15.24" height="15.49" x="1669.87" y="1510.65" fill="#2b2c6d"/><g><path fill="#284e9d" d="M841.28,1409.87c0,0,16.51,56.66-25.94,200.87h275.98c0,0-49.54-56.66-37.74-200.87H841.28z"/><path fill="#efa5c8" d="M1381.69,1348.6H506.08v-458.4c0-25.98,21.06-47.03,47.03-47.03h781.54c25.98,0,47.03,21.06,47.03,47.03    V1348.6z"/><path fill="#1b478e" d="M1435.69,1428.31H474.51c-12.39,0-22.43-10.04-22.43-22.43V829.3c0-12.39,10.04-22.43,22.43-22.43h933.85    h6.74c11.37,0,20.59,9.22,20.59,20.59V1428.31L1435.69,1428.31z"/><path fill="#4bc0ee" d="M461.51,1415.41V838.83c0-12.39,10.04-22.43,22.43-22.43h933.85h6.74c3.27,0,6.33,0.83,9.08,2.19    c-3.32-6.92-10.33-11.73-18.51-11.73h-6.74H474.51c-12.39,0-22.43,10.04-22.43,22.43v576.58c0,8.6,4.9,15.98,12,19.75    C462.5,1422.55,461.51,1419.11,461.51,1415.41z"/><linearGradient id="a" x1="506.082" x2="1381.693" y1="1107.132" y2="1107.132" gradientUnits="userSpaceOnUse"><stop offset="0" stop-color="#fff"/><stop offset=".1" stop-color="#f0f9fd"/><stop offset=".299" stop-color="#d7f0fb"/><stop offset=".509" stop-color="#c6e9f9"/><stop offset=".734" stop-color="#bbe5f7"/><stop offset="1" stop-color="#b8e4f7"/></linearGradient><polygon fill="url(#a)" points="1381.69 1371.11 506.08 1371.11 506.08 843.16 1381.69 843.16 1381.69 843.16 1381.69 1371.11"/><polygon fill="#fff" points="506.08 843.16 506.08 1340.51 1381.69 853.78 1381.69 843.16 1381.69 843.16" opacity=".34"/><path fill="#1d478e" d="M674.32,1586.25l-20.21,46.96c-0.72,1.68,0.51,3.56,2.34,3.56h563.08c1.83,0,3.06-1.87,2.34-3.56    l-20.21-46.96c-0.4-0.94-1.32-1.54-2.34-1.54H676.66C675.64,1584.71,674.72,1585.32,674.32,1586.25z"/><path fill="#28316e" d="M967.4,1398c0,7.98-6.3,14.45-14.08,14.45c-7.77,0-14.08-6.47-14.08-14.45c0-7.98,6.3-14.45,14.08-14.45    C961.1,1383.55,967.4,1390.02,967.4,1398z"/><path fill="none" d="M1381.69,1348.6H506.08v-458.4c0-25.98,21.06-47.03,47.03-47.03h781.54c25.98,0,47.03,21.06,47.03,47.03    V1348.6z"/></g><g><path fill="#3984c5" d="M1206.1,1332.97h-77.39c-3.15,0-5.71-2.56-5.71-5.71v-68.51c0-3.15,2.56-5.71,5.71-5.71h77.39     c3.15,0,5.71,2.56,5.71,5.71v68.51C1211.81,1330.41,1209.25,1332.97,1206.1,1332.97z"/><path fill="#fff" d="M1201.08,1328.14h-72.72c-2.96,0-5.36-2.4-5.36-5.36v-64.37c0-2.96,2.4-5.36,5.36-5.36h72.72     c2.96,0,5.36,2.4,5.36,5.36v64.37C1206.44,1325.74,1204.04,1328.14,1201.08,1328.14z"/><path fill="#3984c5" d="M1180.81,1287.61l-7.75,13.71l-16.09-28.61l-33.87,50.57c0.27,2.71,2.48,4.86,5.26,4.86h72.72     c2.96,0,5.36-2.4,5.36-5.36v-7.5L1180.81,1287.61z"/><path fill="#3984c5" d="M1194.22,1270.85c0,3.58-2.9,6.49-6.49,6.49c-3.58,0-6.49-2.9-6.49-6.49c0-3.58,2.9-6.49,6.49-6.49     C1191.32,1264.36,1194.22,1267.26,1194.22,1270.85z"/><path fill="#3984c5" d="M1315.46,1232.49h-77.39c-3.15,0-5.71-2.56-5.71-5.71v-68.51c0-3.15,2.56-5.71,5.71-5.71h77.39     c3.15,0,5.71,2.56,5.71,5.71v68.51C1321.17,1229.94,1318.61,1232.49,1315.46,1232.49z"/><path fill="#fff" d="M1310.44,1227.67h-72.72c-2.96,0-5.36-2.4-5.36-5.36v-64.37c0-2.96,2.4-5.36,5.36-5.36h72.72     c2.96,0,5.36,2.4,5.36,5.36v64.37C1315.8,1225.26,1313.4,1227.67,1310.44,1227.67z"/><path fill="#3984c5" d="M1290.17,1187.13l-7.75,13.71l-16.09-28.61l-33.87,50.57c0.27,2.71,2.48,4.86,5.26,4.86h72.72     c2.96,0,5.36-2.4,5.36-5.36v-7.5L1290.17,1187.13z"/><path fill="#3984c5" d="M1303.58,1170.37c0,3.58-2.9,6.49-6.49,6.49c-3.58,0-6.49-2.9-6.49-6.49c0-3.58,2.9-6.49,6.49-6.49     C1300.68,1163.89,1303.58,1166.79,1303.58,1170.37z"/><g><path fill="#3984c5" d="M1311.64,1334.37h-69.72c-5.26,0-9.53-4.27-9.53-9.53v-63.68c0-5.26,4.27-9.53,9.53-9.53h69.72      c5.26,0,9.53,4.27,9.53,9.53v63.68C1321.17,1330.11,1316.9,1334.37,1311.64,1334.37z"/><polygon fill="#3984c5" points="1260.81 1272.42 1260.81 1313.58 1299.2 1293"/><linearGradient id="b" x1="1232.379" x2="1318.145" y1="1291.592" y2="1291.592" gradientUnits="userSpaceOnUse"><stop offset="0" stop-color="#fff"/><stop offset=".026" stop-color="#fcfeff"/><stop offset=".278" stop-color="#def2fb"/><stop offset=".527" stop-color="#c9eaf9"/><stop offset=".77" stop-color="#bce6f7"/><stop offset="1" stop-color="#b8e4f7"/></linearGradient><path fill="url(#b)" d="M1308.94,1331.56h-67.35      c-5.09,0-9.21-4.12-9.21-9.21v-61.51c0-5.09,4.12-9.21,9.21-9.21h67.35c5.09,0,9.21,4.12,9.21,9.21v61.51      C1318.15,1327.43,1314.02,1331.56,1308.94,1331.56z"/><polygon fill="#3984c5" points="1259.84 1271.71 1259.84 1311.47 1296.93 1291.59"/></g><path fill="#233a76" d="M1201.18,1147.18l-50.18,13.69c-0.84,0.23-1.44,0.98-1.47,1.85l-0.75,21.67l-0.73,20.92    c-2.03-0.87-4.35-1.4-6.82-1.48c-8.33-0.29-15.26,4.56-15.48,10.83c-0.22,6.27,6.36,11.59,14.69,11.88    c8.33,0.29,15.26-4.56,15.48-10.83l1.17-33.58l37.59-10.25l-0.73,21.07c-2.03-0.87-4.35-1.4-6.82-1.48    c-8.33-0.29-15.26,4.56-15.48,10.83c-0.22,6.27,6.36,11.59,14.69,11.88c8.33,0.29,15.26-4.56,15.48-10.83l1.17-33.73l0.71-20.43    C1203.74,1147.83,1202.47,1146.82,1201.18,1147.18z"/></g><g><polygon fill="#f2b143" points="692.16 1174.44 564.32 1174.44 564.32 1073.12 564.32 1064.51 589.73 1064.51 601.49 1073.12 692.16 1073.12"/><rect width="119.21" height="6.03" x="568.78" y="1082.64" fill="#bed7eb"/><path fill="#bed7eb" d="M694.73,1174.44H559.09c-2.14,0-3.88-1.74-3.88-3.88v-78.03c0-2.14,1.74-3.88,3.88-3.88h135.63       c2.14,0,3.88,1.74,3.88,3.88v78.03C698.6,1172.71,696.87,1174.44,694.73,1174.44z"/><path fill="#fff" d="M690.37,1169.43H558.92c-2.04,0-3.7-1.66-3.7-3.7v-73.36c0-2.04,1.66-3.7,3.7-3.7h131.45       c2.04,0,3.7,1.66,3.7,3.7v73.36C694.07,1167.77,692.42,1169.43,690.37,1169.43z"/><rect width="143.39" height="8.97" x="555.22" y="1186.29" fill="#bed7eb"/><path fill="#fff" d="M639.15,1129.98l-1.52-0.01l0.05-6.39c0.04-5.89-4.7-10.7-10.56-10.74c-5.87-0.04-10.67,4.72-10.71,10.61     l-0.05,6.44l-1.47-0.01c-1.32-0.01-2.4,0.85-2.41,1.91l-0.18,18.93c-0.01,1.06,1.05,1.92,2.37,1.93l24.26,0.09     c1.32,0,2.4-0.85,2.41-1.91l0.18-18.93C641.53,1130.85,640.47,1129.98,639.15,1129.98z M627.08,1116.78     c3.67,0.02,6.64,3.06,6.61,6.78l-0.04,6.4l-13.32-0.05l0.05-6.43C620.4,1119.76,623.41,1116.76,627.08,1116.78z M628.86,1145.51     l-4.25-0.02l0.77-3.69c-0.64-0.48-1.06-1.3-1.05-2.21c0.01-1.48,1.12-2.67,2.48-2.67c1.35,0.01,2.44,1.21,2.43,2.69     c-0.01,0.92-0.44,1.73-1.09,2.21L628.86,1145.51z"/><path fill="#3984c5" d="M610.02,1145.24h-48.88c-1.99,0-3.61-1.61-3.61-3.61v-43.27c0-1.99,1.61-3.61,3.61-3.61h48.88     c1.99,0,3.61,1.61,3.61,3.61v43.27C613.63,1143.63,612.02,1145.24,610.02,1145.24z"/><path fill="#fff" d="M606.85,1142.19h-45.93c-1.87,0-3.39-1.52-3.39-3.39v-40.66c0-1.87,1.52-3.39,3.39-3.39h45.93     c1.87,0,3.39,1.52,3.39,3.39v40.66C610.24,1140.67,608.73,1142.19,606.85,1142.19z"/><path fill="#3984c5" d="M594.05,1116.59l-4.89,8.66l-10.16-18.07l-21.4,31.94c0.17,1.71,1.57,3.07,3.32,3.07h45.93     c1.87,0,3.39-1.52,3.39-3.39v-4.74L594.05,1116.59z"/><path fill="#3984c5" d="M602.52,1106c0,2.26-1.83,4.1-4.1,4.1c-2.26,0-4.1-1.83-4.1-4.1c0-2.26,1.83-4.1,4.1-4.1     C600.69,1101.91,602.52,1103.74,602.52,1106z"/></g><g><polygon fill="#f2b143" points="692.16 1000 564.32 1000 564.32 898.68 564.32 890.07 589.73 890.07 601.49 898.68 692.16 898.68"/><rect width="119.21" height="6.03" x="568.78" y="908.19" fill="#bed7eb"/><path fill="#bed7eb" d="M694.73,1000H559.09c-2.14,0-3.88-1.74-3.88-3.88V918.1c0-2.14,1.74-3.88,3.88-3.88h135.63       c2.14,0,3.88,1.74,3.88,3.88v78.03C698.6,998.26,696.87,1000,694.73,1000z"/><path fill="#fff" d="M690.37,994.98H558.92c-2.04,0-3.7-1.66-3.7-3.7v-73.36c0-2.04,1.66-3.7,3.7-3.7h131.45       c2.04,0,3.7,1.66,3.7,3.7v73.36C694.07,993.33,692.42,994.98,690.37,994.98z"/><rect width="143.39" height="8.97" x="555.21" y="1011.85" fill="#bed7eb"/><path fill="#fff" d="M639.15,955.53l-1.52-0.01l0.05-6.39c0.04-5.89-4.7-10.7-10.56-10.74c-5.87-0.04-10.67,4.72-10.71,10.61     l-0.05,6.44l-1.47-0.01c-1.32-0.01-2.4,0.85-2.41,1.91l-0.18,18.93c-0.01,1.06,1.05,1.92,2.37,1.93l24.26,0.09     c1.32,0,2.4-0.85,2.41-1.91l0.18-18.93C641.53,956.4,640.47,955.54,639.15,955.53z M627.08,942.33c3.67,0.02,6.64,3.06,6.61,6.78     l-0.05,6.4l-13.32-0.05l0.05-6.43C620.4,945.32,623.41,942.31,627.08,942.33z M628.86,971.07l-4.25-0.02l0.77-3.69     c-0.64-0.48-1.06-1.3-1.05-2.21c0.01-1.48,1.12-2.67,2.48-2.67c1.35,0.01,2.44,1.21,2.43,2.69c-0.01,0.92-0.44,1.73-1.09,2.21     L628.86,971.07z"/><path fill="#233a76" d="M596.15,919.43l-32.36,8.83c-0.54,0.15-0.93,0.63-0.95,1.2l-0.49,13.98l-0.47,13.49    c-1.31-0.56-2.8-0.9-4.4-0.96c-5.37-0.19-9.84,2.94-9.98,6.98c-0.14,4.04,4.1,7.47,9.47,7.66c5.37,0.19,9.84-2.94,9.98-6.98    l0.75-21.66l24.24-6.61l-0.47,13.59c-1.31-0.56-2.8-0.9-4.4-0.96c-5.37-0.19-9.84,2.94-9.98,6.98c-0.14,4.04,4.1,7.47,9.47,7.66    c5.37,0.19,9.84-2.94,9.98-6.98l0.76-21.75l0.46-13.18C597.8,919.85,596.98,919.2,596.15,919.43z"/></g><g><rect width="239.12" height="237.85" x="254.41" y="1398.92" fill="#4d3b95"/><rect width="179.42" height="7.7" x="284.27" y="1613.68" fill="#7f6db0"/><rect width="296.24" height="75.86" x="225.86" y="1355.79" fill="#2b2c6d"/><rect width="278.81" height="63.87" x="234.57" y="1361.79" fill="#7f6db0"/><path fill="#2b2c6d" d="M481.13,1393.72c0,9.76-7.81,17.68-17.45,17.68c-9.64,0-17.45-7.91-17.45-17.68     c0-9.76,7.81-17.68,17.45-17.68C473.32,1376.04,481.13,1383.96,481.13,1393.72z"/><rect width="10.65" height="35.07" x="267.48" y="1376.18" fill="#1f1b3f"/><rect width="10.65" height="35.07" x="287.81" y="1376.18" fill="#1f1b3f"/><rect width="10.65" height="35.07" x="308.14" y="1376.18" fill="#1f1b3f"/><rect width="10.65" height="35.07" x="328.47" y="1376.18" fill="#1f1b3f"/><rect width="10.65" height="35.07" x="348.8" y="1376.18" fill="#1f1b3f"/><rect width="11.78" height="10.41" x="375.43" y="1388.52" fill="#1f1b3f"/><rect width="11.78" height="10.41" x="395.68" y="1388.52" fill="#1f1b3f"/><rect width="11.78" height="10.41" x="415.93" y="1388.52" fill="#1f1b3f"/><rect width="296.24" height="75.85" x="225.86" y="1440.97" fill="#2b2c6d"/><rect width="278.81" height="63.87" x="234.57" y="1446.96" fill="#7f6db0"/><ellipse cx="463.69" cy="1478.9" fill="#2b2c6d" rx="17.45" ry="17.68"/><rect width="10.65" height="35.07" x="267.48" y="1461.36" fill="#1f1b3f"/><rect width="10.65" height="35.07" x="287.81" y="1461.36" fill="#1f1b3f"/><rect width="10.65" height="35.07" x="308.14" y="1461.36" fill="#1f1b3f"/><rect width="10.65" height="35.07" x="328.47" y="1461.36" fill="#1f1b3f"/><rect width="10.65" height="35.07" x="348.8" y="1461.36" fill="#1f1b3f"/><rect width="11.78" height="10.41" x="375.43" y="1473.69" fill="#1f1b3f"/><rect width="11.78" height="10.41" x="395.68" y="1473.69" fill="#1f1b3f"/><rect width="11.78" height="10.41" x="415.93" y="1473.69" fill="#1f1b3f"/><g><rect width="296.24" height="75.86" x="225.86" y="1526.15" fill="#2b2c6d"/><rect width="278.81" height="63.87" x="234.57" y="1532.14" fill="#7f6db0"/><path fill="#2b2c6d" d="M481.13,1564.07c0,9.76-7.81,17.68-17.45,17.68c-9.64,0-17.45-7.91-17.45-17.68     c0-9.76,7.81-17.68,17.45-17.68C473.32,1546.4,481.13,1554.31,481.13,1564.07z"/><rect width="10.65" height="35.07" x="267.48" y="1546.54" fill="#1f1b3f"/><rect width="10.65" height="35.07" x="287.81" y="1546.54" fill="#1f1b3f"/><rect width="10.65" height="35.07" x="308.14" y="1546.54" fill="#1f1b3f"/><rect width="10.65" height="35.07" x="328.47" y="1546.54" fill="#1f1b3f"/><rect width="10.65" height="35.07" x="348.8" y="1546.54" fill="#1f1b3f"/><rect width="11.78" height="10.41" x="375.43" y="1558.87" fill="#1f1b3f"/><rect width="11.78" height="10.41" x="395.68" y="1558.87" fill="#1f1b3f"/><rect width="11.78" height="10.41" x="415.93" y="1558.87" fill="#1f1b3f"/></g></g><g><path fill="#1b478e" d="M1433.19,625.9c-3.26-35.26-38.91-63.04-82.43-63.04c-43.32,0-78.84,27.52-82.39,62.55h-17.4    c-30.88,0-55.91,22.63-55.91,50.54l0,0c0,27.91,25.03,50.54,55.91,50.54h174.81c30.88,0,55.91-22.63,55.91-50.54l0,0    C1481.69,650.31,1460.56,629.19,1433.19,625.9z"/><path fill="#f0f7f6" d="M1421.01,623.63c-3.09-33.99-36.92-60.77-78.22-60.77c-41.11,0-74.81,26.53-78.18,60.29h-16.51    c-29.3,0-53.06,21.81-53.06,48.72l0,0c0,26.91,23.75,48.72,53.06,48.72h165.87c29.3,0,53.06-21.81,53.06-48.72l0,0    C1467.04,647.16,1446.98,626.79,1421.01,623.63z"/><path fill="#223368" d="M1348.29,652.99l-39.99,46.95c-0.57,0.68,0.1,1.54,1.19,1.54h79.98c1.1,0,1.77-0.87,1.19-1.54       l-39.99-46.95C1350.13,652.35,1348.84,652.35,1348.29,652.99z"/><rect width="42.42" height="55.78" x="1328.27" y="696.03" fill="#223368"/></g><g><path fill="#1b478e" d="M344.63,960.49c-2.43-26.26-28.98-46.95-61.39-46.95c-32.27,0-58.72,20.5-61.36,46.58h-12.96    c-23,0-41.64,16.85-41.64,37.64l0,0c0,20.79,18.64,37.64,41.64,37.64h130.19c23,0,41.64-16.85,41.64-37.64l0,0    C380.75,978.66,365.01,962.93,344.63,960.49z"/><path fill="#f0f7f6" d="M335.56,958.79c-2.3-25.32-27.5-45.26-58.26-45.26c-30.62,0-55.72,19.76-58.22,44.9h-12.29    c-21.82,0-39.51,16.24-39.51,36.28l0,0c0,20.04,17.69,36.28,39.51,36.28h123.54c21.82,0,39.51-16.24,39.51-36.28l0,0    C369.84,976.32,354.9,961.15,335.56,958.79z"/><path fill="#223368" d="M281.4,980.66l-29.78,34.97c-0.43,0.5,0.07,1.15,0.89,1.15h59.56c0.82,0,1.32-0.65,0.89-1.15       l-29.78-34.97C282.77,980.18,281.8,980.18,281.4,980.66z"/><rect width="31.59" height="41.54" x="266.49" y="1012.72" fill="#223368"/></g><g><path fill="#0b73b8" d="M433.49,1231.79c-24.89-0.98-52.1-16.36-52.1-16.36s-27.52,14.81-52.42,15.26c0,0-8.86,76.44,53.02,103.79     C443.62,1308.24,433.49,1231.79,433.49,1231.79z"/><path fill="#fff" d="M433.47,1235.32c-24.03-0.94-50.32-15.8-50.32-15.8s-26.58,14.3-50.63,14.74c0,0-10.3,73.8,49.45,100.22     C442.26,1309.33,433.47,1235.32,433.47,1235.32z"/><linearGradient id="c" x1="453.019" x2="453.019" y1="1416.195" y2="1520.326" gradientTransform="rotate(.596 18800.996 -5399.772)" gradientUnits="userSpaceOnUse"><stop offset="0" stop-color="#e4e4e4"/><stop offset=".157" stop-color="#e0e0e0"/><stop offset=".298" stop-color="#d5d5d5"/><stop offset=".435" stop-color="#c3c3c3"/><stop offset=".568" stop-color="#a9a9a9"/><stop offset=".698" stop-color="#878787"/><stop offset=".827" stop-color="#5e5e5e"/><stop offset=".952" stop-color="#2f2f2f"/><stop offset="1" stop-color="#1a1a1a"/></linearGradient><path fill="url(#c)" d="M428.75,1239.25     c-21.81-0.85-45.65-14.31-45.65-14.31s-24.12,12.95-45.93,13.35c0,0-9.34,66.84,44.87,90.77     C436.73,1306.28,428.75,1239.25,428.75,1239.25z"/><path fill="#929191" d="M425.78,1241.68c-20.4-0.8-42.72-13.39-42.72-13.39s-22.57,12.12-42.98,12.49c0,0-8.74,62.55,41.99,84.94     C433.25,1304.4,425.78,1241.68,425.78,1241.68z" opacity=".54"/><linearGradient id="d" x1="345.088" x2="421.164" y1="1278.182" y2="1278.182" gradientUnits="userSpaceOnUse"><stop offset="0" stop-color="#2aa7df"/><stop offset=".29" stop-color="#2aa4dd"/><stop offset=".468" stop-color="#2a9cd7"/><stop offset=".617" stop-color="#2b8dcc"/><stop offset=".749" stop-color="#2c79bd"/><stop offset=".87" stop-color="#2d5ea9"/><stop offset=".981" stop-color="#2e3e92"/><stop offset="1" stop-color="#2e388d"/></linearGradient><path fill="url(#d)" d="M420.84,1244.84     c-17.91-0.74-37.49-12.6-37.49-12.6s-19.82,11.45-37.74,11.81c0,0-7.72,58.99,36.8,80.07     C427.35,1303.98,420.84,1244.84,420.84,1244.84z"/><linearGradient id="e" x1="345.092" x2="420.533" y1="1277.002" y2="1277.002" gradientUnits="userSpaceOnUse"><stop offset="0" stop-color="#2aa7df"/><stop offset=".253" stop-color="#2b8fcd"/><stop offset=".783" stop-color="#2d53a1"/><stop offset="1" stop-color="#2e388d"/></linearGradient><path fill="url(#e)" d="M420.2,1244.85     c-17.76-0.72-37.18-12.17-37.18-12.17s-19.65,11.04-37.42,11.38c0,0-7.64,56.91,36.52,77.25     C426.68,1301.9,420.2,1244.85,420.2,1244.85z"/><path fill="#282560" d="M405.7,1302.79c-7.13,2.85-18.31,6.22-30.31-0.48c-16.35-9.14-26.38-42.5-30.04-55.81     c-0.86,11.05-1.96,56.99,36.76,74.83C392.51,1316.79,400.13,1310.21,405.7,1302.79z" opacity=".15"/><path fill="#fff" d="M397,1241.37c0,0,7.3,3.97,20.36,5.11c0,0,3.51,9.55-1.4,23.21C415.95,1269.7,419.46,1254.63,397,1241.37z" opacity=".36"/><path fill="#fff" d="M407.26,1257.33c-3.21,1.29-6.2,3.14-9.07,5.15c-2.88,2.01-5.57,4.3-8.23,6.65    c-2.65,2.35-5.18,4.85-7.66,7.41c-1.51,1.57-2.98,3.17-4.44,4.8l-12.3-12.48l-1.37,1.26l10.91,19.72l2.1,3.8l3.81-3.88l0,0    c1.75-2.9,3.73-5.86,5.72-8.7c2.01-2.85,4.09-5.66,6.28-8.33c2.2-2.67,4.45-5.31,6.9-7.68c2.44-2.38,5.01-4.62,7.86-6.37    L407.26,1257.33z"/></g><g><path fill="#0b73b8" d="M1136.07,948.6c-91.67-3.6-191.92-60.27-191.92-60.27s-101.38,54.55-193.11,56.23     c0,0-32.62,281.56,195.29,382.31C1173.38,1230.19,1136.07,948.6,1136.07,948.6z"/><path fill="#fff" d="M1136.01,961.61c-88.53-3.47-185.35-58.2-185.35-58.2s-97.91,52.69-186.5,54.3     c0,0-37.94,271.86,182.17,369.16C1168.39,1234.21,1136.01,961.61,1136.01,961.61z"/><linearGradient id="f" x1="1017.245" x2="1017.245" y1="1108.722" y2="1492.303" gradientTransform="rotate(.596 18800.996 -5399.772)" gradientUnits="userSpaceOnUse"><stop offset="0" stop-color="#e4e4e4"/><stop offset=".157" stop-color="#e0e0e0"/><stop offset=".298" stop-color="#d5d5d5"/><stop offset=".435" stop-color="#c3c3c3"/><stop offset=".568" stop-color="#a9a9a9"/><stop offset=".698" stop-color="#878787"/><stop offset=".827" stop-color="#5e5e5e"/><stop offset=".952" stop-color="#2f2f2f"/><stop offset="1" stop-color="#1a1a1a"/></linearGradient><path fill="url(#f)" d="M1118.62,976.09     c-80.32-3.15-168.16-52.72-168.16-52.72s-88.83,47.72-169.2,49.18c0,0-34.42,246.23,165.29,334.36     C1148,1222.99,1118.62,976.09,1118.62,976.09z"/><path fill="#929191" d="M1107.69,985.02c-75.16-2.94-157.36-49.33-157.36-49.33S867.2,980.34,792,981.71     c0,0-32.21,230.41,154.67,312.88C1135.18,1216.06,1107.69,985.02,1107.69,985.02z" opacity=".54"/><linearGradient id="g" x1="810.434" x2="1090.668" y1="1119.483" y2="1119.483" gradientUnits="userSpaceOnUse"><stop offset="0" stop-color="#2aa7df"/><stop offset=".29" stop-color="#2aa4dd"/><stop offset=".468" stop-color="#2a9cd7"/><stop offset=".617" stop-color="#2b8dcc"/><stop offset=".749" stop-color="#2c79bd"/><stop offset=".87" stop-color="#2d5ea9"/><stop offset=".981" stop-color="#2e3e92"/><stop offset="1" stop-color="#2e388d"/></linearGradient><path fill="url(#g)" d="M1089.46,996.67     c-65.98-2.73-138.11-46.42-138.11-46.42s-73.01,42.17-139.03,43.51c0,0-28.43,217.3,135.57,294.95     C1113.44,1214.52,1089.46,996.67,1089.46,996.67z"/><linearGradient id="h" x1="810.446" x2="1088.344" y1="1115.14" y2="1115.14" gradientUnits="userSpaceOnUse"><stop offset="0" stop-color="#2aa7df"/><stop offset=".253" stop-color="#2b8fcd"/><stop offset=".783" stop-color="#2d53a1"/><stop offset="1" stop-color="#2e388d"/></linearGradient><path fill="url(#h)" d="M1087.14,996.71     c-65.43-2.65-136.97-44.82-136.97-44.82s-72.39,40.66-137.86,41.93c0,0-28.13,209.62,134.53,284.57     C1110.98,1206.87,1087.14,996.71,1087.14,996.71z"/><path fill="#282560" d="M1033.72,1210.11c-26.25,10.52-67.43,22.92-111.63-1.78c-60.24-33.67-97.17-156.55-110.65-205.59     c-3.16,40.72-7.21,209.94,135.4,275.65C985.13,1261.7,1013.19,1237.47,1033.72,1210.11z" opacity=".15"/><path fill="#fff" d="M1001.66,983.9c0,0,26.89,14.61,74.99,18.84c0,0,12.93,35.17-5.17,85.51     C1071.48,1088.25,1084.41,1032.73,1001.66,983.9z" opacity=".36"/><path fill="#fff" d="M1039.44,1042.66c-11.81,4.76-22.83,11.56-33.4,18.97c-10.62,7.41-20.54,15.83-30.3,24.48    c-9.75,8.67-19.08,17.85-28.22,27.29c-5.57,5.79-10.98,11.67-16.36,17.68l-45.3-45.97l-5.07,4.63l40.2,72.64l7.74,13.98    l14.05-14.28l0-0.01c6.45-10.67,13.75-21.59,21.09-32.05c7.4-10.5,15.06-20.83,23.14-30.7c8.09-9.84,16.41-19.54,25.43-28.29    c9-8.76,18.47-17.01,28.96-23.46L1039.44,1042.66z"/></g><g><path fill="#f7dab7" d="M803.74,1348.55c0,0,10.66,1.61,20.43,5.48c9.77,3.86,21.13,10.79,25.76-8.01     c4.67-18.95-6.05-14.49-12.22-13.16c-5.59,1.21-7.21,4.01-14.65,2.54c-7.71-1.53-18.88-2.26-18.88-2.26L803.74,1348.55z"/><path fill="#f79d1d" d="M824.71,1334.55c0,0-44.19-9.67-55.74-9.04c0,0-12.87-38.89-24.86-51.43     c-11.99-12.54-53.74-21.25-37.98,3.19c15.76,24.43,35.96,66.22,55.5,73.94c19.54,7.73,37.98-3.19,63.29,4.22L824.71,1334.55z"/><path fill="#f17d21" d="M824.86,1348.79l0.07,6.64c-25.32-7.41-43.75,3.5-63.29-4.22c-19.54-7.73-39.74-49.51-55.5-73.94     c-5.61-8.69-3.92-13.18,1.11-14.8c1.99,11.55,36.19,63.34,46.63,72.67c10.44,9.33,24.43,9.66,38.42,9.99     C802.23,1345.36,817.08,1347.55,824.86,1348.79z"/><path fill="#302d6d" d="M715.12,1667.59l-1.12,13.19c0,0,15.74,5.12,18.41,2.45c2.67-2.67,5.34-9.25,5.34-9.25l0-9.44    L715.12,1667.59z"/><polygon fill="#302d6d" points="654 1665.24 655.26 1679.5 676.37 1674.68 676.33 1661.86"/><path fill="#292967" d="M654.38,1424.17c0,0,0,37.39,2.67,58.75c2.67,21.36,8.01,74.78,5.34,90.8    c-2.45,14.73-9.42,79.08-10.53,97.69c-0.12,2.07,1.55,3.78,3.63,3.73c8.02-0.21,26.2-1.13,28.27-5.28    c2.67-5.34,16.02-85.46,18.69-101.48c2.67-16.02,8.01-29.38,8.01-29.38s2.67,21.36,2.67,37.39v94.47c0,2.32,2.01,4.11,4.31,3.83    c7.29-0.9,21.85-2.87,27.74-4.83c0,0,5.34-61.42,8.01-90.8c2.67-29.38,2.01-136.13-5.67-148.18    C739.84,1418.83,654.38,1424.17,654.38,1424.17z"/><path fill="#221d50" d="M649.78,1671.42c-0.12,2.07,1.55,3.78,3.63,3.73c1.74-0.05,3.98-0.13,6.41-0.27     c3.32-30.11,15.55-116.1,17.86-134.54c2-15.96-7.17-83.61-11.93-116.82c-8.11,0.31-13.44,0.65-13.44,0.65s0,37.39,2.67,58.75     c2.67,21.36,8.01,74.78,5.34,90.8C657.85,1588.46,650.89,1652.81,649.78,1671.42z"/><path fill="#221d50" d="M715.06,1478.92c-2.67,10.68-7.83,63.2-7.83,63.2v0c0.7-1.97,1.15-3.11,1.15-3.11s2.67,21.36,2.67,37.39     v94.47c0,2.32,2.01,4.11,4.31,3.83c6.09-0.75,17.23-2.25,24.17-3.86c-5.02-0.89-17.03-3.44-19.13-7.64     c-2.67-5.34,2.67-104.15,2.67-104.15C717.73,1540.35,715.06,1478.92,715.06,1478.92z"/><path fill="#f79d1d" d="M681.67,1255.93c-2.67,0-29.06,3.46-37.07,24.82c-8.01,21.36-0.31,28.59,5.03,49.95    c5.34,21.36,4.01,57.42,1.34,76.11c-2.67,18.69-2.67,34.72,18.69,32.05c21.36-2.67,64.1,0,72.11-5.34    c8.01-5.34,10.68-8.01,5.34-24.04c-5.34-16.02-10.68-45.4-8.01-66.77c2.67-21.37-2.67-58.75-13.35-72.11    C715.06,1257.26,681.67,1255.93,681.67,1255.93z"/><path fill="#fdcb8c" d="M677.54,1249.74c0,0,1.22,5.87-5.73,8c-2,6.4-0.76,11.46,12.53,16.88c18.83,7.68,28.53-1.81,23.61-14.26    C707.96,1260.36,684.08,1248.9,677.54,1249.74z"/><path fill="#f17d21" d="M749.87,1422.5c-17.19,5.02-60.68,2.39-74.87-2.34c-16.02-5.34-16.02-34.72-10.68-58.75    c5.34-24.04-5.71-51.6-5.71-51.6c-3.28-1.84-9.06-7.7-15.69-15.36c-0.27,11.65,3.21,22.23,6.72,36.25    c5.34,21.36,4.01,57.42,1.34,76.11c-2.67,18.69-2.67,34.72,18.69,32.05c21.36-2.67,64.1,0,72.11-5.34    C746.84,1430.14,749.76,1427.82,749.87,1422.5z"/><path fill="#f7dab7" d="M727.54,1205.52c0,0-0.08,18.29-0.08,26.3c0,8.01-0.82,24.11-13.73,26.78c-15.91,3.29-28.27-3.86-34.17-7.27    c0,0-19.25-16.76-16.58-22.1c2.67-5.34,5.34-21.36,21.37-21.36S727.54,1205.52,727.54,1205.52z"/><path fill="#221e51" d="M719.4,1189.03l-30.67-12.27c-8.05-3.22-17.35-0.88-22.68,5.96c-4.72,6.05-7.07,13.12-7.07,13.12l-5.34,5.34    c-5.34,5.34-5.34,13.35,0,24.04s26.71,26.71,26.71,26.71c2.67,0-5.34-8.01-8.01-10.68c-2.67-2.67-8.01-10.68-2.67-10.68    c5.34,0,10.68,10.68,10.68,10.68c2.67-8.01-2.67-26.71-2.67-26.71s16.02,2.67,37.39-2.67c21.36-5.34,24.04-18.69,24.04-18.69    c-2.29,0-4.58-0.22-6.68-0.53C727.95,1191.97,723.59,1190.7,719.4,1189.03z"/><path fill="#17183b" d="M652.3,1680.55c0,0,21.36-8.01,26.71-5.34c0,0,0,5.34,2.67,8.01c2.67,2.67,18.69,18.69,16.02,21.37    c-2.67,2.67-29.38,5.34-45.4,0V1680.55z"/><path fill="#17183b" d="M712.93,1680.7c-1.01-0.08-1.88,0.72-1.88,1.73v22.16c0,0-2.67,2.67,13.35,2.67s58.75,0,61.42-2.67    c2.67-2.67,0-5.34-13.35-10.68c-13.35-5.34-28.04-14.69-33.38-20.03c0,0-10.68,0-8.01,8.01    C731.08,1681.89,728.6,1681.89,712.93,1680.7z"/><path fill="#ffdbb3" d="M662.37,1400.68c0,0,1.5,7.2,4.87,8.76c3.03,1.41,1.94,0.97,3.28,1.48c0.46,0.18,1.34,0.59,1.34,0.59     s8.3,3.81,8.39,6.65c0.09,2.84-2.34,3.6-6.34,0.8c-4.01-2.8-9.15,2.59-4.01,8.53c5.14,5.94,9.07,14.35,5.87,14.63     c-3.19,0.28-6.61-5.41-6.61-5.41s-0.3,0.16,0.66,1.56c0.96,1.39,4.66,3.83,3.55,4.27c-1.12,0.44-8.13,3.79-15.88-3.47     c-7.75-7.26-7.2-14.47-7.38-17.44c-0.18-2.97-3.18-13.08-5.73-15.46C644.37,1406.18,658.35,1396.23,662.37,1400.68z"/><path fill="#f79d1d" d="M661.42,1263.53c0,0,10.09,13.74,1.18,34.62c-9.03,21.16-17.29,39.59-17.29,39.59l19.17,63.66l-20.83,10.2     c0,0-30.11-58.82-26.04-76.88C616.9,1326.32,620.77,1278.52,661.42,1263.53z"/><g><path fill="#24162d" d="M734.28,1350.39c0,0-5.06,6.35,6.58,7.91l48,15.35l4.28-6.97L734.28,1350.39z"/><path fill="#283037" d="M735.47,1349.4l71.98-30.7l-18.11,53.19l-53.65-17.51C733.36,1353.61,733.21,1350.36,735.47,1349.4z"/><path fill="#354049" d="M740.56,1348.98l64.8-27.64l-16.31,47.89l-48.3-15.76C738.65,1352.77,738.52,1349.84,740.56,1348.98z"/><path fill="#24162d" d="M813.32,1296.87l60.62-31.11c3.34-1.71,7.14,1.29,6.26,4.93L866,1329.02l-78.43,43.9l21.47-70.92     C809.71,1299.78,811.26,1297.93,813.32,1296.87z"/><path fill="#586a77" d="M814.61,1297.61l60.62-31.11c3.34-1.71,7.14,1.29,6.26,4.93l-14.19,58.32l-78.43,43.9l21.47-70.92     C811.01,1300.51,812.55,1298.66,814.61,1297.61z"/></g></g><g><path fill="#f5aa22" d="M995.03,718.26l-4.64-0.02l0.14-19.15c0.12-17.63-14.32-32.06-32.2-32.16    c-17.88-0.1-32.53,14.15-32.65,31.78l-0.14,19.29l-4.47-0.02c-4.03-0.01-7.32,2.55-7.35,5.72l-0.55,56.71    c-0.03,3.18,3.21,5.76,7.24,5.78l73.96,0.27c4.03,0.01,7.32-2.55,7.35-5.73l0.55-56.71C1002.3,720.86,999.06,718.28,995.03,718.26    z M958.25,678.72c11.19,0.07,20.23,9.18,20.15,20.31l-0.14,19.17l-40.6-0.15l0.14-19.26    C937.89,687.66,947.06,678.65,958.25,678.72z M963.67,764.79l-12.94-0.05l2.36-11.06c-1.95-1.45-3.22-3.88-3.19-6.63    c0.04-4.43,3.42-8.01,7.55-8c4.13,0.02,7.44,3.62,7.39,8.05c-0.03,2.75-1.34,5.17-3.32,6.61L963.67,764.79z"/><path fill="#ec7324" d="M958.34,666.94c-17.88-0.1-32.53,14.15-32.65,31.78l-0.14,18.95h12.12l0.14-18.88    c0.08-11.13,9.25-20.14,20.44-20.07c11.19,0.07,20.23,9.18,20.15,20.31l-0.13,18.64h12.12l0.13-18.57    C990.66,681.47,976.22,667.04,958.34,666.94z"/></g><g><path fill="#f79720" d="M650.15,754.91h114.73c2.23,0,4.04-1.81,4.04-4.04v-13.03c0-2.23-1.81-4.04-4.04-4.04H650.15    c-2.23,0-4.04,1.81-4.04,4.04v13.03C646.11,753.1,647.92,754.91,650.15,754.91z"/><path fill="#fab121" d="M568.58,743.74c0,23.33,18.91,42.25,42.25,42.25c23.33,0,42.25-18.91,42.25-42.25s-18.91-42.25-42.25-42.25    C587.5,701.49,568.58,720.4,568.58,743.74z M579.81,744.58c0-6.65,5.39-12.05,12.05-12.05c6.65,0,12.05,5.39,12.05,12.05    c0,6.65-5.39,12.05-12.05,12.05C585.21,756.63,579.81,751.23,579.81,744.58z"/><path fill="#ec7324" d="M573.84,743.74c0,20.43,16.56,37,37,37c20.43,0,37-16.56,37-37c0-20.43-16.56-37-37-37    C590.4,706.74,573.84,723.3,573.84,743.74z M579.81,744.58c0-6.65,5.39-12.05,12.05-12.05c6.65,0,12.05,5.39,12.05,12.05    c0,6.65-5.39,12.05-12.05,12.05C585.21,756.63,579.81,751.23,579.81,744.58z"/><polygon fill="#c85828" points="758.58 754.91 758.58 776.91 746.61 776.91 746.61 763.79 737.91 763.79 737.91 776.91 731.16 776.91 731.16 763.79 722.46 763.79 722.46 774.29 712.03 774.29 712.03 754.91"/><polygon fill="#a13f23" points="750.48 765.91 746.61 765.91 746.61 763.79 737.91 763.79 737.91 765.91 731.16 765.91 731.16 763.79 722.46 763.79 722.46 765.91 712.03 765.91 712.03 754.91 750.48 754.91"/><path fill="#fab121" d="M666.55,743.74h92.4c0.45,0,0.82-0.37,0.82-0.82v-2.65c0-0.45-0.37-0.82-0.82-0.82h-92.4    c-0.45,0-0.82,0.37-0.82,0.82v2.65C665.73,743.37,666.1,743.74,666.55,743.74z"/><path fill="#a13f23" d="M591.14,731.09c7.05,0,12.77,5.72,12.77,12.77c0,0.12-0.03,0.24-0.04,0.36c-0.2-6.48-5.48-11.69-12.01-11.69    c-6.65,0-12.05,5.39-12.05,12.05c0,6.53,5.2,11.82,11.69,12.01c-0.12,0-0.24,0.04-0.36,0.04c-7.05,0-12.77-5.72-12.77-12.77    C578.37,736.8,584.09,731.09,591.14,731.09z"/></g><g><path fill="#98d4f3" d="M1299.45,1100.31h-126.1c-3.76,0-6.81-3.05-6.81-6.81V874.29c0-3.76,3.05-6.81,6.81-6.81h126.1    c3.76,0,6.81,3.05,6.81,6.81v219.22C1306.26,1097.27,1303.21,1100.31,1299.45,1100.31z"/><path fill="#3984c5" d="M1267.28,952.41h-65.99c-2.69,0-4.87-2.18-4.87-4.87v-58.42c0-2.69,2.18-4.87,4.87-4.87h65.99     c2.69,0,4.87,2.18,4.87,4.87v58.42C1272.15,950.23,1269.97,952.41,1267.28,952.41z"/><path fill="#fff" d="M1263,948.29h-62c-2.53,0-4.57-2.05-4.57-4.57v-54.89c0-2.53,2.05-4.57,4.57-4.57h62     c2.53,0,4.57,2.05,4.57,4.57v54.89C1267.57,946.24,1265.53,948.29,1263,948.29z"/><path fill="#3984c5" d="M1245.72,913.73l-6.61,11.69l-13.72-24.39l-28.88,43.12c0.23,2.31,2.11,4.15,4.49,4.15h62     c2.53,0,4.57-2.05,4.57-4.57v-6.4L1245.72,913.73z"/><path fill="#3984c5" d="M1257.15,899.44c0,3.05-2.48,5.53-5.53,5.53c-3.05,0-5.53-2.48-5.53-5.53c0-3.05,2.48-5.53,5.53-5.53     C1254.68,893.91,1257.15,896.39,1257.15,899.44z"/><linearGradient id="i" x1="1188.172" x2="1262.4" y1="980.194" y2="980.194" gradientUnits="userSpaceOnUse"><stop offset="0" stop-color="#fff"/><stop offset=".026" stop-color="#fcfeff"/><stop offset=".278" stop-color="#def2fb"/><stop offset=".527" stop-color="#c9eaf9"/><stop offset=".77" stop-color="#bce6f7"/><stop offset="1" stop-color="#b8e4f7"/></linearGradient><rect width="74.23" height="14.09" x="1188.17" y="973.15" fill="url(#i)"/><linearGradient id="j" x1="1188.172" x2="1295.633" y1="1008.146" y2="1008.146" gradientUnits="userSpaceOnUse"><stop offset="0" stop-color="#fff"/><stop offset=".026" stop-color="#fcfeff"/><stop offset=".278" stop-color="#def2fb"/><stop offset=".527" stop-color="#c9eaf9"/><stop offset=".77" stop-color="#bce6f7"/><stop offset="1" stop-color="#b8e4f7"/></linearGradient><rect width="107.46" height="14.09" x="1188.17" y="1001.1" fill="url(#j)"/><linearGradient id="k" x1="1188.172" x2="1295.633" y1="1033.646" y2="1033.646" gradientUnits="userSpaceOnUse"><stop offset="0" stop-color="#fff"/><stop offset=".026" stop-color="#fcfeff"/><stop offset=".278" stop-color="#def2fb"/><stop offset=".527" stop-color="#c9eaf9"/><stop offset=".77" stop-color="#bce6f7"/><stop offset="1" stop-color="#b8e4f7"/></linearGradient><rect width="107.46" height="14.09" x="1188.17" y="1026.6" fill="url(#k)"/><linearGradient id="l" x1="1188.172" x2="1295.633" y1="1059.146" y2="1059.146" gradientUnits="userSpaceOnUse"><stop offset="0" stop-color="#fff"/><stop offset=".026" stop-color="#fcfeff"/><stop offset=".278" stop-color="#def2fb"/><stop offset=".527" stop-color="#c9eaf9"/><stop offset=".77" stop-color="#bce6f7"/><stop offset="1" stop-color="#b8e4f7"/></linearGradient><rect width="107.46" height="14.09" x="1188.17" y="1052.1" fill="url(#l)"/></g><g><path fill="#fbc596" d="M1747.81,949.16c-1.04-0.95-2.7-0.32-2.83,1.08c-0.1,1.13,0.05,2.54,0.85,4.07     c1.97,3.76,2.15,8.06,1.25,8.06c-0.9,0-3.4-8.06-6.45-7.44c-3.05,0.63,3.22,10.12,2.33,11.38c-0.9,1.25-4.3-6.63-5.91-5.2     c-1.61,1.43,3.76,9.67,3.22,10.75c-0.54,1.07-4.12-3.4-4.48-1.79c-0.36,1.61,0.52,4.84,5.9,8.24c0,0,8.07,5.73,12.01,1.43     C1757.44,975.67,1759.09,959.53,1747.81,949.16z"/><path fill="#df5fa2" d="M1709.63,948.7c6.09,11.59,21.08,10.19,21.08,10.19l0,0l-7.35,17.17c-18.8,5.29-36.11-12.44-36.11-12.44     c-13.97-13.65-17.75-86-17.75-86C1691.72,883.72,1703.54,937.11,1709.63,948.7z"/><path fill="#e1a36a" d="M1689.5,1204.81c0,0-1.38,5.04-1.29,10.45l-7.07-1.66l0.43-8.9L1689.5,1204.81z"/><path fill="#e1a36a" d="M1703.47,1218.9c-0.12,1.43-22.86,0.29-22.86,0.29l0.53-5.58l7.18,0.1     C1688.32,1213.7,1703.59,1217.46,1703.47,1218.9z"/><path fill="#2d313d" d="M1680.55,1219.14l0.36-3.11c0,0,1.32,1.75,8.27,1.85c6.13,0.09,6.85-2.1,6.85-2.1     c5.72,1.73,8.92,2.05,8.09,3.22C1703.04,1220.52,1680.55,1219.14,1680.55,1219.14z"/><path fill="#d28652" d="M1681.57,1204.7l-0.34,7.45c0,0,3.32-2.01,7.05,0.1c0,0,0.58-5.51,1.23-7.44L1681.57,1204.7z"/><path fill="#e1a36a" d="M1722.69,1205.28c0,0-1.38,5.04-1.29,10.45l-7.07-1.66l0.43-8.9L1722.69,1205.28z"/><path fill="#e1a36a" d="M1736.66,1219.36c-0.12,1.43-22.86,0.29-22.86,0.29l0.53-5.58l7.18,0.1     C1721.5,1214.17,1736.77,1217.93,1736.66,1219.36z"/><path fill="#2d313d" d="M1713.73,1219.61l0.36-3.11c0,0,1.32,1.75,8.27,1.85c6.13,0.09,6.85-2.1,6.85-2.1     c5.72,1.73,8.92,2.05,8.09,3.22C1736.22,1220.98,1713.73,1219.61,1713.73,1219.61z"/><path fill="#d28652" d="M1714.75,1205.16l-0.34,7.45c0,0,3.32-2.01,7.05,0.1c0,0,0.58-5.51,1.22-7.44L1714.75,1205.16z"/><path fill="#466291" d="M1680.41,1009.24c0,0-44.57,12.64-38.61,53.61l114.74,1.61c0,0,3.59-17.59-3.6-25.63    C1745.82,1030.86,1680.41,1009.24,1680.41,1009.24z"/><path fill="#466291" d="M1756.26,1064.46c0,0-15.76,44.95-32.68,144.81l-11.54-0.16c0,0-7.14-74.79-5.1-94.92    c2.04-20.13,17.25-51.75,17.25-51.75S1746.13,1057.75,1756.26,1064.46z"/><path fill="#3e5c86" d="M1680.41,1063.4l43.32,0.35c0,0-15.71,31.67-16.8,50.43c-1.09,18.76,5.1,94.92,5.1,94.92l4.81,0.07    c0,0-2.68-80.74-1.18-93.73c1.5-12.99,19.03-55.51,18.19-58.39c-0.84-2.88-54.86-18.85-54.86-18.85L1680.41,1063.4z"/><polygon fill="#3e5c86" points="1680.41 1009.24 1589.77 1007.97 1654.09 1041.57"/><path fill="#5675a9" d="M1589.77,1007.97c0,0-13.25,21.47-3.64,54.1l134.33,1.88c0,0,2.98-17.91-4.54-25.64    C1705.44,1027.54,1627.6,1017.5,1589.77,1007.97z"/><path fill="#5675a9" d="M1720.46,1063.96c0,0-14.65,32.28-29.29,144.85l-11.58-0.16c0,0-8.46-74.81-6.81-94.95    c1.64-20.14,14.8-50.2,14.8-50.2S1710.21,1057.25,1720.46,1063.96z"/><path fill="#466291" d="M1586.13,1062.08l101.44,1.42c0,0-13.66,33.03-14.8,50.2c-1.44,21.74,6.81,94.95,6.81,94.95l4.3,0.06    c0,0-5.12-75.15-2.92-93.97c2.2-18.82,18.9-55.08,16.2-58.97c-2.7-3.9-73.55-8.74-114.24-23.09    C1582.92,1032.68,1581.36,1049.77,1586.13,1062.08z"/><path fill="#eb7cb0" d="M1661.24,954.86c-0.28,19.74,5.99,32.04,20.71,54.47c-29.66,9.67-60.8,8.34-93.06-1.3    c7.18-19.04,17.93-34.54,29.88-48.03c0.08-0.09,0.19-0.22,0.26-0.29c0.14-0.16,0.26-0.3,0.35-0.4c0.1-0.11,0.25-0.28,0.25-0.28    c6.3-11.04-12.57-24.05-19.78-45.76c-7.35-22.12-3.84-33.56-3.84-33.56c27.93-12.05,44.24-14.7,75.64-1.33l0.92,19.15    c0,0,8.35,15.06,7.3,21.75C1678.83,925.97,1661.39,944.33,1661.24,954.86z"/><path fill="#f9b28a" d="M1617.95,869.7c-0.5,7.3,10.86,12.62,16.94,13.03c6.08,0.42,17.07-3.37,17.57-10.67      c0.5-7.3-7.31-6.54-16.85-7.19C1626.08,864.22,1618.45,862.4,1617.95,869.7z"/><path fill="#f9b28a" d="M1635.09,881.1L1635.09,881.1c6.66,0.46,12.48-4.62,12.93-11.28l1.45-21.19        c0.46-6.66-4.62-12.48-11.28-12.93l0,0c-6.66-0.46-12.48,4.62-12.93,11.28l-1.45,21.19        C1623.35,874.82,1628.43,880.64,1635.09,881.1z"/><path fill="#ba6549" d="M1648.47,863.29c0.43-6.22,1-14.65,1-14.65c0.46-6.66-4.62-12.48-11.28-12.93        c-6.66-0.46-12.48,4.62-12.93,11.28c0,0-0.28,4.04-0.66,9.64c0,0,4.44,6.1,10.5,7.69        C1642.19,866.18,1648.47,863.29,1648.47,863.29z"/><path fill="#e367a6" d="M1681.95,1009.33c-2.66-9.4-21.14-23.98-20.71-54.47c0.17-12.22,17.57-26.4,18.65-35.75    c-6.56,2.7-33.65,10.75-76.47,2.42c7.96,21.87,18.12,27.86,16.23,37.49c0,0-0.15,0.17-0.25,0.28c-0.09,0.1-0.21,0.24-0.35,0.4    c-0.07,0.08-0.18,0.2-0.26,0.29c-11.96,13.48-22.7,28.99-29.88,48.03c15.79,4.72,31.32,7.41,46.53,7.83    C1650.47,1016.04,1667.56,1014.02,1681.95,1009.33z"/><path fill="#d7549e" d="M1648.16,966.94c0-2.7,1.45-9.2,3-16.08c2.2-9.81,4.69-20.93,4.3-26.41c-0.66-9.32-9.66-35.87-10.04-37    l-1.24,0.42c0.09,0.27,9.32,27.52,9.97,36.67c0.38,5.3-2.1,16.31-4.27,26.04c-1.63,7.26-3.04,13.52-3.03,16.37    c0.02,16.57,3.44,31.9,10.64,47.81c0.46-0.06,0.92-0.07,1.38-0.14C1651.63,998.74,1648.18,983.46,1648.16,966.94z"/><path fill="#f2bd82" d="M1672.16,992.77c5.16,3.39,12.01,6.45,11.82,9.2c-0.4,5.99-9.27,6.96-12.96,4.39       c-3.51-2.8-5.3-9.91-5.3-9.91S1667.06,989.42,1672.16,992.77z"/><path fill="#f2bd82" d="M1692.54,1013.12c0.84-0.3-1.21-6.78-2.1-7.95c-0.71-0.94-1.38-2.18-9.41-6.93l1.71,5.94       c0,0,5.21,2.14,5.86,2.71C1689.24,1007.45,1689.72,1012.31,1692.54,1013.12z"/><path fill="#f2bd82" d="M1683.52,1021.61c1.24,0.23,1.32-6.22,1.04-7.72c-0.35-1.9,0.06-2.61-2.97-12.24l-2.37,5.53       c0,0,2.68,6.49,2.81,7.4C1682.17,1015.49,1681.91,1020.11,1683.52,1021.61z"/><path fill="#f2bd82" d="M1679.17,1021.27c1.19,0.23,1.27-5.97,1-7.41c-0.34-1.82,0.06-2.5-2.85-11.75l-2.27,5.31       c0,0,2.57,6.23,2.7,7.1S1677.62,1019.83,1679.17,1021.27z"/><path fill="#f2bd82" d="M1674.46,1017.3c1.01,0.19,1.07-5.05,0.85-6.27c-0.29-1.54,0.05-2.12-2.42-9.95l-1.92,4.49       c0,0,2.17,5.28,2.28,6.01C1673.36,1012.32,1673.14,1016.08,1674.46,1017.3z"/><path fill="#f2bd82" d="M1666.45,997.09l-8.87-1.76l2.21-9.12c0,0,5.12,2.13,12.37,6.56L1666.45,997.09z"/><path fill="#eb7cb0" d="M1596.57,879.91c-17.43,0.59-37.61,98.3-26.33,110.92c14.59,18.4,63.03,7.01,89.83,7.38     c0,0,4.74-4.87,5.52-10.11c-19.02-11.03-68.73-11.95-73.05-14.04C1588.22,971.96,1613.94,879.33,1596.57,879.91z"/><path fill="#df5fa2" d="M1572.59,986.56c-8.85-9.91,1.69-72.07,15.06-98.71c-14.44,23.48-26.78,92.5-17.41,102.98     c14.59,18.4,63.03,7.01,89.83,7.38c0,0,1.6-1.76,3.11-4.2C1636.19,993.88,1587.03,1004.78,1572.59,986.56z"/><polygon fill="#d7549e" points="1613.14 873.17 1633.55 894.04 1639.66 885.41 1645.31 890.39 1649.2 884.72 1655.91 891.9 1656.51 872.83 1644.32 874.04"/><polygon fill="#e367a6" points="1613.14 873.17 1622.62 859.01 1644.32 874.04 1634.3 889.01"/><polygon fill="#e367a6" points="1649.07 862.76 1644.32 874.04 1654.95 887.24 1656.51 872.83"/><g><polygon fill="#8293b3" points="1755.26 1019.11 1653.48 1014.32 1678.59 936.4 1780.37 941.19"/><rect width="6.13" height="149.97" x="1676.54" y="944.79" fill="#a4bfd6" transform="rotate(-87.358 1679.617 1019.828)"/><polygon fill="#a4bfd6" points="1755.33 1019.02 1655.89 1014.43 1680.51 938.04 1779.96 942.63"/><path fill="#8293b3" d="M1727.47,978.12c-1.43,3.71-5.96,6.56-10.12,6.36c-4.16-0.19-6.38-3.35-4.95-7.06     c1.43-3.71,5.96-6.56,10.12-6.36C1726.69,971.25,1728.9,974.41,1727.47,978.12z"/><polygon fill="#a4bfd6" points="1655.89 1014.43 1680.51 938.04 1779.96 942.63" opacity=".2"/><rect width="6.13" height="48.34" x="1625.78" y="993.27" fill="#8293b3" transform="rotate(-87.346 1628.91 1017.463)"/><rect width="2.69" height="18.68" x="1673.89" y="1007.35" fill="#8293b3" transform="rotate(-87.358 1675.333 1016.72)"/><rect width="2.69" height="15.98" x="1739.1" y="1011.71" fill="#8293b3" transform="rotate(-87.358 1740.53 1019.73)"/><polygon fill="#bad5ef" points="1681.12 939.05 1779.64 943.6 1779.96 942.63 1680.51 938.04 1655.89 1014.43 1656.81 1014.47"/></g><g><path d="M1642.41,775.13c-15.91-0.74-26.72,10.7-29.17,16.16c0,0-8.57,7.83-8.41,15.75c0.16,7.92-1.17,12.31-1.17,12.31     s-6.43,5.46-4.21,14.31c0,0-0.24-5.76,1.64-7.92c0,0-2.54,7.97,0.63,12.67c0,0-1.12-4.73,0.72-8.86c0,0,0.07,3.43,0.64,6.72     c0.58,3.29-0.45,16.26,8.12,21.9c0,0-2.37-3.12-3.09-6.94c0,0,1.84,2.47,3.3,4.69c1.45,2.22-0.3,10.84,2.26,17.13     c0,0-1.29-6.98-0.78-13.46c0,0,3.65,9.44,7.8,11.87c0,0-5.81-8.47-6.1-10.45c0,0,3.87,1.24,6.43,1.19c0,0-5.79-0.94-7.14-4.22     c-1.3-3.17-1.53-12.68-0.87-14.61c0.39,1.22,1.56,2.67,2.57,2.9c0.03,1.13,0.07,4.07-0.4,6.27c0,0,1.01-0.55,1.62-2.28     c0,0,0.57,2.76-0.02,5.55c0,0,1.36-2.4,1.21-3.85c0,0,2.3,1.58,4.92,4.23l35.66-67.6     C1658.59,788.58,1658.32,775.87,1642.41,775.13z"/><path d="M1655.68,856.66c0,0,11.12-15.79,10.34-25.36c0,0,1.02,9.28-0.7,13.26c0,0,3.16-3.77,2.71-8.32     c0,0,5.99,11.98-3.48,24.39c0,0,3.32-1.67,4.36-3.67c0,0-1.7,4.85-3.11,6.48c0,0,4.13-3.29,5.12-8c0,0-0.27,4.45-1.77,7.32     c0,0,7.81-11.02,1.41-25.83c0,0,1.59-4.48,1.54-7.07c0,0,0.54,3.32-0.59,6.43c0,0,4.34-4.9,2.12-14.11c0,0,1.27-2.62,1.23-4.59     c0,0,0.29,2.59,0.15,7.77c0,0,0.67-2.48,0.74-5.2c0,0,0.38,0.98,0.1,5.06c0,0,1.32-4.22,0-8.15c0,0,1.29-5.33-1.42-9.35     c-2.71-4.02-10.22-13.87-10.22-13.87s5.95,4.2,6.73,7.03c0,0-1.27-3.68-2.49-4.89c0,0,1.33,0.59,2.32,2.05     c0,0,0.2-2.23-6.71-5.92c0,0-1.4-3.92-5.49-4.95c0,0-1.85-8.6-16.72-9.3c-14.87-0.7-24.97,9.99-27.26,15.1c0,0-8,7.32-7.86,14.72     c0.15,7.4-1.09,11.5-1.09,11.5s-6.01,5.1-3.93,13.37c0,0-0.23-5.39,1.53-7.4c0,0-2.37,7.45,0.59,11.84c0,0-1.05-4.42,0.68-8.28     c0,0,0.06,3.21,0.6,6.28c0.54,3.08-0.42,15.19,7.59,20.47c0,0-2.21-2.92-2.88-6.49c0,0,1.72,2.31,3.08,4.38     c1.36,2.07-0.28,10.13,2.11,16.01c0,0-1.21-6.52-0.73-12.58c0,0,3.41,8.82,7.29,11.09c0,0-5.43-7.92-5.7-9.76     c0,0,3.62,1.16,6.01,1.12c0,0-5.41-0.88-6.67-3.94c-1.26-3.06-1.44-12.44-0.75-13.81c0,0,1.35,1.7,2.32,2.42     c0,0,0.19,3.7-0.36,6.3c0,0,0.95-0.51,1.52-2.13c0,0,0.53,2.58-0.02,5.18c0,0,1.27-2.25,1.13-3.6c0,0-0.47,2.94,2.21,5.23     C1623.94,857.2,1634.11,837.95,1655.68,856.66z"/><path fill="#f5f6f3" d="M1672.72,800.15c0.11,0.29,0.17,0.46,0.17,0.46C1672.84,800.46,1672.79,800.31,1672.72,800.15z"/><path d="M1677.91,816.19c0,0,1.33-5.29-1.45-9.28c-2.79-3.99-10.49-13.75-10.49-13.75s5.5,3.75,6.74,6.52      c-0.39-1.01-1.41-3.46-2.39-4.4c0,0,1.37,0.59,2.38,2.03c0,0,0.2-2.21-6.89-5.86c0,0-3.04-3.26-7.24-4.28c0,0,0.01,0.02,0,0      l-32.02,66.27c2.59,2.33,5.51,4.71,5.51,4.71l-0.41-0.95c2.57,3.02,12.64,4.59,17.72,3.43c0,0,0,0,0,0      c0.17-0.04,0.33-0.08,0.48-0.12c0,0,0,0,0,0c0.15-0.04,0.3-0.09,0.45-0.14c1.68-0.59,3.58-1.86,5.34-3.44      c0.23-0.2,0.45-0.41,0.67-0.62c0.15-0.14,0.3-0.29,0.45-0.44c0,0,0.01-0.01,0.01-0.01c0.56-0.56,1.1-1.16,1.61-1.76      c0.03-0.04,0.06-0.08,0.1-0.11c1.61-1.94,2.84-3.99,3.28-5.71c3.08-5.36,6.5-12.64,6.05-17.98c0,0,1.04,9.2-0.73,13.15      c0,0,3.25-3.74,2.79-8.26c0,0,6.14,11.88-3.59,24.19c0,0,3.42-1.66,4.49-3.64c0,0-1.75,4.81-3.2,6.43c0,0,4.25-3.27,5.26-7.94      c0,0-0.28,4.41-1.83,7.26c0,0,8.04-10.93,1.47-25.62c0,0,1.64-4.44,1.59-7.01c0,0,0.56,3.29-0.61,6.38c0,0,4.46-4.86,2.19-14      c0,0,1.3-2.6,1.27-4.55c0,0,0.3,2.57,0.15,7.71c0,0,0.69-2.46,0.76-5.16c0,0,0.39,0.97,0.1,5.02      C1677.91,824.27,1679.26,820.08,1677.91,816.19z"/><path fill="#f9b28a" d="M1654.71,800.85c0,0,4.08,5.61,6.97,7.5c0,0,1.33,9.49,2.23,16.46c0.9,6.97-1.13,17.4-2.35,21.55     c-1.23,4.17-7.54,10.69-11.54,13.51c-5.77,4.05-15.47,1.16-19.15-1.47l-2.34-1.48c0,0-7.62-5-9.46-14.34l-0.85-7.94     c0,0-1.54-1-1.71-3.07c-0.17-2.07,0.51-6.35,0.51-6.35s20.15-20.84,26.57-24.08c6.41-3.23,10.27-0.72,10.27-0.72l3.27-1.75     C1657.11,798.67,1655.45,799.8,1654.71,800.85z"/><path fill="#6d3d18" d="M1607.83,819.85c0,0,9.62,1.77,16.59-4.8c6.97-6.57,10.31-9.62,10.31-9.62s-3.11,1.31-4.64,2.95     c0,0,5.57-7.4,10.98-9.4c5.41-2,14.24-2.17,14.24-2.17s-5.75-1.01-8.41-0.46c0,0,8.5-2.03,12.03,0.39c0,0-6.09-6.1-16.42-2.42     c-10.33,3.69-17.6,13.91-23.78,16.03c0,0,5.34-0.85,7.29-2.63c0,0-7.94,7.42-12.55,7.55c0,0,6.98,0.27,13.2-6.2     C1626.66,809.08,1620.78,819.92,1607.83,819.85z"/><path fill="#6d3d18" d="M1614.52,805.7c0,0,16.41-16.01,33.2-15.84c0,0-4.54-0.91-8.87-0.32c0,0,4.31-1.58,7.37-1.39     c0,0-7-2.23-14.46,2.9c0,0,7.65-7,15.88-5.29c0,0-11.24-6.87-28.29,5.91c0,0,12.05-6.37,15.96-5.04c0,0-8.68,2.41-11.9,6.08     c0,0,4.38-2.45,6-2.48c0,0-10.09,6.17-14.94,12.49c0,0,8.33-6.89,10.19-7.05C1624.66,795.67,1615.6,803.32,1614.52,805.7z"/><path fill="#d6a083" d="M1615.54,833.57c0,0-3.29-1.3-2.7,0.55c0.6,1.86,3.97,2.71,2.78,3.72c-1.19,1.01-1.74,1.62-0.43,1.99     c1.31,0.38,0-0.56-0.78,0.54c-0.78,1.1,1.63,4.6,3.01,3.92c1.39-0.68,1.06-3.16-0.09-4.51     C1617.34,839.79,1617.33,834.43,1615.54,833.57z"/><path fill="#6d3d18" d="M1659.72,801.48c0,0,3.57,2.63,5.41,6.93c0,0-0.28-2.34-0.77-3.5c0,0,2.83,0.97,4.14,9.9     c0,0,0.83-2.02,0.29-5.53c0,0,3.74,2.77,4.64,9.29c0,0-0.52-8.79-4.95-13.39c-4.43-4.6-6.52-9.49-6.52-9.49s0.67,4.21,1.76,5.83     c0,0-2.28-2.42-2.29-3.24l0.63,2.45l-1.33-1.97c0,0,0.75,2.57,1.48,3.61C1662.2,802.37,1661.52,801.95,1659.72,801.48z"/></g></g></svg>