<svg xmlns="http://www.w3.org/2000/svg" enable-background="new 0 0 2000 2000" viewBox="57.861 518.745 1874.453 1221.561"><path fill="#dee5ef" d="M275.47,1645.64c0,0-256.42-255.81-55.58-533.28c200.84-277.47,505.09-120.3,505.09-120.3   s-71.37-278.56,368.57-391.45c439.94-112.88,696.32,274.27,555.82,461.79c0,0,350.63,234.23,118.09,583.24H275.47z"/><path fill="#b2d7f2" d="M1784.51,1646.5c0,29.56-350.25,38.28-782.31,38.28s-782.31-8.72-782.31-38.28   c0-29.56,350.25-37.97,782.31-37.97S1784.51,1616.94,1784.51,1646.5z"/><path fill="#171533" d="M1690.15,1645.38h-366.28c-6.33,0-11.47-5.13-11.47-11.47v-523.48c0-6.33,5.13-11.47,11.47-11.47h366.28    c6.33,0,11.47,5.13,11.47,11.47v523.48C1701.62,1640.25,1696.48,1645.38,1690.15,1645.38z"/><rect width="220.56" height="10.89" x="1396.73" y="1608.53" fill="#434165"/><rect width="364.16" height="107.28" x="1324.93" y="1238.35" fill="#1f1b3f"/><rect width="342.74" height="90.33" x="1335.64" y="1246.83" fill="#434165"/><path fill="#1f1b3f" d="M1658.57,1291.99c0,13.81-11.05,25-24.68,25s-24.68-11.19-24.68-25c0-13.81,11.05-25,24.68-25     S1658.57,1278.19,1658.57,1291.99z"/><rect width="13.09" height="49.6" x="1376.1" y="1267.19" fill="#1f1b3f"/><rect width="13.09" height="49.6" x="1401.09" y="1267.19" fill="#1f1b3f"/><rect width="13.09" height="49.6" x="1426.09" y="1267.19" fill="#1f1b3f"/><rect width="13.09" height="49.6" x="1451.08" y="1267.19" fill="#1f1b3f"/><rect width="13.09" height="49.6" x="1476.07" y="1267.19" fill="#1f1b3f"/><rect width="14.48" height="14.72" x="1508.8" y="1284.63" fill="#1f1b3f"/><rect width="14.48" height="14.72" x="1533.69" y="1284.63" fill="#1f1b3f"/><rect width="14.48" height="14.72" x="1558.58" y="1284.63" fill="#1f1b3f"/><rect width="364.16" height="107.28" x="1324.93" y="1116.94" fill="#1f1b3f"/><rect width="342.74" height="90.33" x="1335.64" y="1125.42" fill="#434165"/><path fill="#1f1b3f" d="M1658.57,1170.58c0,13.81-11.05,25-24.68,25s-24.68-11.19-24.68-25c0-13.81,11.05-25,24.68-25     S1658.57,1156.77,1658.57,1170.58z"/><rect width="13.09" height="49.6" x="1376.1" y="1145.78" fill="#1f1b3f"/><rect width="13.09" height="49.6" x="1401.09" y="1145.78" fill="#1f1b3f"/><rect width="13.09" height="49.6" x="1426.09" y="1145.78" fill="#1f1b3f"/><rect width="13.09" height="49.6" x="1451.08" y="1145.78" fill="#1f1b3f"/><rect width="13.09" height="49.6" x="1476.07" y="1145.78" fill="#1f1b3f"/><rect width="14.48" height="14.72" x="1508.8" y="1163.22" fill="#1f1b3f"/><rect width="14.48" height="14.72" x="1533.69" y="1163.22" fill="#1f1b3f"/><rect width="14.48" height="14.72" x="1558.58" y="1163.22" fill="#1f1b3f"/><rect width="364.16" height="107.28" x="1324.93" y="1358.82" fill="#1f1b3f"/><rect width="342.74" height="90.33" x="1335.64" y="1367.3" fill="#434165"/><path fill="#1f1b3f" d="M1658.57,1412.46c0,13.81-11.05,25-24.68,25s-24.68-11.19-24.68-25c0-13.81,11.05-25,24.68-25     S1658.57,1398.66,1658.57,1412.46z"/><rect width="13.09" height="49.6" x="1376.1" y="1387.66" fill="#1f1b3f"/><rect width="13.09" height="49.6" x="1401.09" y="1387.66" fill="#1f1b3f"/><rect width="13.09" height="49.6" x="1426.09" y="1387.66" fill="#1f1b3f"/><rect width="13.09" height="49.6" x="1451.08" y="1387.66" fill="#1f1b3f"/><rect width="13.09" height="49.6" x="1476.07" y="1387.66" fill="#1f1b3f"/><rect width="14.48" height="14.72" x="1508.8" y="1405.1" fill="#1f1b3f"/><rect width="14.48" height="14.72" x="1533.69" y="1405.1" fill="#1f1b3f"/><rect width="14.48" height="14.72" x="1558.58" y="1405.1" fill="#1f1b3f"/><g><rect width="364.16" height="107.28" x="1324.93" y="1479.29" fill="#1f1b3f"/><rect width="342.74" height="90.33" x="1335.64" y="1487.77" fill="#434165"/><ellipse cx="1633.89" cy="1532.93" fill="#1f1b3f" rx="24.68" ry="25"/><rect width="13.09" height="49.6" x="1376.1" y="1508.13" fill="#1f1b3f"/><rect width="13.09" height="49.6" x="1401.09" y="1508.13" fill="#1f1b3f"/><rect width="13.09" height="49.6" x="1426.09" y="1508.13" fill="#1f1b3f"/><rect width="13.09" height="49.6" x="1451.08" y="1508.13" fill="#1f1b3f"/><rect width="13.09" height="49.6" x="1476.07" y="1508.13" fill="#1f1b3f"/><rect width="14.48" height="14.72" x="1508.8" y="1525.57" fill="#1f1b3f"/><rect width="14.48" height="14.72" x="1533.69" y="1525.57" fill="#1f1b3f"/><rect width="14.48" height="14.72" x="1558.58" y="1525.57" fill="#1f1b3f"/></g><g><path fill="#284e9d" d="M824.62,1429.83c0,0,15.69,53.82-24.65,190.82h262.17c0,0-47.06-53.82-35.85-190.82H824.62z"/><path fill="#efa5c8" d="M1338,1371.62H506.2V936.16c0-24.68,20-44.68,44.68-44.68h742.44c24.68,0,44.68,20,44.68,44.68V1371.62z"/><path fill="#1b478e" d="M1389.3,1447.35H476.21c-11.77,0-21.31-9.54-21.31-21.31V878.31c0-11.77,9.54-21.31,21.31-21.31h887.13h6.41     c10.8,0,19.56,8.76,19.56,19.56V1447.35L1389.3,1447.35z"/><path fill="#4bc0ee" d="M463.86,1435.1V887.37c0-11.77,9.54-21.31,21.31-21.31h887.13h6.41c3.11,0,6.01,0.79,8.62,2.09     c-3.15-6.57-9.81-11.14-17.59-11.14h-6.41H476.2c-11.77,0-21.31,9.54-21.31,21.31v547.73c0,8.17,4.65,15.18,11.4,18.76     C464.79,1441.88,463.86,1438.61,463.86,1435.1z"/><linearGradient id="a" x1="506.199" x2="1337.998" y1="1142.242" y2="1142.242" gradientUnits="userSpaceOnUse"><stop offset="0" stop-color="#fff"/><stop offset=".1" stop-color="#f0f9fd"/><stop offset=".299" stop-color="#d7f0fb"/><stop offset=".509" stop-color="#c6e9f9"/><stop offset=".734" stop-color="#bbe5f7"/><stop offset="1" stop-color="#b8e4f7"/></linearGradient><polygon fill="url(#a)" points="1338 1393.01 506.2 1393.01 506.2 891.48 1338 891.48 1338 891.48 1338 1393.01"/><polygon fill="#fff" points="506.2 891.48 506.2 1363.94 1338 901.57 1338 891.48 1338 891.48" opacity=".34"/><path fill="#1d478e" d="M666.02,1597.39l-19.2,44.61c-0.69,1.6,0.49,3.38,2.23,3.38h534.91c1.74,0,2.91-1.78,2.22-3.38l-19.2-44.61     c-0.38-0.89-1.26-1.46-2.22-1.46h-496.5C667.28,1595.92,666.4,1596.5,666.02,1597.39z"/><path fill="#28316e" d="M944.43,1418.56c0,7.58-5.99,13.73-13.37,13.73s-13.37-6.15-13.37-13.73c0-7.58,5.99-13.73,13.37-13.73     S944.43,1410.98,944.43,1418.56z"/><path fill="none" d="M1338,1371.62H506.2V936.16c0-24.68,20-44.68,44.68-44.68h742.44c24.68,0,44.68,20,44.68,44.68V1371.62z"/><polygon fill="#f2b143" points="648.13 1050.1 551.8 1050.1 551.8 973.75 551.8 967.26 570.95 967.26 579.81 973.75 648.13 973.75"/><rect width="89.83" height="4.54" x="555.16" y="980.92" fill="#bed7eb"/><path fill="#bed7eb" d="M650.07,1050.1H547.86c-1.61,0-2.92-1.31-2.92-2.92v-58.8c0-1.61,1.31-2.92,2.92-2.92h102.21       c1.61,0,2.92,1.31,2.92,2.92v58.8C652.99,1048.79,651.68,1050.1,650.07,1050.1z"/><path fill="#fff" d="M646.79,1046.32h-99.06c-1.54,0-2.79-1.25-2.79-2.79v-55.28c0-1.54,1.25-2.79,2.79-2.79h99.06       c1.54,0,2.79,1.25,2.79,2.79v55.28C649.58,1045.07,648.33,1046.32,646.79,1046.32z"/><rect width="108.05" height="6.76" x="544.94" y="1059.03" fill="#bed7eb"/><path fill="#fff" d="M608.19,1016.59l-1.15,0l0.03-4.82c0.03-4.43-3.54-8.06-7.96-8.09c-4.42-0.03-8.04,3.56-8.07,8l-0.03,4.85     l-1.11,0c-1,0-1.81,0.64-1.82,1.44l-0.13,14.26c-0.01,0.8,0.79,1.45,1.79,1.45l18.28,0.07c1,0,1.81-0.64,1.82-1.44l0.13-14.27     C609.99,1017.24,609.18,1016.59,608.19,1016.59z M599.1,1006.64c2.77,0.02,5,2.31,4.98,5.11l-0.03,4.82l-10.04-0.04l0.03-4.84     C594.06,1008.89,596.33,1006.63,599.1,1006.64z M600.44,1028.29l-3.2-0.01l0.58-2.78c-0.48-0.37-0.8-0.98-0.79-1.67     c0.01-1.11,0.85-2.02,1.87-2.01c1.02,0,1.84,0.91,1.83,2.03c-0.01,0.69-0.33,1.3-0.82,1.66L600.44,1028.29z"/><polygon fill="#f2b143" points="782.92 1050.1 686.59 1050.1 686.59 973.75 686.59 967.26 705.74 967.26 714.6 973.75 782.92 973.75"/><rect width="89.83" height="4.54" x="689.94" y="980.92" fill="#bed7eb"/><path fill="#bed7eb" d="M784.85,1050.1H682.65c-1.61,0-2.92-1.31-2.92-2.92v-58.8c0-1.61,1.31-2.92,2.92-2.92h102.21       c1.61,0,2.92,1.31,2.92,2.92v58.8C787.78,1048.79,786.47,1050.1,784.85,1050.1z"/><path fill="#fff" d="M781.57,1046.32h-99.06c-1.54,0-2.79-1.25-2.79-2.79v-55.28c0-1.54,1.25-2.79,2.79-2.79h99.06       c1.54,0,2.79,1.25,2.79,2.79v55.28C784.36,1045.07,783.11,1046.32,781.57,1046.32z"/><rect width="108.05" height="6.76" x="679.73" y="1059.03" fill="#bed7eb"/><path fill="#fff" d="M742.97,1016.59l-1.15,0l0.03-4.82c0.03-4.43-3.54-8.06-7.96-8.09c-4.42-0.03-8.04,3.56-8.07,8l-0.03,4.85     l-1.1,0c-1,0-1.81,0.64-1.82,1.44l-0.14,14.26c-0.01,0.8,0.79,1.45,1.79,1.45l18.28,0.07c1,0,1.81-0.64,1.82-1.44l0.13-14.27     C744.77,1017.24,743.97,1016.59,742.97,1016.59z M733.88,1006.64c2.77,0.02,5,2.31,4.98,5.11l-0.03,4.82l-10.04-0.04l0.03-4.84     C728.85,1008.89,731.11,1006.63,733.88,1006.64z M735.22,1028.29l-3.2-0.01l0.58-2.78c-0.48-0.37-0.8-0.98-0.79-1.67     c0.01-1.11,0.85-2.02,1.87-2.01c1.02,0,1.84,0.91,1.83,2.03c-0.01,0.69-0.33,1.3-0.82,1.66L735.22,1028.29z"/><g><polygon fill="#f2b143" points="648.13 1181.54 551.8 1181.54 551.8 1105.19 551.8 1098.7 570.95 1098.7 579.81 1105.19 648.13 1105.19"/><rect width="89.83" height="4.54" x="555.16" y="1112.36" fill="#bed7eb"/><path fill="#bed7eb" d="M650.07,1181.54H547.86c-1.61,0-2.92-1.31-2.92-2.92v-58.8c0-1.61,1.31-2.92,2.92-2.92h102.21       c1.61,0,2.92,1.31,2.92,2.92v58.8C652.99,1180.24,651.68,1181.54,650.07,1181.54z"/><path fill="#fff" d="M646.79,1177.76h-99.06c-1.54,0-2.79-1.25-2.79-2.79v-55.28c0-1.54,1.25-2.79,2.79-2.79h99.06       c1.54,0,2.79,1.25,2.79,2.79v55.28C649.58,1176.51,648.33,1177.76,646.79,1177.76z"/><rect width="108.05" height="6.76" x="544.94" y="1190.47" fill="#bed7eb"/><path fill="#fff" d="M608.19,1148.03l-1.15,0l0.03-4.82c0.03-4.43-3.54-8.06-7.96-8.09c-4.42-0.03-8.04,3.56-8.07,8l-0.03,4.85     l-1.11,0c-1,0-1.81,0.64-1.82,1.44l-0.13,14.26c-0.01,0.8,0.79,1.45,1.79,1.45l18.28,0.07c1,0,1.81-0.64,1.82-1.44l0.13-14.27     C609.99,1148.69,609.18,1148.04,608.19,1148.03z M599.1,1138.09c2.77,0.02,5,2.31,4.98,5.11l-0.03,4.82l-10.04-0.04l0.03-4.84     C594.06,1140.34,596.33,1138.07,599.1,1138.09z M600.44,1159.74l-3.2-0.01l0.58-2.78c-0.48-0.36-0.8-0.98-0.79-1.67     c0.01-1.11,0.85-2.02,1.87-2.01c1.02,0,1.84,0.91,1.83,2.03c-0.01,0.69-0.33,1.3-0.82,1.66L600.44,1159.74z"/></g><g><polygon fill="#f2b143" points="782.92 1181.54 686.59 1181.54 686.59 1105.19 686.59 1098.7 705.74 1098.7 714.6 1105.19 782.92 1105.19"/><rect width="89.83" height="4.54" x="689.94" y="1112.36" fill="#bed7eb"/><path fill="#bed7eb" d="M784.85,1181.54H682.65c-1.61,0-2.92-1.31-2.92-2.92v-58.8c0-1.61,1.31-2.92,2.92-2.92h102.21       c1.61,0,2.92,1.31,2.92,2.92v58.8C787.78,1180.24,786.47,1181.54,784.85,1181.54z"/><path fill="#fff" d="M781.57,1177.76h-99.06c-1.54,0-2.79-1.25-2.79-2.79v-55.28c0-1.54,1.25-2.79,2.79-2.79h99.06       c1.54,0,2.79,1.25,2.79,2.79v55.28C784.36,1176.51,783.11,1177.76,781.57,1177.76z"/><rect width="108.05" height="6.76" x="679.73" y="1190.47" fill="#bed7eb"/><path fill="#fff" d="M742.97,1148.03l-1.15,0l0.03-4.82c0.03-4.43-3.54-8.06-7.96-8.09c-4.42-0.03-8.04,3.56-8.07,8l-0.03,4.85     l-1.1,0c-1,0-1.81,0.64-1.82,1.44l-0.14,14.26c-0.01,0.8,0.79,1.45,1.79,1.45l18.28,0.07c1,0,1.81-0.64,1.82-1.44l0.13-14.27     C744.77,1148.69,743.97,1148.04,742.97,1148.03z M733.88,1138.09c2.77,0.02,5,2.31,4.98,5.11l-0.03,4.82l-10.04-0.04l0.03-4.84     C728.85,1140.34,731.11,1138.07,733.88,1138.09z M735.22,1159.74l-3.2-0.01l0.58-2.78c-0.48-0.36-0.8-0.98-0.79-1.67     c0.01-1.11,0.85-2.02,1.87-2.01c1.02,0,1.84,0.91,1.83,2.03c-0.01,0.69-0.33,1.3-0.82,1.66L735.22,1159.74z"/></g><g><polygon fill="#f2b143" points="648.13 1312.99 551.8 1312.99 551.8 1236.63 551.8 1230.15 570.95 1230.15 579.81 1236.63 648.13 1236.63"/><rect width="89.83" height="4.54" x="555.16" y="1243.81" fill="#bed7eb"/><path fill="#bed7eb" d="M650.07,1312.99H547.86c-1.61,0-2.92-1.31-2.92-2.92v-58.8c0-1.61,1.31-2.92,2.92-2.92h102.21       c1.61,0,2.92,1.31,2.92,2.92v58.8C652.99,1311.68,651.68,1312.99,650.07,1312.99z"/><path fill="#fff" d="M646.79,1309.21h-99.06c-1.54,0-2.79-1.25-2.79-2.79v-55.28c0-1.54,1.25-2.79,2.79-2.79h99.06       c1.54,0,2.79,1.25,2.79,2.79v55.28C649.58,1307.96,648.33,1309.21,646.79,1309.21z"/><rect width="108.05" height="6.76" x="544.94" y="1321.91" fill="#bed7eb"/><path fill="#fff" d="M608.19,1279.48l-1.15,0l0.03-4.82c0.03-4.44-3.54-8.06-7.96-8.09c-4.42-0.03-8.04,3.56-8.07,8l-0.03,4.85     l-1.11,0c-1,0-1.81,0.64-1.82,1.44l-0.13,14.27c-0.01,0.8,0.79,1.45,1.79,1.45l18.28,0.07c1,0,1.81-0.64,1.82-1.44l0.13-14.27     C609.99,1280.13,609.18,1279.48,608.19,1279.48z M599.1,1269.53c2.77,0.02,5,2.31,4.98,5.11l-0.03,4.82l-10.04-0.04l0.03-4.85     C594.06,1271.78,596.33,1269.52,599.1,1269.53z M600.44,1291.18l-3.2-0.01l0.58-2.78c-0.48-0.37-0.8-0.98-0.79-1.67     c0.01-1.11,0.85-2.02,1.87-2.01c1.02,0,1.84,0.91,1.83,2.03c-0.01,0.69-0.33,1.3-0.82,1.66L600.44,1291.18z"/></g><g><polygon fill="#f2b143" points="782.92 1312.99 686.59 1312.99 686.59 1236.63 686.59 1230.15 705.74 1230.15 714.6 1236.63 782.92 1236.63"/><rect width="89.83" height="4.54" x="689.94" y="1243.81" fill="#bed7eb"/><path fill="#bed7eb" d="M784.85,1312.99H682.65c-1.61,0-2.92-1.31-2.92-2.92v-58.8c0-1.61,1.31-2.92,2.92-2.92h102.21       c1.61,0,2.92,1.31,2.92,2.92v58.8C787.78,1311.68,786.47,1312.99,784.85,1312.99z"/><path fill="#fff" d="M781.57,1309.21h-99.06c-1.54,0-2.79-1.25-2.79-2.79v-55.28c0-1.54,1.25-2.79,2.79-2.79h99.06       c1.54,0,2.79,1.25,2.79,2.79v55.28C784.36,1307.96,783.11,1309.21,781.57,1309.21z"/><rect width="108.05" height="6.76" x="679.73" y="1321.91" fill="#bed7eb"/><path fill="#fff" d="M742.97,1279.48l-1.15,0l0.03-4.82c0.03-4.44-3.54-8.06-7.96-8.09c-4.42-0.03-8.04,3.56-8.07,8l-0.03,4.85     l-1.1,0c-1,0-1.81,0.64-1.82,1.44l-0.14,14.27c-0.01,0.8,0.79,1.45,1.79,1.45l18.28,0.07c1,0,1.81-0.64,1.82-1.44l0.13-14.27     C744.77,1280.13,743.97,1279.48,742.97,1279.48z M733.88,1269.53c2.77,0.02,5,2.31,4.98,5.11l-0.03,4.82l-10.04-0.04l0.03-4.85     C728.85,1271.78,731.11,1269.52,733.88,1269.53z M735.22,1291.18l-3.2-0.01l0.58-2.78c-0.48-0.37-0.8-0.98-0.79-1.67     c0.01-1.11,0.85-2.02,1.87-2.01c1.02,0,1.84,0.91,1.83,2.03c-0.01,0.69-0.33,1.3-0.82,1.66L735.22,1291.18z"/></g><g><polygon fill="#f2b143" points="1161.64 1050.1 1065.31 1050.1 1065.31 973.75 1065.31 967.26 1084.46 967.26 1093.32 973.75 1161.64 973.75"/><rect width="89.83" height="4.54" x="1068.67" y="980.92" fill="#bed7eb"/><path fill="#bed7eb" d="M1163.58,1050.1h-102.21c-1.61,0-2.92-1.31-2.92-2.92v-58.8c0-1.61,1.31-2.92,2.92-2.92h102.21        c1.61,0,2.92,1.31,2.92,2.92v58.8C1166.5,1048.79,1165.19,1050.1,1163.58,1050.1z"/><path fill="#fff" d="M1160.3,1046.32h-99.06c-1.54,0-2.79-1.25-2.79-2.79v-55.28c0-1.54,1.25-2.79,2.79-2.79h99.06        c1.54,0,2.79,1.25,2.79,2.79v55.28C1163.09,1045.07,1161.84,1046.32,1160.3,1046.32z"/><rect width="108.05" height="6.76" x="1058.45" y="1059.03" fill="#bed7eb"/><path fill="#fff" d="M1121.7,1016.59l-1.15,0l0.03-4.82c0.03-4.43-3.54-8.06-7.96-8.09c-4.42-0.03-8.04,3.56-8.07,8l-0.03,4.85      l-1.11,0c-1,0-1.81,0.64-1.82,1.44l-0.13,14.26c-0.01,0.8,0.79,1.45,1.79,1.45l18.28,0.07c1,0,1.81-0.64,1.82-1.44l0.13-14.27      C1123.49,1017.24,1122.69,1016.59,1121.7,1016.59z M1112.6,1006.64c2.77,0.02,5,2.31,4.98,5.11l-0.03,4.82l-10.04-0.04      l0.03-4.84C1107.57,1008.89,1109.84,1006.63,1112.6,1006.64z M1113.94,1028.29l-3.2-0.01l0.58-2.78      c-0.48-0.37-0.8-0.98-0.79-1.67c0.01-1.11,0.85-2.02,1.87-2.01c1.02,0,1.84,0.91,1.83,2.03c-0.01,0.69-0.33,1.3-0.82,1.66      L1113.94,1028.29z"/><polygon fill="#f2b143" points="1296.43 1050.1 1200.09 1050.1 1200.09 973.75 1200.09 967.26 1219.25 967.26 1228.11 973.75 1296.43 973.75"/><rect width="89.83" height="4.54" x="1203.45" y="980.92" fill="#bed7eb"/><path fill="#bed7eb" d="M1298.36,1050.1h-102.21c-1.61,0-2.92-1.31-2.92-2.92v-58.8c0-1.61,1.31-2.92,2.92-2.92h102.21        c1.61,0,2.92,1.31,2.92,2.92v58.8C1301.28,1048.79,1299.98,1050.1,1298.36,1050.1z"/><path fill="#fff" d="M1295.08,1046.32h-99.06c-1.54,0-2.79-1.25-2.79-2.79v-55.28c0-1.54,1.25-2.79,2.79-2.79h99.06        c1.54,0,2.79,1.25,2.79,2.79v55.28C1297.87,1045.07,1296.62,1046.32,1295.08,1046.32z"/><rect width="108.05" height="6.76" x="1193.23" y="1059.03" fill="#bed7eb"/><path fill="#fff" d="M1256.48,1016.59l-1.15,0l0.03-4.82c0.03-4.43-3.54-8.06-7.96-8.09c-4.42-0.03-8.04,3.56-8.07,8l-0.03,4.85      l-1.11,0c-1,0-1.81,0.64-1.82,1.44l-0.14,14.26c-0.01,0.8,0.79,1.45,1.79,1.45l18.28,0.07c1,0,1.81-0.64,1.82-1.44l0.13-14.27      C1258.28,1017.24,1257.48,1016.59,1256.48,1016.59z M1247.39,1006.64c2.77,0.02,5,2.31,4.98,5.11l-0.03,4.82l-10.04-0.04      l0.03-4.84C1242.35,1008.89,1244.62,1006.63,1247.39,1006.64z M1248.73,1028.29l-3.2-0.01l0.58-2.78      c-0.48-0.37-0.8-0.98-0.79-1.67c0.01-1.11,0.85-2.02,1.87-2.01c1.02,0,1.84,0.91,1.83,2.03c-0.01,0.69-0.33,1.3-0.82,1.66      L1248.73,1028.29z"/><g><polygon fill="#f2b143" points="1161.64 1181.54 1065.31 1181.54 1065.31 1105.19 1065.31 1098.7 1084.46 1098.7 1093.32 1105.19 1161.64 1105.19"/><rect width="89.83" height="4.54" x="1068.67" y="1112.36" fill="#bed7eb"/><path fill="#bed7eb" d="M1163.58,1181.54h-102.21c-1.61,0-2.92-1.31-2.92-2.92v-58.8c0-1.61,1.31-2.92,2.92-2.92h102.21        c1.61,0,2.92,1.31,2.92,2.92v58.8C1166.5,1180.24,1165.19,1181.54,1163.58,1181.54z"/><path fill="#fff" d="M1160.3,1177.76h-99.06c-1.54,0-2.79-1.25-2.79-2.79v-55.28c0-1.54,1.25-2.79,2.79-2.79h99.06        c1.54,0,2.79,1.25,2.79,2.79v55.28C1163.09,1176.51,1161.84,1177.76,1160.3,1177.76z"/><rect width="108.05" height="6.76" x="1058.45" y="1190.47" fill="#bed7eb"/><path fill="#fff" d="M1121.7,1148.03l-1.15,0l0.03-4.82c0.03-4.43-3.54-8.06-7.96-8.09c-4.42-0.03-8.04,3.56-8.07,8l-0.03,4.85      l-1.11,0c-1,0-1.81,0.64-1.82,1.44l-0.13,14.26c-0.01,0.8,0.79,1.45,1.79,1.45l18.28,0.07c1,0,1.81-0.64,1.82-1.44l0.13-14.27      C1123.49,1148.69,1122.69,1148.04,1121.7,1148.03z M1112.6,1138.09c2.77,0.02,5,2.31,4.98,5.11l-0.03,4.82l-10.04-0.04      l0.03-4.84C1107.57,1140.34,1109.84,1138.07,1112.6,1138.09z M1113.94,1159.74l-3.2-0.01l0.58-2.78      c-0.48-0.36-0.8-0.98-0.79-1.67c0.01-1.11,0.85-2.02,1.87-2.01c1.02,0,1.84,0.91,1.83,2.03c-0.01,0.69-0.33,1.3-0.82,1.66      L1113.94,1159.74z"/></g><g><polygon fill="#f2b143" points="1296.43 1181.54 1200.09 1181.54 1200.09 1105.19 1200.09 1098.7 1219.25 1098.7 1228.11 1105.19 1296.43 1105.19"/><rect width="89.83" height="4.54" x="1203.45" y="1112.36" fill="#bed7eb"/><path fill="#bed7eb" d="M1298.36,1181.54h-102.21c-1.61,0-2.92-1.31-2.92-2.92v-58.8c0-1.61,1.31-2.92,2.92-2.92h102.21        c1.61,0,2.92,1.31,2.92,2.92v58.8C1301.28,1180.24,1299.98,1181.54,1298.36,1181.54z"/><path fill="#fff" d="M1295.08,1177.76h-99.06c-1.54,0-2.79-1.25-2.79-2.79v-55.28c0-1.54,1.25-2.79,2.79-2.79h99.06        c1.54,0,2.79,1.25,2.79,2.79v55.28C1297.87,1176.51,1296.62,1177.76,1295.08,1177.76z"/><rect width="108.05" height="6.76" x="1193.23" y="1190.47" fill="#bed7eb"/><path fill="#fff" d="M1256.48,1148.03l-1.15,0l0.03-4.82c0.03-4.43-3.54-8.06-7.96-8.09c-4.42-0.03-8.04,3.56-8.07,8l-0.03,4.85      l-1.11,0c-1,0-1.81,0.64-1.82,1.44l-0.14,14.26c-0.01,0.8,0.79,1.45,1.79,1.45l18.28,0.07c1,0,1.81-0.64,1.82-1.44l0.13-14.27      C1258.28,1148.69,1257.48,1148.04,1256.48,1148.03z M1247.39,1138.09c2.77,0.02,5,2.31,4.98,5.11l-0.03,4.82l-10.04-0.04      l0.03-4.84C1242.35,1140.34,1244.62,1138.07,1247.39,1138.09z M1248.73,1159.74l-3.2-0.01l0.58-2.78      c-0.48-0.36-0.8-0.98-0.79-1.67c0.01-1.11,0.85-2.02,1.87-2.01c1.02,0,1.84,0.91,1.83,2.03c-0.01,0.69-0.33,1.3-0.82,1.66      L1248.73,1159.74z"/></g><g><polygon fill="#f2b143" points="1161.64 1312.99 1065.31 1312.99 1065.31 1236.63 1065.31 1230.15 1084.46 1230.15 1093.32 1236.63 1161.64 1236.63"/><rect width="89.83" height="4.54" x="1068.67" y="1243.81" fill="#bed7eb"/><path fill="#bed7eb" d="M1163.58,1312.99h-102.21c-1.61,0-2.92-1.31-2.92-2.92v-58.8c0-1.61,1.31-2.92,2.92-2.92h102.21        c1.61,0,2.92,1.31,2.92,2.92v58.8C1166.5,1311.68,1165.19,1312.99,1163.58,1312.99z"/><path fill="#fff" d="M1160.3,1309.21h-99.06c-1.54,0-2.79-1.25-2.79-2.79v-55.28c0-1.54,1.25-2.79,2.79-2.79h99.06        c1.54,0,2.79,1.25,2.79,2.79v55.28C1163.09,1307.96,1161.84,1309.21,1160.3,1309.21z"/><rect width="108.05" height="6.76" x="1058.45" y="1321.91" fill="#bed7eb"/><path fill="#fff" d="M1121.7,1279.48l-1.15,0l0.03-4.82c0.03-4.44-3.54-8.06-7.96-8.09c-4.42-0.03-8.04,3.56-8.07,8l-0.03,4.85      l-1.11,0c-1,0-1.81,0.64-1.82,1.44l-0.13,14.27c-0.01,0.8,0.79,1.45,1.79,1.45l18.28,0.07c1,0,1.81-0.64,1.82-1.44l0.13-14.27      C1123.49,1280.13,1122.69,1279.48,1121.7,1279.48z M1112.6,1269.53c2.77,0.02,5,2.31,4.98,5.11l-0.03,4.82l-10.04-0.04      l0.03-4.85C1107.57,1271.78,1109.84,1269.52,1112.6,1269.53z M1113.94,1291.18l-3.2-0.01l0.58-2.78      c-0.48-0.37-0.8-0.98-0.79-1.67c0.01-1.11,0.85-2.02,1.87-2.01c1.02,0,1.84,0.91,1.83,2.03c-0.01,0.69-0.33,1.3-0.82,1.66      L1113.94,1291.18z"/></g><g><polygon fill="#f2b143" points="1296.43 1312.99 1200.09 1312.99 1200.09 1236.63 1200.09 1230.15 1219.25 1230.15 1228.11 1236.63 1296.43 1236.63"/><rect width="89.83" height="4.54" x="1203.45" y="1243.81" fill="#bed7eb"/><path fill="#bed7eb" d="M1298.36,1312.99h-102.21c-1.61,0-2.92-1.31-2.92-2.92v-58.8c0-1.61,1.31-2.92,2.92-2.92h102.21        c1.61,0,2.92,1.31,2.92,2.92v58.8C1301.28,1311.68,1299.98,1312.99,1298.36,1312.99z"/><path fill="#fff" d="M1295.08,1309.21h-99.06c-1.54,0-2.79-1.25-2.79-2.79v-55.28c0-1.54,1.25-2.79,2.79-2.79h99.06        c1.54,0,2.79,1.25,2.79,2.79v55.28C1297.87,1307.96,1296.62,1309.21,1295.08,1309.21z"/><rect width="108.05" height="6.76" x="1193.23" y="1321.91" fill="#bed7eb"/><path fill="#fff" d="M1256.48,1279.48l-1.15,0l0.03-4.82c0.03-4.44-3.54-8.06-7.96-8.09c-4.42-0.03-8.04,3.56-8.07,8l-0.03,4.85      l-1.11,0c-1,0-1.81,0.64-1.82,1.44l-0.14,14.27c-0.01,0.8,0.79,1.45,1.79,1.45l18.28,0.07c1,0,1.81-0.64,1.82-1.44l0.13-14.27      C1258.28,1280.13,1257.48,1279.48,1256.48,1279.48z M1247.39,1269.53c2.77,0.02,5,2.31,4.98,5.11l-0.03,4.82l-10.04-0.04      l0.03-4.85C1242.35,1271.78,1244.62,1269.52,1247.39,1269.53z M1248.73,1291.18l-3.2-0.01l0.58-2.78      c-0.48-0.37-0.8-0.98-0.79-1.67c0.01-1.11,0.85-2.02,1.87-2.01c1.02,0,1.84,0.91,1.83,2.03c-0.01,0.69-0.33,1.3-0.82,1.66      L1248.73,1291.18z"/></g></g><g><path fill="#108bc8" d="M1091.68,1014.41c-80.78-2.33-169.59-51.54-169.59-51.54s-88.81,49.21-169.59,51.54     c0,0-32.07,249.42,169.59,336.45C1123.76,1263.83,1091.68,1014.41,1091.68,1014.41z"/><path fill="#6ba2d6" d="M1091.68,1012.04c-80.78-2.22-169.59-49.18-169.59-49.18s-88.81,46.95-169.59,49.18     c0,0-32.07,237.98,169.59,321.01C1123.76,1250.03,1091.68,1012.04,1091.68,1012.04z"/><linearGradient id="b" x1="922.098" x2="922.098" y1="980.315" y2="1315.612" gradientUnits="userSpaceOnUse"><stop offset="0" stop-color="#e4e4e4"/><stop offset=".157" stop-color="#e0e0e0"/><stop offset=".298" stop-color="#d5d5d5"/><stop offset=".435" stop-color="#c3c3c3"/><stop offset=".568" stop-color="#a9a9a9"/><stop offset=".698" stop-color="#878787"/><stop offset=".827" stop-color="#5e5e5e"/><stop offset=".952" stop-color="#2f2f2f"/><stop offset="1" stop-color="#1a1a1a"/></linearGradient><path fill="url(#b)" d="M1075.96,1024.86     c-73.29-2.01-153.86-44.54-153.86-44.54s-80.58,42.53-153.86,44.54c0,0-29.1,215.55,153.86,290.76     C1105.06,1240.41,1075.96,1024.86,1075.96,1024.86z"/><path fill="#929191" d="M1066.07,1032.77c-68.58-1.89-143.97-41.68-143.97-41.68s-75.4,39.79-143.97,41.68     c0,0-27.23,201.7,143.97,272.07C1093.3,1234.47,1066.07,1032.77,1066.07,1032.77z" opacity=".54"/><path fill="#fff" d="M1058.5,1036.55c-64.97-1.82-136.41-40.31-136.41-40.31s-71.43,38.49-136.41,40.31     c0,0-25.8,195.08,136.41,263.14C1084.3,1231.62,1058.5,1036.55,1058.5,1036.55z"/><path fill="#5287c6" d="M1047.44,1043.17c-59.7-1.71-125.34-37.92-125.34-37.92s-65.64,36.2-125.34,37.92     c0,0-23.7,183.49,125.34,247.51C1071.14,1226.66,1047.44,1043.17,1047.44,1043.17z"/><path fill="#2f509f" d="M922.1,1005.25v285.43c149.05-64.02,125.34-247.51,125.34-247.51     C987.74,1041.45,922.1,1005.25,922.1,1005.25z"/><path fill="#1f1b3f" d="M948.78,1117.5c0.18-16.08-11.61-29.23-26.33-29.35c-14.72-0.13-26.8,12.8-26.98,28.88     c-0.11,9.98,4.4,18.83,11.35,24.14l-8.48,40.11l46.16,0.41l-7.59-40.25C943.97,1136.25,948.67,1127.48,948.78,1117.5z"/></g></g><g><rect width="227.15" height="225.95" x="294.57" y="1419.43" fill="#171533"/><rect width="170.44" height="7.31" x="322.93" y="1623.44" fill="#434165"/><rect width="281.41" height="72.06" x="267.44" y="1378.46" fill="#1f1b3f"/><rect width="264.86" height="60.67" x="275.72" y="1384.15" fill="#434165"/><path fill="#1f1b3f" d="M509.94,1414.49c0,9.27-7.42,16.79-16.57,16.79c-9.15,0-16.57-7.52-16.57-16.79     c0-9.27,7.42-16.79,16.57-16.79C502.52,1397.7,509.94,1405.21,509.94,1414.49z"/><rect width="10.12" height="33.31" x="306.99" y="1397.83" fill="#1f1b3f"/><rect width="10.12" height="33.31" x="326.3" y="1397.83" fill="#1f1b3f"/><rect width="10.12" height="33.31" x="345.61" y="1397.83" fill="#1f1b3f"/><rect width="10.12" height="33.31" x="364.93" y="1397.83" fill="#1f1b3f"/><rect width="10.12" height="33.31" x="384.24" y="1397.83" fill="#1f1b3f"/><rect width="11.19" height="9.89" x="409.53" y="1409.55" fill="#1f1b3f"/><rect width="11.19" height="9.89" x="428.76" y="1409.55" fill="#1f1b3f"/><rect width="11.19" height="9.89" x="448" y="1409.55" fill="#1f1b3f"/><rect width="281.41" height="72.06" x="267.44" y="1459.37" fill="#1f1b3f"/><rect width="264.86" height="60.67" x="275.72" y="1465.07" fill="#434165"/><ellipse cx="493.37" cy="1495.4" fill="#1f1b3f" rx="16.57" ry="16.79"/><rect width="10.12" height="33.31" x="306.99" y="1478.75" fill="#1f1b3f"/><rect width="10.12" height="33.31" x="326.3" y="1478.75" fill="#1f1b3f"/><rect width="10.12" height="33.31" x="345.61" y="1478.75" fill="#1f1b3f"/><rect width="10.12" height="33.31" x="364.93" y="1478.75" fill="#1f1b3f"/><rect width="10.12" height="33.31" x="384.24" y="1478.75" fill="#1f1b3f"/><rect width="11.19" height="9.89" x="409.53" y="1490.46" fill="#1f1b3f"/><rect width="11.19" height="9.89" x="428.76" y="1490.46" fill="#1f1b3f"/><rect width="11.19" height="9.89" x="448" y="1490.46" fill="#1f1b3f"/><g><rect width="281.41" height="72.06" x="267.44" y="1540.29" fill="#1f1b3f"/><rect width="264.86" height="60.67" x="275.72" y="1545.99" fill="#434165"/><path fill="#1f1b3f" d="M509.94,1576.32c0,9.27-7.42,16.79-16.57,16.79c-9.15,0-16.57-7.52-16.57-16.79     c0-9.27,7.42-16.79,16.57-16.79C502.52,1559.53,509.94,1567.05,509.94,1576.32z"/><rect width="10.12" height="33.31" x="306.99" y="1559.66" fill="#1f1b3f"/><rect width="10.12" height="33.31" x="326.3" y="1559.66" fill="#1f1b3f"/><rect width="10.12" height="33.31" x="345.61" y="1559.66" fill="#1f1b3f"/><rect width="10.12" height="33.31" x="364.93" y="1559.66" fill="#1f1b3f"/><rect width="10.12" height="33.31" x="384.24" y="1559.66" fill="#1f1b3f"/><rect width="11.19" height="9.89" x="409.53" y="1571.38" fill="#1f1b3f"/><rect width="11.19" height="9.89" x="428.76" y="1571.38" fill="#1f1b3f"/><rect width="11.19" height="9.89" x="448" y="1571.38" fill="#1f1b3f"/></g></g><g><path fill="#1b478e" d="M1234.53,720.12c-2.51-27.6-29.98-49.34-63.51-49.34c-33.38,0-60.74,21.54-63.48,48.96h-13.4    c-23.79,0-43.08,17.71-43.08,39.56l0,0c0,21.85,19.29,39.56,43.08,39.56h134.68c23.79,0,43.08-17.71,43.08-39.56l0,0    C1271.9,739.23,1255.62,722.69,1234.53,720.12z"/><path fill="#fff" d="M1225.39,717.66c-2.39-26.22-28.48-46.88-60.35-46.88c-31.72,0-57.72,20.47-60.31,46.52h-12.74    c-22.61,0-40.93,16.83-40.93,37.59l0,0c0,20.76,18.33,37.59,40.93,37.59h127.97c22.61,0,40.93-16.83,40.93-37.59l0,0    C1260.9,735.82,1245.43,720.1,1225.39,717.66z"/><path fill="#223368" d="M1169.28,740.32l-30.85,36.23c-0.44,0.52,0.07,1.19,0.92,1.19h61.7c0.85,0,1.36-0.67,0.92-1.19       l-30.85-36.23C1170.7,739.82,1169.7,739.82,1169.28,740.32z"/><rect width="32.73" height="43.03" x="1153.84" y="773.53" fill="#223368"/></g><g><path fill="#1b478e" d="M419.24,1073.88c-1.4-15.41-16.74-27.56-35.47-27.56c-18.64,0-33.93,12.03-35.45,27.34h-7.49    c-13.29,0-24.06,9.89-24.06,22.09l0,0c0,12.2,10.77,22.09,24.06,22.09h75.22c13.29,0,24.06-9.89,24.06-22.09l0,0    C440.11,1084.55,431.02,1075.31,419.24,1073.88z"/><path fill="#fff" d="M414.14,1072.5c-1.33-14.65-15.91-26.18-33.7-26.18c-17.71,0-32.24,11.43-33.69,25.98h-7.11    c-12.63,0-22.86,9.4-22.86,20.99l0,0c0,11.59,10.24,20.99,22.86,20.99h71.47c12.63,0,22.86-9.4,22.86-20.99l0,0    C433.97,1082.64,425.33,1073.87,414.14,1072.5z"/><path fill="#223368" d="M382.8,1085.16l-17.23,20.23c-0.25,0.29,0.04,0.67,0.51,0.67h34.46c0.47,0,0.76-0.37,0.51-0.67       l-17.23-20.23C383.59,1084.88,383.03,1084.88,382.8,1085.16z"/><rect width="18.28" height="24.03" x="374.17" y="1103.7" fill="#223368"/></g><g><path fill="#141533" d="M709.87,1630.33c0,0-5.08,33.74,0.49,36.7c5.57,2.96,64.94-1.2,64.94-1.2s5.85-8.32-2.54-11.35    c-8.39-3.03-36.13-12.19-38.8-23.55L709.87,1630.33z"/><path fill="#191841" d="M760.04,1631.58c0,0-5.08,33.74,0.49,36.7c5.57,2.96,64.94-1.2,64.94-1.2s5.85-8.32-2.54-11.35    c-8.39-3.03-36.13-12.19-38.8-23.55L760.04,1631.58z"/><path fill="#f7dab7" d="M728.37,1362.39c0,0,3.35,5.85,7.88,10.56c4.54,4.7,15.41,6.58,4.84,14.51c-10.65,7.99-13.22-0.38-14.53-3.8    c-1.96-5.15,1.36-2.69-2.04-6.22c-3.4-3.53-5.56-10.53-5.56-10.53L728.37,1362.39z"/><path fill="#f16f24" d="M736.19,1368.63c0,0-19.54-31.37-26.71-37.71c0,0,17.83-30.25,18.99-44.57    c1.16-14.32-17.58-43.7-24.29-20.23c-6.71,23.47-22.14,59.68-15.75,75.57c6.39,15.89,24.29,20.23,34.27,39.29L736.19,1368.63z"/><path fill="#f79d1d" d="M726.99,1377.05l-4.29,3.93c-9.98-19.06-27.88-23.4-34.27-39.29c-6.39-15.89,9.04-52.1,15.75-75.57    c2.39-8.35,6.3-9.99,10.3-8.02c-6.37,7.92-20.13,58.13-20.11,69.66c0.02,11.53,7.99,19.86,15.96,28.19    C715.99,1361.88,723.26,1371.8,726.99,1377.05z"/><path fill="#ffdbb3" d="M775.37,1187.31c0,0,5.5,18.58,5.22,29.86c-0.28,11.28-17.42,19.32-17.42,19.32l-0.25,9.87l-33.33-0.83    c0,0,0.65-5.35,0.19-7.62C729.32,1235.65,755.27,1188.13,775.37,1187.31z"/><path fill="#221d50" d="M736.3,1633.77l-28.21-0.71c0,0,4.65-73.26,16.85-109.65c0,0-8.78-43.97-10.89-72.24    c0,0-8.11-14.31-4.37-50.91l79.05-0.85c0,0,17.42,93.57,19.81,110.57c2.4,16.99-19.53,103.94-20.1,126.5l-31.03-0.78    c0,0,4.94-84.55,16.85-109.65c0,0-13.54-22.92-21.65-37.23c0,0,4.51,45.27,1.48,53.66    C751.07,1550.88,738.45,1604.19,736.3,1633.77z"/><path fill="#f79d1d" d="M781.82,1337.15c3.24-16.85,6.77-38.26,6.77-38.26s0.64-6.26,0.73-6.26c0-0.06-0.4-6.8-0.4-6.86    c0.2-30.82-19.14-33.59-19.14-33.59s0.02-0.01,0.04-0.02l-5.48-5.76l-39.49-0.99c0,0-19.89,5.15-23.34,30.46    c-3.46,25.31,12.41,68.05,9.17,84.9c-3.24,16.85-10.44,43.52-1.62,47.25c8.82,3.73,68.12,2.39,79.68-8.61    C800.29,1388.42,778.57,1354.01,781.82,1337.15z"/><path fill="#f16f24" d="M781.82,1337.15c2.7-14.02,5.58-31.16,6.48-36.53c0.02-0.38,0.04-0.77,0.06-1.14    c0.02-0.31,0.03-0.61,0.05-0.92c0.31-5.7,0.46-10.24,0.53-12.3c-0.02-0.28-0.03-0.49-0.03-0.5c0.02-3.46-0.23-6.52-0.65-9.31    c-7.32-0.52-14,5.73-14,5.73s-4.3,3.67-5.01,10.27c-2.66,24.77-1.48,34.9-1.84,49.17c-0.36,14.27,9.7,14.52,9.06,40.21    c-0.35,13.87-16.2,22.34-30.72,27.22c7.63-0.47,15.23-1.21,22.14-2.22c9.47-1.69,17.33-4.11,20.82-7.43    C800.29,1388.42,778.57,1354.01,781.82,1337.15z"/><path fill="#181841" d="M754.1,1542.49c3.03-8.39-1.48-53.66-1.48-53.66c0.81,1.42,1.68,2.95,2.57,4.51v0    c1.83-22.32-14.24-45.73-14.24-45.73c10.08,48.23,3.67,79.12-2.54,101.54c-6.21,22.42-11.6,84.38-11.6,84.38l9.49,0.24    C738.45,1604.19,751.07,1550.88,754.1,1542.49z"/><path fill="#191841" d="M787.5,1166.55c-4.34,4.12-15.62,3.84-15.62,3.84c5.71-2.68,5.85-8.32,5.85-8.32    c-8.6,5.43-23.94-2.01-40.86-2.43c-14.66-0.37-21.17,12.18-22.65,15.54c-0.3,0.68-0.61,1.34-0.96,1.99l-5.3,9.97    c-3.24,16.85,9.06,32.68,14.63,35.65c5.57,2.96,2.54,11.35,5.29,14.24c2.75,2.89,26.76,2.08,32.54-3.42    c5.78-5.5,3.74-36.6,3.74-36.6c5.64,0.14,8.18,11.49,8.18,11.49c3.02-8.37-2.27-15.83-2.3-15.87    C782.78,1181.6,787.5,1166.55,787.5,1166.55z"/><path fill="#ffdbb3" d="M860.74,1206.09c0,0,5.44-4.27,5.35-7.75c-0.08-3.14,0-2.04-0.12-3.38c-0.04-0.46-0.06-1.38-0.06-1.38     s-0.25-8.58,2.11-9.84c2.36-1.26,4.01,0.47,3.31,5.01c-0.69,4.55,6,6.63,8.86-0.17c2.87-6.8,8.32-13.62,9.88-11.04     c1.57,2.57-1.8,7.82-1.8,7.82s0.26,0.19,1.04-1.2c0.77-1.39,1.29-5.52,2.12-4.77c0.84,0.76,6.58,5.27,3.69,14.83     c-2.89,9.55-9.2,12.1-11.62,13.49c-2.42,1.39-9.7,8.13-10.64,11.27C872.88,1218.97,858.67,1211.33,860.74,1206.09z"/><path fill="#f79d1d" d="M745.57,1264.01c0,0,7.37-14.23,28.69-15.42c21.59-1.21,40.56-1.92,40.56-1.92l45.66-42.66l17.27,13.31     c0,0-37.03,49.87-53.95,53.96C817.02,1275.37,775.13,1292.02,745.57,1264.01z"/><path fill="#f16f24" d="M874.16,1214.55c-11.9,15.54-49.34,48.25-75.33,51.47c0,0-13.03,2.05-20.55,13.34     c21.37,2.75,41.06-5.39,45.53-8.08c1.97-0.48,4.21-1.58,6.63-3.14l-0.02-0.01c18.4-11.86,47.33-50.81,47.33-50.81L874.16,1214.55     z"/></g><g><path fill="#fccaa6" d="M1563.71,924.81l-36.61-1.23c-1.4-0.05-2.41-1.32-2.08-2.62l6.79-26.69c0.25-0.97,1.17-1.64,2.22-1.61     l25.2,0.85c1.06,0.04,1.94,0.78,2.11,1.78l4.62,27.07C1566.18,923.67,1565.1,924.85,1563.71,924.81z"/><path fill="#cc9494" d="M1561.57,895.29c-0.16-1-1.01-1.74-2.02-1.78l-11.51-0.39l-12.63-0.42c-1-0.03-1.89,0.64-2.13,1.61     l-1.75,7.13l-0.3,1.24c6,3.45,17.8,7.7,20.95,9.43c3.03,1.68,7.44-1.43,11.27-5.19L1561.57,895.29z"/><path fill="#fccaa6" d="M1514.36,871.61c0,0-5.47-3.3-5.86,2.68c-0.39,5.98,4.55,13.85,9.48,10.98     C1522.91,882.4,1514.36,871.61,1514.36,871.61z"/><path fill="#13162d" d="M1515.11,880.46c0,0-3.52-3.02-3.22-5.45C1512.17,872.59,1508.01,877.56,1515.11,880.46z"/><path fill="#fccaa6" d="M1575.35,870.81c0,0,5.38-3.45,5.93,2.52c0.55,5.97-4.16,13.97-9.17,11.24     C1567.1,881.84,1575.35,870.81,1575.35,870.81z"/><path fill="#13162d" d="M1574.85,879.68c0,0,3.43-3.12,3.07-5.53C1577.56,871.73,1581.87,876.58,1574.85,879.68z"/><path fill="#fccaa6" d="M1511.87,855.53c0,0,2.97,36.6,19.88,46.46c17.12,9.99,26.96,4.52,34.15-5.29     c7.19-9.8,13.46-36.66,11.81-40.77C1576.07,851.81,1518.71,843.14,1511.87,855.53z"/><path fill="#cc9494" d="M1534.93,898.57c-14.99-8.74-19.03-38.47-19.75-45.13c-1.74,0.56-2.91,1.25-3.3,2.09     c0,0,3.12,37.25,20.04,47.11c16.15,9.41,25.66,4.44,32.74-4.3C1557.87,904.61,1548.79,906.65,1534.93,898.57z"/><path fill="#13162d" d="M1525.2,864.09c0,0,5.99-10.86,14.6-1.5C1539.8,862.6,1532.46,859.99,1525.2,864.09z"/><path fill="#13162d" d="M1552.32,862.99c0,0,8.2-3.3,14.34,2.49C1566.66,865.48,1562.61,854.13,1552.32,862.99z"/><path fill="#fff" d="M1537.74,869.37c0.32,3.67-1.42,6.82-3.89,7.04c-2.47,0.22-4.74-2.57-5.06-6.24      c-0.32-3.67,1.42-6.82,3.89-7.04C1535.15,862.91,1537.42,865.7,1537.74,869.37z"/><path fill="#653534" d="M1536.36,871.43c-0.07,1.94-1.44,3.47-3.05,3.41c-1.61-0.06-2.86-1.69-2.78-3.63s1.44-3.47,3.05-3.41      C1535.19,867.86,1536.43,869.48,1536.36,871.43z"/><path fill="#171515" d="M1534.97,871.45c-0.04,1.07-0.79,1.91-1.68,1.87c-0.89-0.03-1.57-0.93-1.53-1.99      c0.04-1.07,0.79-1.91,1.68-1.87C1534.32,869.49,1535.01,870.38,1534.97,871.45z"/><path fill="#e9e4e4" d="M1535.89,869.87c-0.03,0.82-0.61,1.46-1.29,1.44c-0.68-0.03-1.21-0.71-1.17-1.53      c0.03-0.82,0.61-1.46,1.29-1.44C1535.39,868.36,1535.92,869.05,1535.89,869.87z"/><path fill="#fff" d="M1563.76,871.07c-0.31,3.72-2.59,6.58-5.1,6.37c-2.51-0.21-4.3-3.39-3.99-7.12      c0.31-3.73,2.59-6.58,5.1-6.37C1562.28,864.16,1564.06,867.35,1563.76,871.07z"/><path fill="#653534" d="M1562.03,872.9c-0.41,1.93-2.04,3.22-3.64,2.88c-1.6-0.34-2.57-2.18-2.16-4.12      c0.41-1.93,2.04-3.22,3.64-2.88C1561.47,869.12,1562.43,870.96,1562.03,872.9z"/><path fill="#171515" d="M1560.63,872.68c-0.22,1.06-1.12,1.77-2,1.58c-0.88-0.19-1.41-1.2-1.19-2.26c0.22-1.06,1.12-1.77,2-1.58      C1560.32,870.6,1560.85,871.61,1560.63,872.68z"/><path fill="#e9e4e4" d="M1561.82,871.25c-0.17,0.82-0.86,1.36-1.54,1.22c-0.68-0.14-1.09-0.92-0.91-1.74      c0.17-0.82,0.86-1.36,1.54-1.22C1561.59,869.66,1561.99,870.44,1561.82,871.25z"/><path fill="#13162d" d="M1546.12,875.02c0,0-5.01,9.71,2.64,6.8C1548.75,881.82,1544.76,881.19,1546.12,875.02z"/><path fill="#13162d" d="M1546.28,874.84c0,0-7.03,8.13,0.88,7.47C1547.16,882.3,1543.54,880.53,1546.28,874.84z"/><path fill="#13162d" d="M1538.69,890.02c0,0,8.04,2.03,15.87-0.48c0,0-0.73,5.91-7.85,6.01      C1539.58,895.64,1538.69,890.02,1538.69,890.02z"/><path fill="#ea1f27" d="M1546.7,895.54c3.04-0.04,4.92-1.14,6.07-2.39c-0.75-0.31-1.64-0.49-2.58-0.47      c-1.67,0.02-3.14,0.63-4.02,1.54c-0.9-0.88-2.39-1.45-4.06-1.43c-0.66,0.01-1.29,0.11-1.86,0.28      C1541.39,894.37,1543.36,895.59,1546.7,895.54z"/><path fill="#23254f" d="M1513.23,866.35c0.9-0.03,7.72-0.68,11.78-13.56c0.04-0.12,0.2-0.15,0.27-0.04     c0.64,1.09,2.95,4.89,4.78,5.86c0.12,0.06,0.25-0.05,0.21-0.18c-0.44-1.54-2.27-8.25-0.42-8.13c2.09,0.14,8.91,9.48,39.73,2.19     c0.1-0.02,0.2,0.06,0.18,0.17c-0.26,1.57-1.46,10.93,6.88,14.37c0.07,0.03,0.16,0,0.19-0.07c0.85-1.87,10.36-23.43,1.43-37.73     c-9.34-14.94-41.37-24.89-57.47-2.61c-0.03,0.04-0.07,0.06-0.12,0.06c-0.82-0.01-8.35,0.28-9.46,12.28     c-1.17,12.6,0.18,23.86,1.86,27.29C1513.12,866.32,1513.17,866.35,1513.23,866.35z"/><path fill="#bab9b7" d="M1511.49,841.1c1.11-12,8.63-12.29,9.46-12.28c0.05,0,0.09-0.02,0.12-0.06      c16.1-22.28,48.14-12.33,57.47,2.61c1.83,2.93,2.88,6.16,3.4,9.46c-0.36-4.04-1.44-8.04-3.66-11.59      c-9.34-14.94-41.37-24.89-57.47-2.61c-0.03,0.04-0.07,0.06-0.12,0.06c-0.82-0.01-8.35,0.28-9.46,12.28      c-0.74,8.03-0.47,15.51,0.27,20.77C1510.97,854.69,1510.84,848.1,1511.49,841.1z" opacity=".19"/><path fill="#191841" d="M1576.65,867.05c0.07,0.03,0.16,0,0.19-0.07c0.45-0.99,3.37-7.58,4.64-15.68     c-5.78,6.79-8.36-1.54-8.36-1.54c-19.44,6.55-35.55-9.67-35.55-9.67c1.27,4.03,9.24,10.91,9.24,10.91     c-6.6,1.2-18.84-6.7-18.84-6.7c-5.34,10.32-12.78,0.06-16.58-6.61c-0.06,0.41-0.11,0.84-0.15,1.28     c-1.17,12.6,0.18,23.86,1.86,27.29c0.03,0.05,0.08,0.08,0.14,0.08c0.9-0.03,7.72-0.68,11.78-13.56c0.04-0.12,0.2-0.15,0.27-0.04     c0.64,1.09,2.95,4.89,4.78,5.86c0.12,0.06,0.25-0.05,0.21-0.18c-0.44-1.54-2.27-8.25-0.42-8.13c2.09,0.14,8.91,9.48,39.73,2.19     c0.1-0.02,0.2,0.06,0.18,0.17C1569.51,854.24,1568.31,863.6,1576.65,867.05z"/><path fill="#191841" d="M1491.03,1259.91c0,0-3.84,12.57,2.44,19.12c0,0,16.23-0.8,15.71-18.64L1491.03,1259.91z"/><path fill="#191841" d="M1579.17,1260.83c0,0-1.61,9.94,0,11.11c1.61,1.17,12.14,0,12.14,0v-3.34c0,0,8.63,0.67,10.68,3.34     c2.05,2.68,17.41,0.52,17.41,0.52s-0.88-3.43-8.34-5.41c-7.46-1.97-9.07-6.23-9.07-6.23H1579.17z"/><path fill="#1b2a56" d="M1493.72,1058.14c0,0-62.24,51.36-61.22,59.2c1.02,7.84,53.93,143.26,53.93,143.26h24.42     c0,0-32.88-117.95-34.85-129.89c-1.95-11.85,65.35-27.86,69.47-27.86c4.13,0,69.42,24.66,65.6,28.93     c-3.82,4.28-36.63,128.29-34.34,128.82c2.29,0.53,26.3,0.82,26.3,0.82s49.25-132.85,46.2-141.94     c-3.05-9.09-56.83-61.34-56.83-61.34H1493.72z"/><path fill="#f9fcff" d="M1588.41,1068.5c25.64-112.86-23.96-159.4-23.96-159.4c-11.94,10.69-36.6,1.32-36.6,1.32    c-0.57,0.91-0.63,1.27-0.26,1.89c54.89,91.42-11.27,124.51-22.72,131.63c-7.25,4.51-12.36,16.42-14.66,24.56H1588.41z"/><path fill="#1e75bb" d="M1527.12,910.16c0,0-0.12-0.22-0.61-1.05l-4.95-0.33c0,0-27.28,2.56-32.73,22.82    c-5.45,20.26,11.19,76.75,5.76,88.74c-5.43,11.99-21.27,48.2-20.87,62.23c0,0,0,0,0,0c28.8-19.89,61.11-42.04,79.58-75.74    C1581.61,955.18,1527.12,910.16,1527.12,910.16z"/><polygon fill="#99d2dd" points="1525.43 909.04 1547.3 926.89 1551.27 914.8 1533.25 910.45 1526.51 909.11"/><path fill="#99d2dd" d="M1564.45,909.11l-12.83,5.43l12.13,12.87C1563.75,927.41,1569.63,914.24,1564.45,909.11z"/><path fill="#1e75bb" d="M1604.16,945.83c0,0,1.75-13.42-1.59-24.94c-0.96-3.31-7.69-5.34-11.53-6.41    c-8.47-2.35-17.33-4.19-26.59-5.38c0,0,24.86,86.84,23.11,152.99c-1.26,5.82-1.8,10.86-0.76,13.32c0,0,6.12,2.14,16.63,8.38    c9.64,5.73-3.74-43.3-6.01-51.42C1603.65,1000.83,1607.8,978.66,1604.16,945.83z"/><g><path fill="#f9ad80" d="M1578.42,1024.7c0,0-22.62,9.75-25.27,8.91c-6.93-2.19-6.99-11.41-5.42-15.29c0,0,2.18-1.77,3.73-0.5     c1.55,1.27,6.9,1.41,5.45-0.97c-0.64-1.05-2.05-1.4-2.13-2.41c-0.13-1.51,0.39-2.91,1.96-2.88c0.24,0,0.51,0.02,0.79,0.06     c3.33,0.44,4.85,2.07,8.33,4.86c3.47,2.79,9.22-1.82,9.22-1.82L1578.42,1024.7z"/><path fill="#1e75bb" d="M1572.6,1030.81c-4.09,0.72-6.28-17.02-6.28-17.02s43.98-15.57,46.57-22.12     c2.59-6.55-27.17-49.51-28.1-53.09c-0.64-2.47-4.93-10.86,1.31-18.06c3.94-4.54,10.57-5.48,15.56-2.47     c3.52,2.13,6.7,4.61,9.28,7.53c15.82,17.88,38.08,72.73,32.7,77.15c-6.16,5.05-43.58,18.36-43.58,18.36     S1577.54,1029.95,1572.6,1030.81z"/></g><g><path fill="#f9ad80" d="M1519.29,1023c0,0,22.34,10.26,25.02,9.49c6.99-2.03,7.31-11.25,5.85-15.16c0,0-2.13-1.82-3.72-0.59     c-1.59,1.23-6.94,1.25-5.42-1.1c0.67-1.04,2.09-1.35,2.2-2.36c0.17-1.51-0.3-2.91-1.88-2.93c-0.24,0-0.51,0.01-0.8,0.04     c-3.34,0.36-4.91,1.96-8.46,4.67c-3.55,2.71-9.17-2.03-9.17-2.03L1519.29,1023z"/><path fill="#1e75bb" d="M1524.93,1029.25c4.07,0.81,6.76-16.88,6.76-16.88s-43.53-16.58-45.94-23.18     c-2.4-6.6,28.55-48.87,29.58-52.42c0.71-2.45,5.24-10.75-0.8-18.08c-3.81-4.63-10.41-5.72-15.48-2.82     c-3.57,2.04-6.83,4.46-9.49,7.32c-16.32,17.51-40.12,71.84-34.86,76.38c6.01,5.19,43.04,19.35,43.04,19.35     S1520.03,1028.27,1524.93,1029.25z"/></g><g><path fill="#433f41" d="M1607.25,1073.63h-126.83l0.02-72.1c-0.25-3.16,2.2-5.86,5.29-5.86h116.92c3.06,0,5.49,2.64,5.3,5.76     L1607.25,1073.63z"/><path fill="#d9e0e8" d="M1590.56,1031.15h-8.15c-0.82,0-1.49-0.67-1.49-1.49v-16.18c0-0.82,0.67-1.49,1.49-1.49h8.15     c0.82,0,1.49,0.67,1.49,1.49v16.18C1592.05,1030.48,1591.38,1031.15,1590.56,1031.15z" opacity=".67"/><path fill="#383536" d="M1609.56,1082.58h-131.34c-0.78,0-1.42-0.64-1.42-1.42v-6.1c0-0.78,0.64-1.42,1.42-1.42h131.33     c0.78,0,1.42,0.64,1.42,1.42v6.11C1610.99,1081.94,1610.35,1082.58,1609.56,1082.58z"/><path fill="#332f30" d="M1562.11,997.25l-76.03-0.53c-2.9,0-4.63,1.72-4.39,4.61v70.85h11.8     C1493.37,1052.12,1504.11,1008.73,1562.11,997.25z"/><path fill="#332f30" d="M1518.08,1081.61c3.88-2.15,8.79-4.72,13.91-7.07h-51.67c-1.88,0-2.01,1.03-2.01,2.28v3.11     c0,1.26,0.45,1.68,2.33,1.68H1518.08z"/></g></g><g><path fill="#0b73b8" d="M504.6,1169.16c-46.01-1.81-96.32-30.25-96.32-30.25s-50.88,27.38-96.92,28.22     c0,0-16.37,141.32,98.02,191.88C523.33,1310.49,504.6,1169.16,504.6,1169.16z"/><path fill="#fff" d="M504.57,1175.69c-44.43-1.74-93.03-29.21-93.03-29.21s-49.14,26.44-93.6,27.25     c0,0-19.04,136.45,91.43,185.28C520.83,1312.51,504.57,1175.69,504.57,1175.69z"/><linearGradient id="c" x1="480.657" x2="480.657" y1="1347.453" y2="1539.974" gradientTransform="rotate(.596 18800.996 -5399.772)" gradientUnits="userSpaceOnUse"><stop offset="0" stop-color="#e4e4e4"/><stop offset=".157" stop-color="#e0e0e0"/><stop offset=".298" stop-color="#d5d5d5"/><stop offset=".435" stop-color="#c3c3c3"/><stop offset=".568" stop-color="#a9a9a9"/><stop offset=".698" stop-color="#878787"/><stop offset=".827" stop-color="#5e5e5e"/><stop offset=".952" stop-color="#2f2f2f"/><stop offset="1" stop-color="#1a1a1a"/></linearGradient><path fill="url(#c)" d="M495.85,1182.96     c-40.31-1.58-84.4-26.46-84.4-26.46s-44.59,23.95-84.92,24.68c0,0-17.27,123.58,82.96,167.82     C510.59,1306.88,495.85,1182.96,495.85,1182.96z"/><path fill="#929191" d="M490.36,1187.44c-37.72-1.48-78.98-24.76-78.98-24.76s-41.72,22.41-79.47,23.1     c0,0-16.16,115.64,77.63,157.04C504.16,1303.4,490.36,1187.44,490.36,1187.44z" opacity=".54"/><linearGradient id="d" x1="341.169" x2="481.819" y1="1254.926" y2="1254.926" gradientUnits="userSpaceOnUse"><stop offset="0" stop-color="#2aa7df"/><stop offset=".29" stop-color="#2aa4dd"/><stop offset=".468" stop-color="#2a9cd7"/><stop offset=".617" stop-color="#2b8dcc"/><stop offset=".749" stop-color="#2c79bd"/><stop offset=".87" stop-color="#2d5ea9"/><stop offset=".981" stop-color="#2e3e92"/><stop offset="1" stop-color="#2e388d"/></linearGradient><path fill="url(#d)" d="M481.21,1193.29     c-33.12-1.37-69.32-23.3-69.32-23.3s-36.64,21.16-69.78,21.84c0,0-14.27,109.06,68.05,148.03     C493.25,1302.63,481.21,1193.29,481.21,1193.29z"/><linearGradient id="e" x1="341.175" x2="480.653" y1="1252.745" y2="1252.745" gradientUnits="userSpaceOnUse"><stop offset="0" stop-color="#2aa7df"/><stop offset=".253" stop-color="#2b8fcd"/><stop offset=".783" stop-color="#2d53a1"/><stop offset="1" stop-color="#2e388d"/></linearGradient><path fill="url(#e)" d="M480.05,1193.3     c-32.84-1.33-68.75-22.49-68.75-22.49s-36.33,20.41-69.19,21.05c0,0-14.12,105.21,67.52,142.83     C492.01,1298.79,480.05,1193.3,480.05,1193.3z"/><path fill="#282560" d="M453.23,1300.41c-13.17,5.28-33.84,11.5-56.03-0.9c-30.24-16.9-48.77-78.57-55.54-103.19     c-1.59,20.44-3.62,105.37,67.96,138.35C428.85,1326.31,442.93,1314.14,453.23,1300.41z" opacity=".15"/><path fill="#fff" d="M437.15,1186.87c0,0,13.5,7.33,37.64,9.46c0,0,6.49,17.65-2.6,42.92     C472.19,1239.25,478.68,1211.38,437.15,1186.87z" opacity=".36"/><path fill="#fff" d="M456.11,1216.37c-5.93,2.39-11.46,5.8-16.77,9.52c-5.33,3.72-10.31,7.95-15.21,12.29    c-4.89,4.35-9.58,8.96-14.17,13.7c-2.79,2.91-5.51,5.86-8.21,8.87l-22.73-23.07l-2.54,2.33l20.17,36.46l3.88,7.02l7.05-7.17l0,0    c3.24-5.36,6.9-10.83,10.58-16.09c3.72-5.27,7.56-10.46,11.61-15.41c4.06-4.94,8.23-9.81,12.76-14.2    c4.52-4.4,9.27-8.54,14.54-11.78L456.11,1216.37z"/></g><g><polygon fill="#d2d2d2" points="270.14 761.65 270.14 771.41 342.56 844.89 343.83 844.89 343.83 836.41"/><polygon fill="#d2d2d2" points="306.89 844.89 316.52 844.89 270.14 797.84 270.14 807.6"/><polygon fill="#d2d2d2" points="271.12 844.89 280.75 844.89 270.14 834.12 270.14 843.89"/><polygon fill="#d2d2d2" points="270.14 736.99 343.83 811.76 343.83 801.99 270.14 727.22"/><polygon fill="#d2d2d2" points="270.14 700.88 343.83 775.64 343.83 765.88 270.14 691.11"/><polygon fill="#d2d2d2" points="270.14 666.65 343.83 741.42 343.83 731.65 270.14 656.88"/><polygon fill="#d2d2d2" points="343.83 706.99 343.83 697.23 293.44 646.09 283.81 646.09"/><polygon fill="#d2d2d2" points="343.83 670.78 343.83 661.01 329.13 646.09 319.5 646.09"/></g><g><path fill="#d2d2d2" d="M1623.57,711.62c0,3.48-2.82,6.3-6.3,6.3c-3.48,0-6.3-2.82-6.3-6.3c0-3.48,2.82-6.3,6.3-6.3      C1620.75,705.32,1623.57,708.14,1623.57,711.62z"/><path fill="#d2d2d2" d="M1671.45,711.62c0,3.48-2.82,6.3-6.3,6.3c-3.48,0-6.3-2.82-6.3-6.3c0-3.48,2.82-6.3,6.3-6.3      C1668.63,705.32,1671.45,708.14,1671.45,711.62z"/><path fill="#d2d2d2" d="M1719.34,711.62c0,3.48-2.82,6.3-6.3,6.3c-3.48,0-6.3-2.82-6.3-6.3c0-3.48,2.82-6.3,6.3-6.3      C1716.52,705.32,1719.34,708.14,1719.34,711.62z"/><path fill="#d2d2d2" d="M1767.22,711.62c0,3.48-2.82,6.3-6.3,6.3c-3.48,0-6.3-2.82-6.3-6.3c0-3.48,2.82-6.3,6.3-6.3      C1764.4,705.32,1767.22,708.14,1767.22,711.62z"/><path fill="#d2d2d2" d="M1623.57,668.78c0,3.48-2.82,6.3-6.3,6.3c-3.48,0-6.3-2.82-6.3-6.3c0-3.48,2.82-6.3,6.3-6.3      C1620.75,662.47,1623.57,665.3,1623.57,668.78z"/><path fill="#d2d2d2" d="M1671.45,668.78c0,3.48-2.82,6.3-6.3,6.3c-3.48,0-6.3-2.82-6.3-6.3c0-3.48,2.82-6.3,6.3-6.3      C1668.63,662.47,1671.45,665.3,1671.45,668.78z"/><path fill="#d2d2d2" d="M1719.34,668.78c0,3.48-2.82,6.3-6.3,6.3c-3.48,0-6.3-2.82-6.3-6.3c0-3.48,2.82-6.3,6.3-6.3      C1716.52,662.47,1719.34,665.3,1719.34,668.78z"/><path fill="#d2d2d2" d="M1767.22,668.78c0,3.48-2.82,6.3-6.3,6.3c-3.48,0-6.3-2.82-6.3-6.3c0-3.48,2.82-6.3,6.3-6.3      C1764.4,662.47,1767.22,665.3,1767.22,668.78z"/><g><path fill="#d2d2d2" d="M1623.57,623.41c0,3.48-2.82,6.3-6.3,6.3c-3.48,0-6.3-2.82-6.3-6.3c0-3.48,2.82-6.3,6.3-6.3      C1620.75,617.11,1623.57,619.93,1623.57,623.41z"/><path fill="#d2d2d2" d="M1671.45,623.41c0,3.48-2.82,6.3-6.3,6.3c-3.48,0-6.3-2.82-6.3-6.3c0-3.48,2.82-6.3,6.3-6.3      C1668.63,617.11,1671.45,619.93,1671.45,623.41z"/><path fill="#d2d2d2" d="M1719.34,623.41c0,3.48-2.82,6.3-6.3,6.3c-3.48,0-6.3-2.82-6.3-6.3c0-3.48,2.82-6.3,6.3-6.3      C1716.52,617.11,1719.34,619.93,1719.34,623.41z"/><path fill="#d2d2d2" d="M1767.22,623.41c0,3.48-2.82,6.3-6.3,6.3c-3.48,0-6.3-2.82-6.3-6.3c0-3.48,2.82-6.3,6.3-6.3      C1764.4,617.11,1767.22,619.93,1767.22,623.41z"/></g><g><path fill="#d2d2d2" d="M1623.57,580.57c0,3.48-2.82,6.3-6.3,6.3c-3.48,0-6.3-2.82-6.3-6.3c0-3.48,2.82-6.3,6.3-6.3      C1620.75,574.27,1623.57,577.09,1623.57,580.57z"/><path fill="#d2d2d2" d="M1671.45,580.57c0,3.48-2.82,6.3-6.3,6.3c-3.48,0-6.3-2.82-6.3-6.3c0-3.48,2.82-6.3,6.3-6.3      C1668.63,574.27,1671.45,577.09,1671.45,580.57z"/><path fill="#d2d2d2" d="M1719.34,580.57c0,3.48-2.82,6.3-6.3,6.3c-3.48,0-6.3-2.82-6.3-6.3c0-3.48,2.82-6.3,6.3-6.3      C1716.52,574.27,1719.34,577.09,1719.34,580.57z"/><path fill="#d2d2d2" d="M1767.22,580.57c0,3.48-2.82,6.3-6.3,6.3c-3.48,0-6.3-2.82-6.3-6.3c0-3.48,2.82-6.3,6.3-6.3      C1764.4,574.27,1767.22,577.09,1767.22,580.57z"/></g></g></svg>