<svg xmlns="http://www.w3.org/2000/svg" viewBox="0 0 3250 2000"><defs><clipPath id="a"><path fill="#3665af" d="M2192.42,857.86s-28.17-51.06-144.29-74.19-146.75,2.44-161.11,14c-13.92-8.72-15.35-53,5.43-84.51,35.1-53.2,319.42-14.2,326.61,66.21C2219.42,820.47,2208,842.57,2192.42,857.86Z"/></clipPath></defs><g style="isolation:isolate"><path fill="#e6f5fc" d="M34.17,1708.4H2868.64s-287.73-379.57-134.68-502,330.87-440.13,18.65-568.69-944,298.38-1233.29-22.77C1105.69,155.77,443.05,410.44,350.54,675.65c-113.84,326.35,83.48,428.8,0,690.64C293.61,1544.83,34.17,1708.4,34.17,1708.4Z"/><path fill="#223e7d" d="M3247.17,1704.48H2.83a8,8,0,0,1-8-8h0a8,8,0,0,1,8-8H3247.17a8,8,0,0,1,8,8h0A8,8,0,0,1,3247.17,1704.48Z"/><path fill="#b6ceeb" d="M2084.32,1650.61H3116.6a27.73,27.73,0,0,0,27.15-25.15l50.92-640.6a22.88,22.88,0,0,0-23.15-25.15H2139.25a27.72,27.72,0,0,0-27.15,25.15l-50.93,640.6A22.89,22.89,0,0,0,2084.32,1650.61Z"/><path d="M3117,1645.94a22.6,22.6,0,0,0,22.11-20.48L3190,984.86a18.65,18.65,0,0,0-18.85-20.48H2138.88a22.59,22.59,0,0,0-22.11,20.48l-50.93,640.6a18.65,18.65,0,0,0,18.85,20.48Z"/><polygon fill="#adddf6" points="2097.12 1619.47 3107.66 1619.47 3157.89 987.64 2147.35 987.64 2097.12 1619.47"/><path fill="#436fb5" d="M1892.62,1650.67v16.81a12.87,12.87,0,0,0,.17,2.55,21.88,21.88,0,0,0,21.73,19.35H3115.29A21.88,21.88,0,0,0,3137,1670a12.87,12.87,0,0,0,.17-2.55v-16.81Z"/><path fill="#435da9" d="M1892.79,1670a21.88,21.88,0,0,0,21.73,19.35H3115.29A21.88,21.88,0,0,0,3137,1670Z"/><path fill="#6a91cb" d="M1892.62,1650.67v16.81a12.87,12.87,0,0,0,.17,2.55,21.88,21.88,0,0,0,21.73,19.35H2679a22,22,0,0,0,21.74-19.35c0-.85.17-1.7.17-2.55v-16.81Z"/><path fill="#435da9" d="M1892.79,1670a21.88,21.88,0,0,0,21.73,19.35H2679a22,22,0,0,0,21.74-19.35Z"/><path fill="#2654a4" d="M2724.61,1321.13l-3.09-10.8a10.28,10.28,0,0,0-11.57-7.17l-96.2,18.15a8.25,8.25,0,0,0-6.5,10.58l54.58,190.9,248.84-47-51.49-180.1Z"/><polygon fill="#fff" points="2871.4 1300.34 2627.39 1346.39 2661.83 1522.79 2909.46 1476.07 2871.4 1300.34"/><path fill="#5ca8dc" d="M2910.67,1475.84l-248.84,47-22.59-176.36a9.48,9.48,0,0,1,7.82-10.67l227.73-43a11.84,11.84,0,0,1,13.69,9.84Z"/><rect width="194.52" height="147.83" x="2767.36" y="1359.71" fill="#cfd8e7" transform="rotate(93.4 2863.061 1442.265)"/><rect width="176.1" height="129.67" x="2776.56" y="1368.79" fill="#336cb4" transform="rotate(93.64 2864.594 1433.543)"/><polygon fill="#bbc4d2" points="2813.7 1353.43 2806.17 1471.81 2872.55 1411.22 2813.7 1353.43"/><polygon fill="#bbc4d2" points="2810.28 1407.26 2803.95 1506.72 2858.84 1456.17 2810.28 1407.26"/><circle cx="2883.9" cy="1449.1" r="13.74" fill="#bbc4d2" transform="rotate(-85.14 2884.043 1449.063)"/><rect width="194.52" height="147.83" x="2840.76" y="1356.4" fill="#e3ebf7" transform="rotate(122.45 2938.013 1430.245)"/><rect width="176.1" height="129.67" x="2849.96" y="1365.48" fill="#568dc9" transform="rotate(122.45 2938.013 1430.245)"/><polygon fill="#e3ebf7" points="2932.05 1335.52 2868.41 1435.61 2955.76 1414.51 2932.05 1335.52"/><polygon fill="#e3ebf7" points="2903.11 1381.03 2849.64 1465.13 2922.09 1447.29 2903.11 1381.03"/><circle cx="2947.46" cy="1453.17" r="13.74" fill="#e3ebf7" transform="rotate(-77.04 2947.498 1453.167)"/><rect width="350.9" height="152.79" x="2691.61" y="1467.32" fill="#e87c24"/><rect width="90.42" height="152.79" x="2601.19" y="1467.32" fill="#b16027"/><polygon fill="#c96c28" points="3042.51 1467.32 2691.61 1467.32 2752.37 1407.7 3103.26 1407.7 3042.51 1467.32"/><polygon fill="#e87c24" points="2643.33 1552.96 2552.9 1552.96 2601.19 1467.32 2691.61 1467.32 2643.33 1552.96"/><rect width="78.24" height="34.28" x="2948.27" y="1575.37" fill="#f89c38"/><path fill="#b6ceeb" d="M1117.23,1650.25H85A27.73,27.73,0,0,1,57.8,1625.1L6.88,984.49A22.88,22.88,0,0,1,30,959.35H1062.3a27.73,27.73,0,0,1,27.15,25.14l50.93,640.61A22.9,22.9,0,0,1,1117.23,1650.25Z"/><path d="M84.58,1645.58a22.61,22.61,0,0,1-22.11-20.48L11.54,984.49A18.66,18.66,0,0,1,30.39,964H1062.67a22.61,22.61,0,0,1,22.11,20.48l50.93,640.61a18.67,18.67,0,0,1-18.86,20.48Z"/><polygon fill="#adddf6" points="1104.43 1619.11 93.89 1619.11 43.66 987.28 1054.2 987.28 1104.43 1619.11"/><path fill="#436fb5" d="M1308.93,1650.31v16.8a12.82,12.82,0,0,1-.17,2.55A21.88,21.88,0,0,1,1287,1689H86.26a21.86,21.86,0,0,1-21.73-19.36,12.82,12.82,0,0,1-.17-2.55v-16.8Z"/><path fill="#435da9" d="M1308.76,1669.66A21.88,21.88,0,0,1,1287,1689H86.26a21.86,21.86,0,0,1-21.73-19.36Z"/><path fill="#6a91cb" d="M1308.93,1650.31v16.8a12.82,12.82,0,0,1-.17,2.55A21.88,21.88,0,0,1,1287,1689H522.52a22,22,0,0,1-21.74-19.36c0-.85-.17-1.69-.17-2.55v-16.8Z"/><path fill="#435da9" d="M1308.76,1669.66A21.88,21.88,0,0,1,1287,1689H522.52a22,22,0,0,1-21.74-19.36Z"/><path fill="#ffd045" d="M2046.46,353.84,1950.3,520.38a13,13,0,0,0,11.21,19.42h192.32A13,13,0,0,0,2165,520.38l-96.16-166.54A12.94,12.94,0,0,0,2046.46,353.84Z"/><path d="M2153.83,531.58H1961.51a4.72,4.72,0,0,1-4.08-7.08L2053.59,358a4.83,4.83,0,0,1,8.17,0l96.15,166.53a4.72,4.72,0,0,1-4.08,7.08Zm-191-5.49H2152.5l-94.83-164.23ZM2057,360.69h0Zm1.35,0Z"/><path d="M2058,480.77h0a10.5,10.5,0,0,1-10.48-9.78l-3.22-47a13.73,13.73,0,0,1,13.7-14.68h0a13.74,13.74,0,0,1,13.7,14.68l-3.22,47A10.5,10.5,0,0,1,2058,480.77Z"/><circle cx="2057.95" cy="499.45" r="10.36"/><path fill="#1d498b" d="M1690.6,1171.2c-.08.07,195.25,209.34,318.16,196,98-10.65,137.91-357.05,132.78-376.63-32.79-125.24-224.82-59.32-222.59,32.16l4.33,135.34-153.51-79.73C1727.29,1050.87,1672.87,1124.36,1690.6,1171.2Z"/><path fill="#fff" d="M2207.84,1319.9s-4.61,110.58,142.83,126.71,235-87.55,237.29-168.18-119.8-142.83-232.68-96.76S2230.88,1243.87,2207.84,1319.9Z"/><path fill="#1d498b" d="M2124.9,1287.64c86.81,83.49,185.65,117.74,228.08,122.1,152.13,15.65,235.13-101.51,173.31-231.18,0,0-120.2-234.23-197.5-272.45-77.33-38.58-371.37,48.57-389.58,136.42C1929.52,1090,2020.66,1187.39,2124.9,1287.64Z"/><path fill="#1d498b" d="M2148.29,1333.38c49.19,18.91,288.57,10.08,368.71-84.06,63.89-75-96.42-316.28-202.59-363.46-118.3-52.58-177.37,101.88-112.9,166.83l109.71,103.36-166.34,47.52C2095.16,1212.8,2099.1,1314.46,2148.29,1333.38Z"/><path fill="#0d203d" d="M2219.19,1341.91c-13.91,0-26-.46-35.51-1.16-34-2.48-50.73-13.63-58.78-22.55-8.87-9.81-9.5-19-9.53-19.38a1.39,1.39,0,0,1,2.77-.17h0c0,.09.65,8.75,9,17.85,7.74,8.47,23.86,19.08,56.78,21.49,66.26,4.84,255.14-2.11,332.38-91.35a1.39,1.39,0,1,1,2.1,1.81C2451.54,1325.66,2302.43,1341.91,2219.19,1341.91Z"/><path fill="#0d203d" d="M2110.54,1244.53l-.24,0a1.39,1.39,0,0,1-1.13-1.61c.06-.37,6.77-37,40.6-44.56,30.86-6.86,145.47-42.15,160.43-46.77l-22.81-42.86a1.39,1.39,0,1,1,2.45-1.3l24.38,45.82-1.6.5c-1.29.39-129.27,40-162.25,47.32-32,7.11-38.4,42-38.47,42.33A1.38,1.38,0,0,1,2110.54,1244.53Z"/><path fill="#1d498b" d="M1917.53,1001.1c35.13,85.44,262.53,116.24,262.53,116.24s125.29-208,118.76-258.43c-14-109.18-132.14-118.83-232-86.34S1873.26,893.48,1917.53,1001.1Z"/><path fill="#0d213f" d="M2086.79,802.13c61.5-19.28,142.63-9.47,129.31,38.35-16.16,58-108.48,149.14-94.54,199.82,0,0-137.69-29.78-165.08-95.93S2025.3,821.41,2086.79,802.13Z"/><path d="M2133.21,1099.5a2,2,0,0,1-.48-.06l-9.56-2.4c-55.63-14-131.81-33.06-168-54.68-53.63-32.07-50.37-74.76-48.62-97.7l.19-2.55a2,2,0,0,1,4,.29l-.2,2.56c-1.8,23.64-4.82,63.19,46.71,94,35.66,21.32,114.65,41.13,166.91,54.24l9.56,2.4a2,2,0,0,1-.48,3.89Z" style="mix-blend-mode:soft-light"/><path d="M2201.86,1082.23a1.81,1.81,0,0,1-.72-.14,2,2,0,0,1-1.13-2.55c8-20.63,23.32-43.1,39.5-66.9,23.9-35.16,51-75,58-115.45,8-46-11.27-86.46-58.85-123.59a2,2,0,1,1,2.44-3.11c48.83,38.1,68.56,79.77,60.31,127.37-7.16,41.28-34.5,81.51-58.63,117-16.05,23.61-31.21,45.91-39.08,66.11A2,2,0,0,1,2201.86,1082.23Z" style="mix-blend-mode:soft-light"/><path fill="#f7a58d" d="M1885,819.72c-20.29,247.9,259.7,271.8,306.68,28.28C2230.58,598.1,1903.43,575.6,1885,819.72Z"/><path fill="#b55c42" d="M2019.42,886.48h-.09c-.73,0-17.85-.92-22.45-14.55-4.53-13.44,19-32.55,21.71-34.69a2.1,2.1,0,0,1,2.61,3.3c-6.68,5.3-23.37,21-20.32,30,3.68,10.92,18.48,11.69,18.63,11.69a2.11,2.11,0,0,1-.09,4.21Z"/><path d="M2080.13,860c-1.47,7.72,1.09,14.7,5.72,15.58s9.59-4.66,11.06-12.38-1.09-14.7-5.72-15.58S2081.6,852.26,2080.13,860Z"/><ellipse cx="1945.27" cy="829.93" rx="14.23" ry="8.54" transform="rotate(-79.2 1945.214 829.948)"/><circle cx="2183.37" cy="889.37" r="25.85" fill="#f7a58d" transform="rotate(-12.84 2183.512 889.397)"/><circle cx="1882.89" cy="828.1" r="25.85" fill="#f7a58d" transform="rotate(-27.96 1882.905 828.106)"/><path fill="#663326" d="M2175.39,892.54c8.56-38.42,15.61-109.93-26.94-115-54.18-6.45-168-26.22-203.48-34-28.84-6.3-50.47,55.32-56.3,93.87,0,0-4-58.13,2.73-85.52,4.64-18.9,34.27-142.82,185.49-114S2206,799.3,2200.51,827.51,2175.39,892.54,2175.39,892.54Z"/><path fill="#663326" d="M1971,813.16c-7-10.33-24.15-13.19-36.92-4.8-7.84,4.26-10.48,13.73-10.48,13.73C1930.58,811.69,1957.57,807.29,1971,813.16Z"/><path fill="#1d498b" d="M2213.14,797.3s13.7-163.32-133.46-183.69c-120.95-23.08-174.37,79.24-185.13,116.74C2091.31,730.39,2213.14,797.3,2213.14,797.3Z"/><path fill="#7e3f2e" d="M1905.89,948.16c35.1,63.1,83.14,77.49,83.14,77.49s88.57,2.13,132.06-42.88c20.48-15.46,65-68.2,60.42-123.36,0,0-32.34,105.81-92.74,70.79-44.89-25.77-90.45-26.73-132.63-24.09-64,6.83-65.45-82.89-57.45-112.19C1864.88,871.17,1900,938.82,1905.89,948.16Zm39.28-4.86c3-15.94,39.82-27.51,75.2-21.46,43.18,7.39,61.05,23.62,58,39.56s-28.68,38.62-78.05,30.15C1965,985.47,1942.16,959.1,1945.17,943.3Z"/><path fill="#3665af" d="M2192.42,857.86s-28.17-51.06-144.29-74.19-146.75,2.44-161.11,14c-13.92-8.72-15.35-53,5.43-84.51,35.1-53.2,319.42-14.2,326.61,66.21C2219.42,820.47,2208,842.57,2192.42,857.86Z"/><g clip-path="url(#a)"><path d="M2167.36,864.89c4.2-3,7.2-7.38,10.19-11.52s5.75-8.34,8.35-12.68a151.94,151.94,0,0,0,12.91-27.36,121.23,121.23,0,0,0,6.45-29.45,106.23,106.23,0,0,0-1.5-29.62,91.51,91.51,0,0,0-10.17-27.76c-.59-1-1.21-2.08-1.85-3.1a2,2,0,0,0-3.45,2,86.15,86.15,0,0,1,10.84,26.25,100.74,100.74,0,0,1,2.41,28.47,114.21,114.21,0,0,1-5.33,28.4,141.35,141.35,0,0,1-11.71,26.6q-3.63,6.45-7.83,12.56c-1.39,2-2.83,4-4.3,6a55.89,55.89,0,0,1-4.48,5.49,19.21,19.21,0,0,1-2.54,2.24,2.05,2.05,0,0,0-.71,2.73,2,2,0,0,0,2.72.71Z" style="mix-blend-mode:soft-light"/><path d="M2139,849.31c9.14-4.71,15.1-13.67,19.63-22.59A134.87,134.87,0,0,0,2169.5,797a142.75,142.75,0,0,0,.72-62.92,135.67,135.67,0,0,0-10.17-29.93c-.56-1.19-1.14-2.36-1.74-3.53a2,2,0,0,0-2.73-.71,2,2,0,0,0-.72,2.73,129.79,129.79,0,0,1,10.63,28.67,138.75,138.75,0,0,1,1.07,60.56A132.26,132.26,0,0,1,2157,821a89.87,89.87,0,0,1-7.24,13,38.3,38.3,0,0,1-9.71,10.07,28.2,28.2,0,0,1-3.09,1.83,2,2,0,0,0,2,3.45Z" style="mix-blend-mode:soft-light"/><path d="M2119.39,826.84a176.51,176.51,0,0,0,16.34-51.35,183.3,183.3,0,0,0,2.24-27.08,180.84,180.84,0,0,0-1.86-27.11,172.08,172.08,0,0,0-5.86-26.24c-.32-1-.66-2.1-1-3.15a2.05,2.05,0,0,0-2.46-1.39,2,2,0,0,0-1.39,2.45,172,172,0,0,1,6.32,25.88A173.75,173.75,0,0,1,2134,745a175.77,175.77,0,0,1-7.2,52.23,169.59,169.59,0,0,1-9.38,24.64c-.47,1-1,2-1.45,3a2,2,0,0,0,.72,2.73,2,2,0,0,0,2.73-.71Z" style="mix-blend-mode:soft-light"/><path d="M2089.18,820.18a201.82,201.82,0,0,0,13.57-49.43,207.08,207.08,0,0,0,.91-51.52,204.06,204.06,0,0,0-5.16-28.51,2,2,0,1,0-3.85,1.06,199.39,199.39,0,0,1,6.22,50.07,201.23,201.23,0,0,1-15.53,77.27,2,2,0,0,0,1.39,2.45,2,2,0,0,0,2.45-1.39Z" style="mix-blend-mode:soft-light"/><path d="M2061,800.91q3-24,6-48t6-48l3.39-26.94a2,2,0,0,0-2-2,2.05,2.05,0,0,0-2,2q-3,24-6,48t-6.05,48L2057,800.91a2,2,0,0,0,2,2,2.06,2.06,0,0,0,2-2Z" style="mix-blend-mode:soft-light"/><path d="M2024.16,793.93a408.3,408.3,0,0,1,9.12-94.67q2.85-13.17,6.56-26.13a2,2,0,1,0-3.85-1.06A410.67,410.67,0,0,0,2025.51,719a415.88,415.88,0,0,0-5,48q-.6,13.47-.33,26.94a2,2,0,1,0,4,0Z" style="mix-blend-mode:soft-light"/><path d="M1991,787a284.39,284.39,0,0,1-1.17-51.7,280.49,280.49,0,0,1,8.16-50.52c.53-2.08,1.07-4.17,1.69-6.22a46.07,46.07,0,0,1,1.8-5,28.17,28.17,0,0,1,1.28-2.51c.22-.37.44-.74.68-1.09a6.18,6.18,0,0,1,.36-.53c0-.07.46-.62.32-.44a15.3,15.3,0,0,1,1.87-2l.31-.27.33-.27.1-.07c.41-.29.82-.56,1.26-.81,2.22-1.29.21-4.74-2-3.45-6.31,3.66-8.94,10.91-10.77,17.58-2.29,8.39-4.18,16.9-5.69,25.47a288.87,288.87,0,0,0-4.33,52.35A284.63,284.63,0,0,0,1987,787a2.06,2.06,0,0,0,2,2,2,2,0,0,0,2-2Z" style="mix-blend-mode:soft-light"/><path d="M1953.85,788.53a246.34,246.34,0,0,1-2.71-48.76,242.64,242.64,0,0,1,2.24-24.23,135.42,135.42,0,0,1,4.43-21c2.25-7.21,5.55-14.23,10.48-20a2,2,0,0,0,0-2.82,2,2,0,0,0-2.82,0c-9.45,11-13.23,25.41-15.45,39.45a250.43,250.43,0,0,0,0,78.38,2,2,0,0,0,2.45,1.39,2,2,0,0,0,1.4-2.45Z" style="mix-blend-mode:soft-light"/><path d="M1920.56,791.92c-.44-16.71-.88-33.49.84-50.14,1.51-14.6,4.85-29.27,11.1-42.54a89,89,0,0,1,12.93-20.17,2,2,0,0,0,0-2.82,2,2,0,0,0-2.82,0c-9.74,11.28-16.29,24.92-20.33,39.2-4.4,15.55-5.81,31.78-6.06,47.89-.15,9.53.1,19,.35,28.58a2,2,0,0,0,4,0Z" style="mix-blend-mode:soft-light"/><path d="M1897.31,798.24a192.3,192.3,0,0,1-4.11-27.84,200,200,0,0,1,0-28.55,197,197,0,0,1,12.07-55.24c1.63-4.33,3.41-8.61,5.36-12.8a59.3,59.3,0,0,1,6.87-11.85,33,33,0,0,1,2.27-2.6c1.78-1.86-1-4.68-2.82-2.82a49.16,49.16,0,0,0-8.08,11.79c-2.22,4.36-4.16,8.88-6,13.43a195.48,195.48,0,0,0-8.7,27.46,203.89,203.89,0,0,0-4.68,28.84,199,199,0,0,0,3.2,57.66c.24,1.19.5,2.39.76,3.58a2,2,0,1,0,3.85-1.06Z" style="mix-blend-mode:soft-light"/></g><path fill="#7e3f2e" d="M1971.75,951.05c5.28-4.28,34-18.77,61-8.3,27.16,10.54,21.3,30.7,0,25.64s-31.42-6.61-55.45-3.19C1963.81,967.12,1966.48,955.33,1971.75,951.05Z"/><path fill="#e6f5fc" d="M2208.76,895.75a1.37,1.37,0,0,1-.34,0,1.54,1.54,0,0,1-1.17-1.83h0c.12-.56,2.84-13.85-8.22-23.4-6.42-4.87-10.77-5-10.82-5a1.54,1.54,0,0,1-1.27-2.41l4.21-6.12a1.58,1.58,0,0,1,.36-.37c.14-.11,14.37-10.79,21.51-35.81s6.54-51.24-1.34-58.39a1.54,1.54,0,0,1-.5-1.07c-.35-7.91-11.9-59.49-22.4-75.53a1.54,1.54,0,0,1,2.57-1.69c10.5,16,22,66.6,22.86,76.46,8.38,8.5,9.19,35,1.77,61.07-7.05,24.7-20.48,35.77-22.43,37.28l-2.7,3.91a28.92,28.92,0,0,1,10.12,5.24c12.56,10.83,9.43,25.82,9.29,26.45A1.54,1.54,0,0,1,2208.76,895.75Z"/><path fill="#663326" d="M2118.76,872c5.66-12,.93-29.38-13.71-36.47a33,33,0,0,0-20.3-2C2098.06,834.28,2116.8,856.55,2118.76,872Z"/><path fill="#f78c6d" d="M1708.83,1047.85l19.08-59.36s-.78-16.51-6.65-25.66c-9.52-7.35-19.72-33.25-8.11-39.69,21.51,15.13,31.75,32.76,41.82,62.83,2.9,26.48-3.15,80.37-3.15,80.37C1742.1,1095.66,1696.13,1087,1708.83,1047.85Z"/><path fill="#f78c6d" d="M1691.75,1075.18l19.93-53.75s-4.34-15.94-12.06-23.6c-10.9-5.1-26.48-28.17-16.55-37,24.29,10.09,38.11,25.07,54.48,52.24,8.58,25.21-2.81,80.57-2.81,80.57C1725,1123,1679.05,1114.32,1691.75,1075.18Z"/><path fill="#f78c6d" d="M1695.41,1029.43c8.89,3.31,18.08,14.41,18.08,14.41l.27,3.92,23.83-10.8a51,51,0,0,0-6.55-9c-22.78-15.69-39.15-22.62-62.08-21.9C1664.24,1016.58,1684.92,1029.3,1695.41,1029.43Z"/><path fill="#f78c6d" d="M1715.16,1036l29.53-48.86s5-22.91,3.64-33.7c-5.48-10.71-3.63-38.49,9.61-39.34,13,22.86,14.72,43.18,11,74.67-4.18,27.91-20.17,75-20.17,75C1731.5,1089.37,1692.4,1070.28,1715.16,1036Z"/><path fill="#f7a58d" d="M1705.43,1147.3c0-2.29-44.28-30.57-13-78.76,25.74-39.65,55.33-59.38,55.33-59.38l24.55,12.29c-11.1,32.61-14.8,41.17-13.36,66.21C1755.13,1125.13,1725.36,1151.43,1705.43,1147.3Z"/><path fill="#f7a58d" d="M1747.76,1008.47l-20.68,17.18c-37.23,31.5-41.68,74.45-41.68,74.45l67.45-35s10.82-24.18,16.86-36.91,19.41-56.63,20-58.22C1761.76,956.29,1747.76,1008.47,1747.76,1008.47Z"/><path fill="#f7a58d" d="M2126.88,1279.52s-26.88,4.79-59-13.33l-17.62-10.14s-43.5-2.48-38.17-25.44c1.28.2,35.78,3.74,46.39,4.68s43.6,6,43.6,6,25.64.65,33.92,15.24C2146.5,1275,2126.88,1279.52,2126.88,1279.52Z"/><path fill="#f7a58d" d="M2104.57,1293.33l-62.35-.72s-15.55,5.61-22.56,13.92c-4.21,11.27-26,28.66-35.52,19.47,8.1-25,21.93-40,47.69-58.51,24.44-10.57,77.72-20.7,77.72-20.7C2140.43,1247.43,2145.71,1293.92,2104.57,1293.33Z"/><path fill="#f7a58d" d="M2114.93,1309.68l-42.64-13.56s-13.95,8.85-19,18.48c-1.66,11.92-19.11,33.61-30.45,26.72,2.47-26.18,12.72-43.81,33.84-67.47,21.56-15.63,62.07-24,62.07-24C2154.52,1245.77,2168.1,1312,2114.93,1309.68Z"/><path fill="#f7a58d" d="M2090.92,1311.58c.54-9.47,8.44-21.52,8.44-21.52l3.66-1.42-17.35-19.58A51.42,51.42,0,0,0,2079,1278c-8.27,26.39-10.07,44.08-2.61,65.77C2087.84,1345.16,2093.89,1321.65,2090.92,1311.58Z"/><path fill="#f7a58d" d="M2091.75,1292.61l-55.4-13.8s-23.37,2-33.26,6.47c-8.63,8.39-35.71,14.82-40.44,2.42,18-19.16,36.92-26.8,68.12-32.52,27.9-4.24,77.58-2.85,77.58-2.85C2137.92,1261.26,2131.22,1304.25,2091.75,1292.61Z"/><path fill="#fff" d="M689.2,1426.26S653.45,1546,490.1,1509,271.4,1329.13,298.59,1242.2s180.43-108.45,284-17.74S692.56,1336.62,689.2,1426.26Z"/><path fill="#f7a594" d="M1032.59,1087.06s169.94,96.86,245.58,87c78.17-10.14,175.18-329.36,175.18-329.36l-61.08-32L1261,1008l-122.25-96.29Z"/><path fill="#13305c" d="M828.18,922.9s78.13,130,235.09,190.22c128.22-87.28,94-187.2,94-187.2s-136.8-116.37-218.51-130.6S809.81,886.11,828.18,922.9Z"/><path fill="#1d498c" d="M1017.29,1092.15c25.16-9,128.64-178.9,108.65-190.32,22.23,2.18,41.72,10.38,54.41,33.47,28,15.26-74.29,203-102.28,187.71Q1044.34,1130.51,1017.29,1092.15Z"/><path fill="#13305c" d="M654.48,1431.84c-129.28,97.43-352.37-61.81-320.6-188.19C443.7,1002,519.26,774.14,592.15,745c174.16-69.66,343.51,8.33,410.23,95.78,26.5,34.74,15.26,202.38-37.91,303.69C938.51,1190.83,654.48,1431.84,654.48,1431.84Z"/><path fill="#f7a594" d="M857.16,866c-9.25-25.52-67.82-92.16-77.35-119.71l81.5-122.71,75.26,36.79a247.82,247.82,0,0,1,50.51,49.89L952.26,802.6l-7.49,20.07C942,845.24,913,856.68,857.16,866Z"/><path fill="#e6836f" d="M867.73,666.62c.59,24,20.21,96.61,84.53,136l30.13-79.93Z"/><path fill="#f7a594" d="M1120.15,568.38c-6.08,29.1-20.25,92.62-34.42,118.39-21.58,39.23-80.07,67-115.86,57.8-40.08-13.57-86.5-48.52-103.55-85.4-7.26-25.4-17.68-82.55-14.26-126.85,7.14-92.42,94.78-136.34,173.08-120S1139.13,477.65,1120.15,568.38Z"/><path fill="#4d261c" d="M852,595.48c-2.92-32.81,21.57-34.39,33.91-4.33,5.28-21.34,9.14-89.18,37.71-99.22,32.53-11.94,126.82,42.72,205.05,11.63,0,0,0-104.67-153-112.66C793.7,401.75,852,595.48,852,595.48Z"/><ellipse cx="855.22" cy="586.02" fill="#f7a594" rx="27.31" ry="35.14" transform="rotate(-15.2 855.47 586.132)"/><path fill="#13305c" d="M1128.23,507.7c-14.18-12.56-246.06-24.09-247.55-7.16,0,0,141.83,65.48,259.84,65.56C1204.94,566.15,1128.23,507.7,1128.23,507.7Z"/><path fill="#1d498c" d="M845.37,499.58l284.28,8.27,7.26-37.5-300.14-11C836.47,473.24,839.37,489.77,845.37,499.58Z"/><path fill="#13305c" d="M826.45,463.73c-30.62-2-37.33-24.26,2.85-42.56,62-28.23,144.28-135.18,214.53-129.34,48.41,4,57.67,67.1,99.09,122.54,18.78,25.14,26.26,45.89,9.18,58.46C1113.83,481.19,858.51,465.78,826.45,463.73Z"/><path fill="#f7bd0c" d="M1073.8,360c.06-.9.09-1.36.11-1.57a69.57,69.57,0,0,1-17.62-8.06,55.64,55.64,0,0,1-13.36-11.66h0l-.06.06a49.61,49.61,0,0,1-6.75,5.25,63.93,63.93,0,0,1-10.9,5.63c-2,.8-4,1.54-6,2.16a67.36,67.36,0,0,1-9.52,2.15c0,.53-.18,2.57-.64,9.34-.1,1.35-.2,2.89-.32,4.65-.06.87-.13,1.8-.2,2.79-.2,3-.44,6.44-.72,10.52a42.47,42.47,0,0,0,1.6,15,43.48,43.48,0,0,0,1.53,4.38,50.11,50.11,0,0,0,6.56,11.28,63.28,63.28,0,0,0,7.87,8.48,70.41,70.41,0,0,0,9,6.85c1.12.71,2,1.21,2.49,1.48a71.37,71.37,0,0,0,9.74-4.94c1.83-1.12,3.79-2.42,5.78-3.93q1.5-1.14,3-2.43c8-6.88,15.68-17.16,16.68-31.65C1073.15,369.38,1073.61,362.65,1073.8,360Z"/><ellipse cx="1039.83" cy="383.64" fill="#fff" rx="20.85" ry="20.94" transform="rotate(-81.19 1039.84 383.636)"/><path fill="#bf5847" d="M1020.37,654.52a33.53,33.53,0,0,1-17-4.38,1.51,1.51,0,1,1,1.63-2.55,32.37,32.37,0,0,0,23.14,3,3.25,3.25,0,0,0,2-1.7c5.89-10.23-5.44-54.6-10.31-70.84a1.51,1.51,0,1,1,2.9-.87c.73,2.44,17.79,59.77,10,73.23a6.14,6.14,0,0,1-3.93,3.12A36.3,36.3,0,0,1,1020.37,654.52Z"/><path fill="#bf5847" d="M1010.78,706.2a1.54,1.54,0,0,1-.77-.21,1.52,1.52,0,0,1-.53-2.08,6.71,6.71,0,0,0,.45-6.61c-7.79-16.77-73.9-28.13-74.57-28.24a1.52,1.52,0,0,1,.5-3c2.79.47,68.37,11.75,76.82,29.95a9.67,9.67,0,0,1-.59,9.43A1.53,1.53,0,0,1,1010.78,706.2Z"/><path fill="#4f241d" d="M969.68,572.15c-.65,5-4.18,8.57-7.89,8.08s-6.19-4.88-5.54-9.83,4.17-8.56,7.88-8.08S970.32,567.21,969.68,572.15Z"/><path fill="#4f241d" d="M941.92,546.17S969,558.43,987.64,575.3c5.68-3.89-19.06-33.1-33-38.46Z"/><path fill="#4f241d" d="M1080.62,591.82c-.64,4.95-4.17,8.56-7.88,8.08s-6.19-4.89-5.55-9.83,4.17-8.56,7.88-8.08S1081.27,586.87,1080.62,591.82Z"/><path fill="#4f241d" d="M1102,580.12s-29.71-1.79-54,4.46c-3.22-6.09,32.29-20.39,47.16-18.62Z"/><path fill="#231f20" d="M876.87,830.28l-3.4,31.83,17.89-25-10,51.75c.34-9.39-9.3-23.77-9.3-23.77s-18.74-2.28-35.65,9.31Z"/><path fill="#1d498c" d="M799.23,716.6c3.61,33.4,51.11,84,77.64,113.68l-40.49,44.09c-30.94-37.22-72.22-83.27-66.1-143.93C773,714.57,783.45,711.27,799.23,716.6Z"/><path fill="#1d498c" d="M953.71,800.79c-6.8,7.17-28,38.61-62.35,36.29l-10,51.75c48.38,1.55,61.93-16.26,74.73-49.39C961.09,826.22,964.94,811.11,953.71,800.79Z"/><path fill="#231f20" d="M482,1443.31a1.89,1.89,0,0,1-1.19-3.36c182-147.4,366.21-439.48,389.4-575.21a1.89,1.89,0,0,1,3.73.64c-11.23,65.75-61.13,170.86-133.46,281.17-79.32,121-170.69,226.2-257.29,296.34A1.9,1.9,0,0,1,482,1443.31Z"/><path fill="#f7bd0c" d="M942.15,1037.67c.38-.8.56-1.2.65-1.39a67.72,67.72,0,0,1-13.19-13.46,54.39,54.39,0,0,1-8.07-15.25h0l-.07,0a49,49,0,0,1-8,2.42,62.26,62.26,0,0,1-11.87,1.31c-2.06,0-4.14,0-6.24-.14a67,67,0,0,1-9.4-1.37l-3.85,8.25c-.55,1.2-1.19,2.56-1.91,4.11-.36.78-.75,1.6-1.15,2.48l-4.33,9.29a41.35,41.35,0,0,0-3.77,14.14,40.23,40.23,0,0,0-.13,4.51,48.23,48.23,0,0,0,2,12.53,60.71,60.71,0,0,0,4.2,10.44,66.14,66.14,0,0,0,5.78,9.36c.77,1,1.38,1.79,1.74,2.22a69.29,69.29,0,0,0,10.57-1.1,64.24,64.24,0,0,0,6.63-1.55c1.17-.34,2.37-.72,3.57-1.16,9.67-3.46,20.24-10.11,26.2-22.93Z"/><rect width="88.54" height="16.23" x="828.04" y="1102.39" fill="#1d498c" transform="rotate(26.05 872.284 1110.44)"/><path fill="#f7a594" d="M514,1100.89s25.49,191,78.33,244.47c54.6,55.22,364.05,24.89,364.05,24.89l-10.66-74.74L712.26,1232.8l2.52-153.3Z"/><path fill="#13305c" d="M520.66,842.67s-55.29,138.85-8.8,297.83c144.94,48.42,202.85-38,202.85-38s9.58-176.7-28-249.24S538.54,806.32,520.66,842.67Z"/><path fill="#1d498c" d="M500.85,1091.94c22.09,14.33,217-5.93,214-28.42,11.56,18.73,16.77,38.9,6.25,62.63,4.74,31-203.46,62.9-208.2,31.85Q486.93,1136,500.85,1091.94Z"/><path fill="#231f20" d="M714.89,1065.3a1.9,1.9,0,0,1-.4,0,1.78,1.78,0,0,1-1.33-2.13c6.1-26.56,7.57-60.29,4.05-92.55a1.78,1.78,0,1,1,3.54-.39c3.57,32.64,2.06,66.81-4.12,93.73A1.78,1.78,0,0,1,714.89,1065.3Z"/><path fill="#f7a594" d="M912.94,1290.23s23.62-45.71,34.28-45.42,16.08,5.27,16.08,5.27,21-18.79,38.94-2.41,42.51,46.69,29.79,79.61-72.9,52.19-96.6,40.27C935.43,1367.55,887.31,1345.19,912.94,1290.23Z"/><path fill="#f7a594" d="M1475.93,774.56c-14.22-27.23-47.79-70.84-61.09-70.63s-47.29,61.93-46.26,80.72c.85,15.49,9.11,49.25,15.8,61.69,8.4,15.62,45.77,30.39,65.79,4.5S1486,793.89,1475.93,774.56Z"/><path fill="#bf5847" d="M1422.06,801.65a1.51,1.51,0,0,1-1.44-1c-11-32.64-29.67-50.57-29.86-50.75l-.89-.84.64-1c.06-.11,6.66-11,12.51-29.91,1.5-4.86,1.2-9.15-.9-12.75-4.25-7.28-14.41-9.58-14.51-9.6a1.52,1.52,0,1,1,.65-3c.47.1,11.57,2.61,16.48,11,2.54,4.36,2.94,9.47,1.17,15.17-5,16.16-10.41,26.38-12.21,29.56,3.9,4,19.77,21.37,29.79,51.13a1.52,1.52,0,0,1-1,1.92A1.61,1.61,0,0,1,1422.06,801.65Z"/><path d="M1494.75,1065.18c-27.74-1.41-49.76-22.68-49.76-48.73s22-47.32,49.76-48.72v-11c-34.29,1.42-61.61,27.61-61.61,59.72s27.32,58.31,61.61,59.73C1505.17,1076.18,1505.17,1065.18,1494.75,1065.18Z"/><path d="M1566.13,993.39c-8.93-22.87-31.48-36.72-56.12-37v11.13c19.82.48,37.88,11.72,45.07,30.16,9.47,24.27-3.31,52.09-28.64,63.48-9.7,3.79-5.7,14,4,10.25C1561.87,1057.64,1577.8,1023.3,1566.13,993.39Z"/><polygon points="1529.77 967.97 1473.56 967.97 1481.28 941.56 1522.05 941.56 1529.77 967.97"/><polygon points="1453.11 811.1 1504.32 787.94 1508.17 815.19 1471.03 831.99 1453.11 811.1"/><path d="M1432.26,700a59.23,59.23,0,1,0,78.37,29.56A59.24,59.24,0,0,0,1432.26,700Zm44.38,98.12A48.46,48.46,0,1,1,1500.83,734,48.45,48.45,0,0,1,1476.64,798.16Z"/><path fill="#fff" d="M1484.67,811.64h0a2.54,2.54,0,0,1-3.3-1.43h0a2.55,2.55,0,0,1,1.43-3.3h0a2.55,2.55,0,0,1,3.3,1.43h0A2.54,2.54,0,0,1,1484.67,811.64Z"/><path fill="#fff" d="M1486.54,816.37h0a1,1,0,0,1-1.25-.54l-1.74-4.39a1,1,0,0,1,.54-1.26h0a1,1,0,0,1,1.26.55l1.74,4.39A1,1,0,0,1,1486.54,816.37Z"/><path d="M1497.53,862.8a8.77,8.77,0,0,1-8.44-6.4l-4.79-17.11a8.76,8.76,0,0,1,6.07-10.8l2.42-.68a8.78,8.78,0,0,1,10.81,6.07l4.79,17.11a8.78,8.78,0,0,1-6.07,10.81l-2.42.68A8.84,8.84,0,0,1,1497.53,862.8Zm-2.38-28.86a2.1,2.1,0,0,0-.61.09l-2.43.68a2.31,2.31,0,0,0-1.59,2.84l4.79,17.11a2.31,2.31,0,0,0,2.84,1.6l2.42-.68a2.34,2.34,0,0,0,1.39-1.1,2.28,2.28,0,0,0,.21-1.75l-4.79-17.1a2.33,2.33,0,0,0-1.09-1.39A2.46,2.46,0,0,0,1495.15,833.94Z"/><path d="M1503,900.31a8.77,8.77,0,0,1-8.71-7.82l-1.91-17.67a8.77,8.77,0,0,1,7.78-9.65l2.5-.27a8.77,8.77,0,0,1,9.65,7.78l1.91,17.66a8.77,8.77,0,0,1-7.78,9.65l-2.5.27A7.5,7.5,0,0,1,1503,900.31Zm.6-29h-.25l-2.5.27a2.31,2.31,0,0,0-2,2.54l1.9,17.66a2.3,2.3,0,0,0,2.54,2.05l2.5-.27a2.3,2.3,0,0,0,2-2.54l-1.9-17.66a2.29,2.29,0,0,0-.85-1.55A2.32,2.32,0,0,0,1503.55,871.31Z"/><path d="M1505.23,939.85h-2.51a8.78,8.78,0,0,1-8.77-8.77V913.32a8.78,8.78,0,0,1,8.77-8.77h2.51a8.77,8.77,0,0,1,8.77,8.77v17.76A8.77,8.77,0,0,1,1505.23,939.85ZM1502.72,911a2.32,2.32,0,0,0-2.31,2.31v17.76a2.31,2.31,0,0,0,2.31,2.31h2.51a2.3,2.3,0,0,0,2.31-2.31V913.32a2.31,2.31,0,0,0-2.31-2.31Z"/><path d="M1502.36,877.34a3.23,3.23,0,0,1-3.18-2.68L1495.42,853a3.23,3.23,0,1,1,6.36-1.11l3.76,21.65a3.22,3.22,0,0,1-2.63,3.73A3.41,3.41,0,0,1,1502.36,877.34Z"/><path d="M1504.31,917a3.23,3.23,0,0,1-3.23-3.2l-.25-22a3.23,3.23,0,0,1,6.46-.08l.25,22a3.23,3.23,0,0,1-3.19,3.27Z"/><path d="M1504.29,956.1h0a3.21,3.21,0,0,1-3.2-3.25l.19-22a3.29,3.29,0,0,1,3.26-3.2,3.21,3.21,0,0,1,3.2,3.25l-.19,22A3.23,3.23,0,0,1,1504.29,956.1Z"/><path d="M1494,838.83a3.21,3.21,0,0,1-3-2.17l-5.45-15.58a3.23,3.23,0,1,1,6.09-2.14l5.45,15.59a3.23,3.23,0,0,1-2,4.12A3.29,3.29,0,0,1,1494,838.83Z"/><path fill="#fff" d="M1503.43,952.8h0a2.57,2.57,0,0,1-2.56-2.54h0a2.57,2.57,0,0,1,2.54-2.56h0a2.57,2.57,0,0,1,2.56,2.54h0A2.57,2.57,0,0,1,1503.43,952.8Z"/><path fill="#fff" d="M1503.45,957.88h0a1,1,0,0,1-1-1l0-4.72a1,1,0,0,1,1-1h0a1,1,0,0,1,1,1v4.72A1,1,0,0,1,1503.45,957.88Z"/><path fill="#f7a594" d="M1416.61,727.71c-.95,0-12,13.4-16.6,30.56a87.42,87.42,0,0,0-8.21-9.5s6.69-10.91,12.67-30.26-16.54-24.27-16.54-24.27-21.46,28.49-23.57,55.58,15.83,82.33,15.83,82.33l34-26c17.17,15.27,41.07,15.93,47.08,6.31,7.56-12.11,10.21-26.48,10.21-26.48Z"/><path fill="#bf5847" d="M1444.14,819.72c-11,0-23.44-6-35.38-17.16-24.83-23.31-.8-67,.24-68.84a1.51,1.51,0,1,1,2.64,1.48c-.24.43-23.91,43.47-.81,65.15,14.51,13.62,29.58,19.1,41.34,15,9.74-3.36,16.52-13.16,18.61-26.87a1.52,1.52,0,0,1,3,.46c-2.27,14.86-9.78,25.53-20.62,29.28A27.69,27.69,0,0,1,1444.14,819.72Z"/><path fill="#bf5847" d="M1408.78,800.54a1.47,1.47,0,0,1-1-.36,1.51,1.51,0,0,1-.18-2.13c16.66-19.67,18.25-46.56,18.26-46.83a1.52,1.52,0,0,1,3,.16c-.06,1.14-1.66,28.19-19,48.63A1.53,1.53,0,0,1,1408.78,800.54Z"/><path fill="#bf5847" d="M1430,815.34a1.5,1.5,0,0,1-1-.36,1.52,1.52,0,0,1-.18-2.14c16.66-19.66,18.24-46.55,18.26-46.82a1.52,1.52,0,1,1,3,.16c-.06,1.14-1.66,28.18-19,48.62A1.5,1.5,0,0,1,1430,815.34Z"/><path fill="#d9ffff" d="M867.14,1044.61h0c.15-.77.21-1.1.22-1.18C867.34,1043.57,867.14,1044.61,867.14,1044.61Z"/><path fill="#d9ffff" d="M867.14,1044.61h0c.15-.77.21-1.1.22-1.18C867.34,1043.57,867.14,1044.61,867.14,1044.61Z"/><path fill="#d9ffff" d="M1324.79,1131.44l.23-1.18c0,.08-.08.42-.23,1.18Z"/><path fill="#d9ffff" d="M1324.79,1131.44l.23-1.18c0,.08-.08.42-.23,1.18Z"/><path fill="#fff" d="M1119.91,964c-63.92,47-157.73,77.91-252.55,80.91-1.14,6-7.51,39.59-36.86,194.19C791.35,1445.32,970,1582.72,997.78,1603.87c32.2-8.11,250.68-71.81,289.83-278,29.35-154.6,35.72-188.14,36.87-194.19C1237.35,1094.12,1162.14,1031.17,1119.91,964Z"/><path fill="#007880" d="M1112.45,1001.21c-61.11,38-140.47,62.15-223.88,67.86L855.4,1243.8c-15.18,80,3.35,158.25,55.08,232.73a461.77,461.77,0,0,0,93.08,98.23l3.33-1,105.94-572.06C1112.71,1001.53,1112.57,1001.37,1112.45,1001.21Z"/><path fill="#008f99" d="M1112.83,1001.7l-105.94,572.06a462.05,462.05,0,0,0,119.29-56.3c75.42-50.36,121.36-116.43,136.54-196.38l33.17-174.73C1220.58,1110.6,1155.74,1059.28,1112.83,1001.7Z"/><path fill="#fff" d="M973.63,1236.63,948.54,1372.1c-2.79,15.09,182.25,49.34,185,34.26l25.09-135.48Zm88.56,90.8-7.11,38.4a9.52,9.52,0,1,1-18.72-3.47l7.12-38.48a23.16,23.16,0,1,1,18.71,3.55Z"/><path fill="#fff" d="M1144.26,1258.23l-18.73-3.47,1.69-9.12a58.56,58.56,0,0,0-115.17-21.32l-1.69,9.12L991.63,1230l1.69-9.12c7.76-41.89,48.3-69.63,90.39-61.84s70,48.21,62.24,90.1Z"/></g></svg>