<svg xmlns="http://www.w3.org/2000/svg" viewBox="0 0 4000 2000"><g style="isolation:isolate"><rect width="3594.25" height="7.97" x="222.29" y="1868.15"/><g data-name="female 02"><path fill="#fff" d="M3363.72,1275l-2.19,228.4c-.24,25.42,311.72,28.39,312,3l2.19-228.4Zm170.6,122.92-.62,64.73a15.78,15.78,0,0,1-31.56-.3l.62-64.88a38.37,38.37,0,1,1,31.56.45Z"/><path fill="#fff" d="M3648.53,1261.41l-31.58-.3.15-15.38c.51-53.29-42.63-97.06-96.16-97.56s-97.5,42.43-98,95.72l-.15,15.38-31.58-.3.15-15.38c.67-70.63,58.94-127.53,129.89-126.86s128.11,58.68,127.43,129.3Z"/><path fill="#007880" d="M3525.08,806.22c-.2-.23-.43-.44-.63-.67C3437,898.28,3297.76,973.92,3149,1005.68c-.09,9.92-.63,64.88-3.08,318.22-3.28,337.94,317.48,504.77,367.28,530.37C3369.66,1259.69,3486.45,901.14,3525.08,806.22Z"/><path fill="#008891" d="M3525.08,806.22c-38.63,94.92-155.42,453.47-11.84,1048.05,48.5-22,375-185.2,378.32-523.14,2.46-253.33,3-308.29,3.09-318.21C3746.94,978.36,3610.79,900.33,3525.08,806.22Z"/><path fill="#fff" d="M3513,1866.19l-4.62-2.37c-97.62-50.2-166-109.31-206.27-150.07-49.77-50.43-89.06-105.4-116.78-163.38a509.45,509.45,0,0,1-50.05-226.58L3138.39,997l8.41-1.8c144.27-30.8,282.53-104.45,369.84-197l7.92-8.4,7.89,8.61c.19.2.38.39.56.59h0c85.72,94.13,221.83,170.2,364.08,203.47l8.37,2-.08,8.61c-.1,9.81-.6,60.37-3.09,318.21-3.4,349.69-345.61,515.1-384.62,532.81Zm-353.26-851.86-3,309.67c-2.88,296.58,244.8,459.79,356.82,518.32,54.65-25.77,364.16-186.07,367.32-511.29,2.1-216.5,2.78-286.86,3-309.67a814.35,814.35,0,0,1-202.49-80.11c-60.71-34.18-114.78-75.56-157-120.1C3435.6,911.07,3300.74,982.58,3159.69,1014.33Z"/><path fill="#00bfcc" d="M3518.78,1791.61l-10.44-.65c-34.83-18.33-102.94-58.84-167.82-124-99.36-99.94-149.1-215-147.87-342.06l2.73-279.81,9.41-2.39c120.34-30.35,230.27-86.7,309.55-158.66l8.91-8.11,8.48,8.57-8.25,9.49,8.62-9.17c77.86,73.24,186.43,131.47,305.73,164l9.36,2.52-2.72,279.81c-1.24,127-53.19,241.14-154.43,339.11-64,61.91-131.11,100.75-165.44,118.4Zm-298.43-726.95-2.53,260.42c-1.16,120.08,46.12,229.1,140.53,324.06,59.14,59.48,121.07,97.57,156,116.5,33.13-17.1,97.15-54.4,158.19-113.44,96.24-93.13,145.62-201.23,146.78-321.27l2.53-260.47c-115.63-33-221.15-89.43-299.2-160.15C3443.26,979.42,3336.7,1033.87,3220.35,1064.66Z"/><path fill="#fff" d="M3370.8,1279.21,3369.64,1501c-.13,24.69,301.45,26.27,301.58,1.58l1.16-221.83Zm165.43,118.67-.33,62.87a15.26,15.26,0,1,1-30.51-.16l.33-63a37.1,37.1,0,1,1,30.51.3Z"/><path fill="#fff" d="M3646.07,1264.84l-30.53-.16.08-14.93a93.86,93.86,0,1,0-187.72-1l-.07,14.94-30.53-.16.08-14.94a124.38,124.38,0,1,1,248.76,1.31Z"/><path fill="#0d0d0d" d="M3048.36,490.86s-16.56-27.13,1.53-49.7c24.45-30.5,50.84-15.06,50.84-15.06s-15.7-49.38,28.9-65.83c37.18-13.72,60.78,44.24,60.78,44.24s43-47.54,77.25-9.34c43.08,48-1.52,87.36-1.52,87.36S3310,507.39,3292,553s-73,27.82-73,27.82-3.43,29.82-39.62,37-51.94-27.83-51.94-27.83-21.68,23.94-44.3,11S3069.54,554,3069.54,554s-29.37.76-35.81-23.93S3048.36,490.86,3048.36,490.86Z"/><path fill="#267fbf" d="M3297.37,741.83c-6.68,24.79-15.13,49.76-23.21,72.2-12.27,34-23.66,62.24-26.56,75l-191.7-15.45s-1.15-39.78-4.09-78.51c-1.53-20.3-3-42.45-3.88-62.82-1.41-32.11-1.38-59.81,2-68.92,9.69-25.91,41.45-61.61,68.62-87.94S3312.4,588,3306.73,635.15C3314.21,662.71,3308.09,702,3297.37,741.83Z"/><path fill="#e6876c" d="M3156.16,566.42s-39,41.76-9.89,80.07c72.63-10.09,105.11-57.65,106.48-59.54C3210.9,544.92,3156.16,566.42,3156.16,566.42Z"/><path d="M3047.93,732.28c.89,20.37,2.35,42.52,3.88,62.82L3274.16,814c8.08-22.44,16.53-47.41,23.21-72.2Z" style="mix-blend-mode:soft-light" opacity=".8"/><path fill="#48c6c6" d="M3150.58,1050.13,2932.4,1244.38l144.75,266.87-40,44.71s-229.95-223.1-231-295c-1.52-83.93,192.81-321.41,192.81-321.41C3120.07,800.83,3240.85,968.45,3150.58,1050.13Z"/><path fill="#185480" d="M3089.25,1662.25c-7.88-8.29,4.48-42.9,4.48-42.9l-211.41-228.27,99.15-56.31L3075,1506.24l26.34,8.39,32.34,94Z"/><polygon fill="#185480" points="3160.97 1575.81 3072.21 1541.73 3101.24 1514.4 3166.75 1568.85 3160.97 1575.81"/><path fill="#48c6c6" d="M3292,1015.08c-31.81,247-114.8,734.83-114.8,734.83l-63.45-3.57-8-724.72C3114.13,920,3288.65,869.85,3292,1015.08Z"/><path fill="#185480" d="M3069.12,1867.78c-13.76-11.35,19-25.56,19-25.56l25-109.25-1.41-134,90.93,2.39-22,131.21-1.69,44.5-46.66,90.69Z"/><polygon fill="#185480" points="3157.51 1867.78 3137.43 1771.59 3179.01 1776.81 3167.17 1867.78 3157.51 1867.78"/><path fill="#48c6c6" d="M3247.6,889.06s74.13,80.86,36,175.92c-78.8,8.42-307.7-70.08-307.7-70.08,30.6-55.36,34-71.85,80.74-123.52C3200.17,885.78,3247.6,889.06,3247.6,889.06Z"/><path fill="#e6876c" d="M3296.47,769.18c-20.17,24.78-96.94,15.94-155.09,4.92-38.75-7.34-69.24-15.65-69.24-15.65a99.64,99.64,0,0,1-17.59-6.22,39.21,39.21,0,0,1-5.41-3.06c-9.24-6.26-7.51-12.76,12.44-15.77l194.84-14.57c-14.51-64.51,12.45-138.52,45.93-99.47C3302.35,619.36,3344.6,705.32,3296.47,769.18Z"/><path fill="#e6876c" d="M3263.94,484.75l-3.81,18.65-13.66,67-4.66,22.82c-10.54,22.52-71.66,1.65-82.34-21,1.45-4.23,4.72-14.14,8.66-26.07,7.39-22.35,17.06-51.76,21.22-64.17l1.1-3.25,28.9,2.38Z"/><path fill="#b35e46" d="M3263.39,484.67l-14.26,69.95c-58.13-19.09-60.44-76.88-60.44-76.88l2.36-4.74s31.44.88,57.91,5.63A39,39,0,0,1,3263.39,484.67Z"/><path fill="#e6876c" d="M3358,441.74c-.08,60.51-42.19,106.1-72.59,107.39-49.51,2.11-106.93-47.14-106.85-107.65s40.33-109.5,89.88-109.43S3358,381.23,3358,441.74Z"/><path fill="#b3523d" d="M3303.69,479.71a38,38,0,0,1-6.73-.57,1.24,1.24,0,0,1-1-1.52,1.41,1.41,0,0,1,1.65-1c.1,0,10.39,2,15.82-1.86a1.76,1.76,0,0,0,.75-1.36c.44-4.4-8-13.6-11.28-16.78a1.23,1.23,0,0,1,.06-1.81,1.44,1.44,0,0,1,1.94,0c1.29,1.25,12.64,12.41,12,18.75a4.35,4.35,0,0,1-1.87,3.22C3311.79,479.09,3307.35,479.69,3303.69,479.71Z"/><path fill="#222" d="M3260.14,439.41a2.24,2.24,0,0,1-2.24-2.13c-.27-5.7,3.2-10.61,7.9-11.19a7.42,7.42,0,0,1,5.71,1.76,10.66,10.66,0,0,1,3.51,7.67,2.24,2.24,0,0,1-4.48.21,6.18,6.18,0,0,0-1.92-4.45,2.92,2.92,0,0,0-2.27-.74c-2.31.28-4.13,3.27-4,6.52a2.25,2.25,0,0,1-2.13,2.35Z"/><path fill="#222" d="M3322,437.79a2.24,2.24,0,0,1-2.24-2.13c-.27-5.7,3.2-10.61,7.9-11.18a7.32,7.32,0,0,1,5.7,1.76,10.6,10.6,0,0,1,3.51,7.67,2.24,2.24,0,1,1-4.47.21,6.28,6.28,0,0,0-1.92-4.46,3,3,0,0,0-2.28-.74c-2.3.28-4.12,3.27-4,6.53a2.23,2.23,0,0,1-2.13,2.34Z"/><path fill="#b33a20" d="M3255.08,495.86s30.72,15.38,68.48,2.62c0,0-15.23,33.83-43.7,29.16S3255.08,495.86,3255.08,495.86Z"/><path fill="#0e0e0e" d="M3335.83,363.26s-98.25,15.4-154.24,141c-44.66-78.74-39.16-140,14.52-175.66C3244.16,296.62,3308.59,318.72,3335.83,363.26Z"/><path fill="#0e0e0e" d="M3328.38,365s26.41,16.62,29.56,75.06c5.81-48.86-14.44-145.2-121.08-126.42S3328.38,365,3328.38,365Z"/><circle cx="3208.37" cy="453.5" r="21.19" fill="#e6876c" transform="rotate(-42.67 3208.341 453.507)"/><path fill="#fff" d="M3199.85,515.19a24.4,24.4,0,0,1-24.17-21.52,24.47,24.47,0,0,1,16.51-26,.85.85,0,0,1,.53,1.62,22.67,22.67,0,1,0,12.52-.53.85.85,0,1,1,.4-1.65,24.38,24.38,0,0,1-2.88,47.91A23.9,23.9,0,0,1,3199.85,515.19Z"/><path fill="#b35e46" d="M3256.42,718.83c-54.6,14.2-98.8,34.15-115,55.27-38.75-7.34-69.24-15.65-69.24-15.65a99.64,99.64,0,0,1-17.59-6.22l-5.41-3.06c-9.24-6.26-7.51-12.76,12.44-15.77Z"/><path fill="#e6876c" d="M3120.83,573.59c-27.56,7.81-170.66,77.76-155.12,145.24,32,55.27,266.51,1.81,266.51,1.81s-12.74-19.54-32.56-23.69-39.9,3.2-39.9,3.2L3058,677.55C3057.42,651.15,3078.13,613,3120.83,573.59Z"/></g><g data-name="male 02"><g data-name="male 01"><polygon fill="#ffa88f" points="2451.61 1744.63 2449.33 1828.57 2380.27 1828.57 2375.48 1745.12 2451.61 1744.63"/><polygon fill="#ffa88f" points="2124.38 1730.37 2102.66 1818.02 2022.67 1818.02 2034.37 1730.24 2124.38 1730.37"/><path fill="#267fbf" d="M2413,995.05c14.18,90.09,29.69,425.53,38.57,739.27l-81.08.51c-59.38-256.25-100.86-501.25-132.05-739.78Z"/><polygon fill="#267fbf" points="2032.79 1738.8 2106.37 998.32 2303.35 1001.05 2129.35 1744.44 2032.79 1738.8"/><path fill="#185078" d="M2301.69,1153.33s-45.55,9.69-102.73-6.79C2254.22,1183.61,2301.69,1153.33,2301.69,1153.33Z"/><path fill="#5dade8" d="M2364.24,1120.93c8.38,26.27,25.7,46.3,48.8,60.69v6.66c-47.84-18.38-61.27-61-61.27-61Z"/><path fill="#5dade8" d="M2141,1105.62l12.48,6.34s-17.28,44.06-65.12,62.44l1.77-7.21C2113.22,1152.8,2132.6,1131.89,2141,1105.62Z"/><path fill="#195580" d="M2480.16,1769.05c7.85,17.74,27.86,24.53,67.72,31.35,42.94-3.25,63.18,43.92,41.72,63.65H2377.39c-3.29-14.41-.32-56,1.92-76.47,18.5,12.17,37.94,9.89,58,2.23C2422.54,1753.56,2477.07,1747.62,2480.16,1769.05Z"/><path fill="#fff" d="M2547.88,1800.4s-36,2.46-38.43,42.49H2370.87v24h227.37a83.77,83.77,0,0,0-3.18-45C2586.44,1798.55,2550.93,1800,2547.88,1800.4Z"/><path fill="#fff" d="M2464.37,1793.76h0a3.08,3.08,0,0,0,4.07,1.51l31.18-14.31a3.07,3.07,0,0,0,1.51-4.07h0a3.07,3.07,0,0,0-4.07-1.51l-31.18,14.31A3.07,3.07,0,0,0,2464.37,1793.76Z"/><path fill="#fff" d="M2476.65,1802.06h0a3.07,3.07,0,0,0,4.07,1.51l31.18-14.31a3.07,3.07,0,0,0,1.51-4.07h0a3.08,3.08,0,0,0-4.07-1.51L2478.16,1798A3.07,3.07,0,0,0,2476.65,1802.06Z"/><path fill="#fff" d="M2491.46,1808.15h0a3.07,3.07,0,0,0,4.07,1.5l31.18-14.3a3.08,3.08,0,0,0,1.51-4.07h0a3.07,3.07,0,0,0-4.07-1.51l-31.18,14.3A3.08,3.08,0,0,0,2491.46,1808.15Z"/><path fill="#195580" d="M1951.07,1794.71c27.58-5.92,39-15.66,45.91-30,3.48-22.17,75.85-12.68,59.17,24.82,22.64,7.93,33.59,7,54.43-5.65,2.52,21.21,5.87,64.21,2.16,79.11H1947.27Z"/><path fill="#fff" d="M1971.84,1796.47s48,3.26,50.8,44.68h97.45V1866h-219C1887.11,1824.45,1937.27,1783.94,1971.84,1796.47Z"/><path fill="#fff" d="M2007.81,1797.3h0a3.49,3.49,0,0,1-4.12,2.43c-10-7.23-22.86-9.19-37.77-7.53a3.19,3.19,0,0,1-2.64-3.78h0a3.47,3.47,0,0,1,4.11-2.43c13.58-.81,26.36,1,37.77,7.53A3.21,3.21,0,0,1,2007.81,1797.3Z"/><path fill="#fff" d="M2022.71,1789.05h0a3.47,3.47,0,0,1-4.11,2.43c-10-7.23-22.87-9.19-37.77-7.53a3.19,3.19,0,0,1-2.64-3.78h0a3.47,3.47,0,0,1,4.11-2.43c13.57-.81,26.36,1,37.77,7.54A3.18,3.18,0,0,1,2022.71,1789.05Z"/><path fill="#fff" d="M2035.52,1780.85h0a3.47,3.47,0,0,1-4.11,2.43c-10-7.23-22.87-9.19-37.77-7.53A3.2,3.2,0,0,1,1991,1772h0a3.48,3.48,0,0,1,4.11-2.43c13.58-.81,26.36,1.06,37.77,7.54A3.2,3.2,0,0,1,2035.52,1780.85Z"/><path fill="#5dade8" d="M2457.49,1729.82c0-.41-93.73,0-93.73,0V1750l93.73,2Z"/><path fill="#5dade8" d="M2136.18,1730.93c0-.44-107.37-9.86-107.37-9.86l-2.2,22.22,107.36,12Z"/><path fill="#ffa88f" d="M2536.26,808.54c-77.48,1.32-152.27-51.19-216.62-82.06l32.76-118.35c66.52,34.2,147.81,81.76,181.68,103.62C2600.66,752.91,2577.78,814.05,2536.26,808.54Z"/><path fill="#48c6c6" d="M2340.16,600.25c51.71,11.71,104.63,40.07,149.06,67.71-60.41,56.28-30.07,124.49-24.41,140.93l-120.28-55.73C2293.59,720.84,2245.88,601.59,2340.16,600.25Z"/><path fill="#48c6c6" d="M2101.28,650.79c52.37-60.55,207-71.19,265.94-41.73l55.7,455.83c-49.06,33.28-262.21,40.76-337.82,6.41C2099.59,888.14,2061.56,696.72,2101.28,650.79Z"/><rect width="3.32" height="125.12" x="2387.81" y="734.52" fill="#007880" transform="rotate(-6.81 2389.634 797.111)"/><path fill="#ffa88f" d="M2232.36,749.64a322.58,322.58,0,0,0-44.33,24.3c-16.47,10.8-32.3,23-45.73,37.5-3.29,3.54-6.52,7.31-9.53,11.28,40.13,77.54,118.49,176,146.94,177.65,83.43,6.86,186.53-80.09,186.53-80.09l-18-41.3s-135.07,41.54-142.61,44.21C2300.12,925.12,2255.47,809.78,2232.36,749.64Z"/><path fill="#48c6c6" d="M2090.64,675.34s-6.55,63.83,51.23,194.11c122.91-25,127.08-57.82,127.08-57.82S2223.68,653.05,2161.6,634.9,2090.64,675.34,2090.64,675.34Z"/><path fill="#fff" d="M2272.47,826.88s-16.78,32.91-67,50.32c-41.63,14.43-58.55,3.4-58.55,3.4-9.84-7.81-8.52-17.89-6.92-22.52,0,0,38,1.34,74.46-14,47.17-19.86,50.27-47,50.27-47S2278.89,802.07,2272.47,826.88Z"/><path fill="#fff" d="M2298.11,593.63c16.78,3.26,39.69,18.2,18.83,52.09S2175.42,676,2170.27,636,2281.34,590.37,2298.11,593.63Z"/><path fill="#ffa88f" d="M2300.9,613.78l-3.1-13.27L2286.62,553l-14.73-62.8-79.27,2.13-2.69,132.08C2199.13,672.28,2319.36,652.94,2300.9,613.78Z"/><path d="M2214.19,541.09s54.12,49.84,83.61,59.42L2286.62,553Z" style="mix-blend-mode:soft-light" fill="#0d0d0d" opacity=".5"/><path fill="#ffa88f" d="M2348.78,431.35c21.91,44.54,21.29,112.4-30.75,138.4s-119.22-7.55-149.53-68.24-12.71-130.95,39.33-156.95S2332.89,356.54,2348.78,431.35Z"/><path fill="#733602" d="M2301.59,483.65a.92.92,0,0,1-.2-1.76c.1,0,10.65-4.38,10.86-12.27.14-4.73-4.88-5.3-10.95-5.53-2.45-.09-4.22-.16-5.18-.81l-.19-.13-5.77-10.9a.92.92,0,1,1,1.62-.86l5.54,10.46a17.51,17.51,0,0,0,4,.41c5.14.19,12.91.48,12.72,7.41-.26,9.1-11.54,13.73-12,13.92A1,1,0,0,1,2301.59,483.65Z"/><path fill="#522601" d="M2311.6,436.59a19.07,19.07,0,0,1-2.08-8.63c.08-3,1.21-5.19,3.16-6.14s4.37-.48,6.78,1.31a19.23,19.23,0,0,1,5.49,7l-2.82,1.37a16.14,16.14,0,0,0-4.54-5.84c-1.41-1-2.7-1.42-3.54-1s-1.35,1.65-1.4,3.4a16.26,16.26,0,0,0,1.77,7.19Z"/><path fill="#522601" d="M2228.88,466.62c-3.19-6.58-2.72-12.93,1.09-14.77s9.07,1.72,12.26,8.3l-2.82,1.36c-2.41-5-6.26-7.73-8.08-6.84s-2,5.59.37,10.58Z"/><path fill="#733602" d="M2267.16,525c-9.15-1.42-18.87-5.17-28.74-12.51a.92.92,0,0,1,1.1-1.47c41.75,31.07,81.17-4,81.56-4.4a.93.93,0,0,1,1.3.07.92.92,0,0,1-.06,1.29C2322,508.27,2297.87,529.79,2267.16,525Z"/><path fill="#59330b" d="M2345.27,418.14s-4.78-45.06-62.87-47.3c6.43,13.83,24.55,24.82,44.22,35.42,0,0-51.59,7.63-86.08-15.61,3,15.55,22.28,29.08,22.28,29.08s-37.68,10.8-57.16-6.72c1.69,32-24.81,74-13.73,122.77-55-42.68-78.11-57.79-85.36-102.22-10.4-63.7,59.64-117.69,120.47-127.82C2337.4,283.52,2376,352.46,2345.27,418.14Z"/><circle cx="2185.69" cy="483.59" r="20.06" fill="#ffa88f" transform="rotate(-68.57 2185.728 483.573)"/><ellipse cx="2331.89" cy="455.37" fill="#ff9475" rx="19.13" ry="8.89" transform="rotate(-11.03 2332.53 455.452)"/><ellipse cx="2239.82" cy="484.42" fill="#ff9475" rx="20.02" ry="8.89" transform="rotate(-11.03 2240.503 484.513)"/></g><path fill="#ffa88f" d="M2695.84,455.43c.25-1.05,12.28-27.44,41.53-22s34,45.87,14.09,58.87S2690.06,480.35,2695.84,455.43Z"/><path fill="#fff" d="M2543.37,669.89l-.6,137.45c-.06,15.31,187.67,16.11,187.74.81l.59-137.46Zm103.05,73.43-.17,39a9.5,9.5,0,0,1-19-.08l.17-39a23.1,23.1,0,1,1,19,.16Z"/><path fill="#fff" d="M2714.71,660.83l-19-.08,0-9.26a58.43,58.43,0,0,0-116.85-.5l0,9.26-19-.08,0-9.26c.19-42.5,35.07-76.93,77.77-76.75s77.28,34.91,77.09,77.41Z"/><path fill="#007880" d="M2639,387.3c-.12-.14-.26-.27-.38-.4-52.35,56.07-135.89,102-225.28,121.61,0,6-.17,39-.85,191.5-.91,203.37,192.64,302.76,222.69,318C2546.89,660.67,2616.05,444.54,2639,387.3Z"/><path fill="#008891" d="M2639,387.3c-22.94,57.24-92.1,273.37-3.82,630.72,29.11-13.4,225.1-112.63,226-316,.68-152.46.83-185.53.86-191.5C2773,490.19,2690.86,443.66,2639,387.3Z"/><path fill="#fff" d="M2635,1025.19l-2.78-1.41c-58.91-29.9-100.28-65.26-124.61-89.66-30.11-30.19-53.92-63.15-70.79-98A306.61,306.61,0,0,1,2406,700l.88-196.67,5-1.11c86.72-19,169.69-63.75,221.94-119.71l4.74-5.08,4.72,5.1.39.4h0c51.88,56.38,134,101.72,219.73,121.3l5.05,1.15,0,5.18c0,6-.18,39-.86,191.5-.94,210.44-206.35,311.05-229.77,321.84ZM2419.77,513.68,2418.94,700c-.8,178.48,148.76,275.91,216.35,310.78,32.81-15.67,218.56-113.11,219.43-308.83.58-128.6.77-172.26.84-186.36-84-20.18-164.3-64.37-217-119.35C2585.48,450.68,2504.55,494.13,2419.77,513.68Z"/><path fill="#00bfcc" d="M2638.31,980.29l-6.29-.36a427.46,427.46,0,0,1-101.38-74.11c-60.1-59.83-90.4-128.92-90.06-205.38l.76-168.39,5.66-1.46c72.32-18.65,138.29-52.9,185.78-96.45l5.33-4.91,5.13,5.13-4.93,5.73,5.15-5.54c47.09,43.83,112.61,78.53,184.5,97.75l5.64,1.49-.76,168.39c-.34,76.46-31.25,145.28-91.86,204.55a430.46,430.46,0,0,1-99.18,71.77ZM2456.43,543.77l-.7,156.73c-.32,72.26,28.47,137.72,85.58,194.56a412.56,412.56,0,0,0,94.24,69.62,415,415,0,0,0,94.84-68.76c57.62-56.35,87-121.56,87.31-193.8l.7-156.75c-69.68-19.47-133.36-53.12-180.55-95.43C2590.3,491.78,2526.35,524.88,2456.43,543.77Z"/><path fill="#fff" d="M2547.64,672.41v133.5c0,14.86,181.49,14.86,181.49,0V672.41Zm99.92,70.89v37.84a9.18,9.18,0,1,1-18.36,0V743.22a22.33,22.33,0,1,1,18.36.08Z"/><path fill="#fff" d="M2713.24,662.9h-18.37v-9a56.48,56.48,0,0,0-113,0v9h-18.37v-9a74.85,74.85,0,1,1,149.7,0Z"/><path fill="#ffa88f" d="M2724.19,434.53s-17.24,36.2-.86,50.85,62.62,6.34,66.93-10.9S2737.12,424.18,2724.19,434.53Z"/><path fill="#ffa88f" d="M2431,884.77s13.53-30.88,18-26c9.55,8.24,8.39,8.53,16.36,10.28s54.69-41.21,67.09-3.27-52,62.13-82.31,71.23S2412,893.46,2431,884.77Z"/></g><g data-name="female 01"><g data-name="lady 01"><path fill="#0d0d0d" d="M780.52,562.51s45.17-2.41,68.1,37.87-6.5,77.33-6.5,77.33,83.47,2.43,92.62,80.8-62.38,89.38-62.38,89.38S901,908,831.48,954.16s-136.17-40.23-136.17-40.23-57.77,21.92-103.54-35.6,5.44-114.87,5.44-114.87-33.71-24.91-25.84-84.85,56.33-60.88,56.33-60.88-22.59-35.84,2.93-61.81,65.69-2.76,65.69-2.76,12.36-45.31,44.45-38.84S780.52,562.51,780.52,562.51Z"/><path fill="#ffa88f" d="M639.39,677.14,473.81,613.49,395.37,411.3l-36,8.34S394.3,655.71,430,677.48c52.24,31.9,168.09,100.78,199.32,97.14S697.81,697,639.39,677.14Z"/><path fill="#267fbf" d="M515.94,946.43c17.15-98.39,5-156.28,17.51-186.76s64.66-78.19,86.41-85.78c59.1-20.61,139.86,4.9,147.45,89.12,6.13,67.86-90.22,198-90.22,198Z"/><path fill="#ffa88f" d="M735.82,1116.72l-135,230v.06L587.1,1370l-62.2,106-.06.13c2.54,118.86-53.5,231.12-89.77,312.38l-55.21,16.39L437,1470.52l16.71-97.9,45.55-266.51,80.18,3.62Z"/><path fill="#ffa88f" d="M838.55,1769.05l-45.17,19.44S639,1544.34,620.13,1476.36c-.25-.82-.44-1.71-.7-2.6-5.27-20.52-10.8-59-16-103.68-.89-7.56-1.77-15.38-2.6-23.26v-.06c-10.36-94.22-19.06-205.84-21.41-237-.45-5.53-.64-8.52-.64-8.52l188.56,4.9-44.34,268-14.3,86.4a5.11,5.11,0,0,1,.51.64C762.57,1525.22,808.37,1642.81,838.55,1769.05Z"/><path fill="#fff" d="M381.74,1792.26,366.33,1854s-24.09,2.27-26.56,14.16h66.4l23.68-60.2v60.2h9.07s23.68-51.21,21.45-73.07-12.82-34.36-12.82-34.36Z"/><path fill="#fff" d="M793.37,1788.52l24.25,44.72s-11,24.11-8.74,36.76c18.26,0,47.4-34.1,47.4-34.1l-12.36-56L875,1824.4l5.94-4.39s-15.94-59.67-29.31-74.85-23.09-16.3-23.09-16.3Z"/><path d="M453.68,1372.62c24.84-1,76.43-2.54,133.42-2.61l-62.2,106c-37.42-1-68.74-3.56-87.93-5.46Z" style="mix-blend-mode:soft-light" fill="#0d0d0d" opacity=".6"/><path d="M708.69,1460.54a5.11,5.11,0,0,1,.51.64c-29.22,6.48-59.84,10.42-89.77,12.58-5.27-20.52-10.8-59-16-103.68,40.6.19,82.91,1.27,119.57,4.06Z" style="mix-blend-mode:soft-light" fill="#0d0d0d" opacity=".6"/><path fill="#267fbf" d="M675.51,940.25c88.94,47.42,156.22,342,179.21,454.56-27.41,36.66-342.38,78.81-432,45.43,1.89-124.51,66.52-355.54,95.43-503.63Z"/><path fill="#fff" d="M633.91,686.44s-17.32,28.6,6.22,39.26,99.48-14,97.94-33.39S664.65,664.18,633.91,686.44Z"/><path fill="#fff" d="M630.69,692.71s-30.36,8.41-25.31-10.72c6.68-25.26,120-23.06,132.36,8.61C742,701.54,630.69,692.71,630.69,692.71Z"/><path fill="#ffa88f" d="M741.33,605.36l-10.1,81.32c-3.4,18-103,14.84-88.59-11.33l9.44-19.87,19.09-40.3,11.72-24.74Z"/><path d="M721.56,627.9c-19.14,29.69-58.58,28.56-69.48,27.58l24-50.58C702.54,591.44,735.85,605.8,721.56,627.9Z" style="mix-blend-mode:soft-light" fill="#0d0d0d" opacity=".6"/><path fill="#fff" d="M572.33,740a5.41,5.41,0,0,1-3-.79c-3.75-2.41-5.46-5.34-5.08-8.69,1.92-16.94,61.77-38.73,64.31-39.65A1.28,1.28,0,0,1,630,693C625.34,698.09,587.11,740,572.33,740Zm52.15-44.87c-19.3,7.44-56.36,24-57.68,35.68-.26,2.34,1,4.38,3.93,6.26C577.66,741.57,606,715.16,624.48,695.16Z"/><path fill="#fff" d="M607.58,763.66c-4,0-6.76-1.38-8.28-4.11-8.2-14.66,27.15-66,28.66-68.18a1.28,1.28,0,0,1,2.32.87c-.77,7.22-7.86,70.63-21.69,71.39Zm19.57-66.53C616,714,595.9,748.24,601.53,758.31c1.15,2.05,3.41,3,6.92,2.77C616.68,760.63,624,723.57,627.15,697.13Z"/><path fill="#ffa88f" d="M652,466.74c-47.91,50.82-53,126.82-29.8,148.31,39.23,42,105,33.1,149.46-23.63,41.57-53,64.18-110.06,25-152S678.74,423.53,652,466.74Z"/><path fill="#d96c4e" d="M682.43,588.89s-36.5-16.06-47-25.12C620.08,595,651,606.62,658.5,606.18,674.4,605.25,678.71,598.14,682.43,588.89Z"/><path fill="#0e0e0e" d="M658.93,550.44a.7.7,0,0,1-.31-.07c-.4-.19-9.71-4.68-10.07-9.8-.14-1.87.89-3.55,3.06-5l.17-.11H652a30.53,30.53,0,0,0,15.55-4.68.73.73,0,0,1,1,.27.72.72,0,0,1-.26,1,31.94,31.94,0,0,1-16,4.87c-1.6,1.1-2.33,2.27-2.24,3.55.25,3.54,6.75,7.39,9.24,8.58a.73.73,0,0,1-.32,1.39Z"/><path fill="#0e0e0e" d="M708.71,532.08c-1.78,3.49-1.06,7.43,1.62,8.8s6.31-.34,8.09-3.83,1.06-7.44-1.62-8.81S710.5,528.59,708.71,532.08Z"/><path fill="#0e0e0e" d="M646.13,499.24c-2,3.24-1.5,7.14,1.08,8.71s6.25.21,8.23-3,1.49-7.14-1.08-8.71S648.1,496,646.13,499.24Z"/><path fill="#0d0d0d" d="M754.83,500.12c2.41-.52-22,52.2,29.64,89.93,75.78-22.37,102-161.57-18.69-170.84-63.84,1.37-72.22-41.85-106.06-28.19C590.71,426.21,673,517.77,754.83,500.12Z"/><circle cx="768.8" cy="591.05" r="20.16" fill="#ffa88f" transform="rotate(-79.33 768.74 591.056)"/><path fill="#ffa88f" d="M681.61,797.2l78.18,147.63-59.27,190.92,34.59,9.52s90.74-158.55,90.79-199.88c.09-65.88-52.4-185.93-74.68-207.63S660.39,740,681.61,797.2Z"/><path fill="#ffa88f" d="M738,1132.22c14.5,35.52,7,47.89,1.59,60.21-7.9,18.19-34,34.53-39.64,25.46,0,0,9.74-27.91,8.68-29.11s-11.1,41.22-19.28,38.82c-5.52-1.63,10-82.87,10-82.87s7.27-16.67,19-20.07C724,1123,734.71,1123.1,738,1132.22Z"/><path fill="#ffa88f" d="M695.62,1142.16c-9.26,13.52-17.14,28-20.51,45.49,12.46,5.78,15.71-17.26,23.5-21.42,3.36-1.79,18.07-1.66,25-16.19S710.78,1116.61,695.62,1142.16Z"/><path fill="#f07552" d="M708.67,1220.06a.41.41,0,0,1-.39,0,.42.42,0,0,1-.18-.57c.1-.19,10-19.27,13.09-35.17a.41.41,0,0,1,.49-.33.42.42,0,0,1,.34.49c-3.12,16-13.07,35.21-13.17,35.4A.39.39,0,0,1,708.67,1220.06Z"/><path fill="#f07552" d="M719.66,1215.43a.44.44,0,0,1-.43,0,.42.42,0,0,1-.12-.58c.12-.19,12-19,13.9-35.17a.42.42,0,0,1,.84.1c-1.91,16.35-13.92,35.33-14,35.52A.4.4,0,0,1,719.66,1215.43Z"/></g><path fill="#d9ffff" d="M390.17,124.68h0l.88-.8C390.94,124,390.17,124.68,390.17,124.68Z"/><path fill="#d9ffff" d="M390.17,124.68h0l.88-.8C390.94,124,390.17,124.68,390.17,124.68Z"/><path fill="#d9ffff" d="M571.23,383.61l.88-.81-.88.81Z"/><path fill="#d9ffff" d="M571.23,383.61l.88-.81-.88.81Z"/><path fill="#006b73" d="M545.53,195.31c0-.18.07-.36.12-.53a265.56,265.56,0,0,1-160.25-42.4L254.68,271.88c-59.81,54.67-101.06,122.27-122.6,200.93-14.16,51.68-15.78,93.82-15.51,114.2l2.38.63c18.12,4.78,53.28,11.43,98.47,7.21C289.26,588.13,356,557,415.83,502.33l130.72-119.5C530.7,323.83,530.38,257.35,545.53,195.31Z"/><path fill="#008891" d="M546.34,201.86l.12-.53a265.6,265.6,0,0,1-160.25-42.4c-145,129.15-263.54,223.43-263.69,432.38,187.31,48.29,297-84.72,424.85-201.93C531.51,330.38,531.2,263.9,546.34,201.86Z"/><path fill="#009ba6" d="M493.82,226.47c-1.48-2.31-2.79-4.42-2.79-4.42s-3.52,4-4.56,4A292.13,292.13,0,0,1,371,192.75L266.14,288.6c-50.18,45.87-85,103.24-103.39,170.53-8.59,31.36-15,57.71-16.25,77.84.93,1.34,2.25,2.54,3.62,4.39a259.46,259.46,0,0,0,72.33,3.14c61.47-5.75,118.08-31.92,168.25-77.79l104.85-95.84C486.74,324.67,486.16,275,493.82,226.47ZM368.76,467.54c-40.55,37.07-111.17,56.21-162.25,61a241.16,241.16,0,0,1-43.79.08c1.77-14,6.48-43.87,11.45-62,15.32-55.92,37.49-112,78-149L371.5,212.36c27.27,11.94,73.73,23.82,103.73,27.75-3.25,34.31-3.46,88.5.72,121.53Z"/><path fill="#007880" d="M475.23,240.11c-30-3.93-76.46-15.81-103.73-27.75L252.2,317.57c-40.54,37.06-62.71,93.11-78,149-5,18.14-9.68,48-11.45,62a241.16,241.16,0,0,0,43.79-.08c51.08-4.78,121.7-23.92,162.25-61L476,361.64C471.77,328.61,472,274.42,475.23,240.11Z"/><path fill="#00bfcc" d="M491,222.05A292.54,292.54,0,0,1,368.2,188.33L263.35,284.18C213.17,330,178.39,387.42,160,454.7A390.63,390.63,0,0,0,146.5,537a266.33,266.33,0,0,0,73.16,3.11c61.47-5.75,118.07-31.92,168.25-77.79l104.85-95.85C484,320.25,483.37,270.6,491,222.05ZM366,463.12c-40.55,37.06-111.17,56.21-162.25,61a240.34,240.34,0,0,1-43.79.09c1.77-14,5.87-45.83,10.84-64,15.32-55.92,38.1-110,78.64-147.08l119.3-105.21c27.27,11.94,73.73,23.83,103.73,27.75-3.25,34.31-3.46,88.5.72,121.54Z"/><path fill="#fff" d="M320,318.37,257.33,380c-7,6.86,42.47,71.86,49.45,65l62.66-61.64Zm-6.05,68.52-17.76,17.47c-2.36,2.33-5.44,2.79-6.82,1s-.55-5.24,1.82-7.57L309,380.27c-.48-4.4,1.72-10,6-14.16,5.82-5.72,13.25-6.73,16.63-2.29s1.4,12.63-4.41,18.35C322.88,386.39,317.73,388.09,313.94,386.89Z"/><path fill="#fff" d="M342.6,318.08c13.76-10.75,29.7-11.85,37.32-1.83s4.42,27.46-6.66,41.34l5.12,6.59c15.76-18.62,20.46-42.87,10.16-56.41s-32.47-11.72-51.05,3.71Z"/><path fill="#fff" d="M573.67,169.5c-.3,0-.61.08-.93.1l0,0C509.28,178.39,441,162.44,390.08,125c-4.52,4.16-29.62,27.07-145.27,132.81C90.54,398.84,94,579,94.66,606.8l.77.25c24.57,8,177.64,48.89,330.23-90.62L571,383.63C550.1,318.31,552,238.57,573.67,169.5ZM415.83,502.33C356,557,289.26,588.13,217.42,594.85c-45.19,4.22-80.35-2.43-98.47-7.21l-2.38-.63c-.27-20.38,1.35-62.52,15.51-114.2,21.54-78.66,62.79-146.26,122.6-200.93L385.4,152.38a265.56,265.56,0,0,0,160.25,42.4c0,.17-.08.35-.12.53-15.15,62-14.83,128.52,1,187.52Z"/></g><g data-name="male 01"><g data-name="male 02"><path fill="#48c6c6" d="M1563.57,598c49.58-4.54,102.65,42.07,158.13,108.36,6.19-55.06,14.66-123.67,26.49-159.11,9.21-12.32,53.79-11.19,56.93,9.3,0,0,26.4,259.44-44.34,275-71.61,15.72-181.29-74.08-219.53-119.66C1519.4,685.8,1519.46,603.16,1563.57,598Z"/><path fill="#399e9e" d="M1422.05,663.09c-52.46-20.11-56.59-77.15-17.38-97.89s185.93-31.81,175.76,39.85S1454.43,675.51,1422.05,663.09Z"/><path fill="#1979bf" d="M1653.09,985.68c-11.37,315.79-36.72,547.92-62.26,852.32-47.71,6.12-80.12,3.64-76.11-22-7.54-247.17-17-562-42.77-835.18Z"/><path fill="#0d0d0d" d="M1527,1007.82c-50.31,312-119.16,552.57-182.13,851.48-48.1.17-80-6.29-72.8-31.26,14.86-278.74,58.43-564.15,66.67-838.39Z"/><path fill="#fff" d="M1376.2,630.87s63.93-58.81,207.87-43.17c32.55,32.55,60,344.95,66.21,468.12-73.53,51.63-302.67,30.65-313.62.92Z"/><path fill="#48c6c6" d="M1573.5,1120.81c44-4.25,74.86-9.86,100.48-27.85,6.37-227-57.36-472.71-89.91-505.26-20.42-22.5-43.23-18.86-43.23.94C1589.65,732.24,1605.89,970.41,1573.5,1120.81Z"/><path fill="#399e9e" d="M1676.61,1041.52q-.67-25.73-2.1-51.42-2.8-51.37-8.39-102.55-5.85-51.12-15.21-101.77A911,911,0,0,0,1625.64,686l-2.67.87a906.56,906.56,0,0,1,24.28,99.58q8.93,50.52,14.26,101.58,5.12,51,7.46,102.33,1.15,25.62,1.64,51.27c.34,17.09.42,34.22.14,51.25l6.45.13C1677.33,1075.8,1677.11,1058.68,1676.61,1041.52Z"/><path fill="#48c6c6" d="M1467.32,634.85C1440.9,591.8,1353,622.2,1348.59,681.94c8.29,143.32-17.89,303.56-37.9,409.53,24.26,20.4,115.09,30.11,151.12,29.34C1484.12,1004,1508.17,757.67,1467.32,634.85Z"/><path fill="#1979bf" d="M1640.94,1803.62l-23.66-7.23c-15.63-30.74-82.25-26.93-73,10.47-26.15,3.9-39.9-9.12-39.9-9.12-11.65,22.35-12.42,46.18-7.82,70.74h141.17Z"/><path fill="#3aa3f0" d="M1566.39,1868.48c0-.32,0-.64,0-1a65.12,65.12,0,0,1,130.23,0c0,.32,0,.64,0,1Z"/><path fill="#1979bf" d="M1230,1799.81l25.06-7.66c16.54-32.54,87.08-28.5,77.25,11.09,27.68,4.13,42.24-9.66,42.24-9.66,12.34,23.66,13.15,48.9,8.28,74.9H1233.37Z"/><path fill="#3aa3f0" d="M1308.93,1868.48c0-.34,0-.67,0-1a68.94,68.94,0,1,0-137.87,0c0,.35,0,.68,0,1Z"/><path fill="#ff9475" d="M1436.91,602.1c6.46,47,128.81,45.61,113.89-15.37L1529,465.09,1451.77,463l-8.53,79.72-4.2,39.47Z"/><path fill="#48c6c6" d="M1376.2,630.87c-64.61,24.81-147.19,159-162.6,203.36s-9.08,169.56-8.25,187.61c-5.72,61.38,39.72,70.47,71.13,46.57,12.62,5.4,46-203.7,46-203.7s126.22-140.29,132.83-152.42C1469.92,685.45,1461,598.32,1376.2,630.87Z"/><path fill="#48c6c6" d="M1545.05,555.79c13.42,3.4,30.55,11.21,41.84,29.26,23.67,43.63,2,106.67-8,154.58-9.69-66-23.27-100-34.84-130.9C1546.88,595.83,1550.13,582.84,1545.05,555.79Z"/><path fill="#399e9e" d="M1593.34,675.94a1.45,1.45,0,0,1-.35,0,1.62,1.62,0,0,1-1.23-1.93c14.12-63.61-8.8-91.85-9-92.13a1.62,1.62,0,0,1,.19-2.28,1.64,1.64,0,0,1,2.28.19c1,1.18,24.21,29.59,9.72,94.92A1.62,1.62,0,0,1,1593.34,675.94Z"/><path fill="#48c6c6" d="M1454.06,610.26c11.91,16.59,29.68,46.26,15.2,151.38-19.56-40-147.2-144.73-64.59-196.44C1394.78,593,1442.14,593.66,1454.06,610.26Z"/><path fill="#399e9e" d="M1447.28,688.07a1.59,1.59,0,0,1-.78-.2c-49.49-27.09-68-58.78-68.15-59.1a1.62,1.62,0,0,1,2.81-1.6c.17.31,18.26,31.25,66.9,57.87a1.61,1.61,0,0,1-.78,3Z"/><path d="M1438,591.91c19.89-5.24,70.88-32.63,87.47-65.26l-82.24,16.09Z" style="mix-blend-mode:soft-light" fill="#0d0d0d" opacity=".5"/><path fill="#59330b" d="M1357.56,398.94c-1.81,2.09-7.51,75.18,40.36,77.58S1383,369.49,1357.56,398.94Z"/><path fill="#ff9475" d="M1372.27,451.3c-10.51,49.22,35.9,117.18,90.59,112.2s100.66-66.59,94.85-130.37-54.85-111.45-109.55-106.47S1347.87,383.35,1372.27,451.3Z"/><path fill="#59330b" d="M1521.17,371.59s-27.07,31.8-101.5,41.55c-67.93,8.89-111.5-17.22-109.33-58.63,15.94,14.31,44.46-8.64,65.73-25.54,17.61-14,118.37-67.68,152.36,16.08,61.27,17.5,48,76.09,33.77,102.12C1534.78,426.05,1521.17,371.59,1521.17,371.59Z"/><path fill="#59330b" d="M1529.41,396.56s17.91,37.73,15.34,57.13c11.81-17.55,23-18.89,23.13-19.1S1568,387.42,1529.41,396.56Z"/><path fill="#733602" d="M1436.11,481.06c-3.86,0-9.68-.85-12.73-5.49-3.6-5.46,2.49-9.56,6.52-12.27a15.79,15.79,0,0,0,3-2.34l-.75-11.15a.87.87,0,0,1,1.73-.11l.78,11.62-.09.2c-.44,1-1.83,1.93-3.75,3.22-4.76,3.2-8.5,6.15-6,9.88,4.1,6.23,14.71,4.47,14.82,4.45a.88.88,0,0,1,1,.71.86.86,0,0,1-.7,1A24.5,24.5,0,0,1,1436.11,481.06Z"/><path fill="#522601" d="M1405.7,443.67c.6,5.84-1.37,10.83-4.4,11.14s-6-4.17-6.59-10,1.37-10.83,4.41-11.14S1405.1,437.84,1405.7,443.67Z"/><path fill="#522601" d="M1489,432c.61,5.84-1.37,10.83-4.4,11.14s-6-4.17-6.59-10,1.37-10.83,4.41-11.14S1488.44,426.19,1489,432Z"/><path fill="#733602" d="M1447.61,515.47a62,62,0,0,1-10.17-.73.86.86,0,0,1,.31-1.7c.5.09,49.59,8.69,67.67-37a.87.87,0,0,1,1.61.64C1493.57,510.69,1463.45,515.47,1447.61,515.47Z"/><circle cx="1557.72" cy="454.67" r="18.94" fill="#ff9475" transform="rotate(-33.5 1557.681 454.677)"/><path fill="#ffa88f" d="M1750.08,539.56c7.08,20,35,26,50.76,11.82,10-9,5.89-27,4.45-32-.23-.82-.4-1.32-.4-1.32a35.2,35.2,0,0,0,3.5-3.53,41,41,0,0,0,9.1-14.85c3.52-11-20.94-46.5-44.81-50.94s-31.2,41.12-32.43,44.65S1750.08,539.56,1750.08,539.56Z"/><path d="M1773.14,488.11c16.23,30.31,14.08,41.8,11.86,50.63,10.43-9,7.76-22.08,7.76-22.08a115.24,115.24,0,0,0,12.53,2.67c-.23-.82-.4-1.32-.4-1.32a35.2,35.2,0,0,0,3.5-3.53C1807,514.23,1786.56,509.89,1773.14,488.11Z" style="mix-blend-mode:soft-light" fill="#0d0d0d" opacity=".8"/><path fill="#ffa88f" d="M1790.72,532.44c4.81-29.38-31.45-52.39-31.45-52.39s-2.33-18.6-8.85-23.94c-8.76-7.19-15.39,4.26-15.39,4.26-1.62,3,11.36,70,12.9,68.78,0,0,5.34,16.31,22.93,16.18S1790.72,532.44,1790.72,532.44Z"/><path fill="#de3c0f" d="M1791.16,531.61h-.09a.83.83,0,0,1-.75-.92c3-28.22-31.15-49.7-31.49-49.92a.83.83,0,0,1-.28-1.15.85.85,0,0,1,1.16-.28c.36.22,35.34,22.25,32.28,51.52A.84.84,0,0,1,1791.16,531.61Z"/></g><path fill="#fff" d="M1270.9,1361.41l17.61,200.65c2,22.34,276-1.74,274.07-24.07L1545,1337.33Zm160.25,93.3,5,56.87a13.92,13.92,0,1,1-27.73,2.43l-5-57a33.83,33.83,0,1,1,27.74-2.3Z"/><path fill="#fff" d="M1519.72,1325.13l-27.75,2.44-1.18-13.51c-4.11-46.82-45.72-81.54-92.74-77.41s-82,45.58-77.84,92.4l1.18,13.51-27.74,2.43-1.19-13.51c-5.44-62,40.83-117,103.16-122.45s117.46,40.55,122.91,102.59Z"/><path fill="#008891" d="M1372.44,936.16l-.62-.53c-68.85,88.87-184.57,167.17-312.38,207.76.77,8.72,5,57,24.51,279.57,26,296.9,321.82,415.89,367.72,434.11C1274.8,1347.48,1346.65,1022.78,1372.44,936.16Z"/><path fill="#007880" d="M1372.44,936.16c-25.79,86.62-97.64,411.32,79.23,920.91,40.69-23.47,313.35-194.63,287.32-491.52-19.5-222.57-23.74-270.85-24.5-279.57C1581.89,1068.28,1455.71,1011.43,1372.44,936.16Z"/><path fill="#fff" d="M1452.44,1867.56l-4.26-1.69c-90-35.71-155.09-81.75-193.88-114.08-48-40-87.18-84.9-116.47-133.42a449.14,449.14,0,0,1-63.31-194.58L1059.81,1256c-7.21-82.22-9.28-105.89-9.8-111.74l-.66-7.55,7.23-2.3c124-39.38,239-115.84,307.76-204.54l6.24-8.05,7.65,6.88c.18.15.37.31.54.47h0c83.29,75.29,209.25,130.41,337,147.46l7.51,1,.66,7.56c.76,8.71,5,57,24.5,279.56,26.93,307.21-259.29,481.67-292,500.55Zm-382.91-717.48,9.14,104.23,14.71,167.82c22.83,260.56,254.18,382.63,357.51,424.43,45.76-27.29,303.72-194.47,278.68-480.19-16.46-187.75-22-251.48-23.85-272.06-125.28-18.16-248.4-71.84-332.68-145C1302.87,1035.85,1190.61,1110.14,1069.53,1150.08Z"/><path fill="#00bfcc" d="M1451.18,1801.59l-9.22.33c-32.14-13.12-95.39-42.85-157.91-94.52-95.75-79.22-149.26-176-159-287.59L1103.48,1174l8-2.89c103-36.94,194.7-95.8,258.13-165.74l7.13-7.88,8.18,6.79-6.43,9,6.78-8.78c74.6,57.62,174.88,99.44,282.37,117.83l8.44,1.42,21.53,245.82c9.78,111.62-26.06,216.2-106.54,310.85-50.87,59.81-106.47,99.64-135.09,118.07Zm-324.11-612.53,20,228.79c9.26,105.5,60.08,197.14,151.06,272.41,57,47.16,114.61,75.29,146.88,88.92,27.62-17.85,80.62-56.06,129.15-113.09,76.5-90,110.6-189.08,101.35-294.54l-20-228.84c-104.31-19-201.76-59.58-276.31-115C1315.43,1095.18,1226.56,1152.08,1127.07,1189.06Z"/><path fill="#fff" d="M1277.47,1364.51l18,194.8c2,21.69,266.84-2.72,264.84-24.41l-18-194.79Zm155.35,90,5.09,55.21a13.46,13.46,0,1,1-26.8,2.47l-5.1-55.34a32.71,32.71,0,1,1,26.81-2.34Z"/><path fill="#fff" d="M1517.85,1328.36l-26.81,2.47-1.21-13.12A82.77,82.77,0,1,0,1325,1332.9l1.21,13.12-26.81,2.47-1.21-13.12a109.69,109.69,0,1,1,218.46-20.13Z"/><path fill="#ffa88f" d="M1272.91,998.12c-43.25,14.1-74.43,42.16-62.05,70.63s53.85,21.25,72.8,14.59c23.29-8.19,41.1-47.25,10.52-69.93C1294.18,1013.41,1328,980.15,1272.91,998.12Z"/></g></g></svg>