<svg xmlns="http://www.w3.org/2000/svg" enable-background="new 0 0 2000 2000" viewBox="56.376 307.547 1887.248 1535.446"><g opacity=".41"><path fill="#abe9ff" d="M142.16,920.25L142.16,920.25c0-101.28,88.06-183.38,196.68-183.38h41.03    c-19.19-15.49-31.35-38.35-31.35-63.87v0c0-46.65,40.56-84.47,90.59-84.47h136.55c-13.81-11.08-22.59-27.47-22.59-45.79    c0-33.38,29.02-60.44,64.82-60.44h342.87c35.8,0,64.82,27.06,64.82,60.44c0,33.38-29.02,60.44-64.82,60.44H832.38    c-23.91,15.21-39.6,40.8-39.6,69.82v0c0,25.52,12.16,48.38,31.35,63.87h211.14c108.62,0,196.68,82.1,196.68,183.38l0,0    c0,101.28-88.06,183.38-196.68,183.38h279.71c50.03,0,90.59,37.82,90.59,84.47c0,46.65-40.56,84.47-90.59,84.47h113.97    c124.52,0,227.88,84.17,248.4,194.8h39.91c77.64,0,140.58,58.68,140.58,131.07v13.28c0,72.39-62.94,131.07-140.58,131.07h-288.31    H485.4h-91.07c-139.27,0-252.17-105.26-252.17-235.11v0c0-129.85,112.9-235.11,252.17-235.11h441.46    c-50.03,0-90.59-37.82-90.59-84.47c0-46.65,40.56-84.47,90.59-84.47H338.84C230.22,1103.63,142.16,1021.52,142.16,920.25z"/><path fill="#abe9ff" d="M1144.48,603.18c-32.52,0-58.89-27.06-58.89-60.44c0-33.38,26.37-60.44,58.89-60.44    c32.52,0,58.89,27.06,58.89,60.44C1203.37,576.12,1177,603.18,1144.48,603.18z"/></g><path fill="#231f20" d="M1857.84,1733.1c0,33.38-392.68,40.1-866.46,40.1c-473.77,0-849.22-6.71-849.22-40.1   c0-33.38,383.91-32.34,857.68-32.34C1473.61,1700.76,1857.84,1699.72,1857.84,1733.1z" opacity=".15"/><path fill="#a9ceea" d="M1656.18,497.59c0.23-10.52-1.38-21.15-4.95-31.4l22.96-20.36l-15.05-24.26l-28.3,11.48     c-7.61-7.88-16.46-14.15-26.04-18.7l1.84-30.5l-27.78-6.51l-11.96,28.29c-10.5-0.1-21.11,1.64-31.31,5.33l-20.52-23.16     l-24.25,15.05l11.77,29.01c-7.52,7.47-13.51,16.1-17.89,25.41l-31.57-1.9l-6.51,27.79l29.47,12.47     c-0.02,10.06,1.65,20.19,5.1,29.97l-24.1,21.37l15.04,24.25l29.98-12.16c7.21,7.31,15.51,13.2,24.47,17.57l-1.94,32.32     l27.78,6.51l12.54-29.67c10.06,0.15,20.22-1.4,30.04-4.73l21.2,23.93l24.25-15.05l-11.88-29.29     c7.66-7.35,13.81-15.88,18.35-25.11l31.23,1.88l6.51-27.79L1656.18,497.59z M1589.92,534.03c-21.15,13.13-48.94,6.61-62.07-14.55     c-13.13-21.16-6.62-48.96,14.53-62.09c21.15-13.13,48.94-6.62,62.07,14.55C1617.58,493.1,1611.08,520.9,1589.92,534.03z"/><path fill="#c9e2f4" d="M1645.35,503.21c0.23-10.52-1.38-21.15-4.95-31.4l22.96-20.36l-15.04-24.26l-28.3,11.48     c-7.61-7.88-16.46-14.15-26.04-18.7l1.84-30.5l-27.78-6.51l-11.96,28.29c-10.51-0.1-21.11,1.64-31.31,5.33l-20.52-23.16     l-24.25,15.05l11.77,29.01c-7.52,7.47-13.51,16.1-17.89,25.41l-31.57-1.9l-6.51,27.79l29.47,12.47     c-0.02,10.06,1.65,20.19,5.1,29.97l-24.1,21.37l15.04,24.26l29.98-12.16c7.21,7.31,15.51,13.2,24.47,17.57l-1.95,32.31     l27.78,6.51l12.54-29.67c10.06,0.14,20.22-1.4,30.04-4.73l21.2,23.93l24.25-15.05l-11.88-29.29     c7.66-7.35,13.81-15.88,18.35-25.11l31.23,1.88l6.51-27.79L1645.35,503.21z M1579.09,539.65c-21.15,13.13-48.94,6.61-62.07-14.55     c-13.13-21.16-6.62-48.96,14.53-62.09c21.15-13.13,48.94-6.62,62.07,14.55C1606.75,498.73,1600.24,526.53,1579.09,539.65z"/><polygon fill="#a9ceea" points="1442.31 461 1451.7 461.56 1453.15 455.37"/><polygon fill="#a9ceea" points="1568.04 382.97 1578.87 377.35 1575.73 384.77"/><polygon fill="#a9ceea" points="1504.25 393.44 1515.09 387.81 1504.88 394.14"/><polygon fill="#a9ceea" points="1541.6 621.08 1552.43 615.45 1544.74 613.65"/><polygon fill="#a9ceea" points="1667.32 543.05 1678.16 537.42 1668.77 536.86"/><polygon fill="#a9ceea" points="1605.38 610.61 1616.21 604.99 1615.59 604.28"/><path fill="#1d3b77" d="M1673.2,1001.28c0,0-6.49,19.8,15.06,28.23c21.55,8.43,35.46-17.84,30.13-28.23c0,0,15.06,15.29,6.72,49.2   c0,0,7.65-12.94,5.33-29.8c-2.32-16.86-3.94-16.86-3.94-16.86l-12.28-14.31c0,0,15.76,6.27,23.18,19.21s9.5,21.17,9.5,26.27   c0,0,6.03-18.03-17.61-42.34c0,0-12.98-8.23-22.48-9.21c0,0-4.64-1.67,4.4-2.25l18.42-9.61c0,0,18.81-20.03,15.57-43.16   c0,0-3.4,27.31-16.38,36.98c-12.98,9.67-19.78,13.72-23.79,12.81c0,0,1.16-1.96,4.91-2.87c0,0,12.09-13.33,14.25-14.9   c0,0,10.66-27.97-0.46-46c0,0,5.87,26.53-1.08,38.29c-6.95,11.76-15.45,19.99-19,21.04c0,0,8.65-10.06-3.71-17.77   c0,0,7.11,8.36,2.94,11.63c0,0-1.24-3.14-3.09-3.14c0,0-3.86,8.49-9.27,0.52c0,0-1.54,0.65-2.16,2.48   c-0.62,1.83-2.63-2.61-1.7-4.44c0.93-1.83,2.63-4.83,4.17-6.4c0,0-10.97,4.05-4.02,17.38c0,0-13.44-9.41-17-18.3   c-3.55-8.89-7.88-27.57-2.47-41.3c0,0-11.74,16.6-1.39,44.43c0,0,9.27,10.58,13.13,15.55c0,0,5.87,2.09,6.8,3.92   c0,0-15.45-1.96-25.34-14.38c-9.89-12.42-14.52-29.53-15.3-36.07c0,0-3.24,25.35,15.45,43.12c0,0,14.37,6.67,17.92,9.8   c0,0,5.1,0.39,6.49,1.63c0,0-2.63,0.59-5.25,0.98c-2.63,0.39-15.61,8.76-15.61,8.76l-3.4,0.26c0,0-21.48,27.18-17.15,42.6   c0,0,3.24-33.7,32.75-45.22c0,0-7.88,10.72-12.05,12.94c0,0-10.2,28.1,1.7,47.7C1666.1,1050.48,1656.36,1014.55,1673.2,1001.28z"/><polygon fill="#466588" points="1129.28 1559.85 1140.94 1699.68 1131.94 1699.68 1120.29 1559.85"/><polygon fill="#96c6fe" points="917.28 1699.68 1131.94 1699.68 1120.29 1559.85 905.63 1559.85"/><path fill="#70afed" d="M865.55,1733.41h301.07c6.55,0,11.87-5.31,11.87-11.87v-10c0-6.55-5.31-11.87-11.87-11.87H865.55      c-6.55,0-11.87,5.31-11.87,11.87v10C853.68,1728.1,859,1733.41,865.55,1733.41z"/><polygon fill="#b7d8f9" points="1130.56 1683.09 912.42 1641.33 906.56 1571.09 1124.1 1605.55"/><polygon fill="#5fa5dd" points="553.41 726.56 1660.21 726.56 1452.06 1559.85 367.96 1559.85 345.26 1541.86"/><polygon fill="#96c6fe" points="551.34 726.56 1647.12 726.56 1441.05 1541.86 345.26 1541.86"/><polygon fill="#29478c" points="590.59 760.08 1599.69 760.08 1445.96 1353.77 436.85 1353.77"/><polygon fill="#1d3b77" points="590.59 760.08 1599.69 760.08 1586.99 809.15 577.88 809.15"/><polygon fill="#b7d8f9" points="1368.21 1541.86 345.26 1541.86 387.01 1376.67 1063.25 1376.67"/><path fill="#f9ece4" d="M1548.47,785.21c0,4.39,3.56,7.95,7.95,7.95s7.95-3.56,7.95-7.95s-3.56-7.95-7.95-7.95     S1548.47,780.82,1548.47,785.21z"/><circle cx="1527.6" cy="784.62" r="7.95" fill="#f9ece4" transform="rotate(-9.213 1527.5 784.402)"/><path fill="#f9ece4" d="M1490.82,784.03c0,4.39,3.56,7.95,7.95,7.95s7.95-3.56,7.95-7.95c0-4.39-3.56-7.95-7.95-7.95     S1490.82,779.64,1490.82,784.03z"/><polygon fill="#fff" points="677.38 1227.83 656.64 1169.73 636.27 1169.73 636.27 1270.58 649.37 1270.58 649.37 1193.86 669.35 1249.83 683.91 1249.83 703.96 1192.26 703.96 1270.58 718.9 1270.58 718.9 1169.73 697.75 1169.73"/><path fill="#fff" d="M763.64,1169.73l-39.78,100.85h15.82l9.43-24.58h43.09l9.27,24.58h18.79l-39.78-100.85H763.64z      M786.7,1232.06h-32.07l15.96-41.97L786.7,1232.06z"/><polygon fill="#fff" points="852.74 1169.73 835.04 1169.73 835.04 1270.58 905.65 1270.58 905.65 1256.64 852.74 1256.64"/><polygon fill="#fff" points="994.42 1169.73 982.61 1245.38 969.85 1190.48 953.23 1190.48 940.27 1246.33 929.06 1169.73 913.55 1169.73 928.56 1270.58 948.18 1270.58 960.85 1216.99 973.45 1270.58 991.98 1270.58 1008.56 1169.73"/><path fill="#fff" d="M1047.1,1169.73l-39.78,100.85h15.82l9.43-24.58h43.09l9.27,24.58h18.79l-39.78-100.85H1047.1z      M1070.16,1232.06h-32.07l15.96-41.97L1070.16,1232.06z"/><path fill="#fff" d="M1178.56,1212.58c3.45-4.77,5.19-10.79,5.19-17.88c0-10.49-5.06-17.9-15.04-22.03     c-4.65-1.98-12.61-2.94-24.32-2.94h-28.8v100.85h17.7v-40.89h11.67l31.01,40.89h21.54l-34.57-45.58     C1170.11,1221.19,1175.36,1217.01,1178.56,1212.58z M1133.29,1183.68h7.96c9.32,0,15.74,1,19.09,2.97     c3.17,1.86,4.72,5.31,4.72,10.54c0,5.71-2.16,10.11-6.6,13.46c-4.49,3.39-10.72,5.11-18.51,5.11h-6.66V1183.68z"/><polygon fill="#fff" points="1230.23 1256.64 1230.23 1224.8 1273.72 1224.8 1273.72 1210.85 1230.23 1210.85 1230.23 1183.68 1281.53 1183.68 1281.53 1169.73 1212.53 1169.73 1212.53 1270.58 1285.05 1270.58 1285.05 1256.64"/><g><path fill="#fad362" d="M1017.82,537.61L1017.82,537.61L747.76,779.3c-2,1.79-1.04,5.77,1.4,5.81l530.69,7     c2.44,0.03,3.5-3.92,1.55-5.77L1017.82,537.61z"/><path fill="#da8642" d="M1268.59,1083.35l-515.35-3.05c-7.37-0.05-13.31-6.06-13.27-13.43l1.62-274.5     c0.05-7.37,6.06-13.31,13.43-13.27l515.35,3.05c7.38,0.04,13.31,6.05,13.27,13.42l-1.63,274.51     C1281.97,1077.46,1275.96,1083.4,1268.59,1083.35z"/><path fill="#fcf6ed" d="M1174.53,1030.49H833.9c-0.12,0-0.21-0.1-0.21-0.21V611.46c0-0.12,0.1-0.21,0.21-0.21h340.63     c0.12,0,0.21,0.1,0.21,0.21v418.82C1174.75,1030.4,1174.65,1030.49,1174.53,1030.49z"/><path fill="#ffca3f" d="M988.88,701.5L876.73,885.29c-9.18,15.04,0.65,35.24,17.11,35.2l224.42-0.6       c16.44-0.04,26.17-20.25,16.99-35.24l-112.27-183.19C1014.82,688.16,997.01,688.18,988.88,701.5z"/><path fill="#feda3d" d="M996.8,693.85c-3.06,1.67-5.82,4.2-7.92,7.65L876.73,885.29c-9.18,15.04,0.65,35.24,17.11,35.2       l45.37-0.12c40.46-5.8,99.7-18.27,122.98-43.28C1097.94,838.71,1042.51,721.99,996.8,693.85z"/><path fill="#faec4f" d="M978.95,796.58c9.86-23.67,3.88-49.86-4.97-70.66l-74.46,122.03       C924.89,842.7,965.29,829.37,978.95,796.58z"/><path fill="#141355" d="M1005.18,866.14c-3.6,0-6.67,1.28-9.22,3.83c-2.55,2.55-3.83,5.66-3.83,9.32c0,3.6,1.28,6.67,3.83,9.22       c2.55,2.55,5.62,3.83,9.22,3.83c3.59,0,6.66-1.28,9.21-3.83c2.55-2.55,3.83-5.62,3.83-9.22c0-3.66-1.28-6.77-3.83-9.32       C1011.84,867.41,1008.77,866.14,1005.18,866.14z"/><path fill="#141355" d="M1017.36,766.42c-2.75-2.19-6.46-3.28-11.11-3.28c-4.91,0-8.76,1.12-11.56,3.37       c-2.8,2.25-4.19,5.37-4.19,9.38c0,3.04,0.51,7.35,1.53,12.94l11.94,68.05h2.28l13.72-69.88c1.02-5.04,1.53-8.9,1.53-11.57       C1021.49,771.62,1020.11,768.61,1017.36,766.42z"/><polygon fill="#da8642" points="815.5 842.86 815.5 1033 1215.21 1033 1215.21 840.44 1014.54 1000.31"/><polygon fill="#da8642" points="924.49 926.36 939.22 937.76 1012.89 993.04 1089.82 938.66 1098.88 927.4 1155.95 971.7 1022.99 1045.62 892.54 950.57"/><path fill="#fad362" d="M924.49,926.36L742.72,787.11c-0.71,1.61-1.12,3.39-1.13,5.27l-1.62,273.76L924.49,926.36z"/><path fill="#fad362" d="M1282.02,1069.57l1.62-273.98c0.01-1.94-0.41-3.77-1.15-5.44L1098.88,927.4L1282.02,1069.57z"/><path fill="#fad362" d="M1268.59,1083.35c3.45,0.02,6.58-1.31,8.96-3.45l-187.73-141.25l-76.94,54.39l-73.67-55.28l-185.18,142.55     L1268.59,1083.35z"/></g><g><rect width="67.99" height="15.62" x="430.81" y="625.24" fill="#788587" transform="rotate(-46.451 464.814 633.043)"/><path fill="#83c8d3" d="M492.75,516.35c-23.79,25.03-22.79,64.61,2.24,88.4c25.03,23.79,64.61,22.79,88.4-2.24     c23.79-25.03,22.79-64.61-2.24-88.4C556.12,490.32,516.54,491.32,492.75,516.35z"/><path fill="#1d3b77" d="M483.65,507.7c-28.57,30.05-27.36,77.58,2.69,106.14c30.05,28.57,77.58,27.36,106.14-2.69     c28.57-30.05,27.36-77.57-2.69-106.14C559.74,476.45,512.22,477.65,483.65,507.7z M492.75,516.35     c23.79-25.03,63.37-26.03,88.4-2.24c25.03,23.79,26.03,63.37,2.24,88.4c-23.79,25.03-63.37,26.03-88.4,2.24     C469.96,580.96,468.95,541.38,492.75,516.35z"/><path fill="#153568" d="M456.79,634.58l6.9,6.56c4.5,4.28,3.94,12.18-1.26,17.65l-77.84,81.88c-5.2,5.47-13.06,6.43-17.57,2.15     l-6.9-6.56c-4.5-4.28-3.94-12.19,1.26-17.65l77.84-81.88C444.42,631.26,452.28,630.3,456.79,634.58z"/><circle cx="544.08" cy="535.91" r="19.57" fill="#fff" transform="rotate(-50.225 544.047 535.882)"/><path fill="#fff" d="M501.1,529.97c-3.44,1.72-4.83,5.89-3.11,9.33c1.72,3.43,5.89,4.83,9.33,3.11c3.43-1.72,4.83-5.89,3.11-9.33    C508.72,529.65,504.54,528.26,501.1,529.97z"/></g><g><path fill="#0fb8fa" d="M626.42,1017.46H274.87c-6.24,0-11.3-5.06-11.3-11.3v-72.62c0-6.24,5.06-11.3,11.3-11.3h351.55      c6.24,0,11.3,5.06,11.3,11.3v72.62C637.72,1012.4,632.66,1017.46,626.42,1017.46z"/><path fill="#fff" d="M379.04,952.46l-11.03,14.51v0.24l17.53-2.33v7.9l-17.53-2.09v0.24l11.15,13.93l-7.32,4.18l-6.97-16.25     h-0.23l-7.55,16.37l-6.62-4.18l11.03-14.17v-0.23l-17.19,2.2v-7.9l17.07,2.2v-0.23l-10.92-14.17l7.09-4.06l7.2,16.14h0.24     l7.08-16.26L379.04,952.46z"/><path fill="#fff" d="M435.67,952.46l-11.03,14.51v0.24l17.53-2.33v7.9l-17.53-2.09v0.24l11.15,13.93l-7.32,4.18l-6.97-16.25     h-0.23l-7.55,16.37l-6.62-4.18l11.03-14.17v-0.23l-17.19,2.2v-7.9l17.08,2.2v-0.23l-10.92-14.17l7.09-4.06l7.2,16.14h0.23     l7.08-16.26L435.67,952.46z"/><path fill="#fff" d="M492.3,952.46l-11.03,14.51v0.24l17.53-2.33v7.9l-17.53-2.09v0.24l11.15,13.93l-7.32,4.18l-6.97-16.25h-0.23     l-7.55,16.37l-6.62-4.18l11.03-14.17v-0.23l-17.19,2.2v-7.9l17.08,2.2v-0.23l-10.92-14.17l7.09-4.06l7.19,16.14h0.24l7.08-16.26     L492.3,952.46z"/><path fill="#fff" d="M548.92,952.46l-11.03,14.51v0.24l17.53-2.33v7.9l-17.53-2.09v0.24l11.15,13.93l-7.32,4.18l-6.97-16.25     h-0.23l-7.56,16.37l-6.62-4.18l11.03-14.17v-0.23l-17.19,2.2v-7.9l17.08,2.2v-0.23l-10.92-14.17l7.09-4.06l7.19,16.14h0.24     l7.08-16.26L548.92,952.46z"/><path fill="#fff" d="M605.55,952.46l-11.03,14.51v0.24l17.53-2.33v7.9l-17.53-2.09v0.24l11.15,13.93l-7.32,4.18l-6.97-16.25     h-0.23l-7.55,16.37l-6.62-4.18l11.03-14.17v-0.23l-17.19,2.2v-7.9l17.07,2.2v-0.23l-10.92-14.17l7.09-4.06l7.2,16.14h0.23     l7.08-16.26L605.55,952.46z"/><path fill="#fff" d="M311.17,967.96l-16.01-0.1c-1.86-0.01-3.37-1.68-3.35-3.72l0.06-9.97c0.04-6.87,5.19-12.42,11.46-12.38        c6.28,0.04,11.34,5.66,11.3,12.53l-0.06,9.97C314.55,966.32,313.03,967.97,311.17,967.96z M295.25,964.08l15.87,0.1l0.06-9.89        c0.03-4.79-3.5-8.71-7.88-8.74c-4.38-0.03-7.96,3.84-7.99,8.63L295.25,964.08z"/><path fill="#fff" d="M311.16,968.46l-16.01-0.1c-2.14-0.01-3.86-1.91-3.85-4.22l0.06-9.97c0.05-7.14,5.41-12.92,11.96-12.88        c6.55,0.04,11.84,5.89,11.8,13.03l-0.06,9.97C315.05,966.6,313.3,968.47,311.16,968.46z M303.33,942.29        c-6-0.04-10.92,5.29-10.96,11.88l-0.06,9.97c-0.01,1.76,1.27,3.2,2.86,3.21l16.01,0.1c1.59,0.01,2.89-1.41,2.9-3.17l0.06-9.97        C314.17,947.72,309.33,942.33,303.33,942.29z M311.62,964.69l-16.87-0.11l0.07-10.4c0.03-5.07,3.84-9.16,8.49-9.13        c4.65,0.03,8.41,4.18,8.38,9.24L311.62,964.69z M295.75,963.58l14.87,0.1l0.06-9.39c0.03-4.51-3.28-8.2-7.38-8.23        c-4.1-0.03-7.46,3.62-7.49,8.13L295.75,963.58z"/><path fill="#fff" d="M319.43,964.42c0.01-1.29-1.18-2.34-2.65-2.34l-27.1-0.11c-1.48-0.01-2.68,1.03-2.69,2.32l-0.2,22.98     c-0.01,1.29,1.18,2.34,2.65,2.34l27.1,0.11c1.48,0.01,2.68-1.03,2.69-2.32L319.43,964.42z M305.29,980.94l-4.74-0.02l0.86-4.48     c-0.71-0.59-1.18-1.57-1.17-2.69c0.02-1.8,1.25-3.25,2.77-3.24c1.51,0.01,2.73,1.47,2.71,3.26c-0.01,1.12-0.49,2.1-1.22,2.68     L305.29,980.94z"/></g><g><path fill="#75bdfb" d="M641.33,911.34H289.78c-6.24,0-11.3-5.06-11.3-11.3v-72.62c0-6.24,5.06-11.3,11.3-11.3h351.55     c6.24,0,11.3,5.06,11.3,11.3v72.62C652.63,906.28,647.57,911.34,641.33,911.34z"/><path fill="#fff" d="M366.42,846.34l-11.03,14.51v0.24l17.53-2.33v7.9l-17.53-2.09v0.24l11.15,13.93l-7.32,4.18l-6.97-16.25      h-0.23l-7.55,16.37l-6.62-4.18l11.03-14.17v-0.23l-17.19,2.2v-7.9l17.07,2.2v-0.23l-10.92-14.17l7.09-4.06l7.2,16.14h0.24      l7.08-16.26L366.42,846.34z"/><path fill="#fff" d="M423.04,846.34l-11.03,14.51v0.24l17.53-2.33v7.9l-17.53-2.09v0.24l11.15,13.93l-7.32,4.18l-6.97-16.25      h-0.23l-7.55,16.37l-6.62-4.18l11.03-14.17v-0.23l-17.19,2.2v-7.9l17.08,2.2v-0.23l-10.92-14.17l7.09-4.06l7.2,16.14h0.23      l7.08-16.26L423.04,846.34z"/><path fill="#fff" d="M479.67,846.34l-11.03,14.51v0.24l17.53-2.33v7.9l-17.53-2.09v0.24l11.15,13.93l-7.32,4.18l-6.97-16.25      h-0.23l-7.55,16.37l-6.62-4.18l11.03-14.17v-0.23l-17.19,2.2v-7.9l17.08,2.2v-0.23l-10.92-14.17l7.09-4.06l7.19,16.14h0.24      l7.08-16.26L479.67,846.34z"/><path fill="#fff" d="M536.3,846.34l-11.03,14.51v0.24l17.53-2.33v7.9l-17.53-2.09v0.24l11.15,13.93l-7.32,4.18l-6.97-16.25      h-0.23l-7.56,16.37l-6.62-4.18l11.03-14.17v-0.23l-17.19,2.2v-7.9l17.08,2.2v-0.23l-10.92-14.17l7.09-4.06l7.19,16.14h0.24      l7.08-16.26L536.3,846.34z"/><path fill="#fff" d="M592.92,846.34l-11.03,14.51v0.24l17.53-2.33v7.9l-17.53-2.09v0.24l11.15,13.93l-7.32,4.18l-6.97-16.25      h-0.23l-7.55,16.37l-6.62-4.18l11.03-14.17v-0.23l-17.19,2.2v-7.9l17.07,2.2v-0.23l-10.92-14.17l7.09-4.06l7.2,16.14h0.23      l7.08-16.26L592.92,846.34z"/></g><g><rect width="30.68" height="395.94" x="1301.1" y="1337.48" fill="#79c9ea"/><rect width="9.52" height="395.94" x="1322.26" y="1337.48" fill="#62b6ce"/><rect width="30.68" height="395.94" x="1716.65" y="1337.48" fill="#79c9ea"/><rect width="9.52" height="395.94" x="1737.81" y="1337.48" fill="#62b6ce"/><rect width="601.44" height="95.87" x="1219.34" y="1365.86" fill="#febf4b"/><polygon fill="#0683c5" points="1324.88 1365.86 1273.91 1365.86 1219.34 1459.04 1219.34 1461.72 1268.74 1461.72"/><polygon fill="#0683c5" points="1340.16 1461.72 1391.14 1461.72 1447.28 1365.86 1396.3 1365.86"/><polygon fill="#0683c5" points="1462.56 1461.72 1513.53 1461.72 1569.67 1365.86 1518.7 1365.86"/><polygon fill="#0683c5" points="1584.95 1461.72 1635.93 1461.72 1692.06 1365.86 1641.09 1365.86"/><polygon fill="#0683c5" points="1707.35 1461.72 1758.32 1461.72 1814.46 1365.86 1763.48 1365.86"/><rect width="601.44" height="14.65" x="1219.34" y="1365.86" fill="#dd7814" opacity=".31"/><rect width="601.44" height="4.41" x="1219.34" y="1457.31" fill="#dd7814" opacity=".31"/><g><rect width="601.44" height="95.87" x="1219.34" y="1503.53" fill="#febf4b"/><polygon fill="#0683c5" points="1324.88 1503.53 1273.91 1503.53 1219.34 1596.72 1219.34 1599.4 1268.74 1599.4"/><polygon fill="#0683c5" points="1340.16 1599.4 1391.14 1599.4 1447.28 1503.53 1396.3 1503.53"/><polygon fill="#0683c5" points="1462.56 1599.4 1513.53 1599.4 1569.67 1503.53 1518.7 1503.53"/><polygon fill="#0683c5" points="1584.95 1599.4 1635.93 1599.4 1692.06 1503.53 1641.09 1503.53"/><polygon fill="#0683c5" points="1707.35 1599.4 1758.32 1599.4 1814.46 1503.53 1763.48 1503.53"/><rect width="601.44" height="14.65" x="1219.34" y="1503.53" fill="#dd7814" opacity=".31"/><rect width="601.44" height="4.41" x="1219.34" y="1594.99" fill="#dd7814" opacity=".31"/></g></g><g><path fill="#ffdbb3" d="M241.3,1177.06c0,0,19.46-17.68,22.43-17.67c7.74,0.02,10.96,9.69,10.71,14.27c0,0-1.59,2.58-3.59,1.76     c-2-0.82-7.44,0.79-5.16,2.82c1,0.89,2.54,0.79,2.97,1.83c0.65,1.55,0.61,3.18-0.99,3.67c-0.24,0.08-0.52,0.14-0.82,0.2     c-3.5,0.63-5.6-0.58-10.06-2.37c-4.46-1.79-8.67,4.94-8.67,4.94L241.3,1177.06z"/><path fill="#7aafef" d="M233.45,1290.17c0,0-34.06-26.47-30.59-65.57c3.64-41.01,45.23-55.93,45.23-55.93l8.39,16.52     c0,0-22.93,16.32-24.61,38.48c-1,13.24,17.47,20.18,22.09,30.55C258.1,1263.51,253.61,1275.59,233.45,1290.17z"/><path fill="#151433" d="M239.24,1688.1c0,0-5.91,39.18,0.58,42.62c6.49,3.44,75.66-1.38,75.66-1.38s6.82-9.66-2.96-13.18    c-9.77-3.52-42.09-14.16-45.2-27.35L239.24,1688.1z"/><path fill="#1a1941" d="M297.68,1689.56c0,0-5.91,39.18,0.58,42.62c6.49,3.44,75.66-1.39,75.66-1.39s6.82-9.66-2.96-13.18    c-9.78-3.52-42.09-14.16-45.2-27.35L297.68,1689.56z"/><path fill="#f7c1a9" d="M316.76,1183.18c0,0,6.28,21.21,5.96,34.09c-0.32,12.88-19.88,22.06-19.88,22.06l-0.28,11.27l-38.05-0.95    c0,0,0.74-6.1,0.22-8.69C264.2,1238.35,293.82,1184.1,316.76,1183.18z"/><path fill="#211d51" d="M270.02,1692.1l-32.86-0.82c0,0,5.42-85.07,19.63-127.32c0,0-10.23-51.05-12.7-83.88    c0,0-9.45-16.62-5.1-59.12l92.09-0.97c0,0,20.3,108.65,23.09,128.38c2.79,19.73-22.75,120.68-23.4,146.88l-36.15-0.9    c0,0,5.74-98.17,19.62-127.32c0,0-15.78-26.61-25.22-43.23c0,0,5.26,52.57,1.73,62.31    C287.23,1595.86,272.52,1657.75,270.02,1692.1z"/><path fill="#191841" d="M290.76,1586.11c3.53-9.74-1.73-62.31-1.73-62.31c0.94,1.65,1.95,3.43,3,5.24l0,0    c2.13-25.91-16.6-53.1-16.6-53.1c11.75,56,4.28,91.87-2.95,117.9c-7.23,26.04-13.51,97.97-13.51,97.97l11.05,0.28    C272.52,1657.75,287.23,1595.86,290.76,1586.11z"/><path fill="#1a1941" d="M330.61,1159.47c-4.95,4.71-17.83,4.39-17.83,4.39c6.52-3.06,6.68-9.5,6.68-9.5    c-9.82,6.2-27.33-2.3-46.65-2.78c-19.32-0.48-26.24,18.67-26.24,18.67c-3.14-3.3-3.06-6.52-3.06-6.52    c-3.38,6.36-0.32,12.88-0.32,12.88c-3.14-3.3-9.74,2.98-9.74,2.98c3.22,0.08,6.36,3.38,6.36,3.38    c-3.7,19.24,10.34,37.31,16.7,40.69c6.36,3.38,2.9,12.96,6.04,16.26c3.14,3.3,30.55,2.37,37.15-3.9    c6.6-6.28,4.27-41.78,4.27-41.78c6.44,0.16,9.34,13.12,9.34,13.12c3.45-9.55-2.59-18.07-2.62-18.12    C325.23,1176.65,330.61,1159.47,330.61,1159.47z"/><path fill="#7aafef" d="M242.9,1381.19c-2.78,14.46-8.11,35.23-6.32,46.48l96.41-3.46c10.88-13.6-12.47-51.27-8.87-69.99    c3.7-19.24,7.72-43.68,7.72-43.68s0.73-7.15,0.83-7.15c0-0.07-0.46-7.76-0.46-7.83c0.23-35.19-21.85-38.35-21.85-38.35    s0.02-0.01,0.04-0.02l-6.25-6.57l-45.08-1.13c0,0-22.7,5.88-26.65,34.77C228.5,1313.17,246.61,1361.96,242.9,1381.19z"/><path fill="#6391c8" d="M306.21,1425.18l26.78-0.96c10.14-12.68-9.46-46.28-9.24-65.93c0-0.01,0-0.03,0-0.04    c0.01-0.6,0.04-1.19,0.08-1.76c0-0.05,0-0.1,0.01-0.14c0-0.01,0-0.02,0-0.02c0.06-0.72,0.15-1.42,0.28-2.09    c0.93-4.81,1.87-9.94,2.77-14.94c0.22-1.25,0.45-2.49,0.66-3.71c1.74-9.8,3.22-18.58,3.9-22.64c0.25-1.52,0.4-2.38,0.4-2.38    s0.66-6.5,0.81-7.05c0.01-0.02,0.02-0.1,0.02-0.1c0-0.07-0.46-7.76-0.46-7.83c0.01-1.17-0.01-2.31-0.05-3.41    c-0.01-0.18-0.02-0.35-0.03-0.53c-0.04-0.93-0.09-1.84-0.17-2.72c-0.01-0.13-0.03-0.25-0.04-0.37c-0.09-0.94-0.18-1.87-0.3-2.76    c0-0.01,0-0.03-0.01-0.04c-0.67-4.9-1.85-8.95-3.32-12.33c-19.4,14.38-18.47,31.38-18.47,31.38v0    c-2.65,27.96-1.57,39.38-1.97,55.48c-0.4,16.1,9.26,16.34,8.53,45.32C316.2,1413.62,312.06,1420.05,306.21,1425.18z"/><path fill="#f7c1a9" d="M327.63,1180.73c0,0-18.04-19.12-21-19.34c-7.72-0.57-11.67,8.82-11.77,13.41c0,0,1.39,2.69,3.45,2.03     c2.05-0.66,7.36,1.35,4.93,3.21c-1.07,0.82-2.6,0.59-3.1,1.59c-0.77,1.5-0.85,3.12,0.7,3.74c0.24,0.1,0.51,0.18,0.8,0.26     c3.44,0.9,5.63-0.14,10.22-1.59c4.58-1.44,8.27,5.6,8.27,5.6L327.63,1180.73z"/><path fill="#7aafef" d="M324.51,1172.14c-3.7-2.39-13.35,14.83-13.35,14.83s36.52,33.73,36.29,41.46     c-0.23,7.73-47.54,39.52-49.96,42.79c-1.67,2.26-9.42,9.09-6.35,18.96c1.94,6.23,8.04,9.88,14.2,8.83     c4.35-0.74,8.52-1.99,12.28-3.92c23.06-11.84,69.84-51.3,64.64-65.49c-2.96-8.07-34.94-36.41-34.94-36.41     S328.98,1175.02,324.51,1172.14z"/></g></svg>