<svg xmlns="http://www.w3.org/2000/svg" xmlns:xlink="http://www.w3.org/1999/xlink" enable-background="new 0 0 3743.829 2100" viewBox="0 0 3743.829 2100"><path fill="#abe1ff" d="M2999.282,1495.822c7.316,4.438,16.542,4.238,23.653-0.52      c35.034-23.439,137.27-94.553,152.153-135.774c18.008-49.877,33.855-65.531,53.709-86.002      c51.317-52.913,88.101-97.316,49.598-119.315c-38.503-21.999-119.878,49.374-135.735,57.106      c-28.023,13.665-51.18-12.371-98.201,29.527c-36.901,32.881-102.111,135.766-128.471,178.528      c-6.412,10.402-3.12,24.036,7.328,30.374L2999.282,1495.822z"/><path fill="#fff" d="M3003.583,1320.582c0.841-0.114,1.615,0.476,1.729,1.316l8.886,65.59       c14.942-16.051,33.28-34.606,54.06-53.352l26.482-82.152c0.26-0.807,1.126-1.251,1.933-0.991       c0.807,0.26,1.251,1.125,0.991,1.933l-24.87,77.15c2.579-2.29,5.19-4.581,7.839-6.868       c21.045-18.172,47.204-39.804,72.851-60.665l16.375-37.265c0.341-0.776,1.248-1.129,2.024-0.788       c0.775,0.34,1.129,1.247,0.788,2.024l-13.969,31.788c50.156-40.705,96.868-77.334,97.588-77.898       c0.668-0.524,1.637-0.404,2.156,0.261c0.523,0.668,0.406,1.633-0.261,2.156c-0.731,0.573-48.881,38.33-99.889,79.767       l43.592,8.181c0.833,0.157,1.382,0.959,1.226,1.793c-0.156,0.834-0.959,1.383-1.793,1.226l-46.149-8.661       c-25.546,20.781-51.579,42.311-72.533,60.405c-3.361,2.902-6.663,5.81-9.911,8.716l62.551,16.898       c0.82,0.222,1.303,1.065,1.082,1.883c-0.221,0.819-1.064,1.304-1.883,1.082l-64.473-17.417       c-20.771,18.757-39.079,37.308-53.966,53.32l77.463,18.896c0.826,0.201,1.33,1.032,1.129,1.856       c-0.201,0.824-1.032,1.329-1.856,1.129l-79.124-19.301c-24.357,26.4-38.934,45.29-39.185,45.617       c-0.516,0.673-1.48,0.8-2.153,0.284c-0.046-0.035-0.09-0.073-0.13-0.112c-0.557-0.535-0.635-1.415-0.153-2.042       c0.252-0.329,14.937-19.361,39.464-45.937l-9.226-68.095C3002.154,1321.469,3002.743,1320.695,3003.583,1320.582z"/><path fill="#abe1ff" d="M2859.141,1520.369c0,0,371.486-464.037,311.598-628.59       c-59.888-164.553-445.942,557.338-445.942,557.338L2859.141,1520.369z"/><path fill="#d9f3ff" d="M3080.591,904.747c2.135-2.057,4.245-4.032,6.333-5.938l19.102,54.46      c19.491-36.103,35.331-65.714,45.335-84.476c2.378,0.836,4.625,2.043,6.722,3.665c-9.774,18.328-24.926,46.649-43.499,81.063      l62.022-34.521c0.248,2.619,0.429,5.282,0.535,7.996l-68.962,38.383c-11.066,20.471-23.179,42.792-35.974,66.234l92.514-22.447      c-0.764,2.635-1.552,5.283-2.379,7.952l-94.779,22.998c-8.027,14.687-16.296,29.766-24.724,45.068l100.08-14.931      c-1.065,2.569-2.145,5.144-3.249,7.73l-101.182,15.095c-10.72,19.437-21.665,39.177-32.659,58.869l98.697-0.427      c-1.256,2.402-2.522,4.805-3.798,7.209l-98.928,0.429c-8.69,15.538-17.396,31.017-26.031,46.265l92.235,11.843      c-1.327,2.267-2.66,4.531-3.998,6.793l-92.098-11.826c-7.923,13.96-15.773,27.701-23.486,41.088l90.728,11.65      c-1.408,2.26-2.818,4.514-4.231,6.763l-90.422-11.611c-11.159,19.315-21.998,37.828-32.308,55.124l104.967-15.66      c-1.74,2.688-3.479,5.36-5.219,8.024l-104.504,15.591c-1.433,2.39-2.857,4.759-4.267,7.096      c-7.997,13.255-16.025,26.447-23.955,39.394l101.371-15.123c-1.85,2.712-3.692,5.4-5.527,8.07l-100.735,15.028      c-10.863,17.687-21.487,34.829-31.543,50.95l95.991-14.321c-1.968,2.743-3.919,5.455-5.841,8.117l-95.139,14.194      c-12.676,20.277-24.305,38.711-34.192,54.303l-6.731-3.57c9.578-15.105,20.784-32.865,32.991-52.384l-52.453-80.838      c1.433-2.53,2.887-5.092,4.366-7.694l52.677,81.185c10.122-16.217,20.846-33.509,31.825-51.374l-53.885-83.045      c1.463-2.514,2.942-5.048,4.43-7.595l54.004,83.229c8.406-13.713,16.93-27.714,25.422-41.787      c1.233-2.043,2.477-4.113,3.728-6.197l-54.415-83.863c1.49-2.491,2.989-4.99,4.494-7.496l54.411,83.856      c10.517-17.626,21.594-36.538,33.008-56.293l-56.977-77.529c1.475-2.386,2.955-4.774,4.438-7.164l56.806,77.296      c7.694-13.359,15.526-27.07,23.429-40.997l-55.531-75.561c1.503-2.356,3.008-4.708,4.516-7.058l55.24,75.166      c8.472-14.965,17.01-30.15,25.533-45.39l-49.922-76.939c1.585-2.372,3.171-4.737,4.756-7.093l49.496,76.281      c10.826-19.395,21.602-38.832,32.161-57.977l-45.605-70.286c1.644-2.293,3.286-4.57,4.925-6.833l44.979,69.321      c8.427-15.3,16.695-30.378,24.722-45.064l-37.987-66.423c1.764-2.247,3.52-4.461,5.271-6.655l37.15,64.96      c12.823-23.492,24.965-45.864,36.058-66.384L3080.591,904.747z"/><defs><path id="a" d="M519.168,1823.503l148.292,3.389c0,0-32.343-192.793-91.453-236.016     c-59.11-43.223-187.185-75.468-187.185-75.468S402.501,1820.837,519.168,1823.503z"/></defs><clipPath id="b"><use overflow="visible" xlink:href="#a"/></clipPath><g clip-path="url(#b)"><path fill="#abe1ff" d="M626.641,1884.127c0,0,8.503-209.061-97.164-284.285       c-105.666-75.224-140.677-82.976-140.677-82.976s-33.602,131.96,12.961,202.332c14.944,22.585,45.442,63.448,74.258,88.517       c31.258,27.193,67.438,48.093,105.679,61.112L626.641,1884.127z"/><path fill="#fff" d="M410.53,1547.484c0.979-0.485,2.336-0.031,3.031,1.015c0.319,0.479,26.528,39.972,58.169,91.463       l0.582-40.621c0.016-1.13,1.003-1.865,2.203-1.64c1.203,0.226,2.161,1.324,2.145,2.454l-0.67,46.759       c5.668,9.276,11.476,18.886,17.313,28.686c10.325,17.335,19.858,33.774,28.555,49.237l16.067-48.259       c0.342-1.027,1.551-1.433,2.703-0.912c1.151,0.523,1.807,1.78,1.465,2.807l-17.197,51.652       c-0.009,0.027-0.024,0.049-0.034,0.075c10.032,17.977,18.896,34.585,26.511,49.685c18.592,36.866,29.799,64.888,33.309,83.286       c0.22,1.153-0.559,2.088-1.739,2.09c-0.264,0-0.525-0.046-0.774-0.131c-0.867-0.295-1.59-1.058-1.761-1.953       c-4.864-25.5-25.407-70.879-59.956-132.719l-70.337-23.946c-1.182-0.402-1.972-1.604-1.764-2.684       c0.208-1.08,1.335-1.629,2.518-1.226l66.696,22.706c-8.509-15.117-17.827-31.181-27.934-48.15       c-5.837-9.801-11.646-19.411-17.313-28.686l-43.707-26.824c-1.089-0.668-1.56-1.971-1.054-2.91s1.799-1.157,2.888-0.491       l37.425,22.968c-31.491-51.233-57.537-90.481-57.855-90.958C409.321,1549.21,409.551,1547.97,410.53,1547.484z"/></g><path fill="#89c9f4" d="M640.107,1828.613c0,0-161.452-232.745-143.129-297.969       c18.323-65.224,6.362-95.448-7.767-134.14c-36.52-100.01-56.26-177.927,32.505-162.267s159.142,162.187,178.998,184.797       c35.091,39.957,101.212,37.052,141.225,122.352c40.013,85.3,33.645,287.472,33.645,287.472L640.107,1828.613z"/><path fill="#a7ead7" d="M833.643,1657.222c-1.348-0.914-3.278-1.087-4.311-0.387l-80.669,54.62        c-9.993-29.74-23.394-65.138-40.848-103.055l35.701-104.391c0.351-1.026-0.712-2.281-2.373-2.802        c-1.66-0.522-3.293-0.114-3.644,0.913l-33.528,98.036c-2.203-4.671-4.461-9.374-6.787-14.108        c-18.485-37.619-42.414-83.459-66.22-128.069l8.615-51.526c0.179-1.074-1.044-2.28-2.733-2.695        c-1.684-0.414-3.202,0.12-3.382,1.194l-7.349,43.953c-46.646-87.15-91.363-167.084-92.052-168.315        c-0.639-1.143-2.442-1.955-4.006-1.811c-1.573,0.142-2.33,1.183-1.69,2.325c0.7,1.25,46.793,83.645,94.19,172.314        l-83.862-33.826c-1.604-0.647-3.355-0.4-3.914,0.552c-0.557,0.952,0.291,2.248,1.896,2.895l88.781,35.81        c23.71,44.435,47.52,90.056,65.925,127.513c2.952,6.007,5.797,11.965,8.55,17.869l-125.468-43.573        c-1.645-0.571-3.324-0.222-3.753,0.777c-0.43,1,0.552,2.273,2.195,2.843l129.322,44.912        c17.427,37.919,30.782,73.286,40.717,102.935l-153.359-55.915c-1.635-0.597-3.336-0.278-3.806,0.707        c-0.471,0.986,0.471,2.267,2.102,2.861l156.647,57.113c16.056,48.705,22.591,80.828,22.701,81.383        c0.228,1.141,1.776,2.186,3.458,2.333c0.115,0.01,0.228,0.016,0.338,0.017c1.5,0.018,2.509-0.754,2.297-1.818        c-0.111-0.558-6.692-32.92-22.868-81.958l83.751-56.706C835.243,1659.444,834.99,1658.135,833.643,1657.222z"/><path fill="#89c9f4" d="M3256.719,1401.834c-2.887-0.293-5.682-0.044-8.389,0.674       c-51.511,13.665-63.554,154.779-82.86,163.657c-18.577,8.543-0.351-107.519-42.31-79.514       c-41.959,28.004,6.758,152.15-28.37,145.312c-35.128-6.838,2.698-69.438-61.254-46.509       c-62.518,22.415-32.897,207.13,27.385,255.275c2.161,1.726,102.813,1.564,106.507,1.526       c45.727-0.467,199.651-128.491,186.823-189.417c-13.864-65.848-78.638,49.229-101.327,36.679       c-22.689-12.55,110.905-166.204,61.787-179.17c-49.118-12.966-67.793,90.891-94.896,81.941       C3192.712,1583.338,3314.532,1407.694,3256.719,1401.834z"/><path fill="#fff" d="M3121.6,1801.649c-0.132,0-0.267-0.02-0.4-0.063c-0.684-0.221-1.06-0.954-0.839-1.638       l103.519-321.161c0.22-0.684,0.954-1.059,1.638-0.839c0.684,0.22,1.06,0.954,0.84,1.638l-103.519,321.162       C3122.661,1801.298,3122.15,1801.649,3121.6,1801.649z"/><path fill="#fff" d="M3159.771,1681.976l-33.63-131.783c-0.178-0.697,0.243-1.405,0.939-1.583       c0.698-0.177,1.405,0.243,1.583,0.939l32.593,127.719l100.956-86.747c0.545-0.469,1.367-0.406,1.835,0.139       c0.469,0.545,0.406,1.367-0.139,1.835L3159.771,1681.976z"/><path fill="#fff" d="M3134.198,1765.761l-0.578-0.63l-95.124-103.757c-0.486-0.53-0.45-1.353,0.08-1.839       c0.53-0.485,1.354-0.45,1.839,0.08l94.546,103.126l144.29-50.058c0.68-0.235,1.42,0.125,1.656,0.803       c0.235,0.679-0.124,1.421-0.803,1.656L3134.198,1765.761z"/><path fill="#53619b" d="M1338.678,441.007l-4.604-0.812c0.251-2.533,0.368-5.104,0.332-7.71     c-0.027-1.959-0.143-3.897-0.333-5.814l4.605-0.812c2.43-0.428,4.307-2.492,4.326-4.959c0.026-3.265-2.908-5.618-5.97-5.079     l-4.73,0.834c-1.13-4.418-2.694-8.666-4.646-12.695l4.073-2.351c2.137-1.234,3.194-3.815,2.369-6.14     c-1.092-3.077-4.654-4.285-7.347-2.73l-4.201,2.425c-2.553-3.727-5.469-7.187-8.693-10.333l3.049-3.634     c1.586-1.89,1.697-4.677,0.126-6.579c-2.079-2.518-5.839-2.435-7.838-0.053l-3.12,3.719c-3.643-2.629-7.555-4.906-11.685-6.782     l1.607-4.416c0.844-2.318-0.005-4.975-2.132-6.226c-2.814-1.655-6.32-0.291-7.383,2.631l-1.643,4.515     c-4.285-1.211-8.739-2.01-13.317-2.352v-4.677c0-2.467-1.706-4.674-4.133-5.121c-3.21-0.592-6.038,1.888-6.038,4.997v4.801     c-4.58,0.34-9.036,1.135-13.321,2.342l-1.597-4.388c-0.844-2.318-3.202-3.808-5.635-3.399c-3.219,0.541-5.028,3.84-3.965,6.761     l1.643,4.514c-4.135,1.874-8.051,4.15-11.697,6.778l-3.022-3.602c-1.586-1.89-4.311-2.483-6.458-1.267     c-2.84,1.61-3.412,5.328-1.413,7.709l3.107,3.703c-3.226,3.148-6.141,6.613-8.695,10.345l-4.07-2.35     c-2.137-1.233-4.901-0.859-6.502,1.018c-2.118,2.484-1.384,6.173,1.309,7.728l4.162,2.403c-1.948,4.031-3.51,8.281-4.637,12.704     l-4.599-0.811c-2.43-0.428-4.899,0.869-5.761,3.18c-1.141,3.059,0.811,6.274,3.873,6.814l4.726,0.833     c-0.251,2.533-0.368,5.104-0.333,7.71c0.027,1.959,0.142,3.897,0.333,5.814l-4.605,0.812c-2.43,0.428-4.306,2.492-4.326,4.959     c-0.026,3.265,2.908,5.619,5.97,5.079l4.73-0.834c1.13,4.418,2.694,8.666,4.646,12.695l-4.073,2.352     c-2.136,1.233-3.194,3.815-2.369,6.139c1.092,3.077,4.654,4.285,7.347,2.73l4.201-2.425c2.553,3.727,5.469,7.187,8.693,10.333     l-3.049,3.634c-1.586,1.89-1.697,4.677-0.126,6.58c2.079,2.517,5.839,2.435,7.838,0.053l3.12-3.719     c3.643,2.629,7.555,4.906,11.685,6.782l-1.607,4.416c-0.844,2.318,0.005,4.976,2.132,6.226c2.814,1.655,6.32,0.291,7.383-2.631     l1.643-4.515c4.285,1.211,8.739,2.01,13.317,2.352v4.677c0,2.467,1.706,4.674,4.132,5.121c3.211,0.592,6.038-1.888,6.038-4.997     v-4.8c4.58-0.341,9.035-1.135,13.321-2.342l1.597,4.388c0.844,2.318,3.202,3.808,5.635,3.399c3.219-0.542,5.028-3.84,3.965-6.761     l-1.643-4.514c4.135-1.874,8.05-4.15,11.697-6.778l3.022,3.602c1.586,1.89,4.311,2.483,6.458,1.267     c2.84-1.61,3.412-5.328,1.413-7.71l-3.107-3.703c3.226-3.148,6.141-6.613,8.694-10.345l4.07,2.35     c2.136,1.234,4.901,0.859,6.501-1.018c2.118-2.484,1.384-6.173-1.309-7.728l-4.162-2.403c1.948-4.031,3.51-8.281,4.637-12.704     l4.721,0.832c3.062,0.54,5.996-1.814,5.97-5.079C1342.984,443.499,1341.107,441.435,1338.678,441.007z M1266.439,459.205     c-14.233,0-25.772-11.539-25.772-25.772s11.539-25.772,25.772-25.772s25.772,11.538,25.772,25.772     S1280.672,459.205,1266.439,459.205z"/><path fill="#5cbec6" d="M1245.278,565.776l8.966-35.963l-22.464-5.601c0.027-0.897,0.046-1.796,0.046-2.7       c0-2.968-0.15-5.901-0.44-8.794l22.011-7.152l-11.453-35.25l-22.037,7.16c-2.926-5.001-6.334-9.685-10.159-13.992       l14.092-21.501l-30.999-20.317l-13.032,19.885c-5.38-2.395-11.044-4.261-16.927-5.535v-23.144h-37.064v23.144       c-3.781,0.819-7.473,1.881-11.056,3.173l-12.266-19.63l-31.431,19.641l12.292,19.671c-2.742,2.67-5.312,5.516-7.687,8.523       l-20.839-10.164l-16.247,33.313l20.801,10.145c-0.905,3.691-1.576,7.472-1.994,11.328l-23.021,2.42l3.875,36.861l23.019-2.419       c1.21,3.665,2.652,7.224,4.317,10.658l-18.247,14.257L1070.151,603l18.274-14.277c2.938,2.448,6.037,4.707,9.281,6.76       l-7.926,21.778l34.829,12.677l7.916-21.75c3.755,0.51,7.584,0.782,11.473,0.798l4.813,22.645l36.254-7.706l-4.813-22.645       c3.509-1.585,6.891-3.4,10.136-5.416l16.099,16.671l26.661-25.747l-16.101-16.673c2.128-3.173,4.052-6.494,5.758-9.942       L1245.278,565.776z M1144.35,471.099c27.798,0,50.413,22.615,50.413,50.413c0,27.798-22.615,50.413-50.413,50.413       c-27.798,0-50.413-22.615-50.413-50.413C1093.937,493.715,1116.552,471.099,1144.35,471.099z"/><polygon fill="#313744" points="2593.129 1409.79 2593.129 1172.943 2727.777 1182.271 2727.777 1409.495 2810.344 1409.314 2810.344 1424.786 2499.04 1426.946 2499.04 1409.996"/><polygon fill="#434a59" points="2614.168 1409.744 2614.168 1174.401 2747.224 1183.618 2747.224 1409.452 2828.844 1409.273 2828.844 1424.658 2521.229 1426.792 2521.229 1409.948"/><polygon fill="#313744" points="2747.224 1282.937 2614.168 1299.509 2614.168 1263.179 2747.224 1257.262"/><path fill="#313744" d="M2325.375,789.943c-6.703-0.006-12.137,6.478-12.137,14.482v459.615         c0,8.004,5.434,14.488,12.137,14.482l703.991-0.587c6.671-0.006,12.078-6.483,12.078-14.466V804.996         c0-7.984-5.407-14.461-12.078-14.466L2325.375,789.943L2325.375,789.943z"/><path fill="#5cbec6" d="M2344.589,789.959l703.899,0.587c6.67,0.006,12.077,6.482,12.077,14.465v458.443         c0,7.983-5.407,14.46-12.077,14.465l-703.899,0.587c-6.702,0.005-12.136-6.478-12.136-14.481V804.44         C2332.453,796.437,2337.886,789.954,2344.589,789.959z"/><path fill="#434a59" d="M2344.589,800.208l703.899,0.562c0.982,0.001,2.407,1.651,2.407,4.234v408.448         c0,2.583-1.426,4.233-2.407,4.234l-703.899,0.442c-0.987,0.001-2.419-1.651-2.419-4.241V804.448         C2342.17,801.859,2343.602,800.207,2344.589,800.208L2344.589,800.208z M2344.589,789.959         c-6.702-0.006-12.136,6.478-12.136,14.481v459.585c0,8.003,5.434,14.487,12.136,14.481l703.899-0.587         c6.67-0.005,12.077-6.482,12.077-14.465V805.011c0-7.984-5.407-14.46-12.077-14.465L2344.589,789.959L2344.589,789.959z"/><path fill="#141516" d="M2584.164,800.631c0,0,36.682,52.546,60.622,103.099         c15.114,31.917,40.567,54.261,46.439,81.872c3.355,15.777,0.897,77.223,7.782,123.03         c7.206,47.938,32.614,109.256,32.614,109.256l142.753,0.09c0,0-83.624-133.189-88.317-158.235         c-4.702-25.091,12.538-66.653-11.883-131.512c-7.164-19.026-46.285-41.11-45.546-56.174         c2.134-43.476-10.705-71.533-10.705-71.533L2584.164,800.631z"/><path fill="#fff" d="M2711.979,1179.678c0,3.902,2.968,7.152,6.633,7.259c3.67,0.107,6.65-2.978,6.65-6.89         c0-3.912-2.979-7.162-6.65-7.259C2714.947,1172.691,2711.979,1175.776,2711.979,1179.678z"/><path fill="#fff" d="M2681.295,1178.826c0,3.879,2.933,7.109,6.555,7.215c3.627,0.106,6.572-2.961,6.572-6.85         c0-3.889-2.944-7.12-6.572-7.215C2684.228,1171.879,2681.295,1174.947,2681.295,1178.826z"/><path fill="#fff" d="M2650.968,1177.983c0,3.857,2.899,7.067,6.479,7.172c3.585,0.104,6.495-2.945,6.495-6.811         c0-3.866-2.91-7.077-6.495-7.172C2653.867,1171.077,2650.968,1174.127,2650.968,1177.983z"/><g><polygon fill="#4a8daf" points="2659.801 893.815 2384.043 893.151 2384.043 871.097 2659.801 871.535"/><polygon fill="#ffe164" points="2452.986 893.317 2384.043 893.151 2384.043 871.097 2452.986 871.207"/><polygon fill="#4a8daf" points="2536.083 940.591 2384.043 939.959 2384.043 917.906 2536.083 918.412"/><polygon fill="#ffe164" points="2422.186 940.118 2384.043 939.959 2384.043 917.906 2422.186 918.033"/><polygon fill="#4a8daf" points="2568.839 987.857 2384.043 986.768 2384.043 964.714 2568.839 965.651"/><polygon fill="#ffe164" points="2452.986 987.174 2384.043 986.768 2384.043 964.714 2452.986 965.064"/><polygon fill="#4a8daf" points="2476.124 1034.279 2384.043 1033.576 2384.043 1011.522 2476.124 1012.15"/><polygon fill="#ffe164" points="2410.985 1033.782 2384.043 1033.576 2384.043 1011.522 2410.985 1011.706"/><polygon fill="#4a8daf" points="2659.801 1082.971 2384.043 1080.384 2384.043 1058.33 2659.801 1060.691"/><polygon fill="#ffe164" points="2452.986 1081.031 2384.043 1080.384 2384.043 1058.33 2452.986 1058.921"/><g><polygon fill="#4a8daf" points="2659.801 1130.26 2384.043 1127.193 2384.043 1105.139 2659.801 1107.979"/><polygon fill="#ffe164" points="2452.986 1127.959 2384.043 1127.193 2384.043 1105.139 2452.986 1105.849"/></g><g><polygon fill="#4a8daf" points="2996.935 894.627 2714.317 893.946 2714.317 871.622 2996.935 872.07"/><polygon fill="#4a8daf" points="2996.935 942.504 2714.317 941.33 2714.317 919.005 2996.935 919.947"/><polygon fill="#4a8daf" points="2996.935 990.38 2714.317 988.714 2714.317 966.389 2996.935 967.823"/><polygon fill="#4a8daf" points="2996.935 1038.257 2714.317 1036.098 2714.317 1013.773 2996.935 1015.7"/><polygon fill="#4a8daf" points="2996.935 1086.133 2714.317 1083.482 2714.317 1061.157 2996.935 1063.576"/><polygon fill="#4a8daf" points="2996.935 1134.01 2714.317 1130.866 2714.317 1108.541 2996.935 1111.453"/></g></g><g><rect width="329.944" height="424.703" x="2235.672" y="1421.827" fill="#53619b"/><rect width="37.528" height="424.703" x="2528.088" y="1421.827" fill="#404e7c"/><rect width="329.944" height="424.703" x="2745.05" y="1421.827" fill="#53619b"/><rect width="37.528" height="424.703" x="3037.466" y="1421.827" fill="#404e7c"/><rect width="543.19" height="37.528" x="2528.088" y="1421.827" fill="#404e7c"/></g><g><rect width="554.898" height="12.425" x="1776.121" y="820.984" fill="#393351"/><rect width="160.986" height="131.721" x="1760.702" y="689.262" fill="#53619b"/><rect width="428.252" height="131.721" x="1921.688" y="689.262" fill="#529ae3"/><path fill="#4072c1" d="M2272.355,783.633h-313.316v-57.019h313.316V783.633z"/><circle cx="2311.605" cy="755.123" r="15.302" fill="#79d0e8" transform="rotate(-22.5 2311.504 755.099)"/><circle cx="1993.17" cy="755.123" r="15.302" fill="#79d0e8" transform="rotate(-22.5 1993.082 755.098)"/><rect width="6.469" height="57.019" x="2033.617" y="726.614" fill="#35527c"/><rect width="20.258" height="6.331" x="2053.523" y="734.764" fill="#529ae3"/><rect width="20.258" height="6.331" x="2090.452" y="734.764" fill="#529ae3"/><rect width="20.258" height="6.331" x="2127.381" y="734.764" fill="#529ae3"/><rect width="20.258" height="6.331" x="2164.311" y="734.764" fill="#529ae3"/><rect width="20.258" height="6.331" x="2053.523" y="750.38" fill="#529ae3"/><rect width="20.258" height="6.331" x="2090.452" y="750.38" fill="#529ae3"/><rect width="20.258" height="6.331" x="2127.381" y="750.38" fill="#ffe164"/><rect width="20.258" height="6.331" x="2164.311" y="750.38" fill="#529ae3"/><rect width="20.258" height="6.331" x="2053.523" y="765.995" fill="#ffe164"/><rect width="20.258" height="6.331" x="2090.452" y="765.995" fill="#ffe164"/><rect width="20.258" height="6.331" x="2127.381" y="765.995" fill="#ffe164"/><rect width="20.258" height="6.331" x="2164.311" y="765.995" fill="#ffe164"/><path fill="#529ae3" d="M2208.611,753.545c0,3.129-2.537,5.666-5.666,5.666c-3.129,0-5.666-2.537-5.666-5.666      s2.537-5.666,5.666-5.666C2206.074,747.879,2208.611,750.416,2208.611,753.545z"/><path fill="#ffe164" d="M2234.422,753.545c0,3.129-2.537,5.666-5.666,5.666c-3.129,0-5.666-2.537-5.666-5.666      s2.537-5.666,5.666-5.666C2231.885,747.879,2234.422,750.416,2234.422,753.545z"/><path fill="#529ae3" d="M2260.232,753.545c0,3.129-2.537,5.666-5.666,5.666s-5.666-2.537-5.666-5.666      s2.537-5.666,5.666-5.666S2260.232,750.416,2260.232,753.545z"/><rect width="554.898" height="12.425" x="1774.323" y="965.13" fill="#393351"/><rect width="160.986" height="131.721" x="1758.904" y="833.409" fill="#53619b"/><rect width="428.252" height="131.721" x="1919.89" y="833.409" fill="#529ae3"/><path fill="#4072c1" d="M2270.557,927.779h-313.316V870.76h313.316V927.779z"/><circle cx="2309.807" cy="899.269" r="15.302" fill="#79d0e8"/><circle cx="1991.372" cy="899.269" r="15.302" fill="#79d0e8"/><rect width="6.469" height="57.019" x="2031.819" y="870.76" fill="#35527c"/><rect width="20.258" height="6.331" x="2051.725" y="878.91" fill="#529ae3"/><rect width="20.258" height="6.331" x="2088.654" y="878.91" fill="#529ae3"/><rect width="20.258" height="6.331" x="2125.583" y="878.91" fill="#529ae3"/><rect width="20.258" height="6.331" x="2162.512" y="878.91" fill="#529ae3"/><rect width="20.258" height="6.331" x="2051.725" y="894.526" fill="#529ae3"/><rect width="20.258" height="6.331" x="2088.654" y="894.526" fill="#529ae3"/><rect width="20.258" height="6.331" x="2125.583" y="894.526" fill="#ffe164"/><rect width="20.258" height="6.331" x="2162.512" y="894.526" fill="#529ae3"/><rect width="20.258" height="6.331" x="2051.725" y="910.142" fill="#ffe164"/><rect width="20.258" height="6.331" x="2088.654" y="910.142" fill="#ffe164"/><rect width="20.258" height="6.331" x="2125.583" y="910.142" fill="#ffe164"/><rect width="20.258" height="6.331" x="2162.512" y="910.142" fill="#ffe164"/><g><path fill="#ffe164" d="M2206.813,897.691c0,3.129-2.537,5.666-5.666,5.666c-3.129,0-5.666-2.537-5.666-5.666      s2.537-5.666,5.666-5.666C2204.276,892.026,2206.813,894.562,2206.813,897.691z"/></g><g><path fill="#529ae3" d="M2232.624,897.691c0,3.129-2.537,5.666-5.666,5.666s-5.666-2.537-5.666-5.666      s2.537-5.666,5.666-5.666S2232.624,894.562,2232.624,897.691z"/></g><g><path fill="#529ae3" d="M2258.434,897.691c0,3.129-2.537,5.666-5.666,5.666s-5.666-2.537-5.666-5.666      s2.537-5.666,5.666-5.666S2258.434,894.562,2258.434,897.691z"/></g><g><rect width="554.898" height="12.425" x="1772.524" y="1109.276" fill="#393351"/><rect width="160.986" height="131.721" x="1757.106" y="977.555" fill="#53619b"/><rect width="428.252" height="131.721" x="1918.091" y="977.555" fill="#529ae3"/><path fill="#4072c1" d="M2268.758,1071.925h-313.316v-57.019h313.316V1071.925z"/><circle cx="2308.009" cy="1043.416" r="15.302" fill="#79d0e8"/><circle cx="1989.573" cy="1043.416" r="15.302" fill="#79d0e8"/><rect width="6.469" height="57.019" x="2030.021" y="1014.906" fill="#35527c"/><rect width="20.258" height="6.331" x="2049.926" y="1023.056" fill="#529ae3"/><rect width="20.258" height="6.331" x="2086.855" y="1023.056" fill="#529ae3"/><rect width="20.258" height="6.331" x="2123.785" y="1023.056" fill="#529ae3"/><rect width="20.258" height="6.331" x="2160.714" y="1023.056" fill="#529ae3"/><rect width="20.258" height="6.331" x="2049.926" y="1038.672" fill="#529ae3"/><rect width="20.258" height="6.331" x="2086.855" y="1038.672" fill="#529ae3"/><rect width="20.258" height="6.331" x="2123.785" y="1038.672" fill="#ffe164"/><rect width="20.258" height="6.331" x="2160.714" y="1038.672" fill="#529ae3"/><rect width="20.258" height="6.331" x="2049.926" y="1054.288" fill="#ffe164"/><rect width="20.258" height="6.331" x="2086.855" y="1054.288" fill="#ffe164"/><rect width="20.258" height="6.331" x="2123.785" y="1054.288" fill="#ffe164"/><rect width="20.258" height="6.331" x="2160.714" y="1054.288" fill="#ffe164"/><g><path fill="#529ae3" d="M2205.015,1041.838c0,3.129-2.537,5.666-5.666,5.666c-3.129,0-5.666-2.537-5.666-5.666      c0-3.129,2.537-5.666,5.666-5.666C2202.478,1036.172,2205.015,1038.708,2205.015,1041.838z"/></g><g><path fill="#ffe164" d="M2230.825,1041.838c0,3.129-2.537,5.666-5.666,5.666s-5.666-2.537-5.666-5.666      c0-3.129,2.537-5.666,5.666-5.666S2230.825,1038.708,2230.825,1041.838z"/></g><g><path fill="#ffe164" d="M2256.636,1041.838c0,3.129-2.537,5.666-5.666,5.666c-3.129,0-5.666-2.537-5.666-5.666      c0-3.129,2.537-5.666,5.666-5.666C2254.099,1036.172,2256.636,1038.708,2256.636,1041.838z"/></g></g><g><rect width="554.898" height="12.425" x="1770.726" y="1253.422" fill="#393351"/><rect width="160.986" height="131.721" x="1755.307" y="1121.701" fill="#53619b"/><rect width="428.252" height="131.721" x="1916.293" y="1121.701" fill="#529ae3"/><path fill="#4072c1" d="M2266.96,1216.071h-313.316v-57.019h313.316V1216.071z"/><circle cx="2306.211" cy="1187.562" r="15.302" fill="#79d0e8"/><circle cx="1987.775" cy="1187.562" r="15.302" fill="#79d0e8"/><rect width="6.469" height="57.019" x="2028.223" y="1159.052" fill="#35527c"/><rect width="20.258" height="6.331" x="2048.128" y="1167.203" fill="#529ae3"/><rect width="20.258" height="6.331" x="2085.057" y="1167.203" fill="#529ae3"/><rect width="20.258" height="6.331" x="2121.987" y="1167.203" fill="#529ae3"/><rect width="20.258" height="6.331" x="2158.916" y="1167.203" fill="#529ae3"/><rect width="20.258" height="6.331" x="2048.128" y="1182.818" fill="#529ae3"/><rect width="20.258" height="6.331" x="2085.057" y="1182.818" fill="#529ae3"/><rect width="20.258" height="6.331" x="2121.987" y="1182.818" fill="#ffe164"/><rect width="20.258" height="6.331" x="2158.916" y="1182.818" fill="#529ae3"/><rect width="20.258" height="6.331" x="2048.128" y="1198.434" fill="#ffe164"/><rect width="20.258" height="6.331" x="2085.057" y="1198.434" fill="#ffe164"/><rect width="20.258" height="6.331" x="2121.987" y="1198.434" fill="#ffe164"/><rect width="20.258" height="6.331" x="2158.916" y="1198.434" fill="#ffe164"/><g><path fill="#529ae3" d="M2203.216,1185.984c0,3.129-2.537,5.666-5.666,5.666s-5.666-2.537-5.666-5.666      c0-3.129,2.537-5.666,5.666-5.666S2203.216,1182.855,2203.216,1185.984z"/></g><g><path fill="#ffe164" d="M2229.027,1185.984c0,3.129-2.537,5.666-5.666,5.666c-3.129,0-5.666-2.537-5.666-5.666      c0-3.129,2.537-5.666,5.666-5.666C2226.49,1180.318,2229.027,1182.855,2229.027,1185.984z"/></g><g><path fill="#529ae3" d="M2254.838,1185.984c0,3.129-2.537,5.666-5.666,5.666c-3.129,0-5.666-2.537-5.666-5.666      c0-3.129,2.537-5.666,5.666-5.666C2252.301,1180.318,2254.838,1182.855,2254.838,1185.984z"/></g></g><g><rect width="554.898" height="12.425" x="1768.928" y="1397.569" fill="#393351"/><rect width="160.986" height="131.721" x="1753.509" y="1265.847" fill="#53619b"/><rect width="428.252" height="131.721" x="1914.495" y="1265.847" fill="#529ae3"/><path fill="#4072c1" d="M2265.162,1360.217h-313.316v-57.019h313.316V1360.217z"/><circle cx="2304.412" cy="1331.708" r="15.302" fill="#79d0e8"/><circle cx="1985.977" cy="1331.708" r="15.302" fill="#79d0e8"/><rect width="6.469" height="57.019" x="2026.424" y="1303.198" fill="#35527c"/><rect width="20.258" height="6.331" x="2046.33" y="1311.349" fill="#529ae3"/><rect width="20.258" height="6.331" x="2083.259" y="1311.349" fill="#529ae3"/><rect width="20.258" height="6.331" x="2120.188" y="1311.349" fill="#529ae3"/><rect width="20.258" height="6.331" x="2157.117" y="1311.349" fill="#529ae3"/><rect width="20.258" height="6.331" x="2046.33" y="1326.965" fill="#529ae3"/><rect width="20.258" height="6.331" x="2083.259" y="1326.965" fill="#529ae3"/><rect width="20.258" height="6.331" x="2120.188" y="1326.965" fill="#ffe164"/><rect width="20.258" height="6.331" x="2157.117" y="1326.965" fill="#529ae3"/><rect width="20.258" height="6.331" x="2046.33" y="1342.58" fill="#ffe164"/><rect width="20.258" height="6.331" x="2083.259" y="1342.58" fill="#ffe164"/><rect width="20.258" height="6.331" x="2120.188" y="1342.58" fill="#ffe164"/><rect width="20.258" height="6.331" x="2157.117" y="1342.58" fill="#ffe164"/><g><path fill="#529ae3" d="M2201.418,1330.13c0,3.129-2.537,5.666-5.666,5.666c-3.129,0-5.666-2.537-5.666-5.666      c0-3.129,2.537-5.666,5.666-5.666C2198.881,1324.464,2201.418,1327.001,2201.418,1330.13z"/></g><g><path fill="#ffe164" d="M2227.229,1330.13c0,3.129-2.537,5.666-5.666,5.666c-3.129,0-5.666-2.537-5.666-5.666      c0-3.129,2.537-5.666,5.666-5.666C2224.692,1324.464,2227.229,1327.001,2227.229,1330.13z"/></g><g><path fill="#ffe164" d="M2253.039,1330.13c0,3.129-2.537,5.666-5.666,5.666s-5.666-2.537-5.666-5.666      c0-3.129,2.537-5.666,5.666-5.666S2253.039,1327.001,2253.039,1330.13z"/></g></g><g><rect width="554.898" height="12.425" x="1767.129" y="1541.715" fill="#393351"/><rect width="160.986" height="131.721" x="1751.711" y="1409.994" fill="#53619b"/><rect width="428.252" height="131.721" x="1912.696" y="1409.994" fill="#529ae3"/><path fill="#4072c1" d="M2263.364,1504.364h-313.316v-57.019h313.316V1504.364z"/><circle cx="2302.614" cy="1475.854" r="15.302" fill="#79d0e8"/><circle cx="1984.178" cy="1475.854" r="15.302" fill="#79d0e8"/><rect width="6.469" height="57.019" x="2024.626" y="1447.345" fill="#35527c"/><rect width="20.258" height="6.331" x="2044.531" y="1455.495" fill="#529ae3"/><rect width="20.258" height="6.331" x="2081.461" y="1455.495" fill="#529ae3"/><rect width="20.258" height="6.331" x="2118.39" y="1455.495" fill="#529ae3"/><rect width="20.258" height="6.331" x="2155.319" y="1455.495" fill="#529ae3"/><rect width="20.258" height="6.331" x="2044.531" y="1471.111" fill="#529ae3"/><rect width="20.258" height="6.331" x="2081.461" y="1471.111" fill="#529ae3"/><rect width="20.258" height="6.331" x="2118.39" y="1471.111" fill="#ffe164"/><rect width="20.258" height="6.331" x="2155.319" y="1471.111" fill="#529ae3"/><rect width="20.258" height="6.331" x="2044.531" y="1486.727" fill="#ffe164"/><rect width="20.258" height="6.331" x="2081.461" y="1486.727" fill="#ffe164"/><rect width="20.258" height="6.331" x="2118.39" y="1486.727" fill="#ffe164"/><rect width="20.258" height="6.331" x="2155.319" y="1486.727" fill="#ffe164"/><g><path fill="#529ae3" d="M2199.62,1474.276c0,3.129-2.537,5.666-5.666,5.666c-3.129,0-5.666-2.537-5.666-5.666      c0-3.129,2.537-5.666,5.666-5.666C2197.083,1468.61,2199.62,1471.147,2199.62,1474.276z"/></g><g><path fill="#ffe164" d="M2225.43,1474.276c0,3.129-2.537,5.666-5.666,5.666s-5.666-2.537-5.666-5.666      c0-3.129,2.537-5.666,5.666-5.666S2225.43,1471.147,2225.43,1474.276z"/></g><g><path fill="#529ae3" d="M2251.241,1474.276c0,3.129-2.537,5.666-5.666,5.666c-3.129,0-5.666-2.537-5.666-5.666      c0-3.129,2.537-5.666,5.666-5.666C2248.704,1468.61,2251.241,1471.147,2251.241,1474.276z"/></g></g><g><rect width="554.898" height="12.425" x="1765.331" y="1685.861" fill="#393351"/><rect width="160.986" height="131.721" x="1749.912" y="1554.14" fill="#53619b"/><rect width="428.252" height="131.721" x="1910.898" y="1554.14" fill="#529ae3"/><path fill="#4072c1" d="M2261.565,1648.51H1948.25v-57.019h313.316V1648.51z"/><circle cx="2300.816" cy="1620" r="15.302" fill="#79d0e8"/><circle cx="1982.38" cy="1620" r="15.302" fill="#79d0e8"/><rect width="6.469" height="57.019" x="2022.828" y="1591.491" fill="#35527c"/><rect width="20.258" height="6.331" x="2042.733" y="1599.641" fill="#529ae3"/><rect width="20.258" height="6.331" x="2079.662" y="1599.641" fill="#529ae3"/><rect width="20.258" height="6.331" x="2116.592" y="1599.641" fill="#529ae3"/><rect width="20.258" height="6.331" x="2153.521" y="1599.641" fill="#529ae3"/><rect width="20.258" height="6.331" x="2042.733" y="1615.257" fill="#529ae3"/><rect width="20.258" height="6.331" x="2079.662" y="1615.257" fill="#529ae3"/><rect width="20.258" height="6.331" x="2116.592" y="1615.257" fill="#ffe164"/><rect width="20.258" height="6.331" x="2153.521" y="1615.257" fill="#529ae3"/><rect width="20.258" height="6.331" x="2042.733" y="1630.873" fill="#ffe164"/><rect width="20.258" height="6.331" x="2079.662" y="1630.873" fill="#ffe164"/><rect width="20.258" height="6.331" x="2116.592" y="1630.873" fill="#ffe164"/><rect width="20.258" height="6.331" x="2153.521" y="1630.873" fill="#ffe164"/><g><path fill="#529ae3" d="M2197.822,1618.422c0,3.129-2.537,5.666-5.666,5.666s-5.666-2.537-5.666-5.666      s2.537-5.666,5.666-5.666S2197.822,1615.293,2197.822,1618.422z"/></g><g><path fill="#ffe164" d="M2223.632,1618.422c0,3.129-2.537,5.666-5.666,5.666s-5.666-2.537-5.666-5.666      s2.537-5.666,5.666-5.666S2223.632,1615.293,2223.632,1618.422z"/></g><g><path fill="#ffe164" d="M2249.443,1618.422c0,3.129-2.537,5.666-5.666,5.666c-3.129,0-5.666-2.537-5.666-5.666      s2.537-5.666,5.666-5.666C2246.906,1612.757,2249.443,1615.293,2249.443,1618.422z"/></g></g><g><rect width="160.986" height="131.721" x="1748.114" y="1698.286" fill="#53619b"/><rect width="428.252" height="131.721" x="1909.1" y="1698.286" fill="#529ae3"/><path fill="#4072c1" d="M2259.767,1792.656h-313.316v-57.019h313.316V1792.656z"/><rect width="602.527" height="66.52" x="1763.533" y="1808.639" fill="#53619b"/><circle cx="2299.018" cy="1764.147" r="15.302" fill="#79d0e8" transform="rotate(-22.5 2298.912 1764.079)"/><circle cx="1980.582" cy="1764.147" r="15.302" fill="#79d0e8" transform="rotate(-22.5 1980.49 1764.078)"/><rect width="6.469" height="57.019" x="2021.03" y="1735.637" fill="#35527c"/><rect width="20.258" height="6.331" x="2040.935" y="1743.787" fill="#529ae3"/><rect width="20.258" height="6.331" x="2077.864" y="1743.787" fill="#529ae3"/><rect width="20.258" height="6.331" x="2114.793" y="1743.787" fill="#529ae3"/><rect width="20.258" height="6.331" x="2151.723" y="1743.787" fill="#529ae3"/><rect width="20.258" height="6.331" x="2040.935" y="1759.403" fill="#529ae3"/><rect width="20.258" height="6.331" x="2077.864" y="1759.403" fill="#529ae3"/><rect width="20.258" height="6.331" x="2114.793" y="1759.403" fill="#ffe164"/><rect width="20.258" height="6.331" x="2151.723" y="1759.403" fill="#529ae3"/><rect width="20.258" height="6.331" x="2040.935" y="1775.019" fill="#ffe164"/><rect width="20.258" height="6.331" x="2077.864" y="1775.019" fill="#ffe164"/><rect width="20.258" height="6.331" x="2114.793" y="1775.019" fill="#ffe164"/><rect width="20.258" height="6.331" x="2151.723" y="1775.019" fill="#ffe164"/><g><path fill="#529ae3" d="M2196.023,1762.569c0,3.129-2.537,5.666-5.666,5.666s-5.666-2.536-5.666-5.666      s2.537-5.666,5.666-5.666S2196.023,1759.439,2196.023,1762.569z"/></g><g><path fill="#ffe164" d="M2221.834,1762.569c0,3.129-2.537,5.666-5.666,5.666c-3.129,0-5.666-2.536-5.666-5.666      s2.537-5.666,5.666-5.666C2219.297,1756.903,2221.834,1759.439,2221.834,1762.569z"/></g><g><path fill="#529ae3" d="M2247.645,1762.569c0,3.129-2.537,5.666-5.666,5.666s-5.666-2.536-5.666-5.666      s2.537-5.666,5.666-5.666S2247.645,1759.439,2247.645,1762.569z"/></g></g></g><g><rect width="554.898" height="12.425" x="796.198" y="820.984" fill="#393351" transform="rotate(-180 1073.647 827.196)"/><rect width="160.986" height="131.721" x="1205.528" y="689.262" fill="#53619b" transform="rotate(-180 1286.021 755.123)"/><rect width="428.252" height="131.721" x="777.276" y="689.262" fill="#529ae3" transform="rotate(-180 991.402 755.123)"/><path fill="#4072c1" d="M854.861,726.614h313.316v57.019H854.861V726.614z"/><circle cx="815.611" cy="755.123" r="15.302" fill="#79d0e8" transform="rotate(-70.3 815.623 755.106)"/><circle cx="1134.046" cy="755.123" r="15.302" fill="#79d0e8" transform="rotate(-67.5 1134.026 755.104)"/><rect width="6.469" height="57.019" x="1087.13" y="726.614" fill="#35527c"/><rect width="20.258" height="6.331" x="1053.435" y="734.764" fill="#529ae3" transform="rotate(-180 1063.564 737.93)"/><rect width="20.258" height="6.331" x="1016.506" y="734.764" fill="#529ae3" transform="rotate(-180 1026.635 737.93)"/><rect width="20.258" height="6.331" x="979.576" y="734.764" fill="#529ae3" transform="rotate(-180 989.706 737.93)"/><rect width="20.258" height="6.331" x="942.647" y="734.764" fill="#529ae3" transform="rotate(-180 952.776 737.93)"/><rect width="20.258" height="6.331" x="1053.435" y="750.38" fill="#529ae3" transform="rotate(-180 1063.564 753.545)"/><rect width="20.258" height="6.331" x="1016.506" y="750.38" fill="#529ae3" transform="rotate(-180 1026.635 753.545)"/><rect width="20.258" height="6.331" x="979.576" y="750.38" fill="#ffe164" transform="rotate(-180 989.706 753.545)"/><rect width="20.258" height="6.331" x="942.647" y="750.38" fill="#529ae3" transform="rotate(-180 952.776 753.545)"/><rect width="20.258" height="6.331" x="1053.435" y="765.995" fill="#ffe164" transform="rotate(-180 1063.564 769.16)"/><rect width="20.258" height="6.331" x="1016.506" y="765.995" fill="#ffe164" transform="rotate(-180 1026.635 769.16)"/><rect width="20.258" height="6.331" x="979.576" y="765.995" fill="#ffe164" transform="rotate(-180 989.706 769.16)"/><rect width="20.258" height="6.331" x="942.647" y="765.995" fill="#ffe164" transform="rotate(-180 952.776 769.16)"/><path fill="#529ae3" d="M918.605,753.545c0,3.129,2.537,5.666,5.666,5.666s5.666-2.537,5.666-5.666      s-2.537-5.666-5.666-5.666S918.605,750.416,918.605,753.545z"/><path fill="#ffe164" d="M892.794,753.545c0,3.129,2.537,5.666,5.666,5.666s5.666-2.537,5.666-5.666      s-2.537-5.666-5.666-5.666S892.794,750.416,892.794,753.545z"/><path fill="#529ae3" d="M866.984,753.545c0,3.129,2.537,5.666,5.666,5.666s5.666-2.537,5.666-5.666      s-2.537-5.666-5.666-5.666S866.984,750.416,866.984,753.545z"/><rect width="554.898" height="12.425" x="797.996" y="965.13" fill="#393351" transform="rotate(-180 1075.445 971.342)"/><rect width="160.986" height="131.721" x="1207.327" y="833.409" fill="#53619b" transform="rotate(-180 1287.82 899.27)"/><rect width="428.252" height="131.721" x="779.074" y="833.409" fill="#529ae3" transform="rotate(-180 993.2 899.27)"/><path fill="#4072c1" d="M856.659,870.76h313.316v57.019H856.659V870.76z"/><circle cx="817.409" cy="899.269" r="15.302" fill="#79d0e8"/><circle cx="1135.844" cy="899.269" r="15.302" fill="#79d0e8"/><rect width="6.469" height="57.019" x="1088.928" y="870.76" fill="#35527c"/><rect width="20.258" height="6.331" x="1055.233" y="878.91" fill="#529ae3" transform="rotate(-180 1065.362 882.075)"/><rect width="20.258" height="6.331" x="1018.304" y="878.91" fill="#529ae3" transform="rotate(-180 1028.433 882.075)"/><rect width="20.258" height="6.331" x="981.375" y="878.91" fill="#529ae3" transform="rotate(-180 991.504 882.075)"/><rect width="20.258" height="6.331" x="944.445" y="878.91" fill="#529ae3" transform="rotate(-180 954.575 882.075)"/><rect width="20.258" height="6.331" x="1055.233" y="894.526" fill="#529ae3" transform="rotate(-180 1065.362 897.691)"/><rect width="20.258" height="6.331" x="1018.304" y="894.526" fill="#529ae3" transform="rotate(-180 1028.433 897.691)"/><rect width="20.258" height="6.331" x="981.375" y="894.526" fill="#ffe164" transform="rotate(-180 991.504 897.691)"/><rect width="20.258" height="6.331" x="944.445" y="894.526" fill="#529ae3" transform="rotate(-180 954.575 897.691)"/><rect width="20.258" height="6.331" x="1055.233" y="910.142" fill="#ffe164" transform="rotate(-180 1065.362 913.307)"/><rect width="20.258" height="6.331" x="1018.304" y="910.142" fill="#ffe164" transform="rotate(-180 1028.433 913.307)"/><rect width="20.258" height="6.331" x="981.375" y="910.142" fill="#ffe164" transform="rotate(-180 991.504 913.307)"/><rect width="20.258" height="6.331" x="944.445" y="910.142" fill="#ffe164" transform="rotate(-180 954.575 913.307)"/><g><path fill="#ffe164" d="M920.403,897.691c0,3.129,2.537,5.666,5.666,5.666s5.666-2.537,5.666-5.666      s-2.537-5.666-5.666-5.666S920.403,894.562,920.403,897.691z"/></g><g><path fill="#529ae3" d="M894.593,897.691c0,3.129,2.537,5.666,5.666,5.666s5.666-2.537,5.666-5.666      s-2.537-5.666-5.666-5.666S894.593,894.562,894.593,897.691z"/></g><g><path fill="#529ae3" d="M868.782,897.691c0,3.129,2.537,5.666,5.666,5.666c3.129,0,5.666-2.537,5.666-5.666      s-2.537-5.666-5.666-5.666C871.319,892.026,868.782,894.562,868.782,897.691z"/></g><g><rect width="554.898" height="12.425" x="799.794" y="1109.276" fill="#393351" transform="rotate(-180 1077.243 1115.489)"/><rect width="160.986" height="131.721" x="1209.125" y="977.555" fill="#53619b" transform="rotate(-180 1289.618 1043.415)"/><rect width="428.252" height="131.721" x="780.873" y="977.555" fill="#529ae3" transform="rotate(-180 994.999 1043.415)"/><path fill="#4072c1" d="M858.458,1014.906h313.316v57.019H858.458V1014.906z"/><circle cx="819.207" cy="1043.416" r="15.302" fill="#79d0e8"/><circle cx="1137.643" cy="1043.416" r="15.302" fill="#79d0e8"/><rect width="6.469" height="57.019" x="1090.727" y="1014.906" fill="#35527c"/><rect width="20.258" height="6.331" x="1057.031" y="1023.056" fill="#529ae3" transform="rotate(-180 1067.16 1026.222)"/><rect width="20.258" height="6.331" x="1020.102" y="1023.056" fill="#529ae3" transform="rotate(-180 1030.231 1026.222)"/><rect width="20.258" height="6.331" x="983.173" y="1023.056" fill="#529ae3" transform="rotate(-180 993.302 1026.222)"/><rect width="20.258" height="6.331" x="946.244" y="1023.056" fill="#529ae3" transform="rotate(-180 956.373 1026.222)"/><rect width="20.258" height="6.331" x="1057.031" y="1038.672" fill="#529ae3" transform="rotate(-180 1067.16 1041.838)"/><rect width="20.258" height="6.331" x="1020.102" y="1038.672" fill="#529ae3" transform="rotate(-180 1030.231 1041.838)"/><rect width="20.258" height="6.331" x="983.173" y="1038.672" fill="#ffe164" transform="rotate(-180 993.302 1041.838)"/><rect width="20.258" height="6.331" x="946.244" y="1038.672" fill="#529ae3" transform="rotate(-180 956.373 1041.838)"/><rect width="20.258" height="6.331" x="1057.031" y="1054.288" fill="#ffe164" transform="rotate(-180 1067.16 1057.453)"/><rect width="20.258" height="6.331" x="1020.102" y="1054.288" fill="#ffe164" transform="rotate(-180 1030.231 1057.453)"/><rect width="20.258" height="6.331" x="983.173" y="1054.288" fill="#ffe164" transform="rotate(-180 993.302 1057.453)"/><rect width="20.258" height="6.331" x="946.244" y="1054.288" fill="#ffe164" transform="rotate(-180 956.373 1057.453)"/><g><circle cx="927.867" cy="1041.838" r="5.666" fill="#529ae3"/></g><g><path fill="#ffe164" d="M896.391,1041.838c0,3.129,2.537,5.666,5.666,5.666c3.129,0,5.666-2.537,5.666-5.666      c0-3.129-2.537-5.666-5.666-5.666C898.928,1036.172,896.391,1038.708,896.391,1041.838z"/></g><g><circle cx="876.246" cy="1041.838" r="5.666" fill="#ffe164"/></g></g><g><rect width="554.898" height="12.425" x="801.593" y="1253.422" fill="#393351" transform="rotate(-180 1079.041 1259.635)"/><rect width="160.986" height="131.721" x="1210.923" y="1121.701" fill="#53619b" transform="rotate(-180 1291.416 1187.562)"/><rect width="428.252" height="131.721" x="782.671" y="1121.701" fill="#529ae3" transform="rotate(-180 996.797 1187.562)"/><path fill="#4072c1" d="M860.256,1159.052h313.316v57.019H860.256V1159.052z"/><circle cx="821.005" cy="1187.562" r="15.302" fill="#79d0e8"/><circle cx="1139.441" cy="1187.562" r="15.302" fill="#79d0e8"/><rect width="6.469" height="57.019" x="1092.525" y="1159.052" fill="#35527c"/><rect width="20.258" height="6.331" x="1058.83" y="1167.203" fill="#529ae3" transform="rotate(-180 1068.959 1170.368)"/><rect width="20.258" height="6.331" x="1021.901" y="1167.203" fill="#529ae3" transform="rotate(-180 1032.03 1170.368)"/><rect width="20.258" height="6.331" x="984.971" y="1167.203" fill="#529ae3" transform="rotate(-180 995.1 1170.368)"/><rect width="20.258" height="6.331" x="948.042" y="1167.203" fill="#529ae3" transform="rotate(-180 958.171 1170.368)"/><rect width="20.258" height="6.331" x="1058.83" y="1182.818" fill="#529ae3" transform="rotate(-180 1068.959 1185.984)"/><rect width="20.258" height="6.331" x="1021.901" y="1182.818" fill="#529ae3" transform="rotate(-180 1032.03 1185.984)"/><rect width="20.258" height="6.331" x="984.971" y="1182.818" fill="#ffe164" transform="rotate(-180 995.1 1185.984)"/><rect width="20.258" height="6.331" x="948.042" y="1182.818" fill="#529ae3" transform="rotate(-180 958.171 1185.984)"/><rect width="20.258" height="6.331" x="1058.83" y="1198.434" fill="#ffe164" transform="rotate(-180 1068.959 1201.6)"/><rect width="20.258" height="6.331" x="1021.901" y="1198.434" fill="#ffe164" transform="rotate(-180 1032.03 1201.6)"/><rect width="20.258" height="6.331" x="984.971" y="1198.434" fill="#ffe164" transform="rotate(-180 995.1 1201.6)"/><rect width="20.258" height="6.331" x="948.042" y="1198.434" fill="#ffe164" transform="rotate(-180 958.171 1201.6)"/><g><path fill="#529ae3" d="M924,1185.984c0,3.129,2.537,5.666,5.666,5.666s5.666-2.537,5.666-5.666      c0-3.129-2.537-5.666-5.666-5.666S924,1182.855,924,1185.984z"/></g><g><path fill="#ffe164" d="M898.189,1185.984c0,3.129,2.537,5.666,5.666,5.666c3.129,0,5.666-2.537,5.666-5.666      c0-3.129-2.537-5.666-5.666-5.666C900.726,1180.318,898.189,1182.855,898.189,1185.984z"/></g><g><path fill="#529ae3" d="M872.379,1185.984c0,3.129,2.537,5.666,5.666,5.666c3.129,0,5.666-2.537,5.666-5.666      c0-3.129-2.537-5.666-5.666-5.666C874.915,1180.318,872.379,1182.855,872.379,1185.984z"/></g></g><g><rect width="554.898" height="12.425" x="803.391" y="1397.569" fill="#393351" transform="rotate(-180 1080.84 1403.781)"/><rect width="160.986" height="131.721" x="1212.721" y="1265.847" fill="#53619b" transform="rotate(-180 1293.214 1331.708)"/><rect width="428.252" height="131.721" x="784.469" y="1265.847" fill="#529ae3" transform="rotate(-180 998.595 1331.708)"/><path fill="#4072c1" d="M862.054,1303.198h313.316v57.019H862.054V1303.198z"/><circle cx="822.804" cy="1331.708" r="15.302" fill="#79d0e8"/><circle cx="1141.239" cy="1331.708" r="15.302" fill="#79d0e8"/><rect width="6.469" height="57.019" x="1094.323" y="1303.198" fill="#35527c"/><rect width="20.258" height="6.331" x="1060.628" y="1311.349" fill="#529ae3" transform="rotate(-180 1070.757 1314.514)"/><rect width="20.258" height="6.331" x="1023.699" y="1311.349" fill="#529ae3" transform="rotate(-180 1033.828 1314.514)"/><rect width="20.258" height="6.331" x="986.769" y="1311.349" fill="#529ae3" transform="rotate(-180 996.899 1314.514)"/><rect width="20.258" height="6.331" x="949.84" y="1311.349" fill="#529ae3" transform="rotate(-180 959.97 1314.514)"/><rect width="20.258" height="6.331" x="1060.628" y="1326.965" fill="#529ae3" transform="rotate(-180 1070.757 1330.13)"/><rect width="20.258" height="6.331" x="1023.699" y="1326.965" fill="#529ae3" transform="rotate(-180 1033.828 1330.13)"/><rect width="20.258" height="6.331" x="986.769" y="1326.965" fill="#ffe164" transform="rotate(-180 996.899 1330.13)"/><rect width="20.258" height="6.331" x="949.84" y="1326.965" fill="#529ae3" transform="rotate(-180 959.97 1330.13)"/><rect width="20.258" height="6.331" x="1060.628" y="1342.58" fill="#ffe164" transform="rotate(-180 1070.757 1345.746)"/><rect width="20.258" height="6.331" x="1023.699" y="1342.58" fill="#ffe164" transform="rotate(-180 1033.828 1345.746)"/><rect width="20.258" height="6.331" x="986.769" y="1342.58" fill="#ffe164" transform="rotate(-180 996.899 1345.746)"/><rect width="20.258" height="6.331" x="949.84" y="1342.58" fill="#ffe164" transform="rotate(-180 959.97 1345.746)"/><g><path fill="#529ae3" d="M925.798,1330.13c0,3.129,2.537,5.666,5.666,5.666c3.129,0,5.666-2.537,5.666-5.666      c0-3.129-2.537-5.666-5.666-5.666C928.335,1324.464,925.798,1327.001,925.798,1330.13z"/></g><g><path fill="#ffe164" d="M899.987,1330.13c0,3.129,2.537,5.666,5.666,5.666c3.129,0,5.666-2.537,5.666-5.666      c0-3.129-2.537-5.666-5.666-5.666C902.524,1324.464,899.987,1327.001,899.987,1330.13z"/></g><g><path fill="#ffe164" d="M874.177,1330.13c0,3.129,2.537,5.666,5.666,5.666s5.666-2.537,5.666-5.666      c0-3.129-2.537-5.666-5.666-5.666S874.177,1327.001,874.177,1330.13z"/></g></g><g><rect width="554.898" height="12.425" x="805.189" y="1541.715" fill="#393351" transform="rotate(-180 1082.638 1547.927)"/><rect width="160.986" height="131.721" x="1214.52" y="1409.994" fill="#53619b" transform="rotate(-180 1295.012 1475.854)"/><rect width="428.252" height="131.721" x="786.267" y="1409.994" fill="#529ae3" transform="rotate(-180 1000.394 1475.854)"/><path fill="#4072c1" d="M863.852,1447.345h313.316v57.019H863.852V1447.345z"/><circle cx="824.602" cy="1475.854" r="15.302" fill="#79d0e8"/><circle cx="1143.038" cy="1475.854" r="15.302" fill="#79d0e8"/><rect width="6.469" height="57.019" x="1096.121" y="1447.345" fill="#35527c"/><rect width="20.258" height="6.331" x="1062.426" y="1455.495" fill="#529ae3" transform="rotate(-180 1072.555 1458.66)"/><rect width="20.258" height="6.331" x="1025.497" y="1455.495" fill="#529ae3" transform="rotate(-180 1035.626 1458.66)"/><rect width="20.258" height="6.331" x="988.568" y="1455.495" fill="#529ae3" transform="rotate(-180 998.697 1458.66)"/><rect width="20.258" height="6.331" x="951.639" y="1455.495" fill="#529ae3" transform="rotate(-180 961.768 1458.66)"/><rect width="20.258" height="6.331" x="1062.426" y="1471.111" fill="#529ae3" transform="rotate(-180 1072.555 1474.276)"/><rect width="20.258" height="6.331" x="1025.497" y="1471.111" fill="#529ae3" transform="rotate(-180 1035.626 1474.276)"/><rect width="20.258" height="6.331" x="988.568" y="1471.111" fill="#ffe164" transform="rotate(-180 998.697 1474.276)"/><rect width="20.258" height="6.331" x="951.639" y="1471.111" fill="#529ae3" transform="rotate(-180 961.768 1474.276)"/><rect width="20.258" height="6.331" x="1062.426" y="1486.727" fill="#ffe164" transform="rotate(-180 1072.555 1489.892)"/><rect width="20.258" height="6.331" x="1025.497" y="1486.727" fill="#ffe164" transform="rotate(-180 1035.626 1489.892)"/><rect width="20.258" height="6.331" x="988.568" y="1486.727" fill="#ffe164" transform="rotate(-180 998.697 1489.892)"/><rect width="20.258" height="6.331" x="951.639" y="1486.727" fill="#ffe164" transform="rotate(-180 961.768 1489.892)"/><g><path fill="#529ae3" d="M927.596,1474.276c0,3.129,2.537,5.666,5.666,5.666s5.666-2.537,5.666-5.666      c0-3.129-2.537-5.666-5.666-5.666S927.596,1471.147,927.596,1474.276z"/></g><g><path fill="#ffe164" d="M901.786,1474.276c0,3.129,2.537,5.666,5.666,5.666s5.666-2.537,5.666-5.666      c0-3.129-2.537-5.666-5.666-5.666S901.786,1471.147,901.786,1474.276z"/></g><g><path fill="#529ae3" d="M875.975,1474.276c0,3.129,2.537,5.666,5.666,5.666c3.129,0,5.666-2.537,5.666-5.666      c0-3.129-2.537-5.666-5.666-5.666C878.512,1468.61,875.975,1471.147,875.975,1474.276z"/></g></g><g><rect width="554.898" height="12.425" x="806.987" y="1685.861" fill="#393351" transform="rotate(-180 1084.436 1692.073)"/><rect width="160.986" height="131.721" x="1216.318" y="1554.14" fill="#53619b" transform="rotate(-180 1296.81 1620)"/><rect width="428.252" height="131.721" x="788.066" y="1554.14" fill="#529ae3" transform="rotate(-180 1002.192 1620)"/><path fill="#4072c1" d="M865.651,1591.491h313.316v57.019H865.651V1591.491z"/><circle cx="826.4" cy="1620" r="15.302" fill="#79d0e8"/><circle cx="1144.836" cy="1620" r="15.302" fill="#79d0e8"/><rect width="6.469" height="57.019" x="1097.92" y="1591.491" fill="#35527c"/><rect width="20.258" height="6.331" x="1064.225" y="1599.641" fill="#529ae3" transform="rotate(-180 1074.354 1602.806)"/><rect width="20.258" height="6.331" x="1027.295" y="1599.641" fill="#529ae3" transform="rotate(-180 1037.425 1602.806)"/><rect width="20.258" height="6.331" x="990.366" y="1599.641" fill="#529ae3" transform="rotate(-180 1000.495 1602.806)"/><rect width="20.258" height="6.331" x="953.437" y="1599.641" fill="#529ae3" transform="rotate(-180 963.566 1602.806)"/><rect width="20.258" height="6.331" x="1064.225" y="1615.257" fill="#529ae3" transform="rotate(-180 1074.354 1618.422)"/><rect width="20.258" height="6.331" x="1027.295" y="1615.257" fill="#529ae3" transform="rotate(-180 1037.425 1618.422)"/><rect width="20.258" height="6.331" x="990.366" y="1615.257" fill="#ffe164" transform="rotate(-180 1000.495 1618.422)"/><rect width="20.258" height="6.331" x="953.437" y="1615.257" fill="#529ae3" transform="rotate(-180 963.566 1618.422)"/><rect width="20.258" height="6.331" x="1064.225" y="1630.873" fill="#ffe164" transform="rotate(-180 1074.354 1634.038)"/><rect width="20.258" height="6.331" x="1027.295" y="1630.873" fill="#ffe164" transform="rotate(-180 1037.425 1634.038)"/><rect width="20.258" height="6.331" x="990.366" y="1630.873" fill="#ffe164" transform="rotate(-180 1000.495 1634.038)"/><rect width="20.258" height="6.331" x="953.437" y="1630.873" fill="#ffe164" transform="rotate(-180 963.566 1634.038)"/><g><path fill="#529ae3" d="M929.395,1618.422c0,3.129,2.537,5.666,5.666,5.666s5.666-2.537,5.666-5.666      s-2.537-5.666-5.666-5.666S929.395,1615.293,929.395,1618.422z"/></g><g><path fill="#ffe164" d="M903.584,1618.422c0,3.129,2.537,5.666,5.666,5.666c3.129,0,5.666-2.537,5.666-5.666      s-2.537-5.666-5.666-5.666C906.121,1612.757,903.584,1615.293,903.584,1618.422z"/></g><g><path fill="#ffe164" d="M877.773,1618.422c0,3.129,2.537,5.666,5.666,5.666s5.666-2.537,5.666-5.666      s-2.537-5.666-5.666-5.666S877.773,1615.293,877.773,1618.422z"/></g></g><g><rect width="160.986" height="131.721" x="1218.116" y="1698.286" fill="#53619b" transform="rotate(-180 1298.609 1764.147)"/><rect width="428.252" height="131.721" x="789.864" y="1698.286" fill="#529ae3" transform="rotate(-180 1003.99 1764.147)"/><path fill="#4072c1" d="M867.449,1735.637h313.316v57.019H867.449V1735.637z"/><rect width="602.527" height="66.52" x="761.156" y="1808.639" fill="#53619b" transform="rotate(-180 1062.42 1841.899)"/><circle cx="828.198" cy="1764.147" r="15.302" fill="#79d0e8" transform="rotate(-67.721 828.213 1764.22)"/><circle cx="1146.634" cy="1764.147" r="15.302" fill="#79d0e8" transform="rotate(-67.5 1146.618 1764.107)"/><rect width="6.469" height="57.019" x="1099.718" y="1735.637" fill="#35527c"/><rect width="20.258" height="6.331" x="1066.023" y="1743.787" fill="#529ae3" transform="rotate(-180 1076.152 1746.953)"/><rect width="20.258" height="6.331" x="1029.094" y="1743.787" fill="#529ae3" transform="rotate(-180 1039.223 1746.953)"/><rect width="20.258" height="6.331" x="992.164" y="1743.787" fill="#529ae3" transform="rotate(-180 1002.294 1746.953)"/><rect width="20.258" height="6.331" x="955.235" y="1743.787" fill="#529ae3" transform="rotate(-180 965.364 1746.953)"/><rect width="20.258" height="6.331" x="1066.023" y="1759.403" fill="#529ae3" transform="rotate(-180 1076.152 1762.569)"/><rect width="20.258" height="6.331" x="1029.094" y="1759.403" fill="#529ae3" transform="rotate(-180 1039.223 1762.569)"/><rect width="20.258" height="6.331" x="992.164" y="1759.403" fill="#ffe164" transform="rotate(-180 1002.294 1762.569)"/><rect width="20.258" height="6.331" x="955.235" y="1759.403" fill="#529ae3" transform="rotate(-180 965.364 1762.569)"/><rect width="20.258" height="6.331" x="1066.023" y="1775.019" fill="#ffe164" transform="rotate(-180 1076.152 1778.184)"/><rect width="20.258" height="6.331" x="1029.094" y="1775.019" fill="#ffe164" transform="rotate(-180 1039.223 1778.184)"/><rect width="20.258" height="6.331" x="992.164" y="1775.019" fill="#ffe164" transform="rotate(-180 1002.294 1778.184)"/><rect width="20.258" height="6.331" x="955.235" y="1775.019" fill="#ffe164" transform="rotate(-180 965.364 1778.184)"/><g><path fill="#529ae3" d="M931.193,1762.569c0,3.129,2.537,5.666,5.666,5.666c3.129,0,5.666-2.536,5.666-5.666      s-2.537-5.666-5.666-5.666C933.73,1756.903,931.193,1759.439,931.193,1762.569z"/></g><g><path fill="#ffe164" d="M905.382,1762.569c0,3.129,2.537,5.666,5.666,5.666s5.666-2.536,5.666-5.666      s-2.537-5.666-5.666-5.666S905.382,1759.439,905.382,1762.569z"/></g><g><path fill="#529ae3" d="M879.572,1762.569c0,3.129,2.537,5.666,5.666,5.666s5.666-2.536,5.666-5.666      s-2.537-5.666-5.666-5.666S879.572,1759.439,879.572,1762.569z"/></g></g></g><g><rect width="490.436" height="15.092" x="1325.53" y="601.73" fill="#393351"/><rect width="520.177" height="159.995" x="1318.772" y="441.734" fill="#529ae3"/><path fill="#4072c1" d="M1744.71,556.361h-380.569v-69.258h380.569V556.361z"/><circle cx="1792.386" cy="521.732" r="18.586" fill="#79d0e8"/><circle cx="1405.598" cy="521.732" r="18.586" fill="#79d0e8"/><rect width="7.857" height="69.258" x="1454.728" y="487.103" fill="#35527c"/><rect width="24.607" height="7.69" x="1478.906" y="497.003" fill="#529ae3"/><rect width="24.607" height="7.69" x="1523.762" y="497.003" fill="#529ae3"/><rect width="24.607" height="7.69" x="1568.618" y="497.003" fill="#529ae3"/><rect width="24.607" height="7.69" x="1613.474" y="497.003" fill="#529ae3"/><rect width="24.607" height="7.69" x="1478.906" y="515.971" fill="#529ae3"/><rect width="24.607" height="7.69" x="1523.762" y="515.971" fill="#529ae3"/><rect width="24.607" height="7.69" x="1568.618" y="515.971" fill="#ffe164"/><rect width="24.607" height="7.69" x="1613.474" y="515.971" fill="#529ae3"/><rect width="24.607" height="7.69" x="1478.906" y="534.938" fill="#ffe164"/><rect width="24.607" height="7.69" x="1523.762" y="534.938" fill="#ffe164"/><rect width="24.607" height="7.69" x="1568.618" y="534.938" fill="#ffe164"/><rect width="24.607" height="7.69" x="1613.474" y="534.938" fill="#ffe164"/><circle cx="1660.402" cy="519.815" r="6.882" fill="#529ae3"/><circle cx="1691.753" cy="519.815" r="6.882" fill="#ffe164"/><circle cx="1723.104" cy="519.815" r="6.882" fill="#529ae3"/><rect width="490.436" height="15.092" x="1323.94" y="776.817" fill="#393351"/><rect width="520.177" height="159.995" x="1316.588" y="616.822" fill="#529ae3"/><path fill="#4072c1" d="M1742.526,731.448h-380.569V662.19h380.569V731.448z"/><circle cx="1790.202" cy="696.819" r="18.586" fill="#79d0e8"/><circle cx="1403.414" cy="696.819" r="18.586" fill="#79d0e8"/><rect width="7.857" height="69.258" x="1452.543" y="662.19" fill="#35527c"/><rect width="24.607" height="7.69" x="1476.722" y="672.09" fill="#529ae3"/><rect width="24.607" height="7.69" x="1521.578" y="672.09" fill="#529ae3"/><rect width="24.607" height="7.69" x="1566.434" y="672.09" fill="#529ae3"/><rect width="24.607" height="7.69" x="1611.29" y="672.09" fill="#529ae3"/><rect width="24.607" height="7.69" x="1476.722" y="691.058" fill="#529ae3"/><rect width="24.607" height="7.69" x="1521.578" y="691.058" fill="#529ae3"/><rect width="24.607" height="7.69" x="1566.434" y="691.058" fill="#ffe164"/><rect width="24.607" height="7.69" x="1611.29" y="691.058" fill="#529ae3"/><rect width="24.607" height="7.69" x="1476.722" y="710.026" fill="#ffe164"/><rect width="24.607" height="7.69" x="1521.578" y="710.026" fill="#ffe164"/><rect width="24.607" height="7.69" x="1566.434" y="710.026" fill="#ffe164"/><rect width="24.607" height="7.69" x="1611.29" y="710.026" fill="#ffe164"/><g><circle cx="1658.218" cy="694.903" r="6.882" fill="#ffe164"/></g><g><circle cx="1689.569" cy="694.903" r="6.882" fill="#529ae3"/></g><g><circle cx="1720.92" cy="694.903" r="6.882" fill="#529ae3"/></g><g><rect width="490.436" height="15.092" x="1322.351" y="951.904" fill="#393351"/><rect width="520.177" height="159.995" x="1314.404" y="791.909" fill="#529ae3"/><path fill="#4072c1" d="M1740.342,906.536h-380.569v-69.258h380.569V906.536z"/><circle cx="1788.017" cy="871.906" r="18.586" fill="#79d0e8"/><circle cx="1401.23" cy="871.906" r="18.586" fill="#79d0e8"/><rect width="7.857" height="69.258" x="1450.359" y="837.278" fill="#35527c"/><rect width="24.607" height="7.69" x="1474.537" y="847.177" fill="#529ae3"/><rect width="24.607" height="7.69" x="1519.394" y="847.177" fill="#529ae3"/><rect width="24.607" height="7.69" x="1564.25" y="847.177" fill="#529ae3"/><rect width="24.607" height="7.69" x="1609.106" y="847.177" fill="#529ae3"/><rect width="24.607" height="7.69" x="1474.537" y="866.145" fill="#529ae3"/><rect width="24.607" height="7.69" x="1519.394" y="866.145" fill="#529ae3"/><rect width="24.607" height="7.69" x="1564.25" y="866.145" fill="#ffe164"/><rect width="24.607" height="7.69" x="1609.106" y="866.145" fill="#529ae3"/><rect width="24.607" height="7.69" x="1474.537" y="885.113" fill="#ffe164"/><rect width="24.607" height="7.69" x="1519.394" y="885.113" fill="#ffe164"/><rect width="24.607" height="7.69" x="1564.25" y="885.113" fill="#ffe164"/><rect width="24.607" height="7.69" x="1609.106" y="885.113" fill="#ffe164"/><g><circle cx="1656.033" cy="869.99" r="6.882" fill="#529ae3"/></g><g><circle cx="1687.384" cy="869.99" r="6.882" fill="#ffe164"/></g><g><circle cx="1718.735" cy="869.99" r="6.882" fill="#ffe164"/></g></g><g><rect width="490.436" height="15.092" x="1320.761" y="1126.991" fill="#393351"/><rect width="520.177" height="159.995" x="1312.22" y="966.996" fill="#529ae3"/><path fill="#4072c1" d="M1738.158,1081.623h-380.569v-69.258h380.569V1081.623z"/><circle cx="1785.833" cy="1046.994" r="18.586" fill="#79d0e8"/><circle cx="1399.045" cy="1046.994" r="18.586" fill="#79d0e8"/><rect width="7.857" height="69.258" x="1448.175" y="1012.365" fill="#35527c"/><rect width="24.607" height="7.69" x="1472.353" y="1022.265" fill="#529ae3"/><rect width="24.607" height="7.69" x="1517.209" y="1022.265" fill="#529ae3"/><rect width="24.607" height="7.69" x="1562.065" y="1022.265" fill="#529ae3"/><rect width="24.607" height="7.69" x="1606.921" y="1022.265" fill="#529ae3"/><rect width="24.607" height="7.69" x="1472.353" y="1041.232" fill="#529ae3"/><rect width="24.607" height="7.69" x="1517.209" y="1041.232" fill="#529ae3"/><rect width="24.607" height="7.69" x="1562.065" y="1041.232" fill="#ffe164"/><rect width="24.607" height="7.69" x="1606.921" y="1041.232" fill="#529ae3"/><rect width="24.607" height="7.69" x="1472.353" y="1060.2" fill="#ffe164"/><rect width="24.607" height="7.69" x="1517.209" y="1060.2" fill="#ffe164"/><rect width="24.607" height="7.69" x="1562.065" y="1060.2" fill="#ffe164"/><rect width="24.607" height="7.69" x="1606.921" y="1060.2" fill="#ffe164"/><g><circle cx="1653.849" cy="1045.077" r="6.882" fill="#529ae3"/></g><g><circle cx="1685.2" cy="1045.077" r="6.882" fill="#ffe164"/></g><g><circle cx="1716.551" cy="1045.077" r="6.882" fill="#529ae3"/></g></g><g><rect width="490.436" height="15.092" x="1319.172" y="1302.079" fill="#393351"/><rect width="520.177" height="159.995" x="1310.035" y="1142.083" fill="#529ae3"/><path fill="#4072c1" d="M1735.973,1256.71h-380.569v-69.258h380.569V1256.71z"/><circle cx="1783.649" cy="1222.081" r="18.586" fill="#79d0e8"/><circle cx="1396.861" cy="1222.081" r="18.586" fill="#79d0e8"/><rect width="7.857" height="69.258" x="1445.991" y="1187.452" fill="#35527c"/><rect width="24.607" height="7.69" x="1470.169" y="1197.352" fill="#529ae3"/><rect width="24.607" height="7.69" x="1515.025" y="1197.352" fill="#529ae3"/><rect width="24.607" height="7.69" x="1559.881" y="1197.352" fill="#529ae3"/><rect width="24.607" height="7.69" x="1604.737" y="1197.352" fill="#529ae3"/><rect width="24.607" height="7.69" x="1470.169" y="1216.319" fill="#529ae3"/><rect width="24.607" height="7.69" x="1515.025" y="1216.319" fill="#529ae3"/><rect width="24.607" height="7.69" x="1559.881" y="1216.319" fill="#ffe164"/><rect width="24.607" height="7.69" x="1604.737" y="1216.319" fill="#529ae3"/><rect width="24.607" height="7.69" x="1470.169" y="1235.287" fill="#ffe164"/><rect width="24.607" height="7.69" x="1515.025" y="1235.287" fill="#ffe164"/><rect width="24.607" height="7.69" x="1559.881" y="1235.287" fill="#ffe164"/><rect width="24.607" height="7.69" x="1604.737" y="1235.287" fill="#ffe164"/><g><circle cx="1651.665" cy="1220.164" r="6.882" fill="#529ae3"/></g><g><circle cx="1683.016" cy="1220.164" r="6.882" fill="#ffe164"/></g><g><circle cx="1714.367" cy="1220.164" r="6.882" fill="#ffe164"/></g></g><g><rect width="490.436" height="15.092" x="1317.583" y="1477.166" fill="#393351"/><rect width="520.177" height="159.995" x="1307.851" y="1317.171" fill="#529ae3"/><path fill="#4072c1" d="M1733.789,1431.797H1353.22v-69.258h380.569V1431.797z"/><circle cx="1781.465" cy="1397.168" r="18.586" fill="#79d0e8"/><circle cx="1394.677" cy="1397.168" r="18.586" fill="#79d0e8"/><rect width="7.857" height="69.258" x="1443.806" y="1362.539" fill="#35527c"/><rect width="24.607" height="7.69" x="1467.985" y="1372.439" fill="#529ae3"/><rect width="24.607" height="7.69" x="1512.841" y="1372.439" fill="#529ae3"/><rect width="24.607" height="7.69" x="1557.697" y="1372.439" fill="#529ae3"/><rect width="24.607" height="7.69" x="1602.553" y="1372.439" fill="#529ae3"/><rect width="24.607" height="7.69" x="1467.985" y="1391.407" fill="#529ae3"/><rect width="24.607" height="7.69" x="1512.841" y="1391.407" fill="#529ae3"/><rect width="24.607" height="7.69" x="1557.697" y="1391.407" fill="#ffe164"/><rect width="24.607" height="7.69" x="1602.553" y="1391.407" fill="#529ae3"/><rect width="24.607" height="7.69" x="1467.985" y="1410.374" fill="#ffe164"/><rect width="24.607" height="7.69" x="1512.841" y="1410.374" fill="#ffe164"/><rect width="24.607" height="7.69" x="1557.697" y="1410.374" fill="#ffe164"/><rect width="24.607" height="7.69" x="1602.553" y="1410.374" fill="#ffe164"/><g><circle cx="1649.481" cy="1395.251" r="6.882" fill="#529ae3"/></g><g><circle cx="1680.832" cy="1395.251" r="6.882" fill="#ffe164"/></g><g><circle cx="1712.182" cy="1395.251" r="6.882" fill="#529ae3"/></g></g><g><rect width="490.436" height="15.092" x="1315.993" y="1652.253" fill="#393351"/><rect width="520.177" height="159.995" x="1305.667" y="1492.258" fill="#529ae3"/><path fill="#4072c1" d="M1731.605,1606.884h-380.569v-69.258h380.569V1606.884z"/><circle cx="1779.28" cy="1572.255" r="18.586" fill="#79d0e8"/><circle cx="1392.493" cy="1572.255" r="18.586" fill="#79d0e8"/><rect width="7.857" height="69.258" x="1441.622" y="1537.626" fill="#35527c"/><rect width="24.607" height="7.69" x="1465.8" y="1547.526" fill="#529ae3"/><rect width="24.607" height="7.69" x="1510.656" y="1547.526" fill="#529ae3"/><rect width="24.607" height="7.69" x="1555.512" y="1547.526" fill="#529ae3"/><rect width="24.607" height="7.69" x="1600.369" y="1547.526" fill="#529ae3"/><rect width="24.607" height="7.69" x="1465.8" y="1566.494" fill="#529ae3"/><rect width="24.607" height="7.69" x="1510.656" y="1566.494" fill="#529ae3"/><rect width="24.607" height="7.69" x="1555.512" y="1566.494" fill="#ffe164"/><rect width="24.607" height="7.69" x="1600.369" y="1566.494" fill="#529ae3"/><rect width="24.607" height="7.69" x="1465.8" y="1585.462" fill="#ffe164"/><rect width="24.607" height="7.69" x="1510.656" y="1585.462" fill="#ffe164"/><rect width="24.607" height="7.69" x="1555.512" y="1585.462" fill="#ffe164"/><rect width="24.607" height="7.69" x="1600.369" y="1585.462" fill="#ffe164"/><g><path fill="#529ae3" d="M1654.178,1570.339c0,3.801-3.081,6.882-6.882,6.882c-3.801,0-6.882-3.081-6.882-6.882      c0-3.801,3.081-6.882,6.882-6.882C1651.097,1563.457,1654.178,1566.538,1654.178,1570.339z"/></g><g><path fill="#ffe164" d="M1685.529,1570.339c0,3.801-3.081,6.882-6.882,6.882c-3.801,0-6.882-3.081-6.882-6.882      c0-3.801,3.081-6.882,6.882-6.882C1682.448,1563.457,1685.529,1566.538,1685.529,1570.339z"/></g><g><path fill="#ffe164" d="M1716.88,1570.339c0,3.801-3.081,6.882-6.882,6.882c-3.801,0-6.882-3.081-6.882-6.882      c0-3.801,3.081-6.882,6.882-6.882C1713.799,1563.457,1716.88,1566.538,1716.88,1570.339z"/></g></g><g><rect width="520.177" height="159.995" x="1303.483" y="1667.345" fill="#529ae3"/><path fill="#4072c1" d="M1729.421,1781.972h-380.569v-69.258h380.569V1781.972z"/><circle cx="1777.096" cy="1747.343" r="18.586" fill="#79d0e8"/><circle cx="1390.308" cy="1747.343" r="18.586" fill="#79d0e8"/><rect width="7.857" height="69.258" x="1439.438" y="1712.714" fill="#35527c"/><rect width="24.607" height="7.69" x="1463.616" y="1722.613" fill="#529ae3"/><rect width="24.607" height="7.69" x="1508.472" y="1722.613" fill="#529ae3"/><rect width="24.607" height="7.69" x="1553.328" y="1722.613" fill="#529ae3"/><rect width="24.607" height="7.69" x="1598.184" y="1722.613" fill="#529ae3"/><rect width="24.607" height="7.69" x="1463.616" y="1741.581" fill="#529ae3"/><rect width="24.607" height="7.69" x="1508.472" y="1741.581" fill="#529ae3"/><rect width="24.607" height="7.69" x="1553.328" y="1741.581" fill="#ffe164"/><rect width="24.607" height="7.69" x="1598.184" y="1741.581" fill="#529ae3"/><rect width="24.607" height="7.69" x="1463.616" y="1760.549" fill="#ffe164"/><rect width="24.607" height="7.69" x="1508.472" y="1760.549" fill="#ffe164"/><rect width="24.607" height="7.69" x="1553.328" y="1760.549" fill="#ffe164"/><rect width="24.607" height="7.69" x="1598.184" y="1760.549" fill="#ffe164"/><circle cx="1645.112" cy="1745.426" r="6.882" fill="#529ae3"/><g><circle cx="1676.463" cy="1745.426" r="6.882" fill="#ffe164"/></g><g><circle cx="1707.814" cy="1745.426" r="6.882" fill="#529ae3"/></g><g><rect width="578.873" height="90.938" x="1270.186" y="1799.377" fill="#53619b"/></g></g></g><g><ellipse cx="1673.587" cy="1972.167" fill="#5cbec6" rx="320.465" ry="23.283"/><path fill="#ce4949" d="M1521.104,706.632c0,0-176.487,143.474-165.882,217.175      c10.604,73.7,111.563,59.914,125.77,19.088c14.207-40.827,78.894-183.985,75.712-192.469      C1553.522,741.943,1521.104,706.632,1521.104,706.632z"/><path fill="#af5546" d="M1656.148,620.994l5.877,2.752c0,0,0.806,3.011,1.673,8.655       c0.867,5.644-14.922,24.783-18.933,24.566c-4.011-0.217-23.631-27.127-23.198-33.943c0.434-6.816,16.043-12.761,21.68-10.764       C1648.885,614.257,1656.148,620.994,1656.148,620.994z"/><path fill="#404859" d="M1894.163,1953.639c-18.702-11.778-26.787-46.419-27.355-47.628         c-2.455-5.223-30.889-12.148-32.536-0.476c-3.247,23.008-5.985-4.589-10.174,2.952c-6.97,12.546,4.13,63.48,14.664,69.208         c20.142,10.953,127.302,7.863,124.316-2.719C1961.286,1968.625,1918.115,1968.723,1894.163,1953.639z"/><path fill="#404859" d="M1453.745,1949.188c15.439-12.04,17.214-45.663,17.431-46.9         c0.938-5.345,27.664-12.408,32.787-0.456c10.099,23.558,4.698-4.692,11.171,3.032c10.77,12.852,14.62,64.987,5.655,70.842         c-17.142,11.194-126.507,7.927-126.619-2.904C1394.103,1966.301,1433.972,1964.608,1453.745,1949.188z"/><path fill="#ffe9d4" d="M1481.13,1066.018l256.735,48.847l139.072,806.082c-25.823,17.001-51.422,13.015-75.992,6.507         l-195.727-651.769c0,0-13.935,132.324-30.273,276.308c-19.496,171.815-42.416,360.233-49.164,360.233h-55.776         C1432.027,1281.102,1481.13,1066.018,1481.13,1066.018z"/><path fill="#f2c3a7" d="M1745.672,1160.112l-7.806-45.247l-14.855-2.827c-24.106,4.266-56.515,8.915-88.233,10.083       c-62.032,2.283-153.786,1.2-153.786,1.2s3.083,16.686,73.868,30.006C1604.791,1162.723,1696.064,1161.643,1745.672,1160.112z"/><path fill="#ff5f4a" d="M1741.93,1123.954c-0.571-36.513-4.576-107.107,0-141.119         c5.697-42.344,23.838-150.959,20.753-180.684c-5.862-56.482-47.368-100.403-187.643-111.82         c-69.305-5.645-81.968,60.668-87.349,103.262c-3.17,25.085-24.884,257.876-17.972,315.214         c1.979,16.412,38.34,30.68,87.005,34.431C1654.421,1150.768,1741.978,1127.003,1741.93,1123.954z"/><path fill="#f6be89" d="M1613.102,702.331c9.78,9.352,41.273,1.511,41.798-5.154l-10.535-57.485l-18.749,10.324         l-4.439,11.026l-5.2,12.907l-6.788,20.16C1605.684,700.775,1610.239,699.592,1613.102,702.331z"/><path fill="#ff867a" d="M1615.977,673.949c18.539-1.141,23.746-16.09,23.746-16.09l-18.547,3.183L1615.977,673.949z"/><path fill="#f6be89" d="M1642.869,620.607l2.447,23.644c0.219,9.198-6.745,17.581-16.469,19.148         c-7.258,1.17-11.045,1.709-19.686-1.288c-7.2-2.497-9.456-10.414-7.356-20.105c2.724-12.572,8.806-23.377,12.384-28.976         c2.018-3.158,4.598-5.387,7.386-6.681c1.021-0.474,2.173-0.589,3.263-0.306         C1632.02,607.914,1639.929,611.718,1642.869,620.607z"/><path fill="#fff" d="M1625.044,640.586c0,0-6.483-3.006-17.231-5.839c0,0-1.857,8.108,4.561,10.532         C1615.141,646.324,1619.757,646.297,1625.044,640.586z"/><path fill="#f6be89" d="M1643.713,634.909c0.713-1.572,1.18-3.231,1.547-4.917c0.698-3.205,2.477-7.807,6.723-4.433         c6.177,4.907,2.894,20.509-5.311,20.086C1640.579,645.33,1641.917,638.869,1643.713,634.909z"/><path fill="#fff" d="M1621.825,704.86c0,0-8.721-15.439-8.128-24.14c-10.053,1.315-16.443,33.239-16.443,33.239         l23.125-5.129l12.617,15.432c0,0,26.139-9.606,27.815-16.357s-5.496-24.11-8.205-20.8         C1643.954,697.677,1621.825,704.86,1621.825,704.86z"/><path fill="#c66c67" d="M1617.909,630.666c-1.843-0.797-3.356-1.942-4.626-3.498          c-0.961-1.179-2.602,0.524-1.651,1.69c1.376,1.686,3.118,3.002,5.116,3.866          C1618.131,633.321,1619.303,631.269,1617.909,630.666z"/><path fill="#434a59" d="M1629.591,621.351c-0.226-0.097-0.905-0.447-1.539,0.298          c-0.477,0.561-0.878,1.333-0.976,2.08c-0.115,0.871,0.625,1.563,1.484,1.439          C1629.75,624.995,1631.106,622.005,1629.591,621.351z"/><path fill="#434a59" d="M1615.239,618.302c-0.226-0.097-0.905-0.447-1.539,0.298          c-0.477,0.561-0.878,1.333-0.976,2.079c-0.115,0.871,0.625,1.563,1.484,1.439          C1615.398,621.946,1616.754,618.955,1615.239,618.302z"/><path fill="#af5546" d="M1626.731,615.969c1.058-0.476,2.802-0.231,3.777,0.326c1.007,0.575,2.14,1.591,2.549,2.738         c0.079,0.122,0.113,0.252,0.109,0.38c0,0.002,0.001,0.005,0.002,0.007c0.051,0.256-0.075,0.439-0.254,0.529         c-0.245,0.227-0.629,0.307-0.987,0.033c-1.45-1.11-3.363-1.987-5.094-2.488         C1625.997,617.252,1626.052,616.064,1626.731,615.969z"/><path fill="#f2c3a7" d="M1858.866,1916.067c0.182,0,0.367-0.029,0.549-0.09c0.909-0.303,1.4-1.285,1.097-2.194        c-0.114-0.341-11.388-34.368-10.533-48.976c0.898-15.334-32.738-183.394-45.169-238.447        c-6.382-28.264-20.522-113.655-34.197-196.234c-12.504-75.512-24.315-146.836-27.767-159.126        c-6.978-24.849-26.319-125.607-26.513-126.621c-0.18-0.94-1.089-1.556-2.03-1.377c-0.941,0.18-1.557,1.089-1.377,2.03        c0.195,1.016,19.563,101.918,26.581,126.906c3.4,12.108,15.196,83.34,27.684,158.755        c13.683,82.629,27.832,168.07,34.236,196.431c12.059,53.404,45.954,222.727,45.09,237.48        c-0.894,15.274,10.231,48.855,10.705,50.277C1857.463,1915.608,1858.14,1916.067,1858.866,1916.067z"/><path fill="#af5546" d="M1613.022,614.403c0.055-0.037,0.115-0.068,0.186-0.087c0.504-0.134,1.127-0.41,1.758-0.607         c0.048-0.021,0.093-0.038,0.13-0.047c0.017-0.004,0.033-0.004,0.05-0.008c0.927-0.264,1.847-0.31,2.406,0.57         c0.072,0.113,0.092,0.232,0.08,0.345c0.111,0.437-0.103,0.982-0.669,1.013c-1.262,0.07-2.521,0.15-3.774,0.347         C1612.274,616.074,1612.193,614.658,1613.022,614.403z"/><path fill="#f2c3a7" d="M1605.218,1279.109c0.334,0,0.674-0.049,1.011-0.153c1.806-0.558,2.818-2.474,2.261-4.281         c-2.473-8.006-24.378-78.496-31.992-87.868c-7.984-9.826-25.178-15.157-25.906-15.379c-1.809-0.549-3.721,0.468-4.273,2.276         c-0.552,1.808,0.467,3.721,2.276,4.273c0.156,0.048,15.93,4.951,22.59,13.148c5.135,6.319,21.211,54.635,30.764,85.571         C1602.402,1278.165,1603.756,1279.109,1605.218,1279.109z"/><path fill="#f2c3a7" d="M1518.184,1899.156c0.828,0,1.562-0.595,1.707-1.44c0.097-0.567,9.764-56.8,11.52-74.355        c1.826-18.265,9.915-134.625,12.393-172.79c1.986-30.576,6.419-59.154,11.553-92.244c1.708-11.007,3.474-22.39,5.246-34.473        c7.009-47.797,19.881-269.97,20.011-272.208c0.055-0.956-0.675-1.776-1.632-1.831c-0.945-0.055-1.777,0.675-1.831,1.632        c-0.129,2.237-12.993,224.257-19.98,271.905c-1.77,12.069-3.534,23.443-5.241,34.444        c-5.146,33.172-9.591,61.821-11.587,92.552c-2.825,43.505-10.658,155.415-12.384,172.669        c-1.743,17.434-11.39,73.547-11.487,74.112c-0.162,0.943,0.471,1.84,1.415,2.003        C1517.988,1899.148,1518.087,1899.156,1518.184,1899.156z"/><path fill="#ff5f4a" d="M1615.054,606.759c0,0,4.789-21.719,20.546-20.7s30.121,18.065,32.067,24.219       c1.946,6.154-3.969,22.123-3.969,22.123l-12.607-9.908L1615.054,606.759z"/><path fill="#434a59" d="M1614.934,608.626c0,0-28.056-10.133-22.989-12.383c5.067-2.25,54.061,23.399,54.933,24.411       C1647.75,621.665,1614.934,608.626,1614.934,608.626z"/><path fill="#f6be89" d="M1889.334,945.927c-7.24-13.715-16.178-28.795-26.043-44.267        c-17.522,46.557-73.975,53.214-96.454,53.978c17.765,28.809,17.576,27.062,17.576,27.062s-188.271,32.315-192.404,35.417        c-7.937,5.956-6.7,18.67-1.106,34.675c2.01,5.751,246.898,79.119,299.837,13.225        C1918.73,1031.18,1915.671,995.823,1889.334,945.927z"/><path fill="#ff5f4a" d="M1863.291,901.66c-39.088-61.301-99.36-142.018-119.867-155.288        c-41.047-26.56-56.564,45.592-40.183,88.352c14.676,38.31,40.949,92.536,62.579,127.613        C1788.298,961.573,1845.769,948.217,1863.291,901.66z"/><path fill="#c66c67" d="M1806.172,1012.671c-0.528-0.155-1.016-0.463-1.392-0.918l-22.564-27.232        c-1.006-1.214-0.837-3.013,0.377-4.019c1.216-1.007,3.014-0.837,4.019,0.377l22.564,27.232        c1.006,1.214,0.837,3.013-0.377,4.019C1808.038,1012.759,1807.051,1012.929,1806.172,1012.671z"/><path fill="#ce4949" d="M1749.14,936.062c-0.965,0-1.904-0.503-2.418-1.4c-0.385-0.673-38.689-67.83-50.399-114.076       c-0.377-1.49,0.525-3.004,2.016-3.382c1.491-0.378,3.004,0.525,3.382,2.016c11.522,45.503,49.451,112.008,49.833,112.674       c0.764,1.334,0.302,3.035-1.032,3.8C1750.085,935.943,1749.609,936.062,1749.14,936.062z"/><path fill="#fff" d="M1610.135,706.632c0,0-5.198,33.425-6.933,49.522c-1.735,16.098-3.268,24.583-3.268,24.583       l19.793,2.166l7.462-68.745l-4.509-6.758L1610.135,706.632z"/><path fill="#5cbec6" d="M1538.487,798.677c-44.144,46.986-111.836,55.55-170.935,42.701        c-8.795-1.912-18.625,6.318-19.261,16.453c-4.519,71.938-1.093,147.249,20.228,216.849        c21.571,70.418,61.343,136.431,119.616,174.872c20.284,13.381,44.283,25.294,68.156,27.035        c21.564-2.211,42.705-14.397,59.647-28.736c49.631-42.004,73.068-112.439,88.207-177.399        c16.62-71.312,23.457-147.097,32.994-217.924c1.35-10.027-7.477-18.078-16.035-15.972        c-53.386,13.135-122.922,10.685-161.488-38.167C1554.385,791.763,1544.139,792.661,1538.487,798.677z"/><path fill="#4a8daf" d="M1721.104,836.556c-53.386,13.135-122.922,10.685-161.488-38.167       c-2.287-2.897-5.533-4.356-8.934-4.577c-6.357,74.013-16.919,232.077-7.693,317.823c5.604,52.077,18.284,111.908,30.31,161.223       c15.48-5.109,30.193-14.475,42.638-25.008c49.631-42.004,73.068-112.439,88.207-177.399       c16.62-71.312,23.457-147.097,32.995-217.924C1738.489,842.501,1729.662,834.451,1721.104,836.556z"/><path fill="#393351" d="M1576.453,1292.624c-0.314-0.014-16.388,0.196-16.702,0.182         c-41.97-2.68-67.077-30.629-97.873-60.028c-36.573-34.913-63.672-81.203-82.064-130.588         c-28.547-76.65-35.864-162.994-28.768-244.116c0.867-9.914-2.218-24.366,5.159-30.336c7.093-5.74,24.831-4.773,33.6-2.659         c53.076,12.792,115.172,5.042,157.068-37.817v0c4.14-4.051-1.713-8.386,3.701-10.078c2.579-0.806,16.274-0.356,18.846-0.216         c7.494,0.408,14.588,2.658,19.759,9.717c33.694,45.995,90.862,44.84,137.874,33.158c0.847-0.21,9.411,0.713,10.245,0.496         c8.208-2.141,17.514,0.288,23.971,6.439c6.495,6.188,8.925,16.549,8.006,25.592c-8.285,81.489-18.06,165.697-38.961,245.04         c-12.4,47.07-29.251,94.941-57.824,132.496c-23.451,30.824-57.43,59.091-95.268,62.662         C1576.916,1292.59,1576.761,1292.601,1576.453,1292.624z M1380.472,857.232c-9.149,123.461,11.835,267.458,99.436,352.294         c24.992,24.203,57.198,46.766,91.267,50.488c8.742-1.331,17.136-4.469,25.138-8.169         c21.181-9.793,39.221-27.165,53.918-46.648c25.089-33.258,40.214-75.864,51.452-117.568         c20.574-76.349,29.516-156.391,38.252-235.312c-27.077,6.597-55.109,9.361-82.297,6.383         c-34.497-3.778-69.288-18.105-92.542-49.047c-28.512,29.233-65.094,46.992-103.306,51.718         C1434.75,864.715,1407.326,863.3,1380.472,857.232z"/><path fill="#fff" d="M1558.98,1292.862c-0.314-0.014-0.472-0.021-0.786-0.035         c-41.97-2.68-82.993-30.412-113.789-59.811c-36.573-34.913-63.672-81.203-82.064-130.588         c-28.547-76.65-35.864-162.994-28.768-244.116c0.867-9.914,5.891-19.912,13.268-25.882c7.093-5.74,16.722-9.227,25.491-7.113         c53.076,12.792,115.172,5.042,157.068-37.816v0c6.111-5.981,14.577-10.728,22.547-10.294         c7.494,0.408,14.588,2.658,19.759,9.717c34.301,46.823,100.932,45.962,148.119,33.654c8.209-2.141,17.514,0.287,23.971,6.439         c6.495,6.188,8.925,16.549,8.006,25.592c-8.285,81.488-18.06,165.697-38.961,245.04         c-12.4,47.07-29.251,94.941-57.824,132.496c-23.451,30.824-57.43,59.091-95.268,62.662         C1559.443,1292.829,1559.288,1292.84,1558.98,1292.862z M1362.999,857.471c-9.149,123.461,11.835,267.458,99.436,352.294         c24.992,24.203,57.198,46.766,91.267,50.488c8.742-1.331,17.136-4.469,25.138-8.169         c21.181-9.793,39.221-27.165,53.918-46.648c25.089-33.258,40.214-75.864,51.452-117.568         c20.574-76.349,29.516-156.391,38.252-235.312c-27.077,6.597-55.109,9.361-82.297,6.383         c-34.497-3.778-69.288-18.105-92.542-49.047c-28.512,29.233-65.094,46.992-103.306,51.718         C1417.277,864.953,1389.853,863.539,1362.999,857.471z"/><path fill="#fff" d="M1444.952,896.799c-2.487-0.278-4.555-2.224-4.884-4.817           c-0.386-3.04,1.766-5.817,4.806-6.202c31.025-3.934,57.952-12.812,80.034-26.389c2.611-1.606,6.028-0.79,7.633,1.821           c1.605,2.61,0.79,6.027-1.82,7.632c-23.436,14.409-51.849,23.81-84.45,27.944           C1445.823,896.846,1445.381,896.847,1444.952,896.799z"/><path fill="#fff" d="M1389.61,898.137c-3.045-0.34-5.238-3.084-4.898-6.13c0.34-3.044,3.083-5.237,6.127-4.899           l0,0c0.09,0.01,9.232,1.001,23.378,0.807c3.063-0.04,5.582,2.408,5.624,5.472c0.042,3.064-2.408,5.582-5.472,5.624           C1399.468,899.216,1390.005,898.181,1389.61,898.137z"/></g><g><path fill="#ffae43" d="M2331.893,363.821c0,0-72.543,9.859-124.997-40.402      c-52.454,50.261-124.997,40.402-124.997,40.402s-8.928,41.894,20.089,125.835c29.017,83.94,104.908,114.01,104.908,114.01      s75.891-30.069,104.908-114.01S2331.893,363.821,2331.893,363.821z"/><path fill="#fff" d="M2195.668,516.792c-0.127,0-0.255-0.001-0.383-0.005c-4.218-0.106-8.205-1.95-11.017-5.096        l-45.417-50.818l22.799-20.376l34.576,38.688l63.661-64.428l21.751,21.492l-75.095,76        C2203.667,515.159,2199.749,516.792,2195.668,516.792z"/></g><g><path fill="#d9f3ff" d="M582.366,619.367h318.301c18.295,0,34.471-11.934,39.802-29.435    c9.446-31.011,14.332-78.556-32.1-102.152c-72.313-36.749-125.659,65.793-125.659,65.793s-10.669-36.157-54.531-23.117    c-43.862,13.04-47.419,54.531-47.419,54.531S593.53,504.132,582.366,619.367z"/></g><g><path fill="#d9f3ff" d="M2580.349,429.672c41.421-6.644,57.181,17.198,57.181,17.198s-1.457-40.69,24.907-52.825      c26.364-12.136,40.91,7.724,40.91,7.724s-1.722-82.983,85.501-68.367c87.223,14.616,81.378,136.749,81.378,136.749      s9.434-28.788,43.774-14.639c34.34,14.149,23.824,61.974,23.824,61.974l-405.594,2.542      C2532.229,520.028,2538.928,436.316,2580.349,429.672z"/></g><g><path fill="#d9f3ff" d="M2947.71,621.4l243.919,0.002c0,0,5.176-21.286-19.41-28.58      c-24.586-7.294-38.173,4.135-38.173,4.135s16.822-56.516-34.291-77.071s-92.521,29.302-98.344,47.803      c-5.823,18.501-6.47,29.267-6.47,29.267S2961.944,577.044,2947.71,621.4z"/></g></svg>