<svg xmlns="http://www.w3.org/2000/svg" enable-background="new 0 0 4000.385 2100" viewBox="0 0 4000.385 2100"><path fill="#5cbec6" d="M716.593,1915.827h2302.672c0,0-68.199-23.682-295.267-23.201     c-227.067,0.48-694.624,0.76-894.233-0.151s-596.656-1.103-810.277,0S716.593,1915.827,716.593,1915.827z"/><path fill="#ffae43" d="M3456.218,663.161h-266.411c-35.569,0-64.671,29.102-64.671,64.671V832.41     c0,35.569,29.102,64.671,64.671,64.671h206.522l36.785,49.99h20.544v-49.99h2.559c35.569,0,64.671-29.102,64.671-64.671V727.832     C3520.889,692.263,3491.787,663.161,3456.218,663.161z"/><path fill="#ffcc4d" d="M3435.674,663.161h-266.411c-35.569,0-64.671,29.102-64.671,64.671V832.41     c0,35.569,29.102,64.671,64.671,64.671h206.522l57.33,49.99v-49.99h2.56c35.569,0,64.671-29.102,64.671-64.671V727.832     C3500.345,692.263,3471.243,663.161,3435.674,663.161z"/><path fill="#fff" d="M3193.984,768.033h216.968c5.928,0,10.779-4.851,10.779-10.78c0-5.929-4.851-10.78-10.779-10.78      h-216.968c-5.929,0-10.78,4.851-10.78,10.78C3183.205,763.182,3188.055,768.033,3193.984,768.033z"/><path fill="#fff" d="M3270.853,792.208h-76.868c-5.929,0-10.78,4.851-10.78,10.779c0,5.929,4.851,10.78,10.78,10.78      h76.868c5.929,0,10.78-4.851,10.78-10.78C3281.632,797.059,3276.781,792.208,3270.853,792.208z"/><path fill="#fff" d="M3379.204,792.208H3302.6c-5.929,0-10.78,4.851-10.78,10.779c0,5.929,4.851,10.78,10.78,10.78      h76.604c5.928,0,10.78-4.851,10.78-10.78C3389.984,797.059,3385.133,792.208,3379.204,792.208z"/><path fill="#fff" d="M3410.952,792.208c-5.954,0-10.78,4.826-10.78,10.779c0,5.953,4.826,10.78,10.78,10.78      c5.953,0,10.779-4.826,10.779-10.78C3421.731,797.034,3416.905,792.208,3410.952,792.208z"/><path fill="#84c0ce" d="M1937.253,838.604c-2.918,0-5.284-2.366-5.284-5.284v-26.421c0-2.918,2.366-5.284,5.284-5.284    c2.918,0,5.284,2.366,5.284,5.284v26.421C1942.537,836.237,1940.171,838.604,1937.253,838.604z M1937.253,781.359    c-2.918,0-5.284-2.366-5.284-5.284v-26.421c0-2.918,2.366-5.284,5.284-5.284c2.918,0,5.284,2.366,5.284,5.284v26.421    C1942.537,778.993,1940.171,781.359,1937.253,781.359z"/><path fill="#84c0ce" d="M1937.253,680.96c-2.918,0-5.284-2.366-5.284-5.284v-13.21c0-2.918,2.366-5.284,5.284-5.284     c2.918,0,5.284,2.366,5.284,5.284v13.21C1942.537,678.594,1940.171,680.96,1937.253,680.96z"/><path fill="#84c0ce" d="M1937.253,720.459c-2.918,0-5.284-2.366-5.284-5.284v-18.23c0-2.918,2.366-5.284,5.284-5.284     c2.918,0,5.284,2.366,5.284,5.284v18.23C1942.537,718.093,1940.171,720.459,1937.253,720.459z"/><path fill="#84c0ce" d="M1937.253,754.938h-13.21c-2.918,0-5.284-2.366-5.284-5.284c0-2.918,2.366-5.284,5.284-5.284     h7.926v-7.926c0-2.918,2.366-5.284,5.284-5.284c2.918,0,5.284,2.366,5.284,5.284v13.21     C1942.537,752.572,1940.171,754.938,1937.253,754.938z"/><path fill="#84c0ce" d="M1893.035,754.938h-26.578c-2.919,0-5.284-2.366-5.284-5.284c0-2.918,2.366-5.284,5.284-5.284     h26.578c2.919,0,5.284,2.366,5.284,5.284C1898.319,752.572,1895.953,754.938,1893.035,754.938z M1835.447,754.938h-26.579     c-2.918,0-5.284-2.366-5.284-5.284c0-2.918,2.366-5.284,5.284-5.284h26.579c2.919,0,5.284,2.366,5.284,5.284     C1840.731,752.572,1838.366,754.938,1835.447,754.938z M1777.86,754.938h-26.578c-2.918,0-5.284-2.366-5.284-5.284     c0-2.918,2.366-5.284,5.284-5.284h26.578c2.918,0,5.284,2.366,5.284,5.284C1783.144,752.572,1780.778,754.938,1777.86,754.938z      M1720.273,754.938h-26.579c-2.919,0-5.284-2.366-5.284-5.284c0-2.918,2.365-5.284,5.284-5.284h26.579     c2.918,0,5.284,2.366,5.284,5.284C1725.557,752.572,1723.191,754.938,1720.273,754.938z M1662.686,754.938h-26.578     c-2.918,0-5.284-2.366-5.284-5.284c0-2.918,2.366-5.284,5.284-5.284h26.578c2.919,0,5.284,2.366,5.284,5.284     C1667.97,752.572,1665.604,754.938,1662.686,754.938z M1605.099,754.938h-26.579c-2.918,0-5.284-2.366-5.284-5.284     c0-2.918,2.366-5.284,5.284-5.284h26.579c2.918,0,5.284,2.366,5.284,5.284C1610.383,752.572,1608.017,754.938,1605.099,754.938z      M1547.511,754.938h-26.579c-2.918,0-5.284-2.366-5.284-5.284c0-2.918,2.366-5.284,5.284-5.284h26.579     c2.918,0,5.284,2.366,5.284,5.284C1552.796,752.572,1550.43,754.938,1547.511,754.938z M1489.924,754.938h-26.579     c-2.919,0-5.284-2.366-5.284-5.284c0-2.918,2.366-5.284,5.284-5.284h26.579c2.918,0,5.284,2.366,5.284,5.284     C1495.208,752.572,1492.842,754.938,1489.924,754.938z M1432.337,754.938h-26.578c-2.918,0-5.284-2.366-5.284-5.284     c0-2.918,2.366-5.284,5.284-5.284h26.578c2.919,0,5.284,2.366,5.284,5.284C1437.621,752.572,1435.255,754.938,1432.337,754.938z      M1374.75,754.938h-26.579c-2.918,0-5.284-2.366-5.284-5.284c0-2.918,2.366-5.284,5.284-5.284h26.579     c2.918,0,5.284,2.366,5.284,5.284C1380.034,752.572,1377.668,754.938,1374.75,754.938z M1317.162,754.938h-26.578     c-2.919,0-5.284-2.366-5.284-5.284c0-2.918,2.366-5.284,5.284-5.284h26.578c2.918,0,5.284,2.366,5.284,5.284     C1322.447,752.572,1320.081,754.938,1317.162,754.938z M1259.575,754.938h-26.579c-2.919,0-5.284-2.366-5.284-5.284     c0-2.918,2.365-5.284,5.284-5.284h26.579c2.919,0,5.284,2.366,5.284,5.284C1264.859,752.572,1262.494,754.938,1259.575,754.938z"/><path fill="#84c0ce" d="M1188.778,768.148c-2.918,0-5.284-2.366-5.284-5.284v-13.21c0-2.918,2.366-5.284,5.284-5.284     h13.21c2.918,0,5.284,2.366,5.284,5.284c0,2.918-2.366,5.284-5.284,5.284h-7.926v7.926     C1194.062,765.782,1191.696,768.148,1188.778,768.148z"/><path fill="#84c0ce" d="M1188.778,1124.549c-2.918,0-5.284-2.366-5.284-5.284v-27.415c0-2.918,2.366-5.284,5.284-5.284     c2.918,0,5.284,2.366,5.284,5.284v27.415C1194.062,1122.183,1191.696,1124.549,1188.778,1124.549z M1188.778,1065.149     c-2.918,0-5.284-2.366-5.284-5.284v-27.415c0-2.918,2.366-5.284,5.284-5.284c2.918,0,5.284,2.366,5.284,5.284v27.415     C1194.062,1062.783,1191.696,1065.149,1188.778,1065.149z M1188.778,1005.749c-2.918,0-5.284-2.366-5.284-5.284v-27.415     c0-2.918,2.366-5.284,5.284-5.284c2.918,0,5.284,2.366,5.284,5.284v27.415     C1194.062,1003.383,1191.696,1005.749,1188.778,1005.749z M1188.778,946.349c-2.918,0-5.284-2.366-5.284-5.284v-27.415     c0-2.918,2.366-5.284,5.284-5.284c2.918,0,5.284,2.366,5.284,5.284v27.415C1194.062,943.982,1191.696,946.349,1188.778,946.349z      M1188.778,886.949c-2.918,0-5.284-2.366-5.284-5.284v-27.415c0-2.918,2.366-5.284,5.284-5.284c2.918,0,5.284,2.366,5.284,5.284     v27.415C1194.062,884.583,1191.696,886.949,1188.778,886.949z M1188.778,827.549c-2.918,0-5.284-2.366-5.284-5.284v-27.415     c0-2.918,2.366-5.284,5.284-5.284c2.918,0,5.284,2.366,5.284,5.284v27.415C1194.062,825.183,1191.696,827.549,1188.778,827.549z"/><path fill="#84c0ce" d="M1188.778,1169.744c-2.918,0-5.284-2.366-5.284-5.284v-13.21c0-2.918,2.366-5.284,5.284-5.284     c2.918,0,5.284,2.366,5.284,5.284v13.21C1194.062,1167.378,1191.696,1169.744,1188.778,1169.744z"/><path fill="#393351" d="M2107.945,1878.076c-83.625,0-167.249,0-250.873,0c38.088-120.689,38.09-240.71,0-361.4        c83.625,0,167.249,0,250.874,0C2146.036,1637.366,2146.032,1757.386,2107.945,1878.076z"/><path fill="#393351" d="M2569.421,821.079l-1145.259,0c-25.479,0-46.206,20.728-46.206,46.207l0,764.085       c0,25.479,20.728,46.206,46.206,46.206l1145.259,0c25.479,0,46.207-20.727,46.207-46.206l0-764.084       C2615.628,841.807,2594.9,821.079,2569.421,821.079z"/><path fill="#bcbcbc" d="M2615.627,1543.625h-240.182v133.951h193.975c25.479,0,46.207-20.728,46.207-46.206V1543.625z"/><path fill="#50456d" d="M2380.55,1854.4h-839.329c-24.153,0-43.732,19.58-43.732,43.732v0h926.793l0,0     C2424.283,1873.98,2404.703,1854.4,2380.55,1854.4z"/><path fill="#5cbec6" d="M2575.754,867.285c0-25.479-20.728-46.206-46.207-46.206H1384.288      c-25.479,0-46.206,20.728-46.206,46.206l0,676.34h1237.672L2575.754,867.285z"/><path fill="#62cbd4" d="M2223.316,1271.022c-53.074-142.32-151.262-184.088-234.564-257.901     c-54.345-48.154-128.823-136.464-174.038-192.043h-323.039c64.54,74.139,212.672,249.505,235.394,322.575     c29.191,93.872,161.877,163.539,233.817,235.19c48.245,48.051,78.197,121.567,92.694,164.782h340.942     C2348.512,1487.436,2261.446,1373.267,2223.316,1271.022z"/><path fill="#50456d" d="M2529.548,821.078H1384.288c-25.479,0-46.206,20.728-46.206,46.207l0,676.34h1237.672l0-676.34     C2575.754,841.807,2555.026,821.078,2529.548,821.078z M2558.504,1526.376H1355.331l0-659.091     c0-15.967,12.99-28.958,28.957-28.958h1145.259c15.967,0,28.957,12.99,28.957,28.958L2558.504,1526.376z"/><path fill="#d8d8d8" d="M1338.082,1543.625v87.744c0,25.479,20.728,46.206,46.206,46.206l1145.259,0      c25.479,0,46.207-20.728,46.207-46.206v-87.744H1338.082z"/><path fill="#fff" d="M1956.918,1645.517c-19.253,0-34.917-15.664-34.917-34.917s15.664-34.917,34.917-34.917      c19.253,0,34.917,15.664,34.917,34.917S1976.171,1645.517,1956.918,1645.517z M1956.918,1581.849      c-15.854,0-28.752,12.898-28.752,28.752c0,15.854,12.898,28.752,28.752,28.752c15.854,0,28.752-12.898,28.752-28.752      C1985.67,1594.747,1972.771,1581.849,1956.918,1581.849z"/><polygon fill="#4096ad" points="1531.375 1543.625 1429.385 1215.224 1361.595 1543.625"/><polygon fill="#bcbcbc" points="1333.944 1677.576 1572.975 1677.576 1531.375 1543.625 1361.595 1543.625"/><polygon fill="#393351" points="1526.018 1526.376 1365.155 1526.376 1361.595 1543.625 1531.375 1543.625"/><path fill="#50456d" d="M1380.978,1174.81h-12.75c-27.384,0-334.328,22.199-334.328,49.583v624.157          c0,27.384,22.199,49.583,49.583,49.583h297.495c27.384,0,49.583-22.199,49.583-49.583v-624.157          C1430.56,1197.009,1408.361,1174.81,1380.978,1174.81z"/><path fill="#fff" d="M1363.572,1174.81h-297.495c-27.384,0-49.583,22.199-49.583,49.583v624.157          c0,27.384,22.199,49.583,49.583,49.583h297.495c27.384,0,49.583-22.199,49.583-49.583v-624.157          C1413.155,1197.009,1390.956,1174.81,1363.572,1174.81z"/><path fill="#5cbec6" d="M1361.91,1181.801h-293.584c-24.298,0-43.995,19.697-43.995,43.995v621.641           c0,24.455,19.824,44.279,44.279,44.279h289.821c26.22,0,47.475-21.255,47.475-47.475v-618.445           C1405.905,1201.499,1386.208,1181.801,1361.91,1181.801z"/><path fill="#fff" d="M1257.417,1205.362h-87.831c-1.935,0-3.518-1.583-3.518-3.518l0,0          c0-1.935,1.583-3.518,3.518-3.518h87.831c1.935,0,3.518,1.583,3.518,3.518l0,0          C1260.935,1203.779,1259.352,1205.362,1257.417,1205.362z"/><circle cx="1153.267" cy="1201.844" r="3.518" fill="#fff"/><circle cx="1271.554" cy="1201.844" r="3.518" fill="#fff"/><path fill="#fff" d="M1422.241,1453.927L1422.241,1453.927c-1.461,0-2.657-1.196-2.657-2.657v-111.977          c0-1.461,1.196-2.657,2.657-2.657l0,0c1.461,0,2.657,1.196,2.657,2.657v111.977          C1424.898,1452.732,1423.702,1453.927,1422.241,1453.927z"/><path fill="#62cbd4" d="M1024.33,1308.569c0,0,100.073,37.287,112.743,63.181          c12.669,25.895,10.042,43.608,55.387,54.237c45.346,10.628,58.879,0.818,90.577,17.208          c31.698,16.389,21.677,37.452,48.956,51.117c27.279,13.665,73.912,38.464,73.912,38.464v103.753          c0,0-142.254-75.917-158.466-93.125c-16.213-17.208-21.574-44.538-38.378-46.056c-16.805-1.518-60.33,14.171-90.191,0          c-29.86-14.171-52.129-73.276-58.203-81.88c-6.073-8.604-36.337-16.196-36.337-16.196V1308.569z"/><path fill="#393351" d="M1744.853,507.76h13.377c0-55.217,44.762-99.979,99.979-99.979            c24.197,0,46.386,8.597,63.68,22.902c19.993-49.632,68.592-84.668,125.381-84.668            c74.628,0,135.126,60.498,135.126,135.125c0,9.113-0.908,18.013-2.628,26.62h22.107c46.409,0,84.381,37.971,84.381,84.381            v0c0,46.41-37.972,84.381-84.381,84.381h-457.021c-46.409,0-84.381-37.971-84.381-84.381v0            C1660.472,545.732,1698.443,507.76,1744.853,507.76z"/><path fill="#50456d" d="M1711.962,507.76h13.377c0-55.217,44.762-99.979,99.979-99.979            c24.197,0,46.386,8.597,63.68,22.902c19.993-49.632,68.592-84.668,125.381-84.668            c74.628,0,135.125,60.498,135.125,135.125c0,9.113-0.908,18.013-2.628,26.62h22.107c46.41,0,84.381,37.971,84.381,84.381            v0c0,46.41-37.971,84.381-84.381,84.381h-457.021c-46.409,0-84.381-37.971-84.381-84.381v0            C1627.581,545.732,1665.552,507.76,1711.962,507.76z"/><path fill="#ffae43" d="M2023.162,468.015h-125.438c-6.067,0-11.03,4.963-11.03,11.03v22.492         c0,6.066,4.963,11.03,11.03,11.03h125.438c6.066,0,11.03-4.964,11.03-11.03v-22.492         C2034.192,472.978,2029.229,468.015,2023.162,468.015z"/><path fill="#50456d" d="M1923.234,489.138c0,2.088-1.693,3.781-3.781,3.781c-2.088,0-3.781-1.693-3.781-3.781         s1.693-3.781,3.781-3.781C1921.542,485.357,1923.234,487.05,1923.234,489.138z"/><path fill="#50456d" d="M1939.936,489.138c0,2.088-1.693,3.781-3.781,3.781s-3.781-1.693-3.781-3.781         s1.693-3.781,3.781-3.781S1939.936,487.05,1939.936,489.138z"/><path fill="#50456d" d="M1956.638,489.138c0,2.088-1.693,3.781-3.781,3.781c-2.088,0-3.781-1.693-3.781-3.781         s1.693-3.781,3.781-3.781C1954.946,485.357,1956.638,487.05,1956.638,489.138z"/><path fill="#ffae43" d="M2023.162,518.767h-125.438c-6.067,0-11.03,4.964-11.03,11.03v22.492         c0,6.066,4.963,11.03,11.03,11.03h125.438c6.066,0,11.03-4.964,11.03-11.03v-22.492         C2034.192,523.731,2029.229,518.767,2023.162,518.767z"/><path fill="#50456d" d="M1923.234,539.891c0,2.088-1.693,3.781-3.781,3.781c-2.088,0-3.781-1.693-3.781-3.781         c0-2.088,1.693-3.781,3.781-3.781C1921.542,536.11,1923.234,537.802,1923.234,539.891z"/><path fill="#50456d" d="M1939.936,539.891c0,2.088-1.693,3.781-3.781,3.781s-3.781-1.693-3.781-3.781         c0-2.088,1.693-3.781,3.781-3.781S1939.936,537.802,1939.936,539.891z"/><path fill="#50456d" d="M1956.638,539.891c0,2.088-1.693,3.781-3.781,3.781c-2.088,0-3.781-1.693-3.781-3.781         c0-2.088,1.693-3.781,3.781-3.781C1954.946,536.11,1956.638,537.802,1956.638,539.891z"/><g><path fill="#ffae43" d="M2023.162,569.52h-125.438c-6.067,0-11.03,4.964-11.03,11.03v22.492         c0,6.066,4.963,11.03,11.03,11.03h125.438c6.066,0,11.03-4.963,11.03-11.03V580.55         C2034.192,574.483,2029.229,569.52,2023.162,569.52z"/><path fill="#50456d" d="M1923.234,590.643c0,2.088-1.693,3.781-3.781,3.781c-2.088,0-3.781-1.693-3.781-3.781         c0-2.088,1.693-3.781,3.781-3.781C1921.542,586.862,1923.234,588.555,1923.234,590.643z"/><path fill="#50456d" d="M1939.936,590.643c0,2.088-1.693,3.781-3.781,3.781s-3.781-1.693-3.781-3.781         c0-2.088,1.693-3.781,3.781-3.781S1939.936,588.555,1939.936,590.643z"/><path fill="#50456d" d="M1956.638,590.643c0,2.088-1.693,3.781-3.781,3.781c-2.088,0-3.781-1.693-3.781-3.781         c0-2.088,1.693-3.781,3.781-3.781C1954.946,586.862,1956.638,588.555,1956.638,590.643z"/></g><g><path fill="#4c3936" d="M2644.203,1126.843c2.067,0,3.887-1.5,4.225-3.608c0.126-0.787,12.566-79.683,9.396-163.152       c-0.09-2.365-2.09-4.211-4.444-4.119c-2.364,0.09-4.208,2.079-4.119,4.444c3.139,82.633-9.169,160.694-9.294,161.473       c-0.374,2.336,1.217,4.533,3.553,4.907C2643.75,1126.825,2643.978,1126.843,2644.203,1126.843z"/><path fill="#53619b" d="M2633.115,961.926c17.957-117.097,42.257-203.603,59.663-255.973                c-7.427-1.441-15.778,0.921-21.598,6.472c-75.124,71.638-184.71,79.421-278.587,53.539                c-13.971-3.852-30.502,8.511-32.421,24.749c-13.625,115.256-14.774,236.636,13.35,350.417                c28.455,115.118,86.56,224.763,176.847,291.716c30.917,22.926,67.74,43.851,105.321,49.2                C2628.393,1349.612,2608.99,1119.25,2633.115,961.926z"/><path fill="#50456d" d="M2961.425,789.468c-86.99,16.397-198.567,6.311-256.251-75.638                c-3.09-4.39-7.548-6.936-12.396-7.876c-17.406,52.37-41.706,138.876-59.663,255.973                c-24.125,157.324-4.722,387.686,22.574,520.12c0.622,0.089,1.242,0.209,1.864,0.289                c34.864-1.648,69.929-19.371,98.435-40.926c83.505-63.142,127.412-174.31,157.494-277.406                c33.024-113.179,50.716-234.415,72.31-347.44C2988.85,800.561,2975.371,786.839,2961.425,789.468z"/><path fill="#50456d" d="M2688.552,1509.901c-0.504-0.05-26.364-1.133-26.869-1.183                    c-67.238-8.019-105.131-55.172-152.044-105.159c-55.712-59.362-95.186-136.179-120.39-217.202                    c-39.119-125.754-43.249-265.217-24.669-395.01c2.271-15.863-1.412-39.37,10.976-48.316                    c11.91-8.6,40.343-5.478,54.253-1.305c84.199,25.258,184.717,18.287,255.863-46.912l0,0.001                    c7.013-6.147-2.012-13.634,6.842-15.876c4.218-1.068,26.196,0.867,30.318,1.319                    c12.012,1.318,23.218,5.563,30.908,17.369c50.104,76.926,142.115,80.122,218.729,65.497                    c1.379-0.263,15.066,1.979,16.427,1.702c13.386-2.716,28.132,2.011,37.969,12.471                    c9.896,10.522,12.886,27.395,10.609,41.852c-20.524,130.277-43.683,264.796-84.301,390.507                    c-24.096,74.578-55.421,150.051-104.676,207.902c-40.427,47.482-97.554,89.923-158.701,92.319                    C2689.298,1509.888,2689.05,1509.892,2688.552,1509.901z M2411.963,792.595                    c-25.623,197.679-4.616,431.039,128.72,575.175c38.04,41.12,87.823,80.242,142.266,89.237                    c14.172-1.368,27.945-5.671,41.136-10.911c34.918-13.872,65.458-40.206,90.808-70.229                    c43.275-51.25,71.358-118.411,93.113-184.466c39.827-120.927,61.279-248.82,82.301-374.93                    c-44.115,8.212-89.427,10.177-132.874,2.986c-55.128-9.124-109.794-35.233-144.445-87.034                    c-48.423,44.478-108.807,69.795-170.657,74.014C2498.565,809.424,2454.599,804.725,2411.963,792.595z"/><path fill="#53619b" d="M2660.439,1508.74c-0.504-0.05-0.756-0.075-1.26-0.125                    c-67.238-8.019-130.739-56.231-177.652-106.217c-55.712-59.362-95.186-136.179-120.39-217.202                    c-39.119-125.754-43.249-265.217-24.669-395.01c2.271-15.863,11.23-31.492,23.618-40.438                    c11.91-8.601,27.7-13.356,41.611-9.183c84.199,25.258,184.717,18.287,255.862-46.912v0.001                    c10.354-9.075,24.384-15.958,37.159-14.556c12.012,1.318,23.218,5.563,30.908,17.369                    c51.007,78.31,158.206,82.816,235.157,67.2c13.386-2.717,28.132,2.01,37.969,12.471                    c9.896,10.522,12.886,27.395,10.609,41.852c-20.524,130.276-43.683,264.795-84.301,390.507                    c-24.096,74.578-55.421,150.05-104.676,207.902c-40.427,47.482-97.554,89.923-158.702,92.319                    C2661.186,1508.726,2660.937,1508.731,2660.439,1508.74z M2383.851,791.434                    c-25.623,197.679-4.616,431.039,128.72,575.175c38.04,41.12,87.823,80.242,142.267,89.237                    c14.172-1.368,27.945-5.671,41.136-10.911c34.918-13.872,65.458-40.206,90.808-70.229                    c43.275-51.25,71.358-118.411,93.113-184.466c39.827-120.927,61.279-248.82,82.301-374.93                    c-44.115,8.212-89.427,10.177-132.874,2.986c-55.128-9.124-109.795-35.233-144.445-87.034                    c-48.423,44.478-108.807,69.795-170.657,74.014C2470.452,808.262,2426.487,803.563,2383.851,791.434z"/><path fill="#fff" d="M2620.005,1206.471c-0.318,0-0.637-0.004-0.956-0.012               c-10.528-0.264-20.478-4.866-27.496-12.718l-113.349-126.829l56.901-50.854l86.294,96.556l158.882-160.796               l54.284,53.639l-187.419,189.677C2639.969,1202.397,2630.19,1206.471,2620.005,1206.471z"/><path fill="#fff" d="M2450.748,1108.568c-4.878,0-9.366-3.21-10.773-8.134         c-4.539-15.891-8.257-33.264-11.053-51.638c-0.931-6.12,3.275-11.837,9.395-12.768c6.119-0.935,11.837,3.275,12.768,9.395         c2.654,17.437,6.168,33.875,10.447,48.854c1.7,5.953-1.747,12.156-7.7,13.857         C2452.804,1108.428,2451.767,1108.568,2450.748,1108.568z"/><path fill="#fff" d="M2434.215,997.546c-5.961,0-10.921-4.696-11.19-10.71         c-3.398-76.239,6.35-139.774,6.766-142.442c0.956-6.116,6.683-10.298,12.805-9.345c6.116,0.956,10.3,6.688,9.345,12.805         c-0.119,0.762-9.81,64.167-6.52,137.984c0.275,6.184-4.515,11.421-10.699,11.697         C2434.552,997.542,2434.383,997.546,2434.215,997.546z"/></g><g><path fill="#50456d" d="M1332.693,609.137c0.043-1.417,0.072-2.838,0.072-4.266c0-4.689-0.237-9.324-0.696-13.895       l34.778-11.3l-18.096-55.695h-18.813l0.499,5.951l-16.504,5.362c-4.622-7.901-10.007-15.303-16.052-22.108l22.265-33.972       l-48.979-32.1h-18.814l10.971,11.967l-12.749,19.452c-8.5-3.784-17.449-6.732-26.744-8.745v-36.568h-58.561v36.568       c-5.975,1.294-11.807,2.972-17.469,5.013l-19.38-31.015h-18.814l3.8,9.382l-34.648,21.652l19.421,31.08       c-4.332,4.219-8.393,8.715-12.145,13.466l-32.926-16.059l-25.671,52.635l32.866,16.03c-1.429,5.831-2.49,11.805-3.15,17.898       l-36.374,3.823l6.122,58.24l36.37-3.823c1.912,5.79,4.191,11.414,6.82,16.84l-28.831,22.526l28.924,37.019l-11.682,9.127       h18.814l28.873-22.558c4.641,3.868,9.539,7.437,14.663,10.68l-12.524,34.409l34.217,12.454l1.999,7.575h18.814l12.508-34.366       c5.933,0.805,11.983,1.236,18.127,1.261l5.596,26.328l-16.804,9.452h18.814l57.281-12.175l-7.605-35.779       c5.544-2.505,10.889-5.372,16.016-8.558l14.523,15.039l-7.9,11.302h18.814l42.125-40.68l-25.439-26.343       c3.363-5.014,6.403-10.261,9.098-15.708l16.194,4.037l0.502,4.816h18.814l14.167-56.821L1332.693,609.137z M1194.551,684.525       c-43.921,0-79.653-35.732-79.653-79.653c0-43.921,35.732-79.653,79.653-79.653s79.653,35.732,79.653,79.653       C1274.204,648.792,1238.472,684.525,1194.551,684.525z"/><polygon fill="#50456d" points="1008.089 651.934 1026.903 651.934 1026.697 649.978"/><polygon fill="#50456d" points="1049.494 510.721 1053.109 503.308 1034.296 503.308"/><path fill="#53619b" d="M1335.206,674.808l14.167-56.821l-35.493-8.849c0.043-1.417,0.072-2.838,0.072-4.266        c0-4.689-0.237-9.324-0.696-13.895l34.778-11.3l-18.096-55.695l-34.818,11.313c-4.623-7.901-10.007-15.303-16.052-22.108        l22.265-33.972l-48.979-32.1l-20.591,31.419c-8.5-3.784-17.449-6.732-26.744-8.745v-36.568h-58.561v36.568        c-5.975,1.294-11.807,2.972-17.469,5.013l-19.38-31.015l-49.662,31.033l19.421,31.08c-4.332,4.219-8.393,8.715-12.145,13.466        l-32.926-16.059l-25.671,52.635l32.866,16.03c-1.429,5.831-2.49,11.805-3.15,17.898l-36.374,3.823l6.122,58.24l36.37-3.823        c1.912,5.79,4.191,11.414,6.82,16.84l-28.831,22.526l36.055,46.146l28.872-22.558c4.641,3.868,9.539,7.437,14.664,10.68        l-12.524,34.409l55.03,20.029l12.508-34.366c5.933,0.805,11.983,1.236,18.127,1.261l7.605,35.779l57.281-12.175l-7.605-35.779        c5.544-2.505,10.889-5.372,16.016-8.558l25.437,26.341l42.125-40.68l-25.439-26.343c3.363-5.014,6.402-10.261,9.098-15.708        L1335.206,674.808z M1175.738,525.219c43.921,0,79.653,35.732,79.653,79.653c0,43.921-35.732,79.653-79.653,79.653        s-79.653-35.732-79.653-79.653C1096.085,560.951,1131.817,525.219,1175.738,525.219z"/><path fill="#d47328" d="M1589.065,489.72h-24.372c-2.245-12.238-7.046-23.576-13.847-33.438l17.231-17.231      c6.123-6.123,6.123-16.142,0-22.264h0c-3.418-3.419-8.052-4.924-12.543-4.525h-15.949l4.831,5.922l-15.834,15.834      c-9.862-6.802-21.201-11.603-33.439-13.848v-24.372c0-8.659-7.084-15.743-15.743-15.743h0h-18.814l1.974,10.919h1.864      c-0.494,1.523-0.768,3.142-0.768,4.824v24.372c-12.238,2.245-23.576,7.046-33.438,13.848l-17.231-17.231      c-3.173-3.173-7.392-4.687-11.573-4.571h-19.182l7.673,5.476c-5.279,6.168-5.016,15.528,0.817,21.36l17.231,17.231      c-6.802,9.862-11.603,21.201-13.848,33.439h-24.372c-8.659,0-15.743,7.085-15.743,15.743l0,0      c0,8.659,7.085,15.743,15.743,15.743h24.372c2.245,12.238,7.046,23.576,13.848,33.438l-17.231,17.231      c-5.869,5.869-6.096,15.308-0.715,21.473l-6.059,5.356h16.996l-0.007-0.016c4.335,0.25,8.756-1.255,12.049-4.549l17.231-17.231      c9.862,6.802,21.201,11.603,33.438,13.848v24.372c0,4.343,1.783,8.288,4.652,11.143l-7.722,4.6h18.814      c8.659,0,15.743-7.085,15.743-15.744v-24.372c12.238-2.245,23.577-7.046,33.438-13.848l17.231,17.231      c0.092,0.092,0.192,0.169,0.285,0.258l-7.422,4.323h18.027c0.161,0.002,0.323,0.002,0.484,0h0.356v-0.017      c3.834-0.144,7.624-1.654,10.534-4.564c6.123-6.123,6.123-16.142,0-22.264l-17.231-17.231      c6.802-9.862,11.602-21.201,13.847-33.438h24.372c8.659,0,15.743-7.085,15.743-15.743      C1604.808,496.804,1597.724,489.72,1589.065,489.72z M1479.399,555.354c-27.554,0-49.891-22.337-49.891-49.891      c0-27.554,22.337-49.891,49.891-49.891c27.554,0,49.891,22.337,49.891,49.891      C1529.29,533.017,1506.953,555.354,1479.399,555.354z"/><path fill="#ffae43" d="M1570.252,489.72h-24.372c-2.245-12.238-7.046-23.576-13.847-33.438l17.231-17.231      c6.123-6.123,6.123-16.142,0-22.264h0c-6.123-6.123-16.142-6.123-22.264,0l-17.231,17.231      c-9.862-6.802-21.201-11.603-33.439-13.848v-24.372c0-8.659-7.084-15.743-15.743-15.743h0c-8.659,0-15.743,7.085-15.743,15.743      v24.372c-12.238,2.245-23.576,7.046-33.438,13.848l-17.232-17.231c-6.123-6.123-16.142-6.123-22.265,0l0,0      c-6.123,6.123-6.123,16.142,0,22.264l17.231,17.231c-6.802,9.862-11.603,21.201-13.848,33.439h-24.372      c-8.659,0-15.744,7.085-15.744,15.743l0,0c0,8.659,7.085,15.743,15.744,15.743h24.372c2.245,12.238,7.046,23.576,13.848,33.438      l-17.231,17.231c-6.123,6.123-6.123,16.142,0,22.265c6.123,6.123,16.142,6.123,22.265,0l17.232-17.231      c9.862,6.802,21.201,11.603,33.438,13.847v24.372c0,8.659,7.084,15.743,15.743,15.743s15.744-7.085,15.744-15.743v-24.372      c12.238-2.245,23.576-7.046,33.438-13.847l17.231,17.231c6.123,6.123,16.142,6.123,22.265,0c6.123-6.123,6.123-16.142,0-22.265      l-17.231-17.231c6.802-9.862,11.602-21.201,13.847-33.438h24.372c8.659,0,15.743-7.085,15.743-15.743      C1585.995,496.804,1578.91,489.72,1570.252,489.72z M1460.586,555.354c-27.554,0-49.891-22.337-49.891-49.891      c0-27.554,22.337-49.891,49.891-49.891c27.554,0,49.891,22.337,49.891,49.891      C1510.477,533.017,1488.14,555.354,1460.586,555.354z"/></g><g><polygon fill="#ffcc4d" points="1138.495 1279.384 845.023 1281.725 842.67 986.931 905.543 913.718 1135.562 911.882"/><rect width="171.859" height="27.762" x="903.825" y="1015.504" fill="#fff" transform="translate(-8.182 7.93)"/><rect width="171.859" height="27.762" x="904.363" y="1082.923" fill="#fff" transform="translate(-8.72 7.937)"/><rect width="171.859" height="27.762" x="904.901" y="1150.342" fill="#fff" transform="translate(-9.259 7.944)"/><polygon fill="#ffae43" points="842.67 986.931 907.152 981.951 905.543 913.718"/></g><g><path fill="#ce4949" d="M893.939,826.503H572.19c-15.691,0-28.59-12.839-28.663-28.53l-1.285-274.894        c-0.073-15.692,12.705-28.53,28.397-28.53h321.749c15.692,0,28.59,12.839,28.663,28.53l1.285,274.894        C922.41,813.664,909.631,826.503,893.939,826.503z"/><path fill="#ff5f4a" d="M862.548,826.503H540.799c-15.692,0-28.59-12.839-28.663-28.53l-1.285-274.894        c-0.073-15.692,12.705-28.53,28.397-28.53h321.749c15.692,0,28.59,12.839,28.664,28.53l1.285,274.894        C891.018,813.664,878.239,826.503,862.548,826.503z"/><path fill="#fff" d="M708.605,653.595l-25.101-14.453l-25.101-14.453c-5.349-3.08-12,0.77-11.971,6.93            l0.135,28.906l0.135,28.906c0.029,6.16,6.716,10.01,12.036,6.93l24.966-14.453l24.966-14.453            C713.99,664.376,713.954,656.675,708.605,653.595z"/><path fill="#fff" d="M758.549,734.915H597.142c-6.855,0-12.457-5.577-12.489-12.431l-0.579-123.916          c-0.032-6.854,5.518-12.431,12.373-12.431h161.406c6.854,0,12.457,5.576,12.489,12.431l0.579,123.916          C770.954,729.338,765.403,734.915,758.549,734.915z M596.485,594.424c-2.285,0-4.135,1.859-4.124,4.144l0.579,123.916          c0.011,2.285,1.878,4.144,4.163,4.144H758.51c2.285,0,4.135-1.859,4.124-4.144l-0.579-123.916          c-0.011-2.285-1.878-4.144-4.163-4.144H596.485z"/><path fill="#fff" d="M829.127,707.29h-14.219c-0.343,0-0.686-0.004-1.029-0.014          c-7.314-0.194-14.271-2.798-19.591-7.332l-31.886-27.179l-0.115-24.48l31.632-27.179c5.277-4.534,12.211-7.138,19.522-7.332          c0.342-0.009,0.685-0.013,1.028-0.013h14.219c5.658,0,10.28,4.104,10.303,9.148l0.352,75.232          C839.368,703.186,834.784,707.29,829.127,707.29z M770.671,668.95l28.975,24.698c3.818,3.255,9.072,5.203,14.412,5.344          c0.269,0.007,0.539,0.011,0.809,0.011h14.219c1.275,0,1.944-0.683,1.969-0.86l-0.352-75.233          c-0.026-0.178-0.702-0.861-1.977-0.861h-14.219c-0.27,0-0.54,0.004-0.809,0.011c-5.339,0.142-10.575,2.089-14.362,5.344          l-28.744,24.698L770.671,668.95z"/></g><g><path fill="#4096ad" d="M1283.099,1407.146h-266.605v309.784h265.852h0.491c11.35,0,20.551-9.201,20.551-20.551v-0.491    v-268.453C1303.388,1416.23,1294.304,1407.146,1283.099,1407.146z"/></g><g><path fill="#50456d" d="M1256.488,1379.425H823.846c-11.205,0-20.289,9.084-20.289,20.289v268.453       c0,11.621,9.421,21.042,21.042,21.042h431.136c11.621,0,21.042-9.421,21.042-21.042v-268.453       C1276.777,1388.508,1267.693,1379.425,1256.488,1379.425z"/><path fill="#f2c3a7" d="M803.557,1427.53v235.872c0,14.253,11.554,25.807,25.807,25.807h421.607      c14.253,0,25.807-11.554,25.807-25.807V1427.53H803.557z"/><path fill="#f2c3a7" d="M1052.475,1399.99c-2.624-3.506-6.747-5.57-11.126-5.57h-30.036h-27.187H954.09       c-4.379,0-8.502,2.064-11.126,5.57l-20.615,27.54h61.777h27.187h61.777L1052.475,1399.99z"/><path fill="#ffed83" d="M845.313,1413.53H844.4c-4.044,0-7.322-3.278-7.322-7.322v-0.913        c0-4.044,3.278-7.322,7.322-7.322h0.913c4.044,0,7.322,3.278,7.322,7.322v0.913        C852.635,1410.252,849.357,1413.53,845.313,1413.53z"/><path fill="#ff5f4a" d="M877.201,1413.53h-0.913c-4.044,0-7.322-3.278-7.322-7.322v-0.913        c0-4.044,3.278-7.322,7.322-7.322h0.913c4.044,0,7.322,3.278,7.322,7.322v0.913        C884.523,1410.252,881.245,1413.53,877.201,1413.53z"/><path fill="#5cbec6" d="M909.089,1413.53h-0.913c-4.044,0-7.322-3.278-7.322-7.322v-0.913        c0-4.044,3.278-7.322,7.322-7.322h0.913c4.044,0,7.322,3.278,7.322,7.322v0.913        C916.411,1410.252,913.133,1413.53,909.089,1413.53z"/><path fill="#ffe9d4" d="M803.557,1469.478v201.985c0,9.801,7.945,17.746,17.746,17.746h437.728      c9.801,0,17.746-7.945,17.746-17.746v-201.985H803.557z"/><path fill="#fff" d="M1105.746,1439.349H831.28c-5.463,0-9.933,4.47-9.933,9.933c0,5.463,4.47,9.933,9.933,9.933       h274.466c5.463,0,9.933-4.47,9.933-9.933C1115.679,1443.819,1111.209,1439.349,1105.746,1439.349z"/><path fill="#fff" d="M908.633,1644.972c-1.772,0-3.667-0.079-5.629-0.232c-10.216-0.818-19.851-3.825-28.644-8.939        c-21.241-12.217-34.447-35.04-34.447-59.547c0-18.949,7.91-37.201,21.702-50.078c3.697-3.526,7.885-6.658,12.417-9.28        c10.424-6.121,22.397-9.363,34.602-9.363c37.893,0,68.719,30.827,68.719,68.721c0,24.507-13.205,47.33-34.463,59.556        c-7.557,4.384-15.782,7.232-24.428,8.453C915.319,1644.734,912.002,1644.972,908.633,1644.972z"/><path fill="#50456d" d="M940.809,1609.984v22.21c-6.94,4.025-14.686,6.774-22.932,7.939        c-2.998,0.445-6.108,0.667-9.245,0.667c-1.777,0-3.554-0.083-5.303-0.221c-9.716-0.778-18.85-3.721-26.874-8.385v-22.21        c0-8.439,3.248-16.102,8.578-21.821c3.248-3.526,7.302-6.33,11.882-8.106c0.917-0.388,1.86-0.694,2.804-0.972        c-1.443-0.666-2.776-1.499-3.998-2.498c-4.803-3.803-7.912-9.689-7.912-16.296c0-1.637,0.194-3.22,0.555-4.72        c2.137-9.217,10.411-16.102,20.266-16.102c11.493,0,20.822,9.329,20.822,20.822c0,8.301-4.886,15.464-11.91,18.795        C930.981,1582.944,940.809,1595.298,940.809,1609.984z"/><g><rect width="166.594" height="21.902" x="1046.367" y="1521.095" fill="#f2c3a7"/><rect width="123.988" height="21.902" x="1046.367" y="1565.302" fill="#f2c3a7"/><rect width="123.988" height="21.902" x="1046.367" y="1609.508" fill="#f2c3a7"/></g></g><g><path fill="#4096ad" d="M2132.948,1454.657l-367.083,0.264c-7.846,0.006-14.267-6.41-14.267-14.258V937.107        c0-7.848,6.42-14.248,14.267-14.223l367.083,1.173c7.803,0.025,14.187,6.447,14.187,14.272v502.09        C2147.134,1448.245,2140.75,1454.651,2132.948,1454.657z"/><path fill="#fff" d="M2099.448,1416.104l-367.083,0.264c-7.846,0.006-14.267-6.41-14.267-14.258V898.555        c0-7.848,6.42-14.248,14.267-14.223l367.083,1.173c7.803,0.025,14.187,6.447,14.187,14.272v502.09        C2113.635,1409.692,2107.251,1416.099,2099.448,1416.104z"/><path fill="#50456d" d="M1916.156,1105.613c-2.048-0.003-4.238-0.099-6.507-0.279         c-11.811-0.966-22.952-4.465-33.122-10.403c-24.572-14.19-39.854-40.652-39.854-69.039c0-21.948,9.153-43.067,25.111-57.94         c4.277-4.072,9.121-7.686,14.363-10.709c12.055-7.055,25.899-10.771,40.009-10.732c43.787,0.12,79.388,35.882,79.388,79.723         c0,28.354-15.248,54.731-39.801,68.837c-8.731,5.059-18.234,8.341-28.227,9.738         C1923.883,1105.349,1920.05,1105.619,1916.156,1105.613z"/><path fill="#fff" d="M1953.338,1065.18v25.703c-8.019,4.645-16.969,7.812-26.498,9.145         c-3.465,0.51-7.059,0.76-10.685,0.754c-2.054-0.003-4.108-0.102-6.13-0.266c-11.233-0.919-21.795-4.343-31.074-9.759v-25.717         c0-9.772,3.757-18.637,9.921-25.247c3.756-4.075,8.443-7.311,13.739-9.357c1.06-0.448,2.151-0.799,3.242-1.119         c-1.668-0.774-3.209-1.742-4.622-2.902c-5.553-4.415-9.149-11.238-9.149-18.888c0-1.896,0.225-3.728,0.642-5.463         c2.471-10.666,12.037-18.614,23.43-18.585c13.284,0.033,24.064,10.857,24.064,24.159c0,9.607-5.646,17.885-13.764,21.724         C1941.984,1033.863,1953.338,1048.184,1953.338,1065.18z"/><path fill="#fff" d="M1953.338,1065.18v25.703c-8.019,4.645-16.969,7.812-26.498,9.145          c-3.465,0.51-7.059,0.76-10.685,0.754c-2.054-0.003-4.108-0.102-6.13-0.266c-11.233-0.919-21.795-4.343-31.074-9.759          v-25.717c0-9.772,3.757-18.637,9.921-25.247c3.756-4.075,8.443-7.311,13.739-9.357c1.06-0.448,2.151-0.799,3.242-1.119          c-1.668-0.774-3.209-1.742-4.622-2.902c-5.553-4.415-9.149-11.238-9.149-18.888c0-1.896,0.225-3.728,0.642-5.463          c2.471-10.666,12.037-18.614,23.43-18.585c13.284,0.033,24.064,10.857,24.064,24.159c0,9.607-5.646,17.885-13.764,21.724          C1941.984,1033.863,1953.338,1048.184,1953.338,1065.18z"/><path fill="#5cbec6" d="M2029.225,1153.15l-226.33-0.276c-11.507-0.014-20.923,9.396-20.923,20.911v0        c0,11.515,9.416,20.945,20.923,20.956l226.33,0.206c11.467,0.01,20.848-9.384,20.848-20.876v0        C2050.073,1162.578,2040.692,1153.164,2029.225,1153.15z"/><path fill="#5cbec6" d="M2029.225,1221.875l-226.33-0.161c-11.507-0.008-20.923,9.406-20.923,20.922l0,0        c0,11.515,9.416,20.94,20.923,20.945l226.33,0.092c11.467,0.005,20.848-9.394,20.848-20.887l0,0        C2050.073,1231.293,2040.692,1221.883,2029.225,1221.875z"/><path fill="#50456d" d="M1872.375,1165.535v11.643c0,1.747,0.495,3.519,2.623,3.521         c2.121,0.002,2.625-1.483,2.625-3.518v-11.64l2.045,0.002v11.676c0,3.023-1.11,5.246-4.719,5.242         c-3.494-0.004-4.632-2.095-4.632-5.169v-11.759L1872.375,1165.535z"/><path fill="#50456d" d="M1883.691,1177.771c0.134,1.649,0.904,2.988,2.671,2.989c1.691,0.002,2.504-0.945,2.504-2.734         c0-1.678-0.702-2.586-2.934-3.663c-2.651-1.27-3.794-2.434-3.794-4.858c0-2.36,1.51-4.188,4.28-4.184         c3.312,0.004,4.19,2.353,4.239,4.347l-2.011-0.002c-0.085-0.834-0.33-2.659-2.291-2.661c-1.519-0.002-2.17,1.032-2.17,2.327         c0,1.519,0.677,2.236,2.736,3.215c2.923,1.39,4.039,2.77,4.039,5.308c0,2.628-1.508,4.593-4.656,4.59         c-3.426-0.003-4.536-2.239-4.661-4.675L1883.691,1177.771z"/><path fill="#50456d" d="M1900.812,1174.338l-5.509-0.006v6.085l6.13,0.006l-0.272,1.795l-7.881-0.008v-16.653         l7.803,0.009v1.818l-5.781-0.006v5.148l5.509,0.006V1174.338z"/><path fill="#50456d" d="M1905.46,1174.665v7.559l-2.033-0.002v-16.652l4.481,0.005         c2.835,0.003,4.345,1.588,4.345,4.351c0,2.473-1.231,3.529-2.211,3.871c1.492,0.561,1.995,1.873,1.995,4.231v0.663         c0,1.615,0.058,2.643,0.234,3.54l-2.015-0.002c-0.232-0.761-0.254-2.21-0.254-3.578v-0.573c0-2.344-0.488-3.408-2.664-3.411         L1905.46,1174.665z M1905.46,1172.948l1.987,0.002c1.98,0.002,2.733-1.072,2.733-2.959c0-1.628-0.755-2.697-2.535-2.699         l-2.185-0.002V1172.948z"/><path fill="#50456d" d="M1914.838,1182.233v-16.65l2.463,0.003c4.376,11.089,5.024,12.693,5.233,13.433h0.024         c-0.12-2.192-0.147-4.688-0.147-7.397v-6.03l1.89,0.002v16.649l-2.356-0.002c-4.54-11.675-5.137-13.25-5.331-13.928h-0.024         c0.122,2.077,0.135,4.751,0.135,7.746v6.178L1914.838,1182.233z"/><path fill="#50456d" d="M1929.311,1177.172l-1.135,5.074l-2.044-0.002l3.983-16.644l2.651,0.003l4.088,16.652         l-2.164-0.002l-1.149-5.076L1929.311,1177.172z M1933.139,1175.37c-0.899-3.919-1.498-6.471-1.728-7.847l-0.06,0         c-0.223,1.465-0.873,4.365-1.65,7.843L1933.139,1175.37z"/><path fill="#50456d" d="M1948.618,1175.343c0-3.052,0.049-6.194,0.098-7.973h-0.047         c-0.604,2.931-2.001,9.605-3.284,14.893l-1.927-0.002c-0.959-4.661-2.422-11.831-3.016-14.936l-0.072,0         c0.098,1.938,0.171,5.572,0.171,8.429v6.504l-1.91-0.002v-16.647l3.047,0.003c1.254,5.11,2.451,11.133,2.836,13.357l0.024,0         c0.316-1.886,1.823-8.44,3.063-13.35l3.005,0.003v16.646l-1.99-0.002V1175.343z"/><path fill="#50456d" d="M1961.342,1174.403l-5.504-0.006v6.083l6.125,0.006l-0.272,1.794l-7.874-0.008v-16.646         l7.796,0.009v1.817l-5.775-0.006v5.146l5.504,0.006V1174.403z"/><g><path fill="#50456d" d="M1859.399,1242.679c0,4.833-3.914,8.75-8.743,8.747c-4.829-0.002-8.744-3.923-8.744-8.757         s3.915-8.75,8.744-8.747C1855.484,1233.925,1859.399,1237.845,1859.399,1242.679z"/><path fill="#50456d" d="M1892.152,1242.697c0,4.832-3.912,8.747-8.739,8.745c-4.827-0.002-8.74-3.922-8.74-8.755         s3.913-8.748,8.74-8.745C1888.24,1233.945,1892.152,1237.865,1892.152,1242.697z"/><path fill="#50456d" d="M1924.889,1242.715c0,4.831-3.911,8.745-8.735,8.743c-4.824-0.002-8.736-3.921-8.736-8.753         s3.911-8.746,8.736-8.743C1920.979,1233.966,1924.889,1237.884,1924.889,1242.715z"/><path fill="#50456d" d="M1957.611,1242.734c0,4.83-3.909,8.743-8.73,8.741c-4.822-0.002-8.732-3.92-8.732-8.751         c0-4.83,3.909-8.744,8.732-8.741C1953.703,1233.986,1957.611,1237.904,1957.611,1242.734z"/><path fill="#50456d" d="M1990.317,1242.752c0,4.829-3.907,8.741-8.726,8.739c-4.82-0.002-8.727-3.919-8.727-8.749         s3.907-8.742,8.727-8.739C1986.41,1234.006,1990.317,1237.923,1990.317,1242.752z"/></g></g><g><path fill="#ffae43" d="M2686.091,636.01l-263.229,0.607c-5.803,0.013-10.521-4.675-10.545-10.479l-0.573-144.261        c-0.023-5.817,4.679-10.549,10.496-10.562l263.229-0.607c5.803-0.013,10.521,4.675,10.544,10.478l0.573,144.261        C2696.61,631.265,2691.908,635.996,2686.091,636.01z"/><path fill="#ffe164" d="M2669.135,636.01l-263.229,0.607c-5.803,0.013-10.521-4.675-10.544-10.479l-0.573-144.261        c-0.023-5.817,4.679-10.549,10.496-10.562l263.229-0.607c5.803-0.013,10.521,4.675,10.544,10.478l0.573,144.261        C2679.654,631.265,2674.952,635.996,2669.135,636.01z"/><path fill="#ffae43" d="M2661.116,487.693c-0.054,0.052-0.11,0.101-0.168,0.15l-121.577,100.974         c-1.17,0.972-2.864,0.976-4.043,0.009l-120.927-99.219c-1.362-1.117-1.564-3.128-0.453-4.491         c1.111-1.351,3.114-1.563,4.476-0.446l118.898,97.554l119.563-99.3c1.352-1.122,3.357-0.933,4.48,0.427         C2662.439,484.648,2662.314,486.547,2661.116,487.693z"/><path fill="#ffae43" d="M2412.717,622.599c-1.172,1.12-3.023,1.183-4.275,0.098c-1.329-1.154-1.476-3.171-0.328-4.502         l69.678-80.809c1.178-1.356,3.158-1.474,4.488-0.323c1.329,1.154,1.476,3.17,0.328,4.502l-69.678,80.809         C2412.862,622.454,2412.79,622.529,2412.717,622.599z"/><path fill="#ffae43" d="M2666.621,622.01c-0.032,0.031-0.066,0.061-0.1,0.091c-1.32,1.161-3.331,1.026-4.489-0.301         l-70.319-80.487c-1.159-1.326-0.986-3.332,0.293-4.503c1.32-1.161,3.331-1.026,4.49,0.301l70.319,80.487         C2667.943,618.891,2667.848,620.837,2666.621,622.01z"/></g><g><polygon fill="#5cbec6" points="3281.723 1496.569 2956.352 1351.743 3072.542 1089.234 3397.912 1234.059"/><path fill="#50456d" d="M3298.686,1458.243l-23.673-64.266c-1.404-3.811-5.746-6.596-10.133-6.494l-81.716,1.856         l-47.75-172.192c-0.747-2.693-3.04-5.054-6.041-6.29c-2.998-1.206-6.253-1.046-8.562,0.419l-142.205,90.188l-22.254,50.279         l325.286,144.788l0.084,0.037L3298.686,1458.243z"/><ellipse cx="3259.854" cy="1296.191" fill="#ffe164" rx="34.016" ry="34.085" transform="rotate(-21.04 3259.77 1296.197)"/></g><g><path fill="#ffae43" d="M556.386,1160.52h24.22V1037.7c0-29.5,24-53.5,53.5-53.5c29.501,0,53.501,24,53.501,53.5        v122.82h24.22V1037.7c0-20.687-8.104-40.185-22.82-54.9c-14.716-14.716-34.213-22.82-54.9-22.82        c-20.688,0-40.185,8.104-54.901,22.82c-14.716,14.716-22.82,34.213-22.82,54.9V1160.52z"/><path fill="#ffe164" d="M587.509,982.8c13.727-13.727,31.615-21.698,50.749-22.708        c-1.378-0.073-2.762-0.112-4.152-0.112c-20.688,0-40.185,8.104-54.901,22.82c-14.716,14.716-22.82,34.213-22.82,54.9v122.82        h8.304V1037.7C564.689,1017.013,572.794,997.516,587.509,982.8z"/><path fill="#ffe164" d="M642.41,984.2c-1.397,0-2.782,0.054-4.152,0.16c27.568,2.126,49.349,25.237,49.349,53.34        v122.82h8.304V1037.7C695.91,1008.2,671.91,984.2,642.41,984.2z"/><path fill="#ce4949" d="M550.994,1129.484l175.94,82.538c0,57.105-25.337,104.367-81.67,107.594       c-2.044,0.117-23.852,0-25.924,0h0c-59.177,0-107.594-48.418-107.594-107.594v-74.471c0-4.455,3.612-8.067,8.067-8.067H550.994       z"/><path fill="#ff5f4a" d="M538.574,1149.056v62.965c0,59.177,48.417,107.594,107.594,107.594h0       c59.177,0,107.594-48.418,107.594-107.594v-72.99c0-5.273-4.275-9.547-9.547-9.547H558.146       C547.337,1129.484,538.574,1138.246,538.574,1149.056z"/><path fill="#3f434c" d="M636.381,1208.083c-2.923-2.794-4.653-6.827-4.342-11.257       c0.488-6.971,6.118-12.61,13.088-13.108c8.294-0.592,15.206,5.96,15.206,14.128c0,4.031-1.685,7.667-4.387,10.246       c-1.429,1.363-2.003,3.398-1.601,5.331l7.806,37.611c0.528,2.545-1.415,4.934-4.015,4.934h-11.968h-11.967       c-2.6,0-4.543-2.388-4.015-4.934l7.806-37.611C638.394,1211.485,637.812,1209.45,636.381,1208.083z"/><path fill="#fff" d="M724.268,1261.994c1.143,0,2.249-0.613,2.827-1.69c2.94-5.482,5.215-10.577,6.955-15.576        c0.582-1.671-0.302-3.498-1.973-4.08c-1.671-0.581-3.498,0.302-4.08,1.973c-1.629,4.678-3.771,9.471-6.55,14.653        c-0.836,1.56-0.25,3.502,1.31,4.339C723.238,1261.872,723.757,1261.994,724.268,1261.994z"/><path fill="#fff" d="M734.754,1231.452c1.571,0,2.942-1.156,3.169-2.756c1.233-8.706,1.233-17.338,1.233-28.265        v-46.949c0-1.77-1.435-3.204-3.205-3.204c-1.77,0-3.204,1.435-3.204,3.204v46.949c0,10.675,0,19.107-1.17,27.367        c-0.248,1.752,0.971,3.374,2.724,3.622C734.453,1231.441,734.604,1231.452,734.754,1231.452z"/></g></svg>