<svg xmlns="http://www.w3.org/2000/svg" viewBox="0 0 4680 3120"><defs><clipPath id="a"><rect width="1619.91" height="1176.36" x="408.67" y="1432.38" fill="none"/></clipPath><clipPath id="b"><rect width="932.18" height="967.67" x="3339.15" y="1686.04" fill="none"/></clipPath></defs><g data-name="2"><rect width="4680" height="3120" fill="#fff" data-name="2" opacity="0"/><path fill="#f4f4f4" d="M2779.46,770.09C2158.17,664.34,1365,915.5,1369.43,1550,660,1717.46,598.32,2268.25,765.76,2625.16h2983.1C4105.77,1536.8,3400.75,875.85,2779.46,770.09Z"/><circle cx="990.49" cy="1206.32" r="387.76" fill="#93b7e2" opacity=".7"/><circle cx="1041.54" cy="818.56" r="163.03" fill="#5681bf" transform="rotate(-45 1041.539 818.56)"/><circle cx="3859.01" cy="1787.96" r="202.69" fill="#f3ce90" opacity=".56"/><g clip-path="url(#a)"><path fill="#40947e" d="M1309.23,2237.14C1194,2174,966.81,2377.22,894.39,2701.36l74.82,21.56C1264.27,2624.72,1424.42,2300.26,1309.23,2237.14Z"/><path fill="#2e6857" d="M686,1592.24c-229.19,6.45-238.41,638,142,1025.27l133.4,26C1106.65,2082.26,915.19,1585.79,686,1592.24Z"/><path fill="#6fc183" d="M445.8,2249.82c-101.26,73.66,89.54,361,380.47,418.08l68.12-29.46C786.59,2340.73,547.07,2176.16,445.8,2249.82Z"/></g><ellipse cx="2293.01" cy="2646.41" fill="#7a8db0" rx="1838.12" ry="113.59"/><g opacity=".69"><path fill="#99b1da" d="M3920.11,915.68c-71-24.35-75.07,4.06-152.18-32.46s-95.36-52.76-131.88-44.64-87.25,0-117.69-24.35-87.24,20.29-113.62-38.55-14.2-89.28-52.76-91.31-81.16-16.23-81.16-16.23c-40.58-2-12.17,42.61-54.78,44.64S3126.76,700.6,3108.5,725s-16.23,54.79-40.58,71-50.73,0-73.05,30.43-14.2,54.79-50.72,48.7-40.58-32.46-83.19,8.12-46.67,64.93-87.25,38.55-71-71-121.74-69-101.45,12.18-111.6,64.93-48.7,77.1-54.78,107.54,22.32,58.84,40.58,62.9,46.67,52.75,60.87,22.32,2-62.9,12.17-87.25,48.7-18.26,36.53,16.23-20.3,42.61-14.21,69-24.35,67-40.58,50.72-36.52-34.49-58.84-18.26-16.23,6.09-40.58,36.53-62.9,18.26-58.84,38.55,48.69,46.67,26.37,62.9-62.9,0-69,12.17,40.58,42.61,54.78,44.64,54.78-30.44,62.9-38.55,40.58-26.38,52.76-12.18,34.49-20.29,34.49-20.29,40.58-46.66,40.58-6.08-10.15,50.72-2,69,10.15,46.67,24.35,20.29-12.17-52.75,20.29-60.87,54.78-44.63,69-42.61,32.46,20.29,36.52,36.53,22.32,36.52-28.41,38.55-87.25-4.06-73,14.2,42.61,14.2,52.75,32.47,10.15,12.17,4.06,38.55-2,28.4,26.38,52.75,44.64,52.76,44.64,69,62.9,22.32,79.13,10.14,89.28-16.23,48.7-42.6-101.46-28.41-75.08-58.85,107.54,10.15,113.63,16.24,6.08,16.23,26.37,30.43,42.61,12.18,42.61,28.41-2,42.61,12.18,44.64,2,40.58,32.46-14.21,30.44-62.9,58.85-54.78,60.87,12.17,77.1,26.38,87.25-10.15,93.33-18.26,14.21-8.12,56.82-28.41,50.72-40.58,44.64-71-24.35-95.36,2-103.48,60.88-8.11,75.08-8.11,44.64,12.17,46.67-22.32,20.29-56.82,14.2-77.11-18.26-22.32-18.26-38.55,4.06-50.72,6.08-56.81,62.9-40.58,62.9-40.58L3630,1063.8l18.26,24.35s30.44-16.23,36.52-24.35,38.56-18.26,38.56-6.09v50.73s-52.76,67-14.21,60.87,77.11,10.14,85.22-30.44-2-99.42,36.52-115.65,67-10.15,83.2-36.52S3991.13,940,3920.11,915.68Z"/><path fill="#d1dbed" d="M2844.73,1573.09c-28.41-8.12-60.88-22.32-77.11-52.76s-34.49-64.93-67-95.36-127.82-38.55-138-46.67-28.41-10.14-28.41-10.14c-24.34-18.27-111.59-10.15-140,12.17s-91.31,30.43-77.1,87.25-48.7,103.48,6.08,125.8,192.76-38.55,200.88-32.47-6.09,115.66,22.32,138-10.15,40.58-6.09,77.1,56.81,34.49,64.93,99.42,26.38,99.43,64.93,62.9,107.54-150.15,107.54-184.64-24.35-50.72,30.43-91.31S2873.13,1581.2,2844.73,1573.09Z"/><path fill="#767676" d="M2836.61,1731.35c-6.05.67-69,18.26-50.73,44.64s-28.4,97.39,14.21,75.07,56.81-34.49,56.81-71S2873.13,1727.29,2836.61,1731.35Z"/><path fill="#767676" d="M3595.47,1743.53c-12.18-40.58-14.21-62.9-48.7-62.9-12.17,38.55,28.41,87.24-54.78,66.95s-83.19-38.55-107.54,2-73,32.47-52.76,67-24.35,52.76,36.53,71,119.71-34.5,148.11,12.17,32.47,95.37,67,97.4,52.76-34.5,54.79-81.17,56.81-44.63,18.26-87.24S3607.64,1784.11,3595.47,1743.53Z"/><path fill="#767676" d="M3374.3,1569c-36.52,8.12-71,48.7-38.55,58.84s26.38,26.38,64.93,32.47S3500.1,1581.2,3374.3,1569Z"/><path fill="#767676" d="M3459.52,1447.29c-40.58,0-26.38,75.07,0,79.13S3481.84,1447.29,3459.52,1447.29Z"/><path fill="#767676" d="M3617.79,1648.16c0,31,58.84,56.81,38.55,24.35S3617.79,1631.93,3617.79,1648.16Z"/><path fill="#99b1da" d="M2400.37,479.44c-44.64-8.12-127.83-26.38-127.83-32.46s4.06-34.5-10.15-48.7-36.52-26.38-36.52-26.38c-42.61,0-81.16-2-109.57,36.52s-71,42.61-103.48,50.73-34.49,36.52-48.69,69-83.19,75.07-89.28,95.36-38.55,71,22.32,77.1,87.25,40.58,95.36,67,107.54,85.22,91.31,113.63-99.42-2-46.67,91.3,77.1,164.36,87.25,119.72,12.17-89.28,24.35-107.54,60.87-30.44,93.33-60.87-34.49,10.14,30.44-105.51,46.67-123.77,46.67-186.67,6.08-67,28.4-87.25S2445,487.56,2400.37,479.44Z"/><path fill="#99b1da" d="M2629.65,511.9c-6.09,0-40.58,6.09-40.58,26.38s10.14,38.55,10.14,38.55c-42.61-26.37-36.52-38.55-60.87,0s4.06,58.84,8.12,64.93,0,50.73,18.26,54.79,42.61-48.7,42.61-48.7,6.09,22.32,26.38,24.35,2-40.58,0-46.67S2627.62,589,2645.88,585,2635.74,511.9,2629.65,511.9Z"/><path fill="#99b1da" d="M2126.45,1652.22c-32.47-12.17-48.7-26.38-64.93-52.76s-91.31-46.66-105.51-46.66-56.81,20.29-81.16,24.35-44.64-44.64-50.73-48.7a1112.2,1112.2,0,0,0-99.42-60.87c-52.75-28.41-20.29-48.7,36.52-56.82s34.5,30.44,54.79,44.64-2-20.29,10.14-87.24,28.41-42.61,38.55-60.88,69-32.46,75.08-34.49,36.52-24.35,24.35-30.43,4-32.47,10.14-38.56,40.58-38.55,36.52-83.19-54.78-24.35-79.13-24.35-38.55-64.92-83.19-46.66,8.12,60.87,14.2,115.65-32.46,0-46.66-10.14-8.12-44.64-97.4-85.22,30.44-69,38.55-77.11,42.61-6.08,42.61-12.17-6.08-10.15,6.09-18.26S1816,931.91,1816,911.62s36.52-20.29,48.69-16.23,8.12,69,16.24,93.34,30.43,18.26,64.92,18.26,2-36.53,4.06-42.61,18.26-42.61,10.15-69-73-38.55-91.31-79.13-48.7-38.55-75.07-12.18-62.9,36.53-85.22,14.21-46.67-44.64-46.67-44.64,48.7-16.23,77.1-6.09,24.35,2,52.76-28.4-40.58-34.5-34.5-56.82,18.27,6.09,34.5,14.21,54.78-10.15,56.81-34.5,30.44-83.19,62.9-117.68,12.17-71,46.67-89.28-2-52.75-26.38-62.9c0,0-26.38-20.29-58.84-30.43s-75.07,26.37-85.22,40.58-97.39,156.23-105.51,156.23-12.17,69-28.41,71-20.29,22.32-30.43,36.52-14.2,4.06-30.44-8.12-44.64-16.23-56.81-16.23-36.52,28.41-44.64,48.7,64.93,52.75,67,69,50.73,28.4,54.78,34.49,40.58,81.16,38.55,101.45-69,14.2-91.3,10.15S1467,871,1467,871L1352.52,978.81,1467,1167.28c14.21,4.06,8.12,111.6,8.12,131.89s58.84,111.59,75.07,115.65,34.5,18.26,40.58,24.35,38.56,62.9,58.85,75.08,79.13,22.31,97.39,30.43,52.75,4.06,67,10.15,20.29,22.32,28.4,44.63-22.32,67-28.4,93.34,16.23,52.76,38.55,93.34,14.2,79.13,26.38,113.62-14.21,85.22-22.32,107.54-12.18,64.93-8.12,87.25,24.35,60.87,34.49,73,32.47-28.4,32.47-28.4l16.23-48.7s28.41-60.87,44.64-85.22,12.17-50.72,32.46-58.84,50.73-20.29,64.93-48.7,14.21-62.9,42.61-73,36.53-14.21,26.38-42.61,28.41-71,44.64-89.28S2158.91,1664.39,2126.45,1652.22Z"/></g><rect width="117.28" height="50.64" x="2164.27" y="1862.41" fill="#243354"/><rect width="117.28" height="50.64" x="2855.93" y="1862.41" fill="#243354"/><rect width="892.01" height="326.95" x="2123.84" y="1555.01" fill="#3d5891" rx="2.19"/><rect width="575.72" height="138.6" x="2413.48" y="1579.88" fill="#99b1da" rx="1.08"/><rect width="250.55" height="138.6" x="2146.94" y="1579.88" fill="#99b1da" rx=".71"/><rect width="91.51" height="26.65" x="2845.27" y="1750.47" fill="#fff" rx="12.19"/><rect width="91.51" height="26.65" x="2698.67" y="1750.47" fill="#fff" rx="12.19"/><rect width="91.51" height="26.65" x="2545.86" y="1750.47" fill="#fff" rx="12.19"/><circle cx="2922.12" cy="1645.19" r="18.21" fill="#5681bf"/><circle cx="2836.83" cy="1645.19" r="18.21" fill="#5681bf"/><circle cx="2738.21" cy="1645.19" r="18.21" fill="#5681bf"/><circle cx="2652.92" cy="1645.19" r="18.21" fill="#5681bf"/><circle cx="2283.32" cy="1616.76" r="18.21" fill="#d1dbed"/><circle cx="2208.69" cy="1616.76" r="18.21" fill="#d1dbed" transform="rotate(-9.22 2208.053 1616.39)"/><circle cx="2283.32" cy="1677.62" r="18.21" fill="#fff"/><circle cx="2208.69" cy="1677.62" r="18.21" fill="#fff" transform="rotate(-10.9 2208.84 1677.726)"/><rect width="117.28" height="50.64" x="2164.27" y="2219.57" fill="#243354"/><rect width="117.28" height="50.64" x="2855.93" y="2219.57" fill="#243354"/><rect width="892.01" height="326.95" x="2123.84" y="1912.17" fill="#3d5891" rx="2.19"/><rect width="575.72" height="138.6" x="2413.48" y="1937.05" fill="#99b1da" rx="1.08"/><rect width="250.55" height="138.6" x="2146.94" y="1937.05" fill="#99b1da" rx=".71"/><rect width="91.51" height="26.65" x="2845.27" y="2107.63" fill="#fff" rx="12.19"/><rect width="91.51" height="26.65" x="2698.67" y="2107.63" fill="#fff" rx="12.19"/><rect width="91.51" height="26.65" x="2545.86" y="2107.63" fill="#fff" rx="12.19"/><circle cx="2922.12" cy="2002.35" r="18.21" fill="#d1dbed"/><circle cx="2836.83" cy="2002.35" r="18.21" fill="#d1dbed"/><circle cx="2738.21" cy="2002.35" r="18.21" fill="#5681bf"/><circle cx="2652.92" cy="2002.35" r="18.21" fill="#5681bf"/><circle cx="2283.32" cy="1973.92" r="18.21" fill="#d1dbed"/><circle cx="2208.69" cy="1973.92" r="18.21" fill="#d1dbed" transform="rotate(-4.73 2209.253 1974.452)"/><circle cx="2283.32" cy="2034.78" r="18.21" fill="#fff"/><circle cx="2208.69" cy="2034.78" r="18.21" fill="#fff" transform="rotate(-10.9 2208.873 2034.903)"/><rect width="117.28" height="50.64" x="2164.27" y="2574.07" fill="#243354"/><rect width="117.28" height="50.64" x="2855.93" y="2574.07" fill="#243354"/><rect width="892.01" height="326.95" x="2123.84" y="2266.66" fill="#3d5891" rx="2.19"/><rect width="575.72" height="138.6" x="2413.48" y="2291.54" fill="#99b1da" rx="1.08"/><rect width="250.55" height="138.6" x="2146.94" y="2291.54" fill="#99b1da" rx=".71"/><rect width="91.51" height="26.65" x="2845.27" y="2462.12" fill="#fff" rx="12.19"/><rect width="91.51" height="26.65" x="2698.67" y="2462.12" fill="#fff" rx="12.19"/><rect width="91.51" height="26.65" x="2545.86" y="2462.12" fill="#fff" rx="12.19"/><circle cx="2922.12" cy="2356.84" r="18.21" fill="#fff"/><circle cx="2836.83" cy="2356.84" r="18.21" fill="#fff"/><circle cx="2738.21" cy="2356.84" r="18.21" fill="#5681bf"/><circle cx="2652.92" cy="2356.84" r="18.21" fill="#5681bf"/><circle cx="2283.32" cy="2328.41" r="18.21" fill="#d1dbed"/><circle cx="2208.69" cy="2328.41" r="18.21" fill="#d1dbed" transform="rotate(-9.22 2208.044 2327.822)"/><circle cx="2283.32" cy="2389.27" r="18.21" fill="#fff"/><circle cx="2208.69" cy="2389.27" r="18.21" fill="#fff" transform="rotate(-9.22 2208.067 2388.676)"/><rect width="750.45" height="1910.23" x="3078.32" y="698.56" fill="#5681bf"/><rect width="633.07" height="64.81" x="3134.12" y="772.47" fill="#99b1da"/><rect width="17.1" height="48.32" x="3736.62" y="779.29" fill="#d1dbed"/><rect width="17.1" height="48.32" x="3715.25" y="779.29" fill="#d1dbed"/><rect width="17.1" height="48.32" x="3693.59" y="779.29" fill="#d1dbed"/><rect width="17.1" height="48.32" x="3671.94" y="779.29" fill="#d1dbed"/><rect width="17.1" height="48.32" x="3649.82" y="779.29" fill="#d1dbed"/><rect width="17.1" height="48.32" x="3628.17" y="779.29" fill="#d1dbed"/><rect width="17.1" height="48.32" x="3606.52" y="779.29" fill="#d1dbed"/><rect width="134.94" height="17.91" x="3377.53" y="786.12" fill="#fff" rx=".57"/><path fill="#3d5891" d="M3262.26,790.1c-7.44,0-13.47,7.12-13.47,15.91s6,15.92,13.47,15.92,13.47-7.12,13.47-15.92S3269.7,790.1,3262.26,790.1Z"/><ellipse cx="3223.44" cy="806.01" fill="#3d5891" rx="13.47" ry="15.92"/><path fill="#3d5891" d="M3184.63,790.1c-7.44,0-13.47,7.12-13.47,15.91s6,15.92,13.47,15.92,13.47-7.12,13.47-15.92S3192.07,790.1,3184.63,790.1Z"/><rect width="633.07" height="64.81" x="3134.12" y="856.04" fill="#99b1da"/><rect width="17.1" height="48.32" x="3736.62" y="862.87" fill="#d1dbed"/><rect width="17.1" height="48.32" x="3715.25" y="862.87" fill="#d1dbed"/><rect width="17.1" height="48.32" x="3693.59" y="862.87" fill="#d1dbed"/><rect width="17.1" height="48.32" x="3671.94" y="862.87" fill="#d1dbed"/><rect width="17.1" height="48.32" x="3649.82" y="862.87" fill="#d1dbed"/><rect width="134.94" height="17.91" x="3377.53" y="869.69" fill="#fff" rx=".57"/><path fill="#3d5891" d="M3262.26,873.67c-7.44,0-13.47,7.13-13.47,15.92s6,15.92,13.47,15.92,13.47-7.13,13.47-15.92S3269.7,873.67,3262.26,873.67Z"/><ellipse cx="3223.44" cy="889.59" fill="#3d5891" rx="13.47" ry="15.92"/><path fill="#3d5891" d="M3184.63,873.67c-7.44,0-13.47,7.13-13.47,15.92s6,15.92,13.47,15.92,13.47-7.13,13.47-15.92S3192.07,873.67,3184.63,873.67Z"/><rect width="633.07" height="64.81" x="3134.12" y="937.06" fill="#99b1da"/><rect width="17.1" height="48.32" x="3736.62" y="943.88" fill="#d1dbed"/><rect width="17.1" height="48.32" x="3715.25" y="943.88" fill="#d1dbed"/><rect width="17.1" height="48.32" x="3693.59" y="943.88" fill="#d1dbed"/><rect width="134.94" height="17.91" x="3377.53" y="950.7" fill="#fff" rx=".57"/><path fill="#3d5891" d="M3262.26,954.68c-7.44,0-13.47,7.13-13.47,15.92s6,15.92,13.47,15.92,13.47-7.13,13.47-15.92S3269.7,954.68,3262.26,954.68Z"/><ellipse cx="3223.44" cy="970.6" fill="#3d5891" rx="13.47" ry="15.92"/><path fill="#3d5891" d="M3184.63,954.68c-7.44,0-13.47,7.13-13.47,15.92s6,15.92,13.47,15.92,13.47-7.13,13.47-15.92S3192.07,954.68,3184.63,954.68Z"/><rect width="633.07" height="64.81" x="3134.12" y="1309.16" fill="#99b1da"/><rect width="17.1" height="48.32" x="3736.62" y="1315.98" fill="#d1dbed"/><rect width="17.1" height="48.32" x="3715.25" y="1315.98" fill="#d1dbed"/><rect width="17.1" height="48.32" x="3693.59" y="1315.98" fill="#d1dbed"/><rect width="17.1" height="48.32" x="3671.94" y="1315.98" fill="#d1dbed"/><rect width="17.1" height="48.32" x="3649.82" y="1315.98" fill="#d1dbed"/><rect width="17.1" height="48.32" x="3628.17" y="1315.98" fill="#d1dbed"/><rect width="17.1" height="48.32" x="3606.52" y="1315.98" fill="#d1dbed"/><rect width="134.94" height="17.91" x="3377.53" y="1322.8" fill="#fff" rx=".57"/><path fill="#3d5891" d="M3262.26,1326.78c-7.44,0-13.47,7.13-13.47,15.92s6,15.92,13.47,15.92,13.47-7.13,13.47-15.92S3269.7,1326.78,3262.26,1326.78Z"/><ellipse cx="3223.44" cy="1342.7" fill="#3d5891" rx="13.47" ry="15.92"/><path fill="#3d5891" d="M3184.63,1326.78c-7.44,0-13.47,7.13-13.47,15.92s6,15.92,13.47,15.92,13.47-7.13,13.47-15.92S3192.07,1326.78,3184.63,1326.78Z"/><rect width="633.07" height="64.81" x="3134.12" y="1392.73" fill="#99b1da"/><rect width="17.1" height="48.32" x="3736.62" y="1399.55" fill="#d1dbed"/><rect width="17.1" height="48.32" x="3715.25" y="1399.55" fill="#d1dbed"/><rect width="17.1" height="48.32" x="3693.59" y="1399.55" fill="#d1dbed"/><rect width="17.1" height="48.32" x="3671.94" y="1399.55" fill="#d1dbed"/><rect width="17.1" height="48.32" x="3649.82" y="1399.55" fill="#d1dbed"/><rect width="134.94" height="17.91" x="3377.53" y="1406.37" fill="#fff" rx=".57"/><path fill="#3d5891" d="M3262.26,1410.35c-7.44,0-13.47,7.13-13.47,15.92s6,15.92,13.47,15.92,13.47-7.13,13.47-15.92S3269.7,1410.35,3262.26,1410.35Z"/><path fill="#3d5891" d="M3223.44,1410.35c-7.43,0-13.47,7.13-13.47,15.92s6,15.92,13.47,15.92,13.47-7.13,13.47-15.92S3230.88,1410.35,3223.44,1410.35Z"/><path fill="#3d5891" d="M3184.63,1410.35c-7.44,0-13.47,7.13-13.47,15.92s6,15.92,13.47,15.92,13.47-7.13,13.47-15.92S3192.07,1410.35,3184.63,1410.35Z"/><rect width="633.07" height="64.81" x="3134.12" y="1473.74" fill="#99b1da"/><rect width="17.1" height="48.32" x="3736.62" y="1480.57" fill="#d1dbed"/><rect width="17.1" height="48.32" x="3715.25" y="1480.57" fill="#d1dbed"/><rect width="17.1" height="48.32" x="3693.59" y="1480.57" fill="#d1dbed"/><rect width="134.94" height="17.91" x="3377.53" y="1487.39" fill="#fff" rx=".57"/><path fill="#3d5891" d="M3262.26,1491.37c-7.44,0-13.47,7.13-13.47,15.92s6,15.92,13.47,15.92,13.47-7.13,13.47-15.92S3269.7,1491.37,3262.26,1491.37Z"/><path fill="#3d5891" d="M3223.44,1491.37c-7.43,0-13.47,7.13-13.47,15.92s6,15.92,13.47,15.92,13.47-7.13,13.47-15.92S3230.88,1491.37,3223.44,1491.37Z"/><path fill="#3d5891" d="M3184.63,1491.37c-7.44,0-13.47,7.13-13.47,15.92s6,15.92,13.47,15.92,13.47-7.13,13.47-15.92S3192.07,1491.37,3184.63,1491.37Z"/><rect width="633.07" height="64.81" x="3134.12" y="1768.52" fill="#99b1da"/><rect width="17.1" height="48.32" x="3736.62" y="1775.34" fill="#d1dbed"/><rect width="17.1" height="48.32" x="3715.25" y="1775.34" fill="#d1dbed"/><rect width="17.1" height="48.32" x="3693.59" y="1775.34" fill="#d1dbed"/><rect width="17.1" height="48.32" x="3671.94" y="1775.34" fill="#d1dbed"/><rect width="17.1" height="48.32" x="3649.82" y="1775.34" fill="#d1dbed"/><rect width="17.1" height="48.32" x="3628.17" y="1775.34" fill="#d1dbed"/><rect width="17.1" height="48.32" x="3606.52" y="1775.34" fill="#d1dbed"/><rect width="134.94" height="17.91" x="3377.53" y="1782.17" fill="#fff" rx=".57"/><path fill="#3d5891" d="M3262.26,1786.15c-7.44,0-13.47,7.12-13.47,15.92s6,15.91,13.47,15.91,13.47-7.12,13.47-15.91S3269.7,1786.15,3262.26,1786.15Z"/><ellipse cx="3223.44" cy="1802.07" fill="#3d5891" rx="13.47" ry="15.92"/><path fill="#3d5891" d="M3184.63,1786.15c-7.44,0-13.47,7.12-13.47,15.92s6,15.91,13.47,15.91,13.47-7.12,13.47-15.91S3192.07,1786.15,3184.63,1786.15Z"/><rect width="633.07" height="64.81" x="3134.12" y="1852.1" fill="#99b1da"/><rect width="17.1" height="48.32" x="3736.62" y="1858.92" fill="#d1dbed"/><rect width="17.1" height="48.32" x="3715.25" y="1858.92" fill="#d1dbed"/><rect width="17.1" height="48.32" x="3693.59" y="1858.92" fill="#d1dbed"/><rect width="17.1" height="48.32" x="3671.94" y="1858.92" fill="#d1dbed"/><rect width="17.1" height="48.32" x="3649.82" y="1858.92" fill="#d1dbed"/><rect width="134.94" height="17.91" x="3377.53" y="1865.74" fill="#fff" rx=".57"/><path fill="#3d5891" d="M3262.26,1869.72c-7.44,0-13.47,7.13-13.47,15.92s6,15.92,13.47,15.92,13.47-7.13,13.47-15.92S3269.7,1869.72,3262.26,1869.72Z"/><path fill="#3d5891" d="M3223.44,1869.72c-7.43,0-13.47,7.13-13.47,15.92s6,15.92,13.47,15.92,13.47-7.13,13.47-15.92S3230.88,1869.72,3223.44,1869.72Z"/><path fill="#3d5891" d="M3184.63,1869.72c-7.44,0-13.47,7.13-13.47,15.92s6,15.92,13.47,15.92,13.47-7.13,13.47-15.92S3192.07,1869.72,3184.63,1869.72Z"/><rect width="633.07" height="64.81" x="3134.12" y="1933.11" fill="#99b1da"/><rect width="17.1" height="48.32" x="3736.62" y="1939.93" fill="#d1dbed"/><rect width="17.1" height="48.32" x="3715.25" y="1939.93" fill="#d1dbed"/><rect width="17.1" height="48.32" x="3693.59" y="1939.93" fill="#d1dbed"/><rect width="134.94" height="17.91" x="3377.53" y="1946.75" fill="#fff" rx=".57"/><path fill="#3d5891" d="M3262.26,1950.73c-7.44,0-13.47,7.13-13.47,15.92s6,15.92,13.47,15.92,13.47-7.13,13.47-15.92S3269.7,1950.73,3262.26,1950.73Z"/><path fill="#3d5891" d="M3223.44,1950.73c-7.43,0-13.47,7.13-13.47,15.92s6,15.92,13.47,15.92,13.47-7.13,13.47-15.92S3230.88,1950.73,3223.44,1950.73Z"/><path fill="#3d5891" d="M3184.63,1950.73c-7.44,0-13.47,7.13-13.47,15.92s6,15.92,13.47,15.92,13.47-7.13,13.47-15.92S3192.07,1950.73,3184.63,1950.73Z"/><rect width="633.07" height="140.99" x="3134.12" y="1068.1" fill="#d1dbed"/><rect width="633.07" height="140.99" x="3134.12" y="1582.05" fill="#d1dbed"/><rect width="633.07" height="140.99" x="3134.12" y="2057.33" fill="#d1dbed"/><rect width="124.11" height="15.35" x="3650.29" y="2365.47" fill="#d1dbed" rx=".49"/><rect width="124.11" height="15.35" x="3650.29" y="2397.02" fill="#d1dbed" rx=".49"/><rect width="124.11" height="15.35" x="3650.29" y="2444.78" fill="#d1dbed" rx=".49"/><rect width="124.11" height="15.35" x="3650.29" y="2476.33" fill="#d1dbed" rx=".49"/><rect width="124.11" height="15.35" x="3650.29" y="2526.65" fill="#d1dbed" rx=".49"/><rect width="124.11" height="15.35" x="3650.29" y="2558.2" fill="#d1dbed" rx=".49"/><rect width="124.11" height="15.35" x="3392.69" y="2365.47" fill="#d1dbed" rx=".49"/><rect width="124.11" height="15.35" x="3392.69" y="2397.02" fill="#d1dbed" rx=".49"/><rect width="124.11" height="15.35" x="3392.69" y="2444.78" fill="#d1dbed" rx=".49"/><rect width="124.11" height="15.35" x="3392.69" y="2476.33" fill="#d1dbed" rx=".49"/><rect width="124.11" height="15.35" x="3392.69" y="2526.65" fill="#d1dbed" rx=".49"/><rect width="124.11" height="15.35" x="3392.69" y="2558.2" fill="#d1dbed" rx=".49"/><rect width="124.11" height="15.35" x="3136.53" y="2365.47" fill="#d1dbed" rx=".49"/><rect width="124.11" height="15.35" x="3136.53" y="2397.02" fill="#d1dbed" rx=".49"/><rect width="124.11" height="15.35" x="3136.53" y="2444.78" fill="#d1dbed" rx=".49"/><rect width="124.11" height="15.35" x="3136.53" y="2476.33" fill="#d1dbed" rx=".49"/><rect width="124.11" height="15.35" x="3136.53" y="2526.65" fill="#d1dbed" rx=".49"/><rect width="124.11" height="15.35" x="3136.53" y="2558.2" fill="#d1dbed" rx=".49"/><path fill="#fff" d="M927.14,1270.14a10.36,10.36,0,0,0-14.66,0l-19.38,19.38-19.38-19.38a10.37,10.37,0,0,0-14.66,14.66l19.38,19.38-19.38,19.38a10.37,10.37,0,0,0,14.66,14.67l19.38-19.38,19.38,19.38a10.37,10.37,0,0,0,14.66-14.67l-19.37-19.38,19.37-19.38A10.36,10.36,0,0,0,927.14,1270.14Z"/><path fill="#3d5891" d="M3758.64,570a10.36,10.36,0,0,0-14.66,0l-19.38,19.38L3705.22,570a10.37,10.37,0,1,0-14.66,14.66L3709.94,604l-19.38,19.38a10.37,10.37,0,1,0,14.66,14.66l19.38-19.37L3744,638.06a10.37,10.37,0,1,0,14.66-14.66L3739.26,604l19.38-19.38A10.36,10.36,0,0,0,3758.64,570Z"/><path fill="#ef7c59" d="M1194.74,1085.19a22.34,22.34,0,0,0-31.59,0l-41.74,41.74-41.74-41.74a22.34,22.34,0,0,0-31.59,31.59l41.75,41.74-41.75,41.74a22.34,22.34,0,0,0,31.59,31.59l41.74-41.74,41.74,41.74a22.34,22.34,0,0,0,31.59-31.59L1153,1158.52l41.74-41.74A22.34,22.34,0,0,0,1194.74,1085.19Z"/><circle cx="2835.86" cy="528.44" r="20" fill="#99b1da" transform="rotate(-45 2835.857 528.44)"/><polygon fill="#f5b0a6" points="1465.5 2455.29 1475.51 2574.14 1505.8 2619.9 1563.45 2613.47 1595.74 2592.16 1585.01 2437.72 1465.5 2455.29"/><path fill="#243354" d="M1696.65,2620.27c-13.86-13.86-61.74-52.92-71.19-63s-15.75-32.76-28.35-34.65-53.55,15.12-61.11,18.9,5.67,12-5,20.16-32.14,3.78-42.85-5-17-17-26.46-12.6,2.74,11.81,1.26,36.54c-3.15,52.92,9.45,112.15,9.45,112.15s291.07,1.26,293,0,0-42.22-9.45-56.71S1696.65,2620.27,1696.65,2620.27Z"/><path fill="#2c4da2" d="M1625.56,2557.27c-9.45-10.08-15.75-32.76-28.35-34.65s-53.55,15.12-61.11,18.9c-5.35,2.68-.31,7.57-.7,13.1,8.46,9.28,25.32,17.16,33.46,27.22,10.71,13.23,46.62,48.51,55.44,49.77,7.12,1,56-7.8,74.69-11.25-1.42-.07-2.23-.09-2.23-.09C1682.9,2606.41,1635,2567.35,1625.56,2557.27Z"/><path d="M1708.65,2669.62c-35.28,5-100.8.84-144.49-3.36-41.81-4-66.71-1.11-96,2.1,2.22,14.82,4.25,24.37,4.25,24.37s291.07,1.26,293,0c1.18-.79.88-17.17-1.83-32.85C1750.74,2662.54,1730.18,2666.55,1708.65,2669.62Z"/><path fill="#292929" d="M1699.58,2619.11c-.55.07-55.41,6.53-88.29,14.85a1.26,1.26,0,0,0,.31,2.48,1.15,1.15,0,0,0,.31,0c32.72-8.28,87.42-14.72,88-14.79a1.25,1.25,0,0,0,1.11-1.4A1.28,1.28,0,0,0,1699.58,2619.11Z"/><path fill="#292929" d="M1591.65,2603.89a6.62,6.62,0,1,0,6.61,6.62A6.62,6.62,0,0,0,1591.65,2603.89Z"/><path fill="#292929" d="M1607.82,2620.48a6.62,6.62,0,1,0,6.61,6.62A6.62,6.62,0,0,0,1607.82,2620.48Z"/><path fill="#fff" d="M1663.13,2583.55c-34.89,3.83-70.67,20.75-72.18,21.46a5,5,0,0,0,2.17,9.59,4.94,4.94,0,0,0,2.17-.49c.35-.17,35.78-16.9,68.94-20.54a5,5,0,0,0-1.1-10Z"/><path fill="#fff" d="M1679.09,2601.19c-34.89,3.83-70.67,20.75-72.18,21.47a5,5,0,0,0,2.17,9.58,4.94,4.94,0,0,0,2.17-.49c.35-.17,35.78-16.9,68.94-20.54a5,5,0,0,0-1.1-10Z"/><path fill="#292929" d="M1553.74,2567.35a6.62,6.62,0,1,0,6.62,6.62A6.61,6.61,0,0,0,1553.74,2567.35Z"/><path fill="#292929" d="M1574.85,2586.25a6.62,6.62,0,1,0,6.61,6.62A6.62,6.62,0,0,0,1574.85,2586.25Z"/><path fill="#fff" d="M1645.91,2565.91c-34.89,3.83-70.68,20.75-72.18,21.46a5,5,0,1,0,4.33,9.1c.36-.17,35.79-16.9,69-20.54a5,5,0,0,0-1.1-10Z"/><path fill="#fff" d="M1624.91,2547c-34.89,3.83-70.68,20.74-72.18,21.46a5,5,0,1,0,4.33,9.1c.36-.17,35.79-16.9,69-20.54a5,5,0,0,0-1.1-10Z"/><path fill="#fff" d="M1649.6,2539.11c-11.46-.64-23,.57-34.09,1.77-5.62.6-12.6,1.34-18.34,5.44-5.13,3.67-8.09,9.2-10.46,13.65-3.41,6.38-7.27,13.61-8.42,21.73-1.38,9.82,1.88,19.13,8.52,24.28a21.11,21.11,0,0,0,21.27,2.48,21.63,21.63,0,0,0,12.39-17.35c.73-7.49-2.48-14.12-5.32-20a75,75,0,0,1-3.13-7,32.13,32.13,0,0,1-1.84-8.36c11.29,2.5,21.92,9,32.24,15.4l1.6,1c6.55,4,13.76,7.88,21.81,7.19,7.49-.7,15.74-7.27,15.59-15.59-.07-4.45-2.59-7.94-4.47-10.18C1669.69,2544.93,1659.72,2539.67,1649.6,2539.11Zm-39.17,51a11.52,11.52,0,0,1-6.5,9.14A11.26,11.26,0,0,1,1593,2598c-3.73-2.9-5.58-8.75-4.71-14.91.89-6.36,4.16-12.48,7.32-18.39a47.19,47.19,0,0,1,4.6-7.46,42.27,42.27,0,0,0,2.35,10.31,84.45,84.45,0,0,0,3.53,8C1608.55,2580.64,1610.89,2585.46,1610.43,2590.13Zm54.47-20.85c-5.13.48-10.25-2.46-15.6-5.74l-1.59-1c-7.34-4.51-14.81-9.11-22.76-12.52a159.43,159.43,0,0,1,24.09-.87c7.36.41,14.72,4.37,20.2,10.87,1.38,1.65,2.09,2.95,2.1,3.87C1671.38,2566.05,1667.83,2569,1664.9,2569.28Z"/><polygon fill="#f5b0a6" points="1219.34 2566.04 1243.29 2615.42 1301.28 2616.7 1336.12 2599.87 1345.99 2445.37 1225.2 2446.91 1219.34 2566.04"/><path fill="#6fc183" d="M1450.45,1341c-.64-.42-37.17,0-37.17,0l-26,3.42,8.29,29.27,39.66-1.5,40.16-19-7.48-9.61S1451.09,1341.45,1450.45,1341Z"/><path fill="#2c4da2" d="M1577.14,1949.05l-2.07-65-.08-2.57-.87-27.55-69.21-138.42-116.63-7.69s-31.66,23-64.85,49.68l-2.57,2.07c-23.22,18.77-46.83,39.07-60.52,54.32-.79.87-1.53,1.74-2.25,2.56a68.4,68.4,0,0,0-7.36,10,19.88,19.88,0,0,0-2.13,5c-.12.61-.28,1.33-.43,2.15-1.44,8-3.51,25.61-5.87,47.83-.08.85-.15,1.72-.26,2.57-2,19.43-4.23,42.14-6.38,65-.1.84-.18,1.71-.26,2.56-2.12,22.66-4.17,45.34-5.94,65-.08.87-.16,1.72-.23,2.56-3,33.07-44.56,465.57-44.56,465.57l203,14.94,23.31-548.1.66-2.56,6.8-26.15,2,26.15.21,2.56,5.07,65,.21,2.56,27.64,478.07h190.81l-67.14-545.66Z"/><path d="M1444.44,1181.25c-.25-.41-.52-.87-.86-1.36-3.71-5.73-13.46-16.34-35.75-20.24-24.43-4.24-35.82,4.35-39.63,10.75-2.59,4.34-.74,9.43.29,11.62a11.68,11.68,0,0,0,.58,1.1,25.87,25.87,0,0,0-5.41,1c-5.06,1.47-12.14,5-14.38,13.67-2.62,10,6.4,15.2,11.58,17.3a28.34,28.34,0,0,0,3.41,1.15,11.06,11.06,0,0,0-1.73,1.27c-2.46,2.14-6.59,7.08-4.8,15.38,2.51,11.59,15.56,12.06,15.56,12.06l65.28-43.48,3.1-2.06.41-.28.65-.44,2.87-15.09a3.29,3.29,0,0,0-.17-.4A19.08,19.08,0,0,0,1444.44,1181.25Z"/><polygon fill="#f5b0a6" points="1402.2 1308.39 1398.34 1391 1451.67 1393.49 1456.43 1291.78 1415.9 1304.18 1402.2 1308.39"/><path fill="#f18a8b" d="M1402.2,1308.39,1401,1333.6c9.91,2.28,24.52,4.26,33.33-.88a46.38,46.38,0,0,0,19.16-21.11s-20-4.2-37.6-7.43Z"/><path fill="#f5b0a6" d="M1453.81,1207c-7.79-6.47-16.55-12.77-26.75-13.86l-.22,0c-7.74-.77-15.42,1.61-22.66,4.44-9.82,3.84-19.86,9-25.21,18.35-4.16,7.21-4.94,16-5,24.4-.23,26,4.5,47.67,20.35,68,12.54,16.08,35.06,24.06,52.32,10.3,8.85-7.06,16-16.13,19.27-27.19s5.53-19.64,5.63-31.23c.08-8.8-.26-17.67-2.16-26.28C1467,1223,1462.26,1214,1453.81,1207Z"/><path d="M1443.54,1191.38l-2.3-1.37-2.41-1.43a44.41,44.41,0,0,0,.23,7.33c.07.7.16,1.45.28,2.26v0c.12,1,.3,2,.52,3s.43,2,.68,3.09a56,56,0,0,0,3.45,9.75c6.11,13.35,23.62,28,27.53,28.59s3.26,4.23,5.33-2.32-.1-29.17-.1-29.17Z"/><path d="M1370.83,1215.86c-1.16-.58-6.41,13-5.94,20.31s5.94,21.91,12.09,17.69,5.33-23.14,5.33-23.14S1372,1216.44,1370.83,1215.86Z"/><path d="M1442.17,1248.77c-2.36,0-4.21,3.33-4.14,7.34s2,7.22,4.41,7.18,4.21-3.33,4.14-7.34S1444.53,1248.72,1442.17,1248.77Z"/><path d="M1404.55,1250.5c-2.34.29-3.84,3.75-3.36,7.73s2.79,7,5.13,6.69,3.84-3.75,3.35-7.73S1406.89,1250.21,1404.55,1250.5Z"/><path d="M1425.25,1276.94c-1.25-.84-2.9-1.93-3.41-3.46s.22-3.58.65-5.13c.73-2.61,1.61-5.17,2.57-7.71.59-1.54-1.91-2.16-2.48-.63-1.44,3.79-3.72,8.59-3.45,12.75.19,3,2.53,4.84,4.87,6.41C1425.37,1280.1,1426.61,1277.85,1425.25,1276.94Z"/><path d="M1450.34,1236a26,26,0,0,0-7.42-3,13.78,13.78,0,0,0-4.85-.13c-3.56.54-7.32,2.67-6.4,6.83.6,2.75,3.34,2.22,5.46,1.79,4.2-.86,8.55.2,12.66-.68a4.25,4.25,0,0,0,1.94-.85C1453.46,1238.42,1451.85,1236.8,1450.34,1236Z"/><path d="M1404.83,1235.59a11.29,11.29,0,0,0-2.31,0c-4.24.45-8,3.14-10.77,6.18a3,3,0,0,0-1,1.93,2,2,0,0,0,1.16,1.72,4.45,4.45,0,0,0,2.14.37c3.81-.11,7.63-1.8,11.46-2.26,1.79-.21,5.11.25,5.87-2C1412.63,1237.73,1408.27,1236,1404.83,1235.59Z"/><path fill="#f5b0a6" d="M1476.85,1240.35c-9.37-3.06-13.81,7.78-13.81,7.78s-6,32.83,7.66,28.37S1490,1244.65,1476.85,1240.35Z"/><path fill="#f18a8b" d="M1436,1284.45a14,14,0,0,1-22.5,1.32c-1.06-1.23-3.21.17-2.13,1.42,7.62,8.8,20.37,8,26.91-1.57C1439.19,1284.25,1436.89,1283.11,1436,1284.45Z"/><path fill="#f18a8b" d="M1469.14,1254.07a12.46,12.46,0,0,1,.35,12.7c-.78,1.46,1.51,2.61,2.29,1.16a15.12,15.12,0,0,0-.5-15.28C1470.41,1251.25,1468.28,1252.67,1469.14,1254.07Z"/><path fill="#f5b0a6" d="M1368.51,1252c-11.83,7.18-.09,32.56,14.22,33.8s1-29.37,1-29.37S1376.94,1246.87,1368.51,1252Z"/><path fill="#f18a8b" d="M1379.14,1263.58c.52-1.56-1.88-2.46-2.4-.89a15.12,15.12,0,0,0,3,15c1.09,1.23,3.06-.41,2-1.65A12.48,12.48,0,0,1,1379.14,1263.58Z"/><path d="M1441.88,1198.58c-.48-.48-1.22-1.18-2.15-2.08-.22-.17-.43-.39-.67-.59-3.71-3.39-9.73-8.41-14.18-9.75-6.9-2.05-35.19,8.72-35.19,8.72s-15.33,14.62-16.08,15.85-6.37,25.63-6.37,25.63,7.82,6.6,22.23-2c11.73-7,16.34-21.64,16.34-21.64s4.9.4,18.41-4.09a63.7,63.7,0,0,0,14.2-6.4c.54-.35,1-.67,1.44-1,.73-.48,1.28-.92,1.7-1.25a8.82,8.82,0,0,0,.91-.82S1442.26,1198.94,1441.88,1198.58Z"/><path d="M1460.06,1178c-4.76,0-10.86,1.66-14,2.69-.69.2-1.22.39-1.59.52l-.53.19s-.58,12.19-2.22,17.28l.11.13a2.31,2.31,0,0,1,.29.31c2,2.12,11.36,11.78,19.43,14.95,9.1,3.62,19,4.84,24.14-4.24C1494,1195,1478.43,1178.25,1460.06,1178Z"/><path fill="#333" d="M1389.57,1184l-21.08-2a11.68,11.68,0,0,0,.58,1.1,25.87,25.87,0,0,0-5.41,1l25.67,2.44a1.24,1.24,0,0,0,1.38-1.14A1.29,1.29,0,0,0,1389.57,1184Z"/><path fill="#333" d="M1376.39,1213.93l-15.53,1.19a28.34,28.34,0,0,0,3.41,1.15,11.06,11.06,0,0,0-1.73,1.27l14-1.07a1.27,1.27,0,1,0-.18-2.54Z"/><path fill="#333" d="M1443.58,1179.89l-2.34,10.12-1.51,6.49-.39,1.67v0l-.76,3.31-.16.71c.54-.35,1-.67,1.44-1,.2,1,.43,2,.68,3.09l1-4.34.12-.55.12-.59.08-.27,1.66-7.2,1.9-8.15.59-2.5c-.69.2-1.22.39-1.59.52C1444.19,1180.84,1443.92,1180.38,1443.58,1179.89Z"/><path fill="#fff" d="M1467.89,1343.59s-29.07,28.09-40.51,28.92-40.12-28.07-40.12-28.07l-34.35,5.33s-4.58,36.12,10.39,72.42,66.46,63.23,85.56,59.39,47.29-54.27,55-74.77-1.75-59.34-1.75-59.34Z"/><path fill="#6fc183" d="M1618.45,1668.32c.13,30.39.35,68.55,1.65,36.62,0-.28,0-.53,0-.82C1619.5,1692.33,1618.9,1680.23,1618.45,1668.32Z"/><path fill="#6fc183" d="M1564.07,1358.1c-10.41-3.25-24.35-5.76-36.37-7.53l-2.64-.39c-12.9-1.79-23-2.71-23-2.71s-10.2,28.58-26.74,51.65c-14.71,20.56-37.88,34-42.78,36.73l-.92.49s-.59-.13-1.64-.44c-6.64-2-32.12-11-51.65-38.91a255.09,255.09,0,0,1-25.45-47.22s-8.1.29-21.36,2.23c-.84.13-1.74.26-2.64.41A316.33,316.33,0,0,0,1280,1364.1c-33,10.72-59.65,33.5-69,45.86v0a8.73,8.73,0,0,0-.64.87c-.34.46-.77,1.07-1.29,1.87a10.55,10.55,0,0,0-1.69,3.92c-.87,7.69,0,264.87,0,264.87s-2.48,27.6-3.79,55.93v.1c0,.77-.08,1.56-.1,2.31a2.08,2.08,0,0,0,0,.43c-.31,6.92-.54,13.84-.62,20.33-.1,7.38,0,14.25.26,20,1.72,32.45,20.94,73.9,27.76,78.59s147,9,151.24,7.28,31.19-22.23,44.85-58.11c4.72-12.41,9.49-38.5,11.1-46.11.28-1.39.44-2.16.44-2.16s.61,3.18,1.66,8.43c5.08,25.13,20.54,97.74,29.53,98.79,10.9,1.29,89.72.65,105.74,0s46.86-57.67,46.78-105.09c0-16.15-1-36.07-2-57,0-.11,0-.21,0-.29-1.3,31.93-1.52-6.23-1.65-36.62-.23-6.07-.42-12.09-.55-18-.05-1.77,0-3.82,0-6.18.39-15.78.44,2.16.53,24.18.45,11.91,1,24,1.63,35.8,0,.29,0,.54,0,.82.11-2.17,140.1-65.56,140.1-67.56,0-29.26-126.33-221.93-127.77-225.37C1620.26,1383.25,1592.06,1366.87,1564.07,1358.1Z"/><path fill="#242424" d="M1246.35,1751.85c-12.36-2.43-32.58-8.69-42.88-12a2.08,2.08,0,0,0,0,.43c-.31,6.92-.54,13.84-.62,20.33,14.67,3,34.53,6.13,51.5,6.13,37.71,0,67.21-17.1,69-18.18a105,105,0,0,1-27.2,6.15C1281.57,1755.85,1259.83,1754.49,1246.35,1751.85Z"/><path fill="#40947e" d="M1490.58,1408.73c-22.45,21.33-56,29.81-58.93,30.53-3.26-.33-45-5-69.7-30.2-14.76-15.07-25.4-42.27-30.4-57.06-.84.13-1.74.26-2.64.41,5,14.87,15.77,42.66,31.22,58.45,26.25,26.78,71.06,30.91,71.52,31l.18,0,.2,0c.36-.08,36.45-8.51,60.29-31.22,15.41-14.64,28.38-42.73,35.38-60l-2.64-.39C1518,1367.33,1505.27,1394.73,1490.58,1408.73Z"/><path fill="#40947e" d="M1432.57,1435.85l-.92.49s-.59-.13-1.64-.44c1.9,19,8.84,89.95,12.18,144.19,3.3,53.62-.16,125.8-4.16,182.2.28-1.39.44-2.16.44-2.16s.61,3.18,1.66,8.43c4.21-57.28,8-132.93,4.62-188.63C1441.42,1525.82,1434.52,1455.15,1432.57,1435.85Z"/><path fill="#fff" d="M1418.39,1453.65a7.26,7.26,0,1,0,7.26,7.26A7.26,7.26,0,0,0,1418.39,1453.65Z"/><path fill="#fff" d="M1430,1653.58a7.27,7.27,0,1,0,7.26,7.27A7.27,7.27,0,0,0,1430,1653.58Z"/><path fill="#fff" d="M1418.39,1786a7.27,7.27,0,1,0,7.26,7.26A7.26,7.26,0,0,0,1418.39,1786Z"/><polygon fill="#24447c" points="1418.4 1922.9 1420.42 1949.05 1420.63 1951.61 1425.7 2016.64 1425.91 2019.2 1453.55 2497.27 1475.75 2497.27 1425.65 1868.1 1418.4 1922.9" opacity=".39"/><path fill="#40947e" d="M1581.17,1718.73h-63.12a1.23,1.23,0,0,0-1.24,1.23v29.17a30.75,30.75,0,0,0,30.71,30.71h4.18a30.74,30.74,0,0,0,30.7-30.71V1720A1.23,1.23,0,0,0,1581.17,1718.73Zm-1.24,30.4a28.27,28.27,0,0,1-28.23,28.24h-4.18a28.27,28.27,0,0,1-28.24-28.24V1721.2h60.65Z"/><path fill="#243354" d="M1438.34,2628c-13.11-14.57-58.85-56.11-67.76-66.68s-14-33.55-26.48-36.1-54.27,12.27-62,15.64,5,12.25-6.1,19.87-32.29,2.07-42.52-7.3-16.08-17.89-25.75-14,2.1,11.94-.68,36.56c-5.94,52.68,5.11,117.3,5.11,117.3s290.13,8.11,292.08,6.95,1.1-38.42-7.57-53.39S1438.34,2628,1438.34,2628Z"/><path fill="#2c4da2" d="M1370.69,2561.31c-8.91-10.57-14-33.55-26.48-36.1s-54.28,12.26-62,15.64c-5.48,2.39-.71,7.53-1.39,13,8,9.72,24.38,18.48,32,29,10,13.78,44,50.91,52.74,52.64,7,1.39,56.37-4.83,75.18-7.29-1.42-.14-2.23-.2-2.23-.2C1425.34,2613.41,1379.59,2571.87,1370.69,2561.31Z"/><path d="M1447.71,2677.9c-35.5,3.17-100.71-4.49-144.1-11-41.55-6.23-66.56-4.64-96-3a290.58,290.58,0,0,0,4.57,29.38s290.13,8.1,292.08,6.94c1.22-.73.65-13.35-1.23-29.16C1490.12,2673.05,1469.38,2676,1447.71,2677.9Z"/><path fill="#292929" d="M1441.33,2627c-.55,0-55.68,3.58-89,10.16a1.26,1.26,0,0,0-1,1.48,1.27,1.27,0,0,0,1.17,1,1.62,1.62,0,0,0,.31,0c33.12-6.54,88.08-10.08,88.63-10.12a1.26,1.26,0,0,0,1.18-1.34A1.28,1.28,0,0,0,1441.33,2627Z"/><path fill="#292929" d="M1334.35,2606.07a6.61,6.61,0,1,0,6.26,7A6.61,6.61,0,0,0,1334.35,2606.07Z"/><path fill="#292929" d="M1349.62,2623.49a6.61,6.61,0,1,0,6.26,7A6.61,6.61,0,0,0,1349.62,2623.49Z"/><path fill="#fff" d="M1406.81,2589.54c-35,2-71.67,17-73.21,17.61a5,5,0,0,0,3.84,9.32c.37-.15,36.63-15,69.94-16.87a5,5,0,1,0-.57-10.06Z"/><path fill="#fff" d="M1421.82,2608c-35,2-71.68,17-73.22,17.61a5,5,0,0,0,1.66,9.69,5.09,5.09,0,0,0,2.19-.37c.36-.15,36.63-15,69.93-16.87a5,5,0,1,0-.56-10.06Z"/><path fill="#292929" d="M1298.43,2567.57a6.62,6.62,0,1,0,6.26,7A6.61,6.61,0,0,0,1298.43,2567.57Z"/><path fill="#292929" d="M1318.51,2587.57a6.61,6.61,0,1,0,6.25,6.95A6.61,6.61,0,0,0,1318.51,2587.57Z"/><path fill="#fff" d="M1390.55,2571c-35,2-71.68,17-73.22,17.62a5,5,0,0,0,1.66,9.69,5.1,5.1,0,0,0,2.19-.38c.36-.15,36.63-15,69.93-16.86a5,5,0,0,0-.56-10.07Z"/><path fill="#fff" d="M1370.58,2551c-35,2-71.68,17-73.22,17.61a5,5,0,0,0,1.66,9.69,5,5,0,0,0,2.19-.38c.36-.14,36.63-15,69.93-16.86a5,5,0,1,0-.56-10.06Z"/><path fill="#fff" d="M1395.65,2544.44c-11.41-1.24-23-.64-34.14,0-5.63.31-12.65.68-18.6,4.47-5.32,3.39-8.56,8.76-11.17,13.08-3.74,6.19-8,13.2-9.55,21.26-1.9,9.73.86,19.19,7.22,24.69a21.16,21.16,0,0,0,21.11,3.6,21.62,21.62,0,0,0,13.28-16.67c1.14-7.44-1.72-14.23-4.25-20.23a75.7,75.7,0,0,1-2.75-7.18,33,33,0,0,1-1.4-8.44c11.15,3.09,21.41,10.18,31.39,17.08l1.55,1.06c6.32,4.37,13.31,8.6,21.39,8.34,7.52-.3,16.1-6.43,16.4-14.75.15-4.44-2.17-8.06-3.94-10.4C1415.4,2551.32,1405.73,2545.54,1395.65,2544.44Zm-41.81,48.88a11.52,11.52,0,0,1-7,8.78,11.24,11.24,0,0,1-10.86-1.83c-3.57-3.09-5.11-9-3.92-15.13,1.23-6.3,4.82-12.24,8.29-18a46.43,46.43,0,0,1,5-7.2,42.61,42.61,0,0,0,1.8,10.41,84.62,84.62,0,0,0,3.1,8.14C1352.46,2583.75,1354.55,2588.69,1353.84,2593.32Zm55.49-17.94c-5.14.21-10.11-3-15.27-6.55l-1.54-1.07c-7.09-4.89-14.31-9.88-22.07-13.71a160.09,160.09,0,0,1,24.11.41c7.33.8,14.47,5.15,19.59,11.93,1.29,1.71,1.94,3.05,1.9,4C1416,2572.5,1412.27,2575.27,1409.33,2575.38Z"/><path fill="#f3ce90" d="M1524.1,1423.76c-70.32,61.14-77.79,168.11-16.64,238.43s168.13,77.8,238.45,16.66,77.8-168.13,16.64-238.47S1594.44,1362.6,1524.1,1423.76Zm189.35,217.76a119.55,119.55,0,1,1,11.77-168.68A119.7,119.7,0,0,1,1713.45,1641.52Z"/><path fill="#f3ce90" d="M1509.89,1627.3,1108.6,1976.23a24.73,24.73,0,0,0,32.46,37.33l401.29-348.93a24.73,24.73,0,1,0-32.46-37.33Z"/><path fill="#f3ce90" d="M1084.94,1854.78a24.73,24.73,0,1,0-37.32,32.46l82.49,94.87a24.73,24.73,0,1,0,37.33-32.46Z"/><path fill="#f3ce90" d="M1151.82,1796.63a24.73,24.73,0,0,0-37.33,32.46L1197,1924a24.73,24.73,0,1,0,37.32-32.46Z"/><path fill="#f5b0a6" d="M1323.74,1801a10.19,10.19,0,1,0-16.43,12.07l36.4,49.53a10.2,10.2,0,1,0,16.44-12.07Z"/><path fill="#2b2b2b" d="M1374.9,1785.93l.45-2.14a.68.68,0,0,0-.53-.8.69.69,0,0,0-.8.53l-.53,2.57a.69.69,0,0,0,.26.68l17.76,12.85h0a.67.67,0,0,0,.75-1.12Z"/><path fill="#f5b0a6" d="M1423.85,1794.51l-50.22-36.15a13.6,13.6,0,1,0-15.89,22.08L1408,1816.6a13.38,13.38,0,0,0,1.88,1.13,13.6,13.6,0,0,0,14-23.22Z"/><path fill="#f5b0a6" d="M1387.38,1832l-50.21-36.16a13.61,13.61,0,0,0-15.9,22.09l50.22,36.15a14.72,14.72,0,0,0,1.88,1.14,13.6,13.6,0,0,0,14-23.22Z"/><path fill="#f5b0a6" d="M1411.06,1823.52l-55.32-47.17a13.6,13.6,0,1,0-17.65,20.7l55.31,47.17a13.6,13.6,0,0,0,17.66-20.7Z"/><path fill="#f5b0a6" d="M1397.43,1724c-14.91,2-50,1.25-55.5,3.22s-16.38,3-35.62,4.08l-8,63.5,24,20.8L1337,1812l43.16-48.69s-4.11-3.6-15.65-13.11c-3.74-3.08,29.85,3.28,42.37-7.06C1420.27,1732,1411.23,1722.09,1397.43,1724Z"/><path fill="#f5b0a6" d="M1332.65,1738.48c-7.14-6.81-39.53-7.8-39.53-7.8l-33.22,48.39s57.29,42.5,69.66,47.68c13.15,5.51,29-57.85,29-57.85S1352.92,1757.82,1332.65,1738.48Z"/><path fill="#f18a8b" d="M1361.75,1763.48a.56.56,0,0,0-.69-.38.55.55,0,0,0-.39.69l2.23,7.93a.55.55,0,0,0,1,.18.54.54,0,0,0,.09-.48Z"/><path fill="#f18a8b" d="M1366.43,1767l-8.24.14a.6.6,0,0,0-.44.23.56.56,0,0,0,.46.89l8.24-.14a.55.55,0,0,0,.55-.57A.57.57,0,0,0,1366.43,1767Z"/><path fill="#f18a8b" d="M1344.46,1780.18a.57.57,0,0,0-.69-.39.55.55,0,0,0-.39.69l2.23,7.93a.55.55,0,0,0,.68.39.54.54,0,0,0,.3-.2.56.56,0,0,0,.09-.49Z"/><path fill="#f18a8b" d="M1349.14,1783.66l-8.24.15a.56.56,0,0,0-.44.22.61.61,0,0,0-.11.35.56.56,0,0,0,.57.54l8.24-.14a.55.55,0,0,0,.55-.57A.57.57,0,0,0,1349.14,1783.66Z"/><path fill="#f18a8b" d="M1331.27,1797.31a.56.56,0,1,0-1.07.31l2.22,7.93a.57.57,0,0,0,.69.39.55.55,0,0,0,.3-.21.54.54,0,0,0,.09-.48Z"/><path fill="#f18a8b" d="M1336,1800.8l-8.24.14a.57.57,0,0,0-.44.23.56.56,0,0,0,.46.89l8.24-.14a.56.56,0,0,0,.55-.57A.57.57,0,0,0,1336,1800.8Z"/><path fill="#f18a8b" d="M1406.78,1728.43a.68.68,0,0,0-.35.89c.22.39,0,.93-.67,1.54-2.46,2.45-8.85,4.32-10,4.1-.45-1.64-1-6.53-1-6.58a.65.65,0,0,0-.76-.59.68.68,0,0,0-.58.76c0,.14.29,2.41.62,4.41a21.85,21.85,0,0,0,.53,2.57,1.14,1.14,0,0,0,1,.74c2.18.41,9.54-2.2,11.71-4.92a2.44,2.44,0,0,0,.53-2.57A.68.68,0,0,0,1406.78,1728.43Z"/><path fill="#f18a8b" d="M1358.94,1814.25a.5.5,0,0,0-.71.07.53.53,0,0,0,.06.71l34.79,29.58a.5.5,0,0,0,.71-.06.57.57,0,0,0,.08-.13.5.5,0,0,0-.14-.58Z"/><path fill="#f18a8b" d="M1340.15,1827.2a.53.53,0,0,0-.72,0,.55.55,0,0,0,0,.73l14,12.91a.53.53,0,0,0,.72,0,.75.75,0,0,0,.09-.15.51.51,0,0,0-.12-.57Z"/><path fill="#f18a8b" d="M1412.43,1797.43a.55.55,0,0,0-.45-.08c-4.56,1.19-8.46,9.83-8.62,10.2a.53.53,0,0,0,.25.7l0,0a.55.55,0,0,0,.72-.28c0-.09,3.68-8.2,7.66-9.52l10.67,7.37c-.12,1.54-1,8.46-6.92,9.27a.54.54,0,0,0-.47.61.55.55,0,0,0,.61.47c7.5-1,7.87-10.52,7.87-10.6a.5.5,0,0,0-.22-.47Z"/><path fill="#f18a8b" d="M1396.48,1824.62a.59.59,0,0,0-.45-.08c-4.56,1.19-8.46,9.83-8.62,10.2a.54.54,0,0,0,.25.71h0a.55.55,0,0,0,.72-.28c0-.09,3.68-8.2,7.67-9.52l10.66,7.37c-.12,1.55-1,8.47-6.92,9.27a.55.55,0,0,0-.18,1,.59.59,0,0,0,.32.05c7.5-1,7.88-10.51,7.88-10.6a.53.53,0,0,0-.23-.47Z"/><path fill="#f18a8b" d="M1375.9,1836.56a.56.56,0,0,0-.43-.14c-4.69.52-9.79,8.52-10,8.85a.54.54,0,0,0,.16.74v0a.58.58,0,0,0,.8-.26s4.78-7.5,8.91-8.24l9.49,8.82c-.33,1.52-2.15,8.25-8.17,8.18a.55.55,0,0,0-.32,1,.46.46,0,0,0,.3.09c7.57.08,9.3-9.27,9.32-9.36a.55.55,0,0,0-.16-.5Z"/><path fill="#f18a8b" d="M1348.56,1848.24a.48.48,0,0,0-.35-.19c-4.12-.32-9.82,5.72-10.06,6a.48.48,0,0,0,0,.66h0a.49.49,0,0,0,.68,0c.05-.06,5.39-5.74,9.07-5.7l6.72,9.16c-.54,1.24-3.2,6.74-8.38,5.7a.47.47,0,0,0-.56.37.46.46,0,0,0,.13.43.47.47,0,0,0,.24.13c6.5,1.31,9.53-6.46,9.55-6.53a.45.45,0,0,0-.05-.45Z"/><path fill="#6fc183" d="M1198.54,1637.38c4-28.47,37.77-96.06,100-164.22l-89.44-60.43c-47.37,51.86-147,169.11-141.61,250.54,6.4,96,162.26,145.45,229,162.26l37.3-110.73C1269.13,1698.52,1211.84,1656.41,1198.54,1637.38Z"/><path fill="#f5b0a6" d="M1690.74,1690.45c-.51-6.65-7-11.43-14.51-10.69a14.26,14.26,0,0,0-11.54,7.77c-2.15-5.6-8.34-9.29-15.38-8.59a15.87,15.87,0,0,0-12.81,8.52,15.27,15.27,0,0,0-13.39-5.18c-7.16.71-12.78,5.69-13.93,11.76-2.22-5.47-8.33-9.06-15.27-8.37-8.38.83-14.7,7.49-14.14,14.91l3.17,41.54c.56,7.41,7.81,12.75,16.18,11.92,6.19-.62,11.27-4.44,13.26-9.38a12.07,12.07,0,0,0,.66-2.37c2.23,5.46,8.34,9,15.28,8.36a15.89,15.89,0,0,0,12.78-8.56,15.27,15.27,0,0,0,13.42,5.21c6.2-.61,11.28-4.43,13.27-9.37a12.8,12.8,0,0,0,.61-2.2,13.54,13.54,0,0,0,12.51,5.33,14.22,14.22,0,0,0,11.89-8.41,11.12,11.12,0,0,0,.78-5Z"/><path fill="#f18a8b" d="M1609.73,1693.83a.57.57,0,0,0-.59-.31.58.58,0,0,0-.54.58l3.86,48.25a.55.55,0,0,0,.63.45.57.57,0,0,0,.54-.57l-3.86-48.25A.66.66,0,0,0,1609.73,1693.83Z"/><path fill="#f18a8b" d="M1637.05,1687.24a.57.57,0,0,0-.57-.3.58.58,0,0,0-.57.56l1,29.71a.54.54,0,0,0,.61.47.59.59,0,0,0,.57-.56l-1-29.71A1,1,0,0,0,1637.05,1687.24Z"/><path fill="#f18a8b" d="M1666.48,1699.15a.59.59,0,0,0-.56-.31.6.6,0,0,0-.58.55l.77,33.71a.52.52,0,0,0,.59.49.6.6,0,0,0,.58-.55l-.77-33.71A.36.36,0,0,0,1666.48,1699.15Z"/><path fill="#f18a8b" d="M1664.7,1687a.59.59,0,0,0-.6.53l-.15,4.75a.53.53,0,0,0,.57.51.58.58,0,0,0,.6-.53l.15-4.74a.38.38,0,0,0,0-.21A.56.56,0,0,0,1664.7,1687Z"/><path fill="#f18a8b" d="M1591.43,1692.12a.59.59,0,0,0-.52.63.57.57,0,0,0,.68.44,16.61,16.61,0,0,1,11.49,2.39l-.66,10.45c-6.88,5-15.23,2.27-17,1.6l.43-9.09a.54.54,0,0,0-.58-.54.61.61,0,0,0-.63.54l-.44,9.44a.49.49,0,0,0,.31.49c.11,0,10.52,4.53,18.87-1.79a.61.61,0,0,0,.19-.24.94.94,0,0,0,0-.16l.69-11a.45.45,0,0,0-.2-.42A17.44,17.44,0,0,0,1591.43,1692.12Z"/><path fill="#f18a8b" d="M1631.86,1688.58a17.82,17.82,0,0,0-12.93-1.89.54.54,0,1,0,.25,1,17,17,0,0,1,11.71,1.6l.23,10.43c-6.45,5.45-15,3.29-16.85,2.75l-.36-9.07a.56.56,0,0,0-.63-.5.61.61,0,0,0-.58.58l.37,9.42a.51.51,0,0,0,.35.46c.11,0,10.92,3.78,18.73-3.06a.59.59,0,0,0,.17-.25.47.47,0,0,0,0-.16l-.24-10.94A.5.5,0,0,0,1631.86,1688.58Z"/><path fill="#f18a8b" d="M1659.83,1686.77a17.81,17.81,0,0,0-12.93-1.9.58.58,0,0,0-.47.66.59.59,0,0,0,.72.39,17,17,0,0,1,11.71,1.59l.23,10.43c-6.45,5.46-15,3.29-16.86,2.75l-.35-9.06a.56.56,0,0,0-.63-.5.6.6,0,0,0-.58.58l.37,9.41a.49.49,0,0,0,.35.46c.11,0,10.92,3.79,18.73-3a.62.62,0,0,0,.17-.26.77.77,0,0,0,0-.15l-.25-10.95A.46.46,0,0,0,1659.83,1686.77Z"/><path fill="#f18a8b" d="M1687.39,1687.81a16.82,16.82,0,0,0-12.25-1.8.51.51,0,1,0,.25,1,16.08,16.08,0,0,1,11.08,1.51l.22,9.88c-6.11,5.17-14.24,3.12-16,2.6l-.34-8.58a.52.52,0,0,0-.59-.47.58.58,0,0,0-.56.55l.35,8.91a.49.49,0,0,0,.34.44c.1,0,10.34,3.59,17.74-2.9a.56.56,0,0,0,.16-.24.77.77,0,0,0,0-.15l-.23-10.36A.46.46,0,0,0,1687.39,1687.81Z"/><path fill="#40947e" d="M1199.54,1527.94a.91.91,0,0,0-.76,1c0,.26,3.76,25.11,6,65a.9.9,0,0,0,.9.85h0a.9.9,0,0,0,.85-1c-2.22-39.95-6-64.88-6-65.14A1,1,0,0,0,1199.54,1527.94Z"/><path fill="#40947e" d="M1291.38,1700.67c-.23-.12-22.38-12-55.65-34a.91.91,0,0,0-1.23.21l0,0a.89.89,0,0,0,.25,1.24c33.36,22.11,55.58,34,55.81,34.14a1,1,0,0,0,1.2-.37A.9.9,0,0,0,1291.38,1700.67Z"/><path fill="#40947e" d="M1204.15,1566.81c-.07,0-.17,0-.27,0-3.52,0-8-14.35-10.07-24.73a.87.87,0,0,0-1-.7.88.88,0,0,0-.7,1c.88,4.43,5.55,26.16,11.86,26.16l.35,0a.89.89,0,0,0,.77-1A.9.9,0,0,0,1204.15,1566.81Z"/><path fill="#40947e" d="M1198.28,1436.6a.85.85,0,0,0-1.11-.59.88.88,0,0,0-.6,1.11c0,.17,5.27,17.42,9.7,39.55a.88.88,0,0,0,.87.72l.18,0a.88.88,0,0,0,.7-1C1203.58,1454.09,1198.34,1436.77,1198.28,1436.6Z"/><path fill="#40947e" d="M1695.91,1607.32c-2.09-.1-4.15-.15-6.27-.15-37.21,0-78.63,15.1-91,19.94,17-26,69-34.88,69.53-35a1.34,1.34,0,1,0-.43-2.64c-2.38.39-58.24,9.92-73.4,39.71a1.34,1.34,0,0,0,.21,1.52,1.38,1.38,0,0,0,1,.43,1.43,1.43,0,0,0,.52-.11c.55-.24,54.94-23.29,99.68-21.06h.07a1.34,1.34,0,0,0,.07-2.68Z"/><path fill="#40947e" d="M1578.17,1526.6a1.28,1.28,0,0,0-1.68.85c-.38,1.1-9,27.09-9,38.3s3.21,31.65,3.33,32.52a1.37,1.37,0,0,0,1.33,1.14l.22,0a1.35,1.35,0,0,0,1.11-1.52c0-.22-3.32-21.21-3.32-32.12s8.76-37.19,8.84-37.45A1.36,1.36,0,0,0,1578.17,1526.6Z"/><circle cx="1536.99" cy="2425" r="20" fill="#bababa"/><rect width="548.39" height="532.08" x="1468.94" y="438.52" fill="#d1dbed" rx="42.42"/><rect width="548.39" height="532.08" x="1515.51" y="480.64" fill="#5681bf" rx="42.42"/><path fill="#fff" d="M1789.7,552a26.49,26.49,0,1,0,26.49,26.49A26.49,26.49,0,0,0,1789.7,552Z"/><path fill="#fff" d="M1795.62,610.72h-11.83a25.09,25.09,0,0,0-25.09,25.1V692h62V635.82A25.1,25.1,0,0,0,1795.62,610.72Z"/><circle cx="1648.67" cy="820.31" r="26.49" fill="#fff" transform="rotate(-13.28 1648.994 820.45)"/><path fill="#fff" d="M1654.58,852.52h-11.83a25.1,25.1,0,0,0-25.09,25.09V933.8h62V877.61A25.09,25.09,0,0,0,1654.58,852.52Z"/><circle cx="1789.7" cy="820.31" r="26.49" fill="#fff" transform="rotate(-13.28 1790.088 820.42)"/><path fill="#fff" d="M1795.62,852.52h-11.83a25.09,25.09,0,0,0-25.09,25.09V933.8h62V877.61A25.1,25.1,0,0,0,1795.62,852.52Z"/><circle cx="1937" cy="820.31" r="26.49" fill="#fff" transform="rotate(-13.28 1937.405 820.417)"/><path fill="#fff" d="M1942.92,852.52h-11.83A25.09,25.09,0,0,0,1906,877.61V933.8h62V877.61A25.1,25.1,0,0,0,1942.92,852.52Z"/><path fill="#fff" d="M1932.39,716H1648.83a4.62,4.62,0,0,0-4.62,4.62v47a4.62,4.62,0,0,0,9.23,0V725.21H1785v42.35a4.62,4.62,0,0,0,9.23,0V725.21h133.55v42.35a4.62,4.62,0,0,0,9.23,0v-47A4.61,4.61,0,0,0,1932.39,716Z"/><polygon fill="#f3ce90" points="2462.48 1383.98 2512.05 1548.87 2694.39 1548.87 2644.82 1383.98 2462.48 1383.98"/><polygon fill="#f19a6d" points="2444.3 1383.98 2493.87 1548.87 2676.21 1548.87 2626.64 1383.98 2444.3 1383.98"/><path fill="#ef7c59" d="M3025.21,901H2308.58a27.78,27.78,0,0,0-26.93,20.95l-115.86,456.53a27.78,27.78,0,0,0,26.93,34.62h716.63a27.77,27.77,0,0,0,26.93-20.95L3052.15,935.6A27.79,27.79,0,0,0,3025.21,901Z"/><path fill="#f19a6d" d="M2990.51,901H2273.88A27.78,27.78,0,0,0,2247,921.93l-115.86,456.53a27.78,27.78,0,0,0,26.93,34.62h716.63a27.78,27.78,0,0,0,26.93-20.95L3017.45,935.6A27.79,27.79,0,0,0,2990.51,901Z"/><path fill="#f3ce90" d="M2990.51,910.9H2273.88a17.85,17.85,0,0,0-17.32,13.47L2140.69,1380.9a17.88,17.88,0,0,0,17.33,22.27h716.63a17.84,17.84,0,0,0,17.32-13.48l115.87-456.53a17.88,17.88,0,0,0-17.33-22.26Z"/><path fill="#fff" d="M2990.51,920.81H2273.88a7.94,7.94,0,0,0-7.71,6l-106.49,418.35a8,8,0,0,0,7.71,9.91H2884a8,8,0,0,0,7.71-6l106.49-418.34a8,8,0,0,0-7.72-9.92Z"/><path fill="#ef7c59" d="M2715.87,1514H2351.19a25.22,25.22,0,1,0,0,50.43h364.68a25.22,25.22,0,1,0,0-50.43Z"/><path fill="#ef7c59" d="M2599.34,1017c-38.94,0-77.87,31.68-86.77,70.63l-1.94,8.48H2528l1.94-8.48c6.72-29.39,36.1-53.3,65.48-53.3s47.82,23.91,41.1,53.3l-1.94,8.48h17.33l1.94-8.48C2662.72,1048.72,2638.28,1017,2599.34,1017Z"/><path fill="#ef7c59" d="M2462.09,1242.76h171.23l31.48-137.64H2493.57Zm85.07-90.1c2.68-11.68,14.34-21.11,26-21.11s19,9.43,16.29,21.11c-2,8.62-8.75,16-16.92,19.34l-8.16,35.7c-1.09,4.75-5.86,8.7-10.62,8.7s-7.79-4-6.71-8.7l8.19-35.78C2548.67,1168.62,2545.21,1161.2,2547.16,1152.66Z"/><g clip-path="url(#b)"><path fill="#2e6857" d="M4010.72,1866.13c-188-25-388,367-316.59,841.09l111.95-10C4152.13,2411.32,4198.68,1891.08,4010.72,1866.13Z"/><path fill="#1e4c3e" d="M4216.43,2093.27c-92.14,75.77-166.62,189.25-212.89,271.11-50.09,88.63-78.82,160.35-79.1,161.06a3,3,0,0,0,1.7,3.94l.07,0a3,3,0,0,0,3.87-1.72c.28-.71,28.89-72.11,78.79-160.4,46-81.38,120-194.17,211.41-269.33a3,3,0,1,0-3.85-4.69Z"/><path fill="#1e4c3e" d="M4235.31,2058.4c-11.58,9-19.52,39.47-19.52,39.47s31.47-.22,43.05-9.23,15.71-23.1,9.22-31.44S4246.9,2049.39,4235.31,2058.4Z"/><path fill="#1e4c3e" d="M4180.77,2055.4c-10.56.6-18.45,13-17.62,27.62s21.38,38.5,21.38,38.5,17.71-26,16.87-40.67S4191.33,2054.8,4180.77,2055.4Z"/><path fill="#1e4c3e" d="M4227.66,2107.89c-14.68-.23-39.94,18.53-39.94,18.53s24.66,19.55,39.34,19.78,26.71-8.16,26.88-18.74S4242.34,2108.12,4227.66,2107.89Z"/><path fill="#1e4c3e" d="M4192.07,2155.56c-14.36-3-42.76,10.52-42.76,10.52s20.46,23.91,34.82,27,27.78-2.89,30-13.23S4206.43,2158.6,4192.07,2155.56Z"/><path fill="#1e4c3e" d="M4154.92,2210.54c-13.52-5.73-44,2.17-44,2.17s15.52,27.38,29,33.1,27.82,2.47,31.94-7.27S4168.44,2216.26,4154.92,2210.54Z"/><path fill="#1e4c3e" d="M4115.81,2265c-13.27-6.27-44,.38-44,.38s14.4,28,27.67,34.26,27.7,3.6,32.21-6S4129.09,2271.26,4115.81,2265Z"/><path fill="#1e4c3e" d="M4078.59,2318.76c-13.62-5.48-43.93,3-43.93,3s16,27.08,29.64,32.56,27.86,2,31.81-7.87S4092.21,2324.23,4078.59,2318.76Z"/><path fill="#1e4c3e" d="M4133.37,2097.25c-10.39,2-16.61,15.25-13.88,29.68s26.2,35.39,26.2,35.39,14.18-28.09,11.45-42.51S4143.77,2095.28,4133.37,2097.25Z"/><path fill="#1e4c3e" d="M4079.79,2148.68c-9.74,4.14-13,18.44-7.23,32s33.13,29,33.13,29,7.87-30.47,2.12-44S4089.52,2144.54,4079.79,2148.68Z"/><path fill="#1e4c3e" d="M4032.15,2207c-9.05,5.49-10.21,20.11-2.6,32.66s36.93,24,36.93,24,3.44-31.28-4.17-43.83S4041.19,2201.54,4032.15,2207Z"/><path fill="#1e4c3e" d="M3986.87,2270.07c-7.9,7-6.4,21.62,3.35,32.59s40.67,16.9,40.67,16.9-2.28-31.39-12-42.36S3994.78,2263,3986.87,2270.07Z"/><path fill="#2e6857" d="M4148.94,2350.2c-80.34-48.16-247.87,90.35-308.44,319.31l52.72,17.44C4106.18,2625.13,4229.27,2398.36,4148.94,2350.2Z"/><path fill="#6fc183" d="M3488.88,2460.54c-53.8,39.11,47.52,191.8,202.06,222.15l36.19-15.64C3669.91,2508.88,3542.69,2421.42,3488.88,2460.54Z"/></g><path fill="#8f8f8f" d="M2473.31,1054.72l-19.65-16.49c-3.8,3.94-7.53,8-11.1,12.14L2464,1065C2467,1061.48,2470.11,1058,2473.31,1054.72Z"/><path fill="#8f8f8f" d="M2455.22,1075.6l-23-12.57c-3.33,4.28-6.55,8.69-9.6,13.09l24.57,10.5C2449.71,1082.92,2452.43,1079.21,2455.22,1075.6Z"/><path fill="#8f8f8f" d="M2439.79,1097.9l-26-8.36c-2.77,4.53-5.42,9.14-7.87,13.72l27.21,6.19C2435.23,1105.6,2437.46,1101.71,2439.79,1097.9Z"/><path fill="#8f8f8f" d="M2493.63,1035.71l-15.85-20c-4.2,3.53-8.35,7.22-12.36,11l17.8,18.32C2486.6,1041.79,2490.1,1038.69,2493.63,1035.71Z"/><path fill="#8f8f8f" d="M2409.85,1191.72l-31.54,9.14c-.11,4.45,0,8.93.21,13.32l31.51-11.26C2409.82,1199.22,2409.76,1195.45,2409.85,1191.72Z"/><path fill="#8f8f8f" d="M2411.12,1213.78l-31.31,13.31c.6,4.2,1.39,8.39,2.35,12.46l30.94-15.29C2412.29,1220.84,2411.63,1217.32,2411.12,1213.78Z"/><path fill="#8f8f8f" d="M2515.76,1019,2504,995.81c-4.49,3-9,6.26-13.35,9.57L2504.5,1027C2508.19,1024.24,2512,1021.52,2515.76,1019Z"/><path fill="#8f8f8f" d="M2427.33,1121.16l-28.3-4c-2.15,4.65-4.16,9.38-6,14l29.24,1.78C2423.82,1129.06,2425.52,1125.07,2427.33,1121.16Z"/><path fill="#8f8f8f" d="M2418.07,1144.91l-30,.41c-1.5,4.7-2.84,9.44-4,14.09l30.64-2.61C2415.67,1152.88,2416.8,1148.88,2418.07,1144.91Z"/><path fill="#8f8f8f" d="M2412.19,1168.61l-31.11,4.78c-.81,4.62-1.46,9.29-1.92,13.87l31.41-7C2411,1176.41,2411.5,1172.49,2412.19,1168.61Z"/><path fill="#8f8f8f" d="M2737.09,1041.24l29.67-19c-1.65-3.66-3.48-7.26-5.45-10.7l-28.82,20.7C2734.15,1035.11,2735.69,1038.15,2737.09,1041.24Z"/><path fill="#8f8f8f" d="M2416,1234.32l-30.4,17.18c1.31,3.87,2.79,7.69,4.43,11.35l29.7-19C2418.31,1240.81,2417.06,1237.58,2416,1234.32Z"/><path fill="#8f8f8f" d="M2727.07,1023.77l27.82-22.25c-2.28-3.19-4.76-6.31-7.36-9.27L2720.87,1016A98.61,98.61,0,0,1,2727.07,1023.77Z"/><path fill="#8f8f8f" d="M2539.18,1004.86l-7.36-25.8c-4.68,2.49-9.42,5.17-14.08,8l9.6,24.52C2531.26,1009.19,2535.24,1006.94,2539.18,1004.86Z"/><path fill="#8f8f8f" d="M2713.9,1008.83l25.37-25.05a117.17,117.17,0,0,0-9.12-7.62l-23.93,26.24A96.79,96.79,0,0,1,2713.9,1008.83Z"/><path fill="#8f8f8f" d="M2743.73,1060.85l30.91-15.36c-1-4.06-2.12-8.06-3.42-11.91l-30.39,17.21C2741.93,1054,2742.9,1057.42,2743.73,1060.85Z"/><path fill="#8f8f8f" d="M2746.85,1082.17l31.5-11.33c-.26-4.34-.7-8.68-1.32-12.9l-31.3,13.38C2746.25,1074.87,2746.63,1078.52,2746.85,1082.17Z"/><path fill="#8f8f8f" d="M2697.85,996.72l22.39-27.29c-3.42-2.09-7-4-10.71-5.82l-20.66,28.22C2692,993.33,2695,995,2697.85,996.72Z"/><path fill="#8f8f8f" d="M2673.49,952c-4.24-.78-8.65-1.39-13.11-1.84l-12.9,30.35c3.76.38,7.48.89,11,1.55Z"/><path fill="#8f8f8f" d="M2636.08,979.87l10.75-30.48c-2.07,0-4.16-.06-6.25,0-2.54.07-5.09.1-7.64.24L2624.35,980c2-.11,4.08-.17,6.14-.2S2634.23,979.83,2636.08,979.87Z"/><path fill="#8f8f8f" d="M2679.26,987.74l18.88-29c-3.87-1.44-7.93-2.74-12-3.86l-17,29.6C2672.61,985.44,2676,986.53,2679.26,987.74Z"/><path fill="#8f8f8f" d="M2605.29,1286.7l5.05,26.93c4.79-2.2,9.61-4.57,14.32-7.07l-7.32-25.81C2613.38,1282.85,2609.32,1284.85,2605.29,1286.7Z"/><path fill="#8f8f8f" d="M2673.36,1240.76l17.76,18.35c4-3.76,8-7.65,11.77-11.56L2683.3,1231C2680.11,1234.29,2676.77,1237.58,2673.36,1240.76Z"/><path fill="#8f8f8f" d="M2692.66,1220.77l21.36,14.64c3.58-4.13,7.08-8.38,10.4-12.64l-23-12.63C2698.63,1213.72,2695.68,1217.3,2692.66,1220.77Z"/><path fill="#8f8f8f" d="M2709.51,1199.14,2734,1209.7c3.06-4.41,6-8.94,8.79-13.44l-25.92-8.43C2714.58,1191.62,2712.09,1195.43,2709.51,1199.14Z"/><path fill="#8f8f8f" d="M2652.07,1258.63l13.77,21.71c4.37-3.3,8.71-6.76,12.9-10.27l-15.8-20.09C2659.41,1252.94,2655.75,1255.86,2652.07,1258.63Z"/><path fill="#8f8f8f" d="M2618.77,950.81c-4.74.58-9.59,1.33-14.41,2.25l-4.11,29.9c4.05-.77,8.13-1.41,12.13-1.89Z"/><path fill="#8f8f8f" d="M2424.26,1252.94l-28.85,20.64a118.28,118.28,0,0,0,6.39,10l27.85-22.21C2427.73,1258.69,2425.92,1255.84,2424.26,1252.94Z"/><path fill="#8f8f8f" d="M2723.54,1176.32l27.19,6.23c2.47-4.6,4.81-9.28,6.95-13.9l-28.27-4.06C2727.61,1168.49,2725.63,1172.44,2723.54,1176.32Z"/><path fill="#8f8f8f" d="M2746.37,1104.81l31.41-7.06c.46-4.58.73-9.15.83-13.61l-31.55,9.22C2747,1097.11,2746.75,1101,2746.37,1104.81Z"/><path fill="#8f8f8f" d="M2742.29,1128.25l30.65-2.64c1.15-4.67,2.15-9.38,2.95-14l-31.12,4.88C2744.1,1120.36,2743.26,1124.33,2742.29,1128.25Z"/><path fill="#8f8f8f" d="M2738.72,1140.85c-1.27,4-2.7,8-4.24,11.91l29.21,1.83c1.83-4.66,3.52-9.4,5-14.09l.29-.88-30.08.6Z"/><path fill="#8f8f8f" d="M2629.21,1274.06l9.51,24.58c4.62-2.77,9.25-5.72,13.76-8.76l-11.68-23.2C2637,1269.25,2633.1,1271.73,2629.21,1274.06Z"/><path fill="#8f8f8f" d="M2487.44,1300.84l-17,29.6c4.09,1.12,8.33,2.09,12.58,2.88l15-30.06C2494.45,1302.6,2490.89,1301.79,2487.44,1300.84Z"/><path fill="#8f8f8f" d="M2496.13,1335.18c4.42.44,9,.72,13.51.84l10.84-30.48c-3.84-.09-7.68-.33-11.42-.71Z"/><path fill="#8f8f8f" d="M2467.77,1293.46,2447,1321.65c3.66,1.78,7.49,3.43,11.4,4.89l18.91-29C2474.05,1296.34,2470.83,1295,2467.77,1293.46Z"/><path fill="#8f8f8f" d="M2450.43,1282.84l-24,26.2c3.15,2.39,6.48,4.67,9.9,6.77l22.41-27.27C2455.89,1286.77,2453.09,1284.85,2450.43,1282.84Z"/><path fill="#8f8f8f" d="M2435.84,1269.22l-26.71,23.67a117.65,117.65,0,0,0,8.23,8.49l25.41-25A97.59,97.59,0,0,1,2435.84,1269.22Z"/><path fill="#8f8f8f" d="M2589.82,956.31c-4.84,1.25-9.76,2.68-14.63,4.27l.52,28.7c4.1-1.33,8.23-2.54,12.29-3.58Z"/><path fill="#8f8f8f" d="M2580.82,1296.26l.45,28.72c4.86-1.57,9.76-3.32,14.58-5.2l-2.76-27.9C2589,1293.46,2584.9,1294.93,2580.82,1296.26Z"/><path fill="#8f8f8f" d="M2552.1,1332.44c4.82-.9,9.71-2,14.55-3.23l1.87-29.4c-4.07,1-8.18,2-12.24,2.72Z"/><path fill="#8f8f8f" d="M2523.52,1335.84c4.66-.22,9.42-.62,14.17-1.19l6.47-30.26c-4,.47-8,.81-12,1Z"/><path fill="#8f8f8f" d="M2560.61,965.8c-4.84,1.9-9.71,4-14.49,6.18l5.13,26.9c4-1.85,8.12-3.6,12.2-5.2Z"/><g style="mix-blend-mode:screen"><path fill="#f19a6d" d="M2455.22,1075.6l-23-12.57c-3.33,4.28-6.55,8.69-9.6,13.09l24.57,10.5C2449.71,1082.92,2452.43,1079.21,2455.22,1075.6Z"/><path fill="#f19a6d" d="M2439.79,1097.9l-26-8.36c-2.77,4.53-5.42,9.14-7.87,13.72l27.21,6.19C2435.23,1105.6,2437.46,1101.71,2439.79,1097.9Z"/><path fill="#f19a6d" d="M2493.63,1035.71l-15.85-20c-4.2,3.53-8.35,7.22-12.36,11l17.8,18.32C2486.6,1041.79,2490.1,1038.69,2493.63,1035.71Z"/><path fill="#f19a6d" d="M2473.31,1054.72l-19.65-16.49c-3.8,3.94-7.53,8-11.1,12.14L2464,1065C2467,1061.48,2470.11,1058,2473.31,1054.72Z"/><path fill="#f19a6d" d="M2515.76,1019,2504,995.81c-4.49,3-9,6.26-13.35,9.57L2504.5,1027C2508.19,1024.24,2512,1021.52,2515.76,1019Z"/><path fill="#f19a6d" d="M2409.85,1191.72l-31.54,9.14c-.11,4.45,0,8.93.21,13.32l31.51-11.26C2409.82,1199.22,2409.76,1195.45,2409.85,1191.72Z"/><path fill="#f19a6d" d="M2427.33,1121.16l-28.3-4c-2.15,4.65-4.16,9.38-6,14l29.24,1.78C2423.82,1129.06,2425.52,1125.07,2427.33,1121.16Z"/><path fill="#f19a6d" d="M2411.12,1213.78l-31.31,13.31c.6,4.2,1.39,8.39,2.35,12.46l30.94-15.29C2412.29,1220.84,2411.63,1217.32,2411.12,1213.78Z"/><path fill="#f19a6d" d="M2418.07,1144.91l-30,.41c-1.5,4.7-2.84,9.44-4,14.09l30.64-2.61C2415.67,1152.88,2416.8,1148.88,2418.07,1144.91Z"/><path fill="#f19a6d" d="M2416,1234.32l-30.4,17.18c1.31,3.87,2.79,7.69,4.43,11.35l29.7-19C2418.31,1240.81,2417.06,1237.58,2416,1234.32Z"/><path fill="#f19a6d" d="M2412.19,1168.61l-31.11,4.78c-.81,4.62-1.46,9.29-1.92,13.87l31.41-7C2411,1176.41,2411.5,1172.49,2412.19,1168.61Z"/><path fill="#f19a6d" d="M2713.9,1008.83l25.37-25.05a117.17,117.17,0,0,0-9.12-7.62l-23.93,26.24A96.79,96.79,0,0,1,2713.9,1008.83Z"/><path fill="#f19a6d" d="M2727.07,1023.77l27.82-22.25c-2.28-3.19-4.76-6.31-7.36-9.27L2720.87,1016A98.61,98.61,0,0,1,2727.07,1023.77Z"/><path fill="#f19a6d" d="M2737.09,1041.24l29.67-19c-1.65-3.66-3.48-7.26-5.45-10.7l-28.82,20.7C2734.15,1035.11,2735.69,1038.15,2737.09,1041.24Z"/><path fill="#f19a6d" d="M2539.18,1004.86l-7.36-25.8c-4.68,2.49-9.42,5.17-14.08,8l9.6,24.52C2531.26,1009.19,2535.24,1006.94,2539.18,1004.86Z"/><path fill="#f19a6d" d="M2746.85,1082.17l31.5-11.33c-.26-4.34-.7-8.68-1.32-12.9l-31.3,13.38C2746.25,1074.87,2746.63,1078.52,2746.85,1082.17Z"/><path fill="#f19a6d" d="M2743.73,1060.85l30.91-15.36c-1-4.06-2.12-8.06-3.42-11.91l-30.39,17.21C2741.93,1054,2742.9,1057.42,2743.73,1060.85Z"/><path fill="#f19a6d" d="M2673.49,952c-4.24-.78-8.65-1.39-13.11-1.84l-12.9,30.35c3.76.38,7.48.89,11,1.55Z"/><path fill="#f19a6d" d="M2636.08,979.87l10.75-30.48c-2.07,0-4.16-.06-6.25,0-2.54.07-5.09.1-7.64.24L2624.35,980c2-.11,4.08-.17,6.14-.2S2634.23,979.83,2636.08,979.87Z"/><path fill="#f19a6d" d="M2697.85,996.72l22.39-27.29c-3.42-2.09-7-4-10.71-5.82l-20.66,28.22C2692,993.33,2695,995,2697.85,996.72Z"/><path fill="#f19a6d" d="M2679.26,987.74l18.88-29c-3.87-1.44-7.93-2.74-12-3.86l-17,29.6C2672.61,985.44,2676,986.53,2679.26,987.74Z"/><path fill="#f19a6d" d="M2552.1,1332.44c4.82-.9,9.71-2,14.55-3.23l1.87-29.4c-4.07,1-8.18,2-12.24,2.72Z"/><path fill="#f19a6d" d="M2673.36,1240.76l17.76,18.35c4-3.76,8-7.65,11.77-11.56L2683.3,1231C2680.11,1234.29,2676.77,1237.58,2673.36,1240.76Z"/><path fill="#f19a6d" d="M2424.26,1252.94l-28.85,20.64a118.28,118.28,0,0,0,6.39,10l27.85-22.21C2427.73,1258.69,2425.92,1255.84,2424.26,1252.94Z"/><path fill="#f19a6d" d="M2629.21,1274.06l9.51,24.58c4.62-2.77,9.25-5.72,13.76-8.76l-11.68-23.2C2637,1269.25,2633.1,1271.73,2629.21,1274.06Z"/><path fill="#f19a6d" d="M2652.07,1258.63l13.77,21.71c4.37-3.3,8.71-6.76,12.9-10.27l-15.8-20.09C2659.41,1252.94,2655.75,1255.86,2652.07,1258.63Z"/><path fill="#f19a6d" d="M2605.29,1286.7l5.05,26.93c4.79-2.2,9.61-4.57,14.32-7.07l-7.32-25.81C2613.38,1282.85,2609.32,1284.85,2605.29,1286.7Z"/><path fill="#f19a6d" d="M2709.51,1199.14,2734,1209.7c3.06-4.41,6-8.94,8.79-13.44l-25.92-8.43C2714.58,1191.62,2712.09,1195.43,2709.51,1199.14Z"/><path fill="#f19a6d" d="M2723.54,1176.32l27.19,6.23c2.47-4.6,4.81-9.28,6.95-13.9l-28.27-4.06C2727.61,1168.49,2725.63,1172.44,2723.54,1176.32Z"/><path fill="#f19a6d" d="M2742.29,1128.25l30.65-2.64c1.15-4.67,2.15-9.38,2.95-14l-31.12,4.88C2744.1,1120.36,2743.26,1124.33,2742.29,1128.25Z"/><path fill="#f19a6d" d="M2746.37,1104.81l31.41-7.06c.46-4.58.73-9.15.83-13.61l-31.55,9.22C2747,1097.11,2746.75,1101,2746.37,1104.81Z"/><path fill="#f19a6d" d="M2738.72,1140.85c-1.27,4-2.7,8-4.24,11.91l29.21,1.83c1.83-4.66,3.52-9.4,5-14.09l.29-.88-30.08.6Z"/><path fill="#f19a6d" d="M2692.66,1220.77l21.36,14.64c3.58-4.13,7.08-8.38,10.4-12.64l-23-12.63C2698.63,1213.72,2695.68,1217.3,2692.66,1220.77Z"/><path fill="#f19a6d" d="M2467.77,1293.46,2447,1321.65c3.66,1.78,7.49,3.43,11.4,4.89l18.91-29C2474.05,1296.34,2470.83,1295,2467.77,1293.46Z"/><path fill="#f19a6d" d="M2487.44,1300.84l-17,29.6c4.09,1.12,8.33,2.09,12.58,2.88l15-30.06C2494.45,1302.6,2490.89,1301.79,2487.44,1300.84Z"/><path fill="#f19a6d" d="M2618.77,950.81c-4.74.58-9.59,1.33-14.41,2.25l-4.11,29.9c4.05-.77,8.13-1.41,12.13-1.89Z"/><path fill="#f19a6d" d="M2450.43,1282.84l-24,26.2c3.15,2.39,6.48,4.67,9.9,6.77l22.41-27.27C2455.89,1286.77,2453.09,1284.85,2450.43,1282.84Z"/><path fill="#f19a6d" d="M2496.13,1335.18c4.42.44,9,.72,13.51.84l10.84-30.48c-3.84-.09-7.68-.33-11.42-.71Z"/><path fill="#f19a6d" d="M2435.84,1269.22l-26.71,23.67a117.65,117.65,0,0,0,8.23,8.49l25.41-25A97.59,97.59,0,0,1,2435.84,1269.22Z"/><path fill="#f19a6d" d="M2589.82,956.31c-4.84,1.25-9.76,2.68-14.63,4.27l.52,28.7c4.1-1.33,8.23-2.54,12.29-3.58Z"/><path fill="#f19a6d" d="M2523.52,1335.84c4.66-.22,9.42-.62,14.17-1.19l6.47-30.26c-4,.47-8,.81-12,1Z"/><path fill="#f19a6d" d="M2580.82,1296.26l.45,28.72c4.86-1.57,9.76-3.32,14.58-5.2l-2.76-27.9C2589,1293.46,2584.9,1294.93,2580.82,1296.26Z"/><path fill="#f19a6d" d="M2560.61,965.8c-4.84,1.9-9.71,4-14.49,6.18l5.13,26.9c4-1.85,8.12-3.6,12.2-5.2Z"/></g></g></svg>