<svg xmlns="http://www.w3.org/2000/svg" enable-background="new 0 0 2000 2000" viewBox="21.25 469.712 1957.12 1277.076"><path fill="#97cbee" d="M1874.52,1648.11c0,53.45-377.38,38.79-849.27,38.79c-471.89,0-866.08,7.97-866.08-45.48   c0-53.45,400.87-81.82,872.76-81.82S1874.52,1594.66,1874.52,1648.11z"/><path fill="#ceebf6" d="M119.08,930.4L119.08,930.4c0-83.27,91.21-150.77,203.73-150.77h41.87      c-19.81-12.69-32.35-31.42-32.35-52.32v0c0-38.22,41.86-69.2,93.5-69.2H566.8c-14.01-8.92-22.91-22.11-22.91-36.86      c0-26.87,29.43-48.65,65.74-48.65h354.18c36.95,0,66.9,22.17,66.9,49.51c0,27.34-29.95,49.51-66.9,49.51H831.16      c-24.33,12.29-40.31,32.97-40.31,56.41v0c0,20.62,12.38,39.09,31.91,51.61h217.5c112.52,0,203.73,67.5,203.73,150.77l0,0      c0,83.27-91.21,150.77-203.73,150.77h288.52c52.06,0,94.26,31.23,94.26,69.76c0,38.53-42.2,69.76-94.26,69.76h123.69      c126.85,0,232.16,68.06,253.06,157.53h40.66c79.1,0,143.22,47.45,143.22,105.99v15.65c0,59.59-65.27,107.89-145.78,107.89      h-298.98H466.15h-94.44c-144.42,0-261.5-86.65-261.5-193.53v0c0-106.88,117.08-193.53,261.5-193.53h463.63      c-52.06,0-94.26-31.23-94.26-69.76c0-38.53,42.2-69.76,94.26-69.76H322.81C210.29,1081.18,119.08,1013.67,119.08,930.4z"/><circle cx="1275.87" cy="623.39" r="53.45" fill="#ceebf6" transform="rotate(-18.432 1276.01 623.404)"/><polygon fill="#562e8e" points="602.81 675.16 619.77 656.22 614.4 679.21"/><polygon fill="#562e8e" points="1082.04 768.14 1066.04 786 1063.91 762.58"/><path fill="#562e8e" d="M1071.29,773.1H628.62c-7.86,0-14.23-6.37-14.23-14.23v-91.45c0-7.86,6.37-14.23,14.23-14.23h442.66     c7.86,0,14.23,6.37,14.23,14.23v91.45C1085.51,766.73,1079.14,773.1,1071.29,773.1z"/><path fill="#ae92c4" d="M1056.61,789.58H613.95c-7.86,0-14.23-6.37-14.23-14.23v-91.45c0-7.86,6.37-14.22,14.22-14.22h442.67     c7.86,0,14.23,6.37,14.23,14.23v91.45C1070.84,783.21,1064.47,789.58,1056.61,789.58z"/><path fill="#fff" d="M745.12,707.74l-13.89,18.27v0.3l22.07-2.93v9.94l-22.07-2.63v0.3l14.04,17.54l-9.22,5.26l-8.77-20.47h-0.29     l-9.51,20.62l-8.33-5.26l13.89-17.84v-0.29l-21.64,2.77v-9.94l21.5,2.77v-0.29l-13.75-17.84l8.93-5.11l9.06,20.32h0.3l8.92-20.48     L745.12,707.74z"/><path fill="#fff" d="M816.42,707.74l-13.89,18.27v0.3l22.07-2.93v9.94l-22.07-2.63v0.3l14.04,17.54l-9.22,5.26l-8.77-20.47h-0.29     l-9.51,20.62l-8.33-5.26l13.89-17.84v-0.29l-21.65,2.77v-9.94l21.5,2.77v-0.29l-13.75-17.84l8.93-5.11l9.06,20.32h0.3l8.92-20.48     L816.42,707.74z"/><path fill="#fff" d="M887.73,707.74l-13.89,18.27v0.3l22.07-2.93v9.94l-22.07-2.63v0.3l14.04,17.54l-9.21,5.26l-8.78-20.47h-0.29     l-9.51,20.62l-8.33-5.26l13.89-17.84v-0.29L844,733.32v-9.94l21.5,2.77v-0.29l-13.75-17.84l8.93-5.11l9.06,20.32h0.3l8.92-20.48     L887.73,707.74z"/><path fill="#fff" d="M959.03,707.74l-13.89,18.27v0.3l22.07-2.93v9.94l-22.07-2.63v0.3l14.04,17.54l-9.21,5.26l-8.78-20.47h-0.28     l-9.51,20.62l-8.33-5.26l13.89-17.84v-0.29l-21.64,2.77v-9.94l21.5,2.77v-0.29l-13.75-17.84l8.93-5.11l9.06,20.32h0.3l8.92-20.48     L959.03,707.74z"/><path fill="#fff" d="M1030.34,707.74l-13.89,18.27v0.3l22.07-2.93v9.94l-22.07-2.63v0.3l14.04,17.54l-9.22,5.26l-8.78-20.47     h-0.28l-9.51,20.62l-8.33-5.26l13.89-17.84v-0.29l-21.64,2.77v-9.94l21.5,2.77v-0.29l-13.75-17.84l8.93-5.11l9.06,20.32h0.3     l8.92-20.48L1030.34,707.74z"/><path fill="#fff" d="M659.65,727.24l-20.16-0.13c-2.34-0.01-4.24-2.11-4.22-4.68l0.08-12.55c0.06-8.65,6.53-15.64,14.43-15.59        c7.9,0.05,14.28,7.13,14.23,15.77l-0.08,12.55C663.91,725.18,661.99,727.26,659.65,727.24z M639.61,722.37l19.99,0.13        l0.08-12.46c0.04-6.03-4.41-10.96-9.92-11c-5.51-0.04-10.02,4.84-10.06,10.87L639.61,722.37z"/><path fill="#fff" d="M659.64,727.88l-20.16-0.13c-2.69-0.02-4.86-2.4-4.85-5.32l0.08-12.55c0.06-9,6.82-16.27,15.06-16.22        c8.25,0.05,14.91,7.42,14.85,16.41l-0.08,12.55C664.54,725.54,662.34,727.89,659.64,727.88z M649.78,694.92        c-7.56-0.05-13.75,6.66-13.8,14.96l-0.08,12.55c-0.01,2.22,1.6,4.03,3.6,4.04l20.16,0.13c2,0.01,3.63-1.78,3.65-4l0.08-12.55        C663.44,701.76,657.33,694.97,649.78,694.92z M660.22,723.13L638.98,723l0.08-13.09c0.04-6.38,4.84-11.54,10.7-11.5        c5.86,0.04,10.59,5.26,10.55,11.64L660.22,723.13z M640.24,721.74l18.73,0.12l0.08-11.83c0.04-5.68-4.13-10.33-9.3-10.36        c-5.16-0.03-9.39,4.56-9.43,10.24L640.24,721.74z"/><path fill="#fff" d="M670.05,722.8c0.01-1.62-1.48-2.94-3.34-2.95l-34.12-0.14c-1.86-0.01-3.38,1.3-3.39,2.92l-0.25,28.94     c-0.01,1.62,1.48,2.94,3.34,2.95l34.12,0.14c1.86,0.01,3.38-1.3,3.39-2.92L670.05,722.8z M652.25,743.59l-5.97-0.02l1.09-5.64     c-0.9-0.74-1.49-1.98-1.47-3.38c0.02-2.26,1.58-4.09,3.48-4.08c1.9,0.01,3.43,1.85,3.41,4.11c-0.01,1.4-0.62,2.64-1.53,3.37     L652.25,743.59z"/><path fill="#4c3b96" d="M612.01,1608.52H249.37c-6.27,0-11.35-5.08-11.35-11.35v-518.28c0-6.27,5.08-11.35,11.35-11.35h362.64    c6.27,0,11.35,5.08,11.35,11.35v518.28C623.36,1603.44,618.28,1608.52,612.01,1608.52z"/><rect width="218.37" height="10.78" x="321.51" y="1572.04" fill="#806db0"/><rect width="360.55" height="106.22" x="250.42" y="1205.53" fill="#2c2a6e"/><rect width="339.34" height="89.43" x="261.03" y="1213.93" fill="#806db0"/><path fill="#2c2a6e" d="M580.74,1258.64c0,13.67-10.94,24.75-24.43,24.75c-13.49,0-24.43-11.08-24.43-24.75     c0-13.67,10.94-24.75,24.43-24.75C569.81,1233.89,580.74,1244.97,580.74,1258.64z"/><rect width="12.96" height="49.11" x="301.09" y="1234.09" fill="#2c2a6e"/><rect width="12.96" height="49.11" x="325.83" y="1234.09" fill="#2c2a6e"/><rect width="12.96" height="49.11" x="350.57" y="1234.09" fill="#2c2a6e"/><rect width="12.96" height="49.11" x="375.32" y="1234.09" fill="#2c2a6e"/><rect width="12.96" height="49.11" x="400.06" y="1234.09" fill="#2c2a6e"/><rect width="14.34" height="14.57" x="432.46" y="1251.36" fill="#2c2a6e"/><rect width="14.34" height="14.57" x="457.11" y="1251.36" fill="#2c2a6e"/><rect width="14.33" height="14.57" x="481.75" y="1251.36" fill="#2c2a6e"/><rect width="360.55" height="106.22" x="250.42" y="1085.33" fill="#2c2a6e"/><rect width="339.34" height="89.43" x="261.03" y="1093.72" fill="#806db0"/><path fill="#2c2a6e" d="M580.74,1138.44c0,13.67-10.94,24.75-24.43,24.75c-13.49,0-24.43-11.08-24.43-24.75     c0-13.67,10.94-24.75,24.43-24.75C569.81,1113.68,580.74,1124.77,580.74,1138.44z"/><rect width="12.96" height="49.11" x="301.09" y="1113.88" fill="#2c2a6e"/><rect width="12.96" height="49.11" x="325.83" y="1113.88" fill="#2c2a6e"/><rect width="12.96" height="49.11" x="350.57" y="1113.88" fill="#2c2a6e"/><rect width="12.96" height="49.11" x="375.32" y="1113.88" fill="#2c2a6e"/><rect width="12.96" height="49.11" x="400.06" y="1113.88" fill="#2c2a6e"/><rect width="14.34" height="14.57" x="432.46" y="1131.15" fill="#2c2a6e"/><rect width="14.34" height="14.57" x="457.11" y="1131.15" fill="#2c2a6e"/><rect width="14.33" height="14.57" x="481.75" y="1131.15" fill="#2c2a6e"/><rect width="360.55" height="106.22" x="250.42" y="1324.81" fill="#2c2a6e"/><rect width="339.34" height="89.43" x="261.03" y="1333.2" fill="#806db0"/><path fill="#2c2a6e" d="M580.74,1377.92c0,13.67-10.94,24.75-24.43,24.75c-13.49,0-24.43-11.08-24.43-24.75     c0-13.67,10.94-24.75,24.43-24.75C569.81,1353.16,580.74,1364.25,580.74,1377.92z"/><rect width="12.96" height="49.11" x="301.09" y="1353.36" fill="#2c2a6e"/><rect width="12.96" height="49.11" x="325.83" y="1353.36" fill="#2c2a6e"/><rect width="12.96" height="49.11" x="350.57" y="1353.36" fill="#2c2a6e"/><rect width="12.96" height="49.11" x="375.32" y="1353.36" fill="#2c2a6e"/><rect width="12.96" height="49.11" x="400.06" y="1353.36" fill="#2c2a6e"/><rect width="14.34" height="14.57" x="432.46" y="1370.63" fill="#2c2a6e"/><rect width="14.34" height="14.57" x="457.11" y="1370.63" fill="#2c2a6e"/><rect width="14.33" height="14.57" x="481.75" y="1370.63" fill="#2c2a6e"/><g><rect width="360.55" height="106.22" x="250.42" y="1444.08" fill="#2c2a6e"/><rect width="339.34" height="89.43" x="261.03" y="1452.47" fill="#806db0"/><ellipse cx="556.31" cy="1497.19" fill="#2c2a6e" rx="24.43" ry="24.75"/><rect width="12.96" height="49.11" x="301.09" y="1472.64" fill="#2c2a6e"/><rect width="12.96" height="49.11" x="325.83" y="1472.64" fill="#2c2a6e"/><rect width="12.96" height="49.11" x="350.57" y="1472.64" fill="#2c2a6e"/><rect width="12.96" height="49.11" x="375.32" y="1472.64" fill="#2c2a6e"/><rect width="12.96" height="49.11" x="400.06" y="1472.64" fill="#2c2a6e"/><rect width="14.34" height="14.57" x="432.46" y="1489.9" fill="#2c2a6e"/><rect width="14.34" height="14.57" x="457.11" y="1489.9" fill="#2c2a6e"/><rect width="14.33" height="14.57" x="481.75" y="1489.9" fill="#2c2a6e"/></g><g><path fill="#f7981d" d="M507.13,880.81V646.2c0-4.57-3.7-8.27-8.27-8.27h-26.65c-4.57,0-8.27,3.7-8.27,8.27v234.6    c0,4.57,3.7,8.27,8.27,8.27h26.65C503.42,889.08,507.13,885.37,507.13,880.81z"/><path fill="#fbb225" d="M484.28,1047.6c47.71,0,86.39-38.68,86.39-86.39c0-47.71-38.68-86.39-86.39-86.39    c-47.71,0-86.39,38.68-86.39,86.39C397.88,1008.92,436.56,1047.6,484.28,1047.6z M486,1024.64c-13.61,0-24.64-11.03-24.64-24.64    s11.03-24.64,24.64-24.64c13.61,0,24.64,11.03,24.64,24.64S499.6,1024.64,486,1024.64z"/><path fill="#ee7222" d="M484.28,1036.86c41.78,0,75.65-33.87,75.65-75.65c0-41.78-33.87-75.65-75.65-75.65    c-41.78,0-75.65,33.87-75.65,75.65C408.62,1002.99,442.49,1036.86,484.28,1036.86z M486,1024.64c-13.61,0-24.64-11.03-24.64-24.64    s11.03-24.64,24.64-24.64c13.61,0,24.64,11.03,24.64,24.64S499.6,1024.64,486,1024.64z"/><polygon fill="#c85728" points="507.13 659.08 552.12 659.08 552.12 683.55 525.27 683.55 525.27 701.35 552.12 701.35 552.12 715.14 525.27 715.14 525.27 732.93 546.75 732.93 546.75 754.26 507.13 754.26"/><polygon fill="#a23f23" points="529.62 675.64 529.62 683.55 525.27 683.55 525.27 701.35 529.62 701.35 529.62 715.14 525.27 715.14 525.27 732.93 529.62 732.93 529.62 754.26 507.13 754.26 507.13 675.64"/><path fill="#fbb225" d="M484.28,847.27V658.33c0-0.93-0.75-1.68-1.68-1.68h-5.42c-0.93,0-1.68,0.75-1.68,1.68v188.94    c0,0.93,0.75,1.68,1.68,1.68h5.42C483.52,848.95,484.28,848.2,484.28,847.27z"/><path fill="#a23f23" d="M458.41,1001.48c0-14.42,11.69-26.11,26.11-26.11c0.25,0,0.49,0.07,0.74,0.07    c-13.26,0.4-23.9,11.21-23.9,24.56c0,13.61,11.03,24.64,24.64,24.64c13.35,0,24.16-10.64,24.56-23.9    c0.01,0.25,0.07,0.49,0.07,0.74c0,14.42-11.69,26.11-26.11,26.11C470.1,1027.59,458.41,1015.9,458.41,1001.48z"/></g><path fill="#274c9f" d="M956.15,1395.16c0,0,15.53,53.29-24.4,188.92h259.56c0,0-46.59-53.29-35.5-188.92H956.15z"/><path fill="#f2a7c9" d="M1464.42,1337.53H640.89V906.39c0-24.43,19.8-44.24,44.24-44.24h735.06c24.43,0,44.24,19.81,44.24,44.24   V1337.53z"/><path fill="#1a4790" d="M1515.21,1412.5H611.19c-11.65,0-21.1-9.44-21.1-21.09V849.12c0-11.65,9.44-21.09,21.09-21.09h878.32h6.34   c10.7,0,19.37,8.67,19.37,19.37V1412.5L1515.21,1412.5z"/><path fill="#48c1f0" d="M598.97,1400.37V858.08c0-11.65,9.44-21.09,21.09-21.09h878.32h6.34c3.08,0,5.95,0.78,8.54,2.06   c-3.12-6.5-9.71-11.03-17.41-11.03h-6.34H611.19c-11.65,0-21.09,9.44-21.09,21.09v542.29c0,8.09,4.61,15.03,11.29,18.57   C599.89,1407.08,598.97,1403.85,598.97,1400.37z"/><linearGradient id="a" x1="640.887" x2="1464.424" y1="1110.425" y2="1110.425" gradientUnits="userSpaceOnUse"><stop offset="0" stop-color="#fff"/><stop offset=".1" stop-color="#f0f9fd"/><stop offset=".299" stop-color="#d7f0fb"/><stop offset=".509" stop-color="#c6e9f9"/><stop offset=".734" stop-color="#bbe5f7"/><stop offset="1" stop-color="#b8e4f7"/></linearGradient><polygon fill="url(#a)" points="1464.42 1358.7 640.89 1358.7 640.89 862.15 1464.42 862.15 1464.42 862.15 1464.42 1358.7"/><polygon fill="#fff" points="640.89 862.15 640.89 1329.92 1464.42 872.14 1464.42 862.15 1464.42 862.15" opacity=".34"/><path fill="#1d4690" d="M799.12,1561.05l-19.01,44.17c-0.68,1.58,0.48,3.35,2.2,3.35h529.59c1.72,0,2.88-1.76,2.2-3.35l-19.01-44.17   c-0.38-0.88-1.24-1.45-2.2-1.45H801.32C800.37,1559.6,799.5,1560.17,799.12,1561.05z"/><path fill="#28306f" d="M1074.77,1384c0,7.51-5.93,13.59-13.24,13.59s-13.24-6.09-13.24-13.59c0-7.51,5.93-13.59,13.24-13.59   S1074.77,1376.49,1074.77,1384z"/><path fill="none" d="M1464.42,1337.53H640.89V906.39c0-24.43,19.8-44.24,44.24-44.24h735.06c24.43,0,44.24,19.81,44.24,44.24   V1337.53z"/><circle cx="1055.08" cy="1130.39" r="194.74" fill="#fff" transform="rotate(-45.001 1055.072 1130.407)"/><g><rect width="87.05" height="97.64" x="1007.44" y="1142.12" fill="#201b40"/><path fill="#f7ab22" d="M1145.67,1102.78l-11.18-0.04l0.33-46.13c0.3-42.48-34.5-77.25-77.58-77.5     c-43.08-0.25-78.38,34.1-78.68,76.58l-0.33,46.47l-10.77-0.04c-9.71-0.04-17.63,6.14-17.7,13.8l-1.32,136.64     c-0.07,7.66,7.73,13.89,17.44,13.92l178.22,0.65c9.71,0.03,17.63-6.14,17.7-13.8l1.31-136.65     C1163.18,1109.05,1155.37,1102.81,1145.67,1102.78z M1057.04,1007.49c26.97,0.16,48.75,22.11,48.56,48.94l-0.33,46.2l-97.83-0.36     l0.34-46.41C1007.97,1029.03,1030.07,1007.34,1057.04,1007.49z M1070.09,1214.9l-31.18-0.11l5.68-26.66     c-4.7-3.5-7.76-9.36-7.69-15.98c0.1-10.68,8.25-19.31,18.2-19.27c9.94,0.04,17.92,8.72,17.82,19.4     c-0.06,6.63-3.23,12.46-7.99,15.93L1070.09,1214.9z"/><path fill="#e89823" d="M1057.24,979.11c-43.08-0.25-78.38,34.1-78.68,76.58l-0.33,45.67h29.22l0.33-45.5     c0.19-26.83,22.29-48.52,49.26-48.37c26.97,0.16,48.75,22.12,48.56,48.94l-0.32,44.92h29.22l0.32-44.75     C1135.12,1014.12,1100.32,979.36,1057.24,979.11z"/></g><polygon fill="#28306f" points="1464.42 899.07 640.89 899.07 640.89 862.15 1464.42 862.15 1464.42 862.15 1464.42 899.07"/><g><circle cx="689.4" cy="880.61" r="8.41" fill="#fff"/><circle cx="713.28" cy="880.61" r="8.41" fill="#fff"/><circle cx="737.16" cy="880.61" r="8.41" fill="#fff"/></g><g><path fill="#0a8cc9" d="M1815.11,1105.17c-120.86-3.49-253.74-77.12-253.74-77.12s-132.88,73.63-253.74,77.12     c0,0-47.98,373.19,253.74,503.39C1863.1,1478.36,1815.11,1105.17,1815.11,1105.17z"/><path fill="#6ba3d8" d="M1815.11,1101.63c-120.86-3.33-253.74-73.58-253.74-73.58s-132.88,70.25-253.74,73.58     c0,0-47.98,356.07,253.74,480.3C1863.1,1457.7,1815.11,1101.63,1815.11,1101.63z"/><linearGradient id="b" x1="1561.375" x2="1561.375" y1="1054.16" y2="1555.832" gradientUnits="userSpaceOnUse"><stop offset="0" stop-color="#e5e5e5"/><stop offset=".156" stop-color="#e1e1e1"/><stop offset=".298" stop-color="#d6d6d6"/><stop offset=".434" stop-color="#c4c4c4"/><stop offset=".567" stop-color="#aaa"/><stop offset=".697" stop-color="#888"/><stop offset=".825" stop-color="#5f5f5f"/><stop offset=".95" stop-color="#303030"/><stop offset="1" stop-color="#1a1a1a"/></linearGradient><path fill="url(#b)" d="M1791.58,1120.8     c-109.65-3.01-230.21-66.64-230.21-66.64s-120.56,63.63-230.21,66.64c0,0-43.54,322.5,230.21,435.03     C1835.12,1443.31,1791.58,1120.8,1791.58,1120.8z"/><path fill="#939292" d="M1776.79,1132.64c-102.61-2.82-215.42-62.36-215.42-62.36s-112.81,59.54-215.42,62.36     c0,0-40.74,301.78,215.42,407.08C1817.53,1434.42,1776.79,1132.64,1776.79,1132.64z" opacity=".54"/><path fill="#fff" d="M1765.47,1138.3c-97.21-2.73-204.09-60.31-204.09-60.31s-106.88,57.59-204.09,60.31     c0,0-38.6,291.87,204.09,393.71C1804.06,1430.17,1765.47,1138.3,1765.47,1138.3z"/><path fill="#5388c6" d="M1748.91,1148.2c-89.33-2.57-187.54-56.73-187.54-56.73s-98.21,54.16-187.54,56.73     c0,0-35.47,274.54,187.54,370.32C1784.38,1422.74,1748.91,1148.2,1748.91,1148.2z"/><path fill="#2e4fa1" d="M1561.37,1091.47v427.06c223-95.79,187.54-370.32,187.54-370.32     C1659.59,1145.63,1561.38,1091.47,1561.37,1091.47z"/><path fill="#fff" d="M1685.69,1205.18c-15.58,6.28-30.11,15.25-44.07,25.03c-14.01,9.78-27.09,20.89-39.97,32.29    c-12.86,11.44-25.18,23.55-37.23,36c-7.34,7.64-14.49,15.39-21.59,23.32l-59.75-60.65l-6.68,6.11l53.03,95.82l10.21,18.44    l18.54-18.83l0.01-0.01c8.51-14.08,18.14-28.48,27.82-42.28c9.77-13.85,19.86-27.48,30.53-40.5    c10.67-12.98,21.64-25.78,33.54-37.32c11.87-11.56,24.37-22.44,38.21-30.95L1685.69,1205.18z"/></g><g><path fill="#f4c4bd" d="M1245.19,623.21l7.65-16.21h30.99l1.59,22.22C1285.42,629.22,1264.84,666.9,1245.19,623.21z"/><path fill="#f4b6ac" d="M1240.19,600.3c0,0-0.6,10.58,3.63,14.2c4.23,3.63,20.85,15.11,25.08,14.2     c4.23-0.91,19.04-12.39,20.24-16.01c1.21-3.63,1.51-12.39,1.51-12.39s7.86,3.02,8.46-4.23c0.6-7.25-1.21-15.48-7.25-8.04     c0,0-0.6-7.37-3.02-10.69c0,0,4.53-19.34-5.44-20.24c-9.97-0.91-22.06,5.44-29.91-2.72c0,0-5.5,7.86-13.32,10.58     c0,0-2.39,6.95-1.78,11.48c0.6,4.53-0.1,9.07-0.1,9.07s-6.25-3.39-7.15,2.53C1230.22,593.95,1233.24,605.74,1240.19,600.3z"/><path fill="#1f3162" d="M1238.28,585.49c0,0,0.7-4.53,0.1-9.07c-0.6-4.53,1.78-11.48,1.78-11.48c7.83-2.72,13.32-10.58,13.32-10.58     c7.86,8.16,19.94,1.81,29.91,2.72c9.97,0.91,5.44,20.24,5.44,20.24c2.42,3.32,3.02,10.69,3.02,10.69     c2.36-2.9,4.07-3.41,5.25-2.53c6.76-36.86,8.95-37.77-15.52-52.27c-24.48-14.5-38.68,4.53-38.68,4.53     c-20.25,0.91-10.69,47.74-10.69,47.74C1234.28,583.32,1238.28,585.49,1238.28,585.49z"/><path fill="#de0983" d="M1345.63,667.28c-6.33-13.36-25.16-32.45-39.95-35.98c-6.28-1.5-12.68-2.81-19.05-3.31    c-1.45,3.51-9.84,12.7-13.07,13.52c-4.22,1.08-9.38,0.75-9.38,0.75c-8.19-1.05-13.29-6.8-15.92-10.74    c-0.39-0.38-2.24-9.88-2.6-10.3c0,0-59.84,21.99-40.84,71.1c13.97,36.12,17.56,37.13,13.42,53.42    c-3.15,12.39-5.09,45.34-8.84,78.52h123.12c-0.44-16.19,1.57-25.54,2.67-37.14c0.16-1.6,0.29-82.51-4.46-111.97L1345.63,667.28z"/><path fill="#daafb8" d="M1193.79,705.11c0,0-3.6,51.05,7.62,74.42c11.22,23.37,42.48,34.53,44.9,28.94    c2.42-5.59,11.03-26.31-14.41-18.4c0,0-13.83-10.11-12.48-32.7c1.34-22.59-3.62-49.58-3.62-49.58S1221.13,708.76,1193.79,705.11z"/><path fill="#de0983" d="M1206.54,653.87c0,0-10.54,7.3-15.13,54.59l32.62,4.82C1224.02,713.28,1232.45,653.63,1206.54,653.87z"/><path fill="#153056" d="M1200.36,828.71c0,0-1.71,10.06,11.64,13.28c13.36,3.22,22.88,5.36,25.23-1.16     c2.35-6.51,4.45-10.31,0-11.25C1232.78,828.63,1200.36,828.71,1200.36,828.71z"/><path fill="#153e6a" d="M1268.44,814.39c0,0,75.73-45.54,94.2-45.54c18.47,0,42.87,13.56,34.96,30.19s-54.09,29.83-76.51,33.79     C1298.66,836.79,1269.88,820.35,1268.44,814.39z"/><path fill="#153e6a" d="M1274.91,818.32c0,0-79.81-48.81-97.62-54.75c-17.81-5.94-41.55,5.28-38.92,21.11     c2.64,15.83,22.43,29.68,46.83,39.58c24.41,9.89,81.79,11.87,81.79,11.87L1274.91,818.32z"/><path fill="#153056" d="M1289.5,838.05c0,0,8.56,10.2,21.09,4.92c12.53-5.28,24.74-11.79,16.33-16.12     c-8.41-4.33-29.52,0.62-29.52,0.62S1291.83,831.15,1289.5,838.05z"/><path fill="#e9c6ce" d="M1266.99,836.13c0,0,18.96,5.54,26.59,4.87c0,0,8.87-10.06,4.62-13.82c-3.96-3.5-23.29-8.86-23.29-8.86     L1266.99,836.13z"/><path fill="#daafb8" d="M1357.26,698.62c0,0,19.22,72.7,5.82,82.8c-13.41,10.1-58.86,18.95-70.19,18.09    c-10.94-0.83-25.51,8.81-31.27,1.08c-5.75-7.74-3.88-15.15,0-19.32c7.74-8.33,17.55-4.7,23-1.97c5.45,2.73,43.83-7.57,54.79-17.27    c0,0-10.7-28.91-10.76-44.93C1328.6,701.07,1357.26,698.62,1357.26,698.62z"/><path fill="#de0983" d="M1318.01,647.79c0,0,25.21-5.23,39.25,50.8c0,0-5.67,11.44-33.28,17.38    C1323.98,715.97,1291.9,664.02,1318.01,647.79z"/><path fill="#044a6d" d="M1335.55,805.09h-169.49c-0.84,0-1.52-0.68-1.52-1.52v-3.35c0-0.84,0.68-1.52,1.52-1.52h169.49     c0.84,0,1.52,0.68,1.52,1.52v3.35C1337.07,804.41,1336.39,805.09,1335.55,805.09z"/><path fill="#10588d" d="M1292.34,805.81v-2.51c0.32-1.37-0.7-2.48-1.96-4.6h-124.03c-1.26,2.12-2.28,3.23-1.81,4.6v2.51     c-0.47,1.37,0.55,2.48,1.81-0.72h124.03C1291.64,808.28,1292.66,807.17,1292.34,805.81z"/><path fill="#10588d" d="M1167.91,798.7l-5.65-86.89c-0.09-1.39,0.92-2.57,2.21-2.57h119.17c1.17,0,2.13,0.98,2.21,2.25l5.02,87.21     H1167.91z"/><path fill="#95bae2" d="M1166.46,798.7l-5.65-86.89c-0.09-1.39,0.92-2.57,2.21-2.57h119.17c1.17,0,2.14,0.98,2.21,2.25l5.02,87.21     H1166.46z"/><path fill="#a9cae7" d="M1225.11,756.17c0,3.99-2.5,7.23-5.59,7.23c-3.09,0-7.1-1.61-5.59-7.23c1.03-3.83,1.22-9.43,4.31-9.43     C1221.32,746.74,1225.11,752.18,1225.11,756.17z"/><path fill="#fbfcfa" d="M1245.66,622.22c0,0,2.38,14.85,18.52,21.03c0,0-13.39,1.66-12.27,11.22    C1251.91,654.48,1235.15,632.63,1245.66,622.22z"/><path fill="#fbfcfa" d="M1285.07,624.31c0,0-1.78,15.39-17.43,18.94c0,0,14.42,3.46,15.53,12.44    C1283.16,655.69,1295.8,640.9,1285.07,624.31z"/></g><g><path fill="#eebaa7" d="M1753.93,1501.35c0,0-2.55,32.1-2.99,52.82c-0.44,20.72-0.1,82.52,1.49,87.97l-0.09,20.36h-3.61v-8    c0,0-3.53,3.02-3.53,6.6c0,3.58-13.67,8.67-18.52,7.94c-4.85-0.73,3.53-11.63,3.53-11.63s9.85-12.36,9.34-17.45    c-0.52-5.09-16.71-84.78-17.15-95.32c-0.44-10.54-5-47.09-5-47.09L1753.93,1501.35z"/><path fill="#131025" d="M1772.96,1108.57c0,0,10.41-5.45,18.28,15.7c7.87,21.16,8.21,54.15,5.33,65.4c0,0,22.94,24.93,4.11,41.3    c0,0-25.95,27.54-27.67,34.62c-0.66-1.66-11.73-21.82-29.73-22.91c-18-1.08-62.27-48.02-38.59-55.39c0,0-1.78,7.61,6.3,5.76    c8.08-1.85,3.05-29.89,3.16-39.81c0.1-9.92,6.08-34.39,23.32-44.8C1754.7,1098.05,1774.52,1098.73,1772.96,1108.57z"/><path fill="#eaa87a" d="M1776.14,1183.26c0,0-37.26,2.55-49.28,5.37c0,0,4.53,50.43,11.97,50.99c7.44,0.56,37.05,1.3,37.31-6.88    C1776.4,1224.55,1782.7,1188.82,1776.14,1183.26z"/><path fill="#eaa87a" d="M1742.56,1173.92c0,0-4.76,13.88-6.42,16.37c0,0-2.56,6.66,4.97,25.48c7.53,18.82,26.58,8.31,29.63,3.17    c3.05-5.14,9.78-14.96,3.64-24.74c0,0-8.41-6.1-4.02-19.37C1770.35,1174.83,1743.89,1169.49,1742.56,1173.92z"/><path fill="#fcc596" d="M1775.32,1171c0,0-12.52,13.48-23.03,11.75c-11.34-1.86-20.15-15.18-22.86-24.95    c-2.72-9.77,1.77-29.39,8.52-36.39c6.75-6.99,31.76-11.63,38.76-2.56C1783.72,1127.94,1788.44,1160.53,1775.32,1171z"/><path fill="#facc9a" d="M1651.45,1211.58c0,0-0.54-11.17,1.14-15.33c1.68-4.16-1.06-10.39-3.5-8.29c-2.45,2.1-2.5,8.92-3.56,7.8    c-1.06-1.12-4-20.07-5.42-21c-1.42-0.93-3.15,0.78-1.8,7.31c0,0-1.03-7.71-2.69-6.96c-1.66,0.74-2.31,3.34-0.77,10.38    c0,0-1.67-8.28-3.07-7.99c-1.4,0.29-1.69,1.23-0.61,8.21c0,0-1.5-7.53-2.46-6.93c-0.96,0.6-3.15,11.51,0.46,18.36    c3.61,6.85,7.67,15.61,7.97,17.58C1637.13,1214.71,1648.61,1215.94,1651.45,1211.58z"/><path fill="#f0b9a7" d="M1796.09,1494.32c0,0,5.7,68.56-4.81,100.14c-10.74,32.3-8.29,43.72,9.25,60.24c0,0,11.91,6.97,5.52,8.42    c-6.39,1.44-20.33,3.63-28.87-6.15c-8.55-9.78-5.52-9.55-5.52-9.55l0.08,12.08l-3.99-0.56c0,0-0.31-15.46,1.87-21.61    c2.18-6.15-4.06-57.95-2.36-63.69c1.7-5.75-5-67.59-0.4-74.86C1771.47,1491.49,1796.09,1494.32,1796.09,1494.32z"/><path fill="#4e4e4e" d="M1800.5,1336.51c0,0,16.44,105.28,0.46,159.96c0,0-77.86,13.72-91.51,3.8c0,0-24.55-117.07,4.97-170.08    L1800.5,1336.51z"/><path fill="#131025" d="M1791.22,1656.66c11.19,2.85,2.66-8.51,2.66-8.51l0.02,0c1.93,2.04,4.12,4.18,6.64,6.55    c0,0,11.91,6.97,5.52,8.42c-6.39,1.44-20.33,3.63-28.87-6.15c-3.21-3.68-4.79-5.94-5.51-7.33l0.07,9.86l-3.99-0.56    c0,0-0.31-15.46,1.87-21.61C1773.21,1638.66,1780.03,1653.81,1791.22,1656.66z"/><path fill="#131025" d="M1726.7,1669.04c-4.85-0.73,3.53-11.63,3.53-11.63s1-1.26,2.34-3.13c-0.43,3.38,0.08,6.39,3.1,6.82    c7.3,1.04,16.77-18.96,16.77-18.96l-0.09,20.36h-3.61v-8c0,0-3.53,3.02-3.53,6.6C1745.22,1664.67,1731.55,1669.76,1726.7,1669.04z    "/><path fill="#f7f8f9" d="M1771.66,1228.66l-33.76,1.11l11.96,47.82C1749.86,1277.58,1769.28,1236.13,1771.66,1228.66z"/><path fill="#1dafab" d="M1776.14,1183.26c0,0,38.04,11.88,46.05,18.81c8.01,6.93,54.06,74.27,49.06,86.15    c-5.01,11.88-49.52,51.15-49.52,51.15l-12.55-13.52c0,0,28.03-41.59,31.03-43.57c0,0-29.28-37.13-36.04-36.14    c-6.76,0.99,3.26,73.25,1.1,123.48c-0.09,2.09-47.41,8.72-56.67,5.01l-4.25-26.49l-6.76,27.8l-41.55-1.8    c0,0,9.06-48.53,12.82-52.98c3.75-4.46,3.95-51.49,3.95-51.49l-7.76-7.67c0,0-32.16,34.14-36.92,34.14    c-4.76,0-13.89,3.24-20.65-11.61c-6.76-14.85-13.35-66.67-12.35-69.64c0,0,12.1-5.13,17.85-5.37c0,0,13.01,41.84,12.51,47.78    c0,0,4.51-0.5,5.01-1.24c0.5-0.74,31.54-54.46,38.54-59.66c0,0,8.39-7.19,22.66-8.43l18.14,89.63    C1749.86,1277.58,1785.15,1203.56,1776.14,1183.26z"/><path fill="#14958f" d="M1863.36,1288.22c5.01-11.88-41.05-79.22-49.06-86.15c-5.56-4.81-25.55-12-37.29-15.95     c-0.23-1.03-0.5-2.01-0.88-2.86c0,0,38.04,11.88,46.05,18.81c8.01,6.93,54.06,74.27,49.05,86.15     c-5.01,11.88-49.52,51.15-49.52,51.15l-3.57-3.85C1829.44,1325.35,1859.31,1297.83,1863.36,1288.22z"/><path fill="#14958f" d="M1744.87,1272.54l-20.76-83.24c2.32-0.6,4.82-1.11,7.61-1.35l18.14,89.63     C1747.01,1281.38,1744.87,1272.54,1744.87,1272.54z"/><path fill="#14958f" d="M1797.39,1369.61c2.15-50.23-7.86-122.49-1.1-123.48c1.32-0.19,3.5,1.08,6.15,3.22     c-1.85,9.62,0.78,39.51,2.26,71.47c-2.09,3.07-3.4,5.03-3.4,5.03l3.79,4.08c0.51,13.63,0.72,27.32,0.19,39.68     c-0.08,1.77-34.12,6.81-50.11,6.03C1772.38,1375.04,1797.33,1371.13,1797.39,1369.61z"/><path fill="#14958f" d="M1660.26,1296.12c4.76,0,36.92-34.14,36.92-34.14h7.88c-8.67,9.02-33.18,34.14-36.92,34.14     c-2.13,0-5.15,0.64-8.44,0.02C1659.89,1296.13,1660.08,1296.12,1660.26,1296.12z"/><polygon fill="#14958f" points="1740.69 1355.77 1743.96 1349.76 1737.59 1375.93 1729.8 1375.59"/><path fill="#facc9a" d="M1814.31,1323.45c0,0-9.61,5.57-14.04,5.94c-4.43,0.38-8.69,5.68-5.72,6.92c2.96,1.25,9.01-1.81,8.5-0.35    c-0.51,1.47-15.89,12.72-16.06,14.42c-0.17,1.7,2.12,2.48,7.27-1.7c0,0-6.33,4.43-4.92,5.58c1.41,1.15,3.99,0.56,9.51-4.03    c0,0-6.55,5.27-5.65,6.39c0.89,1.12,1.85,0.97,7.52-3.18c0,0-5.96,4.77-4.99,5.36c0.96,0.59,11.59-2.41,15.99-8.77    c4.4-6.36,10.28-13.99,11.88-15.15C1823.58,1334.9,1819.45,1324.02,1814.31,1323.45z"/><path fill="#1dafab" d="M1824.7,1334.22c-0.47,2-2.98,5.15-2.98,5.15l-12.55-13.52l6.27-4.24"/><path fill="#1c183c" d="M1787.07,1206.4c0,0,10.03,3.9,15.74-3.93c5.72-7.83-3.84-12.51-3.84-12.51s6.2,7.89-2.87,8.91    c-9.07,1.01-9.1-14.36-5.89-22.85c9.26-24.51,3.96-40.61-0.28-49.37c-4.24-8.76-11.8-15.17-11.8-15.17l-5.18-2.91l-3.61,8.9    c0,0,6.51,10.06,9.8,19.34c3.29,9.28,4.67,21.21-3.11,36.61C1768.24,1188.82,1766.27,1203.94,1787.07,1206.4z"/><path fill="#232147" d="M1769.34,1117.47l3.61-8.9l0,0l0,0c0,0,10.4-5.45,18.28,15.7c2.7,7.27,4.11,15.99,4.67,24.77    c-3.58,13.17-13.69,28.36-19.21,41.27c-6.96,16.29,14.24,11.89,14.24,11.89s-7.08,12.07-17.68,2.81    c-11.65-10.19-1.43-27.07,3.04-35.9c4.47-8.83,3.76-25.55-0.49-35.04C1771.55,1124.57,1769.34,1117.47,1769.34,1117.47z"/><path fill="#1c183c" d="M1769.34,1117.47c0,0-23.7-6.29-35.67,22.71c-11.97,29,5.09,42.31,2.07,51.25s-11.1,10.24-18.02,1.07    c0,0,8.51,5.53,9.79-0.74c1.28-6.27-12.86-15.41-11.52-39.31c0.47-8.4,1.84-15.62,3.41-21.47c3.66-8.64,9.46-17.33,18.06-22.53    c17.24-10.41,37.06-9.73,35.5,0.11L1769.34,1117.47z"/></g><g><path fill="#fccaa6" d="M807.55,1201.82l-37.02-1.24c-1.42-0.05-2.43-1.39-2.1-2.76l6.9-28.19c0.25-1.03,1.19-1.74,2.25-1.7    l24.18-0.15c1.07,0.04,1.96,0.82,2.13,1.88l5.94,29.59C810.06,1200.61,808.96,1201.86,807.55,1201.82z"/><path fill="#cd9696" d="M803.9,1169.64c-0.16-0.97-0.98-1.69-1.95-1.72l-11.14-0.37l-12.23-0.41c-0.97-0.03-1.83,0.62-2.06,1.56    l-3.48,10.75l-0.61,2.08c5.81,3.34,19.6,5.2,22.64,6.89c2.94,1.62,7.64-2.6,11.34-6.25L803.9,1169.64z"/><path fill="#fccaa6" d="M758.18,1149.89c0,0-5.3-3.2-5.67,2.6c-0.37,5.8,4.4,13.41,9.18,10.63    C766.46,1160.34,758.18,1149.89,758.18,1149.89z"/><path fill="#13162d" d="M758.9,1158.47c0,0-3.41-2.92-3.12-5.27C756.06,1150.84,752.03,1155.66,758.9,1158.47z"/><path fill="#fccaa6" d="M817.24,1149.13c0,0,5.21-3.34,5.74,2.44c0.54,5.78-4.02,13.53-8.88,10.88    C809.25,1159.8,817.24,1149.13,817.24,1149.13z"/><path fill="#13162d" d="M816.75,1157.72c0,0,3.32-3.02,2.97-5.36C819.38,1150.02,823.55,1154.71,816.75,1157.72z"/><path fill="#fccaa6" d="M755.77,1134.33c0,0,2.88,35.44,19.25,44.99c16.58,9.67,26.11,4.37,33.07-5.12    c6.96-9.49,13.04-35.5,11.44-39.48C817.93,1130.73,762.39,1122.33,755.77,1134.33z"/><path fill="#cd9696" d="M778.1,1176c-14.51-8.46-18.42-37.25-19.13-43.7c-1.68,0.55-2.81,1.21-3.2,2.02c0,0,3.02,36.07,19.4,45.62    c15.63,9.12,24.85,4.3,31.7-4.17C800.31,1181.85,791.52,1183.83,778.1,1176z"/><path fill="#1a1941" d="M757.09,1144.8c0.87-0.03,7.48-0.66,11.41-13.13c0.04-0.12,0.2-0.14,0.26-0.03    c0.62,1.05,2.86,4.73,4.63,5.68c0.11,0.06,0.24-0.05,0.21-0.17c-0.43-1.49-2.2-7.99-0.4-7.87c2.02,0.13,8.63,9.18,38.47,2.12    c0.1-0.02,0.2,0.06,0.18,0.16c-0.26,1.52-1.42,10.58,6.66,13.91c0.07,0.03,0.16,0,0.19-0.07c0.82-1.81,10.03-22.69,1.38-36.53    c-9.04-14.47-40.06-24.11-55.65-2.53c-0.03,0.04-0.07,0.06-0.11,0.06c-0.8,0-8.08,0.27-9.16,11.89c-1.13,12.2,0.18,23.1,1.8,26.42    C756.98,1144.77,757.03,1144.8,757.09,1144.8z"/><path fill="#bab9b7" d="M755.4,1120.36c1.08-11.62,8.36-11.9,9.16-11.89c0.05,0,0.09-0.02,0.11-0.06     c15.59-21.58,46.61-11.94,55.65,2.53c1.77,2.83,2.79,5.96,3.29,9.16c-0.35-3.91-1.39-7.78-3.54-11.22     c-9.04-14.47-40.06-24.11-55.65-2.53c-0.03,0.04-0.07,0.06-0.11,0.06c-0.8,0-8.08,0.27-9.16,11.89     c-0.72,7.77-0.45,15.02,0.26,20.11C754.89,1133.51,754.77,1127.14,755.4,1120.36z" opacity=".19"/><path fill="#14143a" d="M818.5,1145.48c0.07,0.03,0.16,0,0.19-0.07c0.44-0.96,3.26-7.34,4.49-15.18c-5.6,6.57-8.1-1.49-8.1-1.49    c-18.82,6.35-34.43-9.36-34.43-9.36c1.23,3.9,8.95,10.56,8.95,10.56c-6.39,1.16-18.25-6.48-18.25-6.48    c-5.17,10-12.38,0.05-16.06-6.4c-0.06,0.4-0.11,0.81-0.15,1.24c-1.13,12.2,0.18,23.1,1.8,26.42c0.03,0.05,0.08,0.08,0.14,0.08    c0.87-0.03,7.48-0.66,11.41-13.13c0.04-0.12,0.2-0.14,0.26-0.03c0.62,1.05,2.86,4.73,4.63,5.68c0.11,0.06,0.24-0.05,0.21-0.17    c-0.43-1.49-2.2-7.99-0.4-7.87c2.02,0.13,8.63,9.18,38.47,2.12c0.1-0.02,0.2,0.06,0.18,0.16    C811.58,1133.08,810.42,1142.14,818.5,1145.48z"/><path fill="#1a1941" d="M741.51,1386.7c0,0-7.72,268.82-4.88,268.82c2.85,0,18.22,1.05,18.22,0c0-1.05,42.34-218.52,42.34-218.52    s15.86,75.64,18.07,81.42c2.21,5.78,13.03,118.6,25.55,137.57h22.2c0,0-7.48-263.27-21.06-290.95l-101.33,7.35L741.51,1386.7z"/><path fill="#fff" d="M771.85,1184.13l-8.46,6.7c0,0-21.12,6.78-45.6,28.98c0,0-6.38,65.94,12.97,87.57c0,0,6.24,4.89,15.14,4.32    c0,0,0.29,31.55-5.41,38.38s-6.49,30.27-6.49,30.27l5.41,5.41c0,0,18.43,6.63,28.11-7.03l64.87-1.08c0,0,4.54,10.59,21.62,4.32    c0,0-4.86-49.7-15.68-61.09l2.16-20.54c0,0,30.51,6.76,31.08-12.03c0.57-18.79-19.36-75.32-26.76-79.87    c-7.4-4.55-29.63-13.07-29.63-13.07l-6.83-6.83C808.36,1188.55,788.92,1217.15,771.85,1184.13z"/><path fill="#0d72b9" d="M847.64,1205.63c-6.16-3.79-24.54-8.37-30.53-9.8l0,0c-7.33,31.05,9.47,181.72,9.47,181.72      s11.95,13.09,29.03,6.83c0,0-3.98-51.8-14.8-63.19l1.71-17.65c0,0,31.74,6.81,32.31-11.97      C875.4,1272.79,855.04,1210.19,847.64,1205.63z"/><path fill="#0d72b9" d="M730.37,1311.52c0,0,2.7,5.12,11.6,4.55c0,0,0.36,23.91-5.34,30.74c-5.69,6.83-7.4,38.71-7.4,38.71      l8.54,4.55c0,0,22.77,2.28,32.45-11.39c19.64-63.62-6.83-187.86-6.83-187.86s-18.63,3.39-39.46,18.56      c-6.44,4.69-10.25,12.16-10.21,20.12C713.85,1250.97,715.92,1295.37,730.37,1311.52z"/><path fill="#c2d5e6" d="M789.43,1201.67c0,0,8.54-2.23,11.95,3.07c3.42,5.31,10.1,7.16,11.46-11.7l-4.48-4.48    c0,0-19.29,25.17-36.52-4.83l-8.46,7.1l2.12,10.84C765.51,1201.67,775.77,1215.49,789.43,1201.67z"/><path fill="#14143a" d="M736.63,1655.52c0,0-3.13,12.08,1.99,18.39c0,0,13.24-0.77,12.81-17.92L736.63,1655.52z"/><path fill="#14143a" d="M840.81,1655.98c0,0-1.57,7.81,0,8.73c1.57,0.92,11.81,0,11.81,0v-2.63c0,0,8.4,0.53,10.39,2.63    c1.99,2.1,16.94,0.41,16.94,0.41s-0.85-2.7-8.11-4.24s-8.82-4.89-8.82-4.89H840.81z"/><path fill="#fff" d="M758.47,1294.21c0,0,0.12-1.21,0.28-6.5c-19.55-7.08-26.92,1.92-29.66,8.5c0.5,7.14,2.07,13.29,5.48,17.34     C734.58,1313.55,729.64,1285.79,758.47,1294.21z"/><path fill="#ea8f8f" d="M844.12,1260.02c-3.42,3.16-7.8,11.56-11.34,15.68c0,0-9.79,17.42-39.21,17.56     c-29.42,0.15-35.09,0.95-35.09,0.95s-28.99-11.32-23.89,19.34c0,0,3.62,7.67,22.93,7.36c19.31-0.31,69.23-3.22,74.74-15.81     c4.74-10.83,12.93-26.12,21.64-30.5C849.44,1270.15,846.28,1263.14,844.12,1260.02z"/><path fill="#fabb9b" d="M866.34,1301.98c0,0-19.04,11.23-42.35,2.18c-23.31-9.05-49.12-10.96-54.41-10.54     c0,0-0.87-16.68,10.52-17.27c11.39-0.59,17,4.59,17,4.59s34.1-3.46,38.94-6.1c0,0,4.5-12.36,8.37-15.22     C848.08,1256.9,871.29,1277.47,866.34,1301.98z"/><path fill="#fabb9b" d="M758.47,1294.21c0,0-20.44-1.26-18.17,11.18c2.5,13.69,14.94,11.53,27.26,11.92     c12.32,0.39,56.26-5,58.13-8.46C827.57,1305.4,787.99,1295.08,758.47,1294.21z"/><path fill="#ea8f8f" d="M859.44,1273.36c3.55,8.64,5.34,18.98,3.07,25.06c-4.56,12.17-42.34,4.32-52.33-1.06     c-6.47-3.48-22.29-3.1-32.14-3.04c10.32,0.79,27.59,3.05,43.56,8.94c0.77,0.28,1.54,0.57,2.31,0.87     c0.03,0.01,0.06,0.02,0.09,0.03c5.1,1.98,9.99,2.99,14.53,3.36c1.3,0.1,2.56,0.16,3.8,0.17c1.23,0.01,2.43-0.03,3.6-0.1     c0.58-0.04,1.16-0.08,1.72-0.14c1.69-0.16,3.29-0.4,4.8-0.68c1-0.19,1.96-0.4,2.88-0.63c1.83-0.45,3.46-0.96,4.88-1.46     c0.71-0.25,1.36-0.5,1.96-0.74c2.68-1.08,4.19-1.96,4.19-1.96C867.35,1291.87,863.91,1281.42,859.44,1273.36z"/><path fill="#f3f2f3" d="M869.56,1280.31c-7.87-15.22-20.54-21.43-25.37-21.65c-0.05,0.68-0.08,1.07-0.08,1.07     c24.78,12.05,22.23,42.24,22.23,42.24C868.75,1293.28,869.62,1286.53,869.56,1280.31z"/><path fill="#a6adcb" d="M862.19,1274.5c-1.48-3.65-5.59-6.63-9.05-8.6c15.05,13.93,13.2,36.08,13.2,36.08     c2.41-8.7,3.28-15.45,3.22-21.67C868.33,1296.67,864.92,1281.23,862.19,1274.5z" opacity=".61"/><path fill="#a6adcb" d="M753.93,1293.13c-12.48-10.01-19.41-2.75-20.4,5.9c-0.33,2.92-1.78,5.04-2.88,6.63     c0.89,3.09,2.15,5.78,3.93,7.88C734.58,1313.55,730.19,1288.85,753.93,1293.13z" opacity=".61"/></g></svg>