<svg xmlns="http://www.w3.org/2000/svg" viewBox="0 0 4000 2100"><defs><clipPath id="a"><path fill="#205099" d="M2442.74,900.16s-54.5-54.77-210.86-41.89-186,56.63-200.13,76.56c-20.91-6-38.89-61.92-23.9-109.62,25.31-80.58,401.71-134.59,440.2-34.78C2463.5,842.68,2457,875,2442.74,900.16Z"/></clipPath></defs><g style="isolation:isolate"><path fill="#e6f6ff" d="M141.14,1942.28H3896.85s-381.25-502.92-178.46-665.16S4156.79,694,3743.1,523.6,2492.3,919,2109,493.43C1560.92-115,682.92,222.48,560.34,573.88c-150.85,432.41,110.61,568.17,0,915.11C484.91,1725.56,141.14,1942.28,141.14,1942.28Z"/><path fill="#99c1ff" d="M950.4,746.44,948,725.18a194.8,194.8,0,0,0-72.12,22.93l10.32,18.78a173.84,173.84,0,0,0-52.48,44.19l-5.59-4.43-11-8.76-.15-.11A194.6,194.6,0,0,0,782.14,865l20.5,6c-4.91,17-6.44,34.85-6,52.74H876c-1.45-34.77,16-69,48.63-86.94a94.19,94.19,0,0,1,139.86,86.94h79.28c.18-7.88.57-15.78-.36-23.69l21.27-2.42a193.28,193.28,0,0,0-22.88-72.15L1123,835.8a173.68,173.68,0,0,0-44.22-52.55l10.35-13,2.94-3.75a195.38,195.38,0,0,0-67.22-34.74l-6,20.5A175.42,175.42,0,0,0,950.4,746.44Z"/><path fill="none" stroke="#99c1ff" stroke-linejoin="round" stroke-width="4.71" d="M2085,1615a97.28,97.28,0,0,0-32.89-19.9l1.35-3.76,2.67-7.42,0-.1a108.94,108.94,0,0,0-41.95-6.37l.52,11.94a97.53,97.53,0,0,0-37.31,9.23l-5.11-10.85a108.56,108.56,0,0,0-34.2,25.15L1947,1621a97.34,97.34,0,0,0-19.9,32.89l-11.28-4a109.6,109.6,0,0,0-6.37,41.95l12-.52a97.34,97.34,0,0,0,9.22,37.31l-10.84,5.11a108.53,108.53,0,0,0,25.14,34.2l8.11-8.85a97.34,97.34,0,0,0,32.89,19.9l-2.87,8-1.14,3.26,0,0a109.6,109.6,0,0,0,42,6.37l-.52-12a97.53,97.53,0,0,0,37.34-9.26l5.11,10.85a108.08,108.08,0,0,0,34.17-25.12l-8.85-8.1a97.34,97.34,0,0,0,19.93-32.93l8.76,3.16,2.52.89a109.45,109.45,0,0,0,6.34-41.92l-12,.52a98.41,98.41,0,0,0-9.22-37.38l10.84-5.11a109.06,109.06,0,0,0-25.14-34.13Zm-26.89,107.88a53,53,0,1,1-3.3-74.93A53,53,0,0,1,2058.14,1722.88Z"/><path fill="#99c1ff" d="M3383.6,715.72a48.23,48.23,0,0,0-16.27-9.84L3368,704l1.32-3.68v0a53.78,53.78,0,0,0-20.75-3.16l.26,5.91a48.31,48.31,0,0,0-18.46,4.57l-2.52-5.37a53.66,53.66,0,0,0-16.92,12.44l4.38,4a48.13,48.13,0,0,0-9.85,16.27l-5.58-2a54.43,54.43,0,0,0-3.15,20.75l5.91-.26a48.12,48.12,0,0,0,4.57,18.46l-5.37,2.53a53.73,53.73,0,0,0,12.44,16.91l4-4.37a48.16,48.16,0,0,0,16.27,9.84l-1.42,3.94-.57,1.62v0a54.41,54.41,0,0,0,20.75,3.15l-.26-5.91a48.19,48.19,0,0,0,18.47-4.58l2.53,5.36A53.47,53.47,0,0,0,3391,788l-4.38-4a48.1,48.1,0,0,0,9.86-16.28l4.34,1.56,1.24.44a54.38,54.38,0,0,0,3.14-20.74l-5.91.26a48.73,48.73,0,0,0-4.57-18.49l5.37-2.52a54.08,54.08,0,0,0-12.44-16.89Zm-13.3,53.36a26.23,26.23,0,1,1-1.64-37.06A26.23,26.23,0,0,1,3370.3,769.08Z"/><path fill="#ffd145" d="M462.33,1429.91,330.4,1658.41a17.77,17.77,0,0,0,15.38,26.65H609.64A17.77,17.77,0,0,0,625,1658.41L493.1,1429.91A17.76,17.76,0,0,0,462.33,1429.91Z"/><path d="M609.64,1673.78H345.78a6.49,6.49,0,0,1-5.6-9.72l131.94-228.5c2.3-4.11,8.87-4.11,11.21,0l131.91,228.48a6.48,6.48,0,0,1-5.6,9.72Zm-262-7.54H607.82L477.71,1440.91ZM476.8,1439.31v0Zm1.85,0Z"/><path d="M478.1,1604.06h0a14.41,14.41,0,0,1-14.38-13.42l-4.42-64.46a18.84,18.84,0,0,1,18.8-20.13h0a18.83,18.83,0,0,1,18.79,20.13l-4.42,64.46A14.4,14.4,0,0,1,478.1,1604.06Z"/><circle cx="478.1" cy="1629.69" r="14.22" transform="rotate(-45 478.098 1629.685)"/><rect width="3941.54" height="21.15" x="28.46" y="1915.94" fill="#0d3a80" rx="8.26"/><g data-name="laptop 02"><path fill="#b3d1ff" d="M1576.2,1865.23H208.43c-18.41,0-34.51-14.92-36-33.32L105,983.1c-1.46-18.4,12.27-33.32,30.67-33.32H1503.43c18.4,0,34.51,14.92,36,33.32l67.48,848.81C1608.34,1850.31,1594.61,1865.23,1576.2,1865.23Z"/><path d="M207.94,1859.05c-15,0-28.11-12.17-29.3-27.14L111.16,983.1a24.72,24.72,0,0,1,25-27.13H1503.92c15,0,28.1,12.17,29.29,27.13l67.48,848.81a24.72,24.72,0,0,1-25,27.14Z"/><polygon fill="#aae0ff" points="1559.24 1823.97 220.27 1823.97 153.72 986.79 1492.69 986.79 1559.24 1823.97"/><path fill="#2572e8" d="M1830.21,1865.31v22.27a17.46,17.46,0,0,1-.22,3.38,29,29,0,0,1-28.8,25.65h-1591a29,29,0,0,1-28.8-25.65,16.72,16.72,0,0,1-.23-3.38v-22.27Z"/><path fill="#3358cc" d="M1830,1891a29,29,0,0,1-28.8,25.65h-1591a29,29,0,0,1-28.8-25.65Z"/><path fill="#599aff" d="M1830.21,1865.31v22.27a17.46,17.46,0,0,1-.22,3.38,29,29,0,0,1-28.8,25.65h-1013a29.16,29.16,0,0,1-28.8-25.65c0-1.13-.23-2.25-.23-3.38v-22.27Z"/><path fill="#3358cc" d="M1830,1891a29,29,0,0,1-28.8,25.65h-1013a29.16,29.16,0,0,1-28.8-25.65Z"/></g><g data-name="laptop 01"><path fill="#b3d1ff" d="M2402.05,1865.23H3769.82c18.4,0,34.51-14.92,36-33.32l67.48-848.81c1.46-18.4-12.27-33.32-30.67-33.32H2474.82c-18.4,0-34.51,14.92-36,33.32l-67.48,848.81C2369.91,1850.31,2383.64,1865.23,2402.05,1865.23Z"/><path d="M3770.31,1859.05c15,0,28.11-12.17,29.3-27.14l67.48-848.81a24.72,24.72,0,0,0-25-27.13H2474.33c-15,0-28.1,12.17-29.29,27.13l-67.48,848.81a24.72,24.72,0,0,0,25,27.14Z"/><polygon fill="#aae0ff" points="2419 1823.97 3757.97 1823.97 3824.53 986.79 2485.56 986.79 2419 1823.97"/><path fill="#2572e8" d="M2148,1865.31v22.27a17.46,17.46,0,0,0,.22,3.38,29,29,0,0,0,28.8,25.65h1591a29,29,0,0,0,28.8-25.65,16.72,16.72,0,0,0,.23-3.38v-22.27Z"/><path fill="#3358cc" d="M2148.26,1891a29,29,0,0,0,28.8,25.65h1591a29,29,0,0,0,28.8-25.65Z"/><path fill="#599aff" d="M2148,1865.31v22.27a17.46,17.46,0,0,0,.22,3.38,29,29,0,0,0,28.8,25.65H3190a29.16,29.16,0,0,0,28.8-25.65c0-1.13.23-2.25.23-3.38v-22.27Z"/><path fill="#3358cc" d="M2148.26,1891a29,29,0,0,0,28.8,25.65H3190a29.16,29.16,0,0,0,28.8-25.65Z"/></g><path fill="#1150b3" d="M3250.43,1428.67l-4.09-14.31a13.64,13.64,0,0,0-15.33-9.51l-127.47,24.05a10.93,10.93,0,0,0-8.61,14l72.32,252.94L3497,1633.66,3428.73,1395Z"/><polygon fill="#fff" points="3444.93 1401.13 3121.62 1462.14 3167.25 1695.88 3495.36 1633.96 3444.93 1401.13"/><path fill="#40b0ff" d="M3497,1633.66l-329.72,62.21-29.94-233.68a12.57,12.57,0,0,1,10.37-14.13l301.74-56.94c8.47-1.6,17.06,4.58,18.14,13Z"/><rect width="257.74" height="195.88" x="3307.07" y="1479.78" fill="#cfd9e8" transform="rotate(93.64 3435.908 1577.628)"/><rect width="233.34" height="171.81" x="3319.27" y="1491.82" fill="#086cd3" transform="rotate(93.64 3435.908 1577.628)"/><polygon fill="#bcc5d3" points="3368.48 1471.47 3358.5 1628.32 3446.45 1548.04 3368.48 1471.47"/><polygon fill="#bcc5d3" points="3363.94 1542.79 3355.56 1674.58 3428.29 1607.59 3363.94 1542.79"/><path fill="#bcc5d3" d="M3460.34,1616.39a18.2,18.2,0,1,1,19.32-17A18.2,18.2,0,0,1,3460.34,1616.39Z"/><rect width="257.74" height="195.88" x="3404.33" y="1475.4" fill="#e3eeff" transform="rotate(122.45 3533.19 1573.257)"/><rect width="233.34" height="171.81" x="3416.53" y="1487.44" fill="#3397ff" transform="rotate(122.45 3533.19 1573.257)"/><polygon fill="#e3eeff" points="3525.29 1447.73 3440.97 1580.36 3556.72 1552.4 3525.29 1447.73"/><polygon fill="#e3eeff" points="3486.95 1508.04 3416.1 1619.47 3512.1 1595.83 3486.95 1508.04"/><circle cx="3545.71" cy="1603.63" r="18.2" fill="#e3eeff" transform="rotate(-59.35 3545.938 1603.603)"/><rect width="464.94" height="202.45" x="3206.71" y="1622.37" fill="#ea7b00"/><rect width="119.81" height="202.45" x="3086.9" y="1622.37" fill="#b35e00"/><polygon fill="#cc6b00" points="3671.65 1622.37 3206.71 1622.37 3287.21 1543.37 3752.15 1543.37 3671.65 1622.37"/><polygon fill="#ea7b00" points="3142.74 1735.85 3022.92 1735.85 3086.9 1622.37 3206.71 1622.37 3142.74 1735.85"/><rect width="103.67" height="45.42" x="3546.78" y="1765.54" fill="#ff9e33"/><path fill="#1251b3" d="M634.09,1243l-1.24-24.14A21.14,21.14,0,0,0,612,1199H400.69a18.66,18.66,0,0,0-18.82,19.85l22,426.71H950.4L929.65,1243Z"/><polygon fill="#fff" points="953.13 1257.66 417.2 1257.66 403.86 1645.57 947.74 1645.57 953.13 1257.66"/><polygon fill="#ebf3ff" points="866.88 1467.45 463.12 1468.58 486.01 1161.8 889.77 1160.67 866.88 1467.45"/><polygon fill="#3397ff" points="857.45 1452.74 474.34 1453.81 495.39 1171.78 878.49 1170.71 857.45 1452.74"/><polygon fill="#e3eeff" points="508.39 1431.08 754.58 1430.39 630 1301.28 508.39 1431.08"/><polygon fill="#e3eeff" points="620.34 1430.77 827.19 1430.19 723.23 1323.48 620.34 1430.77"/><ellipse cx="709.1" cy="1272.56" fill="#e3eeff" rx="29.63" ry="27.42" transform="rotate(-43.89 709.137 1272.598)"/><polygon fill="#ebf3ff" points="923.41 1430.7 549.09 1431.9 573.4 1106.45 947.73 1105.25 923.41 1430.7"/><polygon fill="#3397ff" points="913.74 1415.09 560.67 1416.23 583.02 1117.04 936.09 1115.9 913.74 1415.09"/><polygon fill="#cce5ff" points="755 1158.34 614.42 1158.34 613.46 1170.69 754.04 1170.69 755 1158.34"/><polygon fill="#cce5ff" points="896.9 1204.05 610.88 1204.05 611.84 1191.7 897.85 1191.7 896.9 1204.05"/><polygon fill="#cce5ff" points="894.27 1238.01 608.25 1238.01 609.21 1225.65 895.22 1225.65 894.27 1238.01"/><path fill="#3383ff" d="M950.4,1645.57H403.86l38.25-383.08A21.5,21.5,0,0,1,463.77,1243H963.94c14,0,25.41,12.48,24,26.35Z"/><g data-name="hacker"><path fill="#1d498c" d="M1470.79,1461.39c0,.27,811.05-67.24,859.21-91.71,125.69-64.27,148.48-97.83,148.48-97.83,69.23-152.41-103.78-253.39-215.85-192.45l-505.16,146.09-320.17,77.7C1374.14,1325.58,1407.29,1442.12,1470.79,1461.39Z"/><path fill="#0d2140" d="M1449.86,1318.25c21.48,4,80.64,116.54,37.11,129.8-32.14,9.79-59.39-48.15-62.8-74C1420.28,1344.47,1428.38,1314.3,1449.86,1318.25Z"/><path fill="#fff" d="M2515.7,1614.17s-6.11,146.52,189.26,167.89,311.35-116,314.41-222.83S2860.63,1370,2711.06,1431,2546.23,1513.44,2515.7,1614.17Z"/><path fill="#fff" d="M3028.72,1295.63s-2.63,74,81.49,84.79,134.85-41,133.59-94.93c-1.8-77.5-76.19-119.15-140.59-88.32S3032.91,1260.26,3028.72,1295.63Z"/><path fill="#1d498c" d="M2405.81,1571.44c115,110.61,246,156,302.2,161.78,201.58,20.73,311.55-134.5,229.64-306.32,0,0-159.26-310.37-261.69-361-102.46-51.11-492.06,64.37-516.2,180.76C2146.93,1309.52,2267.69,1438.6,2405.81,1571.44Z"/><path fill="#1d498c" d="M2483.09,980.5s127.87-25,347.48,55.6c162.91,59.8,340.58,166.4,340.58,166.4,81.52,60.48,5.26,186.72-81.34,158.17L2808,1291.79,2552.8,1172.55C2430.84,1135,2394.39,1051.63,2483.09,980.5Z"/><path d="M2933.73,1319.64a2.91,2.91,0,0,1-.57-.06L2777.55,1285a2.62,2.62,0,1,1,1.13-5.11l155.62,34.58a2.62,2.62,0,0,1-.57,5.18Z" style="mix-blend-mode:soft-light"/><path fill="#1d498c" d="M2148.68,1284.31c46.56,113.2,347.85,154,347.85,154s166-275.67,157.37-342.42c-18.49-144.67-175.09-157.46-307.39-114.41S2090,1141.71,2148.68,1284.31Z"/><path d="M2373,1020.67c81.48-25.54,189-12.55,171.33,50.81-21.41,76.83-143.74,197.62-125.27,264.77,0,0-182.43-39.47-218.72-127.11S2291.48,1046.22,2373,1020.67Z"/><path d="M2434.46,1414.69a2.8,2.8,0,0,1-.64-.08l-12.66-3.18c-73.71-18.49-174.66-43.8-222.57-72.46-71.07-42.49-66.75-99.06-64.42-129.44l.25-3.38a2.62,2.62,0,1,1,5.22.38l-.25,3.39c-2.39,31.32-6.4,83.73,61.89,124.56,47.25,28.25,151.9,54.5,221.15,71.87l12.67,3.18a2.62,2.62,0,0,1-.64,5.16Z" style="mix-blend-mode:soft-light"/><path d="M2525.42,1391.81a2.62,2.62,0,0,1-2.44-3.57c10.64-27.33,30.89-57.11,52.33-88.64,31.67-46.59,67.57-99.39,76.86-153,10.57-61-14.94-114.55-78-163.75a2.62,2.62,0,0,1,3.22-4.13c64.71,50.5,90.85,105.7,79.92,168.78-9.48,54.7-45.72,108-77.69,155-21.27,31.28-41.36,60.83-51.78,87.6A2.64,2.64,0,0,1,2525.42,1391.81Z" style="mix-blend-mode:soft-light"/><path fill="#081529" d="M2453.8,1051.22s33.56,25.38,12.49,79.21c-13.7,35-61.62,80-111.93,92.92-27,7-37.59-5.68-70.86-26.51-145.5-91.07-109.87-225.68-79.66-246C2257.52,914.76,2347.22,947.82,2453.8,1051.22Z"/><path fill="#f7a58e" d="M2037.25,963.67c64.56,323.19,429.94,251.52,401-75.82C2396.61,555.34,1971.67,646,2037.25,963.67Z"/><path fill="#b55b41" d="M2232.28,1020a25.52,25.52,0,0,1-17.39-6.29c-14.06-12.47.41-49.94,2.11-54.17a2.79,2.79,0,1,1,5.18,2.07c-4.2,10.49-13,39.55-3.59,47.92,11.39,10.09,28.95,1.26,29.13,1.17a2.79,2.79,0,1,1,2.56,5A43.16,43.16,0,0,1,2232.28,1020Z"/><ellipse cx="2329.1" cy="950.7" rx="11.32" ry="18.86" transform="rotate(-5.17 2330.787 951.295)"/><path d="M2121.92,969.19c.94,10.38,6.75,18.33,13,17.76s10.5-9.43,9.56-19.8-6.74-18.32-13-17.76S2121,958.82,2121.92,969.19Z"/><path fill="#0d2140" d="M2433.69,950.54c-3.11-52.06-20.21-145.73-76.25-136.66-71.37,11.54-223.6,27.86-271.59,30.94-39,2.5-41.59,106.23-35,157.47,0,0-28.82-89.94-30.23-127.3-1-25.76-8.43-194.42,194.73-212.82S2438.74,820.59,2442,858.54,2433.69,950.54,2433.69,950.54Z"/><path fill="#a64a30" d="M2184,1084.2c-3.83,11.19,27,37.28,70.85,31.22,35.15-4.86,64.23-49,57.48-55.14-11.33,6.89-39.35,16-69.19,19.29C2214.86,1082.65,2185.18,1080.79,2184,1084.2Z"/><path fill="#663325" d="M2182.15,938.37c-21.68-22.48-36.54-40.22-60.61-37.72-20.3,1.8-25.52,14.42-25.52,14.42s10.43-6.15,31.47,1.47C2143.34,922.29,2156.57,941.94,2182.15,938.37Z"/><path fill="#663325" d="M2354.89,890.22c-26.26,17.76-53.42,31.9-81.9,40.73,0,0,17.66,8.34,47.34-3.2C2353.5,914.87,2354.89,890.22,2354.89,890.22Z"/><path fill="#b55b41" d="M2265.36,920.05s-9.06,6-6.83,15.13a14.38,14.38,0,0,0,10.57,10.75s-6.85-6.17-7.51-10.56C2260.41,927.52,2265.36,920.05,2265.36,920.05Z"/><path fill="#0d2140" d="M2447.05,815.46s-42.12-213.05-237-185.33c-162.48,14.71-193.23,164.53-193.25,216.23C2267.45,774.65,2447.05,815.46,2447.05,815.46Z"/><path fill="#0d2140" d="M2110.67,1119.68c67.73,67.58,134.17,68.38,134.17,68.38s113.6-29.58,152.59-102.78c20.45-27.16,58-110.59,32-179.17,0,0-6.42,107.24-96.12,84.65-60.19-13.93-117.49-12-177.74,17.68-79.05,32-109.8-42.37-110.29-82.62C2030.36,1036.56,2099.73,1109.93,2110.67,1119.68Z"/><path fill="#205099" d="M2442.74,900.16s-54.5-54.77-210.86-41.89-186,56.63-200.13,76.56c-20.91-6-38.89-61.92-23.9-109.62,25.31-80.58,401.71-134.59,440.2-34.78C2463.5,842.68,2457,875,2442.74,900.16Z"/><g clip-path="url(#a)"><path d="M2413.34,918.29c4.42-5.57,6.72-12.54,9.08-19.17s4.47-13.45,6.23-20.31a196.58,196.58,0,0,0,6.19-42.4,156.81,156.81,0,0,0-3.71-39.88,139.42,139.42,0,0,0-12.93-34.78,120.38,120.38,0,0,0-22.06-29.54c-1.07-1-2.16-2.05-3.26-3a2.71,2.71,0,0,0-3.74,0,2.67,2.67,0,0,0,0,3.74,112.59,112.59,0,0,1,22.25,27.48,130.7,130.7,0,0,1,13.51,32.91,145.71,145.71,0,0,1,4.74,37.62,183.17,183.17,0,0,1-4.75,40.94q-2.32,10.2-5.6,20.13-1.65,5-3.51,9.94a72.87,72.87,0,0,1-3.76,8.81,26.51,26.51,0,0,1-2.41,3.81,2.73,2.73,0,0,0,0,3.74,2.65,2.65,0,0,0,3.73,0Z" style="mix-blend-mode:soft-light"/><path d="M2371.5,908.79c10.5-9.87,14.74-24.36,17.21-38.13a179.34,179.34,0,0,0,2.56-41.32A189.23,189.23,0,0,0,2369,750a180.16,180.16,0,0,0-23.55-33.83q-1.71-1.94-3.47-3.82a2.64,2.64,0,0,0-3.74,3.74A171.61,171.61,0,0,1,2362,748.2a180.19,180.19,0,0,1,16,36.56,187.64,187.64,0,0,1,5,19.71,173.39,173.39,0,0,1,2.72,19.57,178.29,178.29,0,0,1,.55,20.15q-.14,5-.57,10c-.28,3.29-.67,6.7-1.11,9.69a127.7,127.7,0,0,1-4.36,20c-2,6.23-4.79,12.5-8.9,17.48a39.11,39.11,0,0,1-3.47,3.69,2.64,2.64,0,0,0,3.74,3.74Z" style="mix-blend-mode:soft-light"/><path d="M2338.38,887.32a232.46,232.46,0,0,0,3.81-35.88,235.12,235.12,0,0,0-1.7-35.48,242.59,242.59,0,0,0-7-35.4,240,240,0,0,0-12.21-33.77,229.67,229.67,0,0,0-17-31.32c-.8-1.21-1.6-2.42-2.42-3.62a2.71,2.71,0,0,0-3.61-1,2.67,2.67,0,0,0-.95,3.62,228.43,228.43,0,0,1,29.9,63.13,238.57,238.57,0,0,1,7.59,34.56l.15,1c0,.1.12.95.08.6.1.76.2,1.53.29,2.3.18,1.44.34,2.88.49,4.33q.47,4.39.76,8.82.6,8.82.52,17.69t-.82,17.53c-.25,2.94-.55,5.87-.92,8.8-.32,2.61-.73,5.44-1.21,8.34-.24,1.44-.49,2.87-.76,4.29a2.7,2.7,0,0,0,1.85,3.25,2.67,2.67,0,0,0,3.25-1.84Z" style="mix-blend-mode:soft-light"/><path d="M2297.49,889.83a265.51,265.51,0,0,0,1.79-33.94,277.53,277.53,0,0,0-9.3-67.64,272.84,272.84,0,0,0-25.71-63.06c-.69-1.22-1.39-2.44-2.1-3.65a2.65,2.65,0,1,0-4.57,2.67,261.49,261.49,0,0,1,15.15,30.1l.23.53c0-.06-.1-.24,0,0l.39.94c.28.67.55,1.34.83,2,.52,1.3,1,2.6,1.55,3.91,1,2.62,2,5.26,2.93,7.91q2.79,8,5.1,16.07a272.64,272.64,0,0,1,7.19,33.08c.21,1.39.42,2.78.61,4.17l.06.43c.06.48,0-.31,0,.16s.09.68.13,1l.27,2.17q.51,4.18.88,8.38c.49,5.6.82,11.21,1,16.83a263.06,263.06,0,0,1-1.26,33.68c-.14,1.4-.29,2.79-.46,4.19a2.64,2.64,0,0,0,2.64,2.64,2.73,2.73,0,0,0,2.65-2.64Z" style="mix-blend-mode:soft-light"/><path d="M2254.53,875.57l-9.83-63.51q-4.9-31.59-9.79-63.19-2.76-17.8-5.51-35.61a2.64,2.64,0,0,0-3.25-1.84,2.72,2.72,0,0,0-1.85,3.25l9.84,63.51,9.78,63.19q2.76,17.8,5.51,35.61a2.65,2.65,0,0,0,3.25,1.84,2.71,2.71,0,0,0,1.85-3.25Z" style="mix-blend-mode:soft-light"/><path d="M2205.09,880.11q-4.65-15.11-8.44-30.47T2190,818.57q-1.44-7.77-2.65-15.58c-.81-5.24-1.5-10.18-2.14-15.27q-2-15.76-3-31.63T2181,724.5c0-1.33,0-2.66,0-4a2.64,2.64,0,1,0-5.28,0q0,15.88.94,31.75t2.79,31.65q1.88,16.07,4.69,32,2.78,15.65,6.44,31.11t8.25,30.69c.39,1.27.77,2.54,1.17,3.81a2.64,2.64,0,1,0,5.09-1.4Z" style="mix-blend-mode:soft-light"/><path d="M2160.27,883.35q-6.48-15.65-11.53-31.82t-8.62-32.74q-1.78-8.26-3.19-16.62t-2.4-16.35q-2.06-16.8-2.6-33.75a128,128,0,0,1,.1-15.17c0-.58.12-1.17.19-1.76,0-.31,0,0,0,.08,0-.12,0-.25.05-.37,0-.33.1-.66.16-1a32.6,32.6,0,0,1,.77-3.39c.15-.51.3-1,.48-1.52.09-.27.19-.53.29-.8.05-.11.09-.22.14-.34-.14.36,0,0,.06-.14a21.4,21.4,0,0,1,1.55-2.87l.48-.7.22-.29,0,0c.37-.45.74-.87,1.14-1.29a2.64,2.64,0,1,0-3.73-3.74c-7.08,7.33-7.49,18.09-7.34,27.69q.28,17.16,2.14,34.24c1.26,11.55,3,23.06,5.32,34.45q3.39,16.83,8.3,33.29t11.29,32.39c.53,1.32,1.07,2.64,1.62,4a2.7,2.7,0,0,0,3.25,1.85c1.22-.4,2.41-1.88,1.84-3.25Z" style="mix-blend-mode:soft-light"/><path d="M2113.58,898.89c-4.36-9.4-8.15-18.71-11.64-28.6s-6.46-19.83-9-29.94-4.53-20.26-6.08-30.52c-.75-5-1.36-9.67-1.85-14.86-.46-5-.75-9.93-.73-14.91,0-2.49.09-5,.27-7.48.09-1.22.2-2.43.34-3.65s.21-1.83.42-3.18a70,70,0,0,1,3.77-14.29c.48-1.25.71-1.79,1.26-3a2.7,2.7,0,0,0-.94-3.61,2.67,2.67,0,0,0-3.62.94,79.21,79.21,0,0,0-6.69,29.88c-.43,10.32.61,20.64,2,30.86q2.14,15.72,5.78,31.18t8.75,30.47q5.13,15.13,11.71,29.73c.55,1.21,1.1,2.43,1.66,3.64a2.66,2.66,0,0,0,3.62.94,2.72,2.72,0,0,0,.95-3.61Z" style="mix-blend-mode:soft-light"/><path d="M2072.39,915.32c-3.21-10.19-6.42-20.39-9.33-30.68s-5.51-20.74-7.48-31.28c-1-5.2-1.76-10.3-2.35-15.34s-.95-9.86-1.14-14.81-.16-9.91.09-14.86q.2-3.78.57-7.54c.13-1.23.27-2.46.42-3.68,0-.28.08-.57.11-.85,0,.35,0-.33.06-.42l.3-2a128.89,128.89,0,0,1,3.09-14.42q1-3.56,2.18-7c.4-1.16.82-2.32,1.26-3.47.2-.53.4-1.06.62-1.58.12-.31.24-.62.37-.92,0-.12.33-.8.22-.55.48-1.14,1-2.26,1.5-3.38a2.71,2.71,0,0,0-.94-3.62,2.68,2.68,0,0,0-3.62,1,120.73,120.73,0,0,0-9.13,28.84,154.58,154.58,0,0,0-2.49,30.37,205.37,205.37,0,0,0,3,31c1.79,10.68,4.28,21.22,7.12,31.66s6.07,20.83,9.32,31.18l1.2,3.82a2.65,2.65,0,0,0,5.1-1.41Z" style="mix-blend-mode:soft-light"/><path d="M2045.1,931.88a252.58,252.58,0,0,1-15.31-33.74A264.65,264.65,0,0,1,2019.36,862a261.07,261.07,0,0,1-5-74.09c.47-6.21,1.16-12.37,2.08-18.4a84.73,84.73,0,0,1,4.64-18.78,40.91,40.91,0,0,1,1.87-4,2.71,2.71,0,0,0-1-3.62,2.66,2.66,0,0,0-3.61,1,66.29,66.29,0,0,0-6.2,19c-1.2,6.43-2,12.95-2.65,19.45a259.11,259.11,0,0,0-.9,37.89,269.91,269.91,0,0,0,4.58,38,264.2,264.2,0,0,0,25,71.89q1.1,2.11,2.24,4.21a2.64,2.64,0,1,0,4.56-2.67Z" style="mix-blend-mode:soft-light"/></g><path fill="#0d2140" d="M2056.56,987.57a207.71,207.71,0,0,1-7-28.9q-.69-4-1.24-8c-.06-.45-.35-2.62-.45-3.34.14,1.09-.35-2.56-.3-2.22-.18-1.3-.23-2.65-.33-4a14.41,14.41,0,0,0-4.45.58c-11.77,3.48-18.18,21.27-14.32,39.74s16.52,30.63,28.29,27.15a16.33,16.33,0,0,0,6.38-3.89C2060.7,999.09,2058.46,993.41,2056.56,987.57Z"/><path fill="#0d2140" d="M2434.14,919a208,208,0,0,1,.22,29.75c-.16,2.7-.38,5.4-.63,8.09,0,.45-.26,2.63-.33,3.35.11-1.09-.25,2.57-.21,2.23-.13,1.31-.38,2.64-.59,4a14.11,14.11,0,0,0,4.46.45c12.25-.69,22.57-16.54,23-35.4s-9.08-33.6-21.33-32.9a16.06,16.06,0,0,0-7.1,2.32C2432.74,906.85,2433.62,912.9,2434.14,919Z"/><path fill="#0d2140" d="M1481.22,1429.38l-96.63,17.21c-50.55,3.52-35.37-97.47,4.27-108.23l62.42-7.3C1474.92,1339.35,1494.85,1410.79,1481.22,1429.38Z"/><path fill="#010103" d="M1326,1369.15s-73.58,82.53-106.24-48.2C1252.62,1239.73,1358.13,1334.59,1326,1369.15Z"/><path fill="#0d2140" d="M1391.29,1336.18c-109.88-84.13-175.81-52.56-171.82-8.09-29,3.53-80.84,20.48-76.4,33.78,7.43,22.27,144.24-4.77,158.35,14.55,15.92,21.81,9.34,31.6-9.57,38.63l13.26,50.39c42.64,3.39,83.62-21.13,83.62-21.13S1478.92,1395.51,1391.29,1336.18Z"/><path fill="#1f4f99" d="M1219.47,1329.21a1.12,1.12,0,0,1-.11-2.24l64.66-6.49a1.13,1.13,0,0,1,.22,2.24l-64.66,6.48Z"/><polygon fill="#5896fa" points="1238.06 1555.09 1005.02 1555.09 1039.83 1264.21 1272.86 1264.21 1238.06 1555.09"/><polygon fill="#cce5ff" points="1228.63 1330.89 1108.09 1330.89 1110.35 1311.97 1230.89 1311.97 1228.63 1330.89"/><polygon fill="#cce5ff" points="1223.31 1375.33 1067.12 1375.33 1069.38 1356.42 1225.58 1356.42 1223.31 1375.33"/><polygon fill="#cce5ff" points="1217.99 1419.78 1061.8 1419.78 1064.07 1400.86 1220.26 1400.86 1217.99 1419.78"/><polygon fill="#cce5ff" points="1212.67 1464.23 1056.48 1464.23 1058.75 1445.31 1214.94 1445.31 1212.67 1464.23"/><polygon fill="#cce5ff" points="1207.36 1508.68 1051.17 1508.68 1053.43 1489.76 1209.62 1489.76 1207.36 1508.68"/><path fill="#0d2140" d="M1285.58,1416.36c-7.47,1.36-41.95-13.34-61.67-8.22s-21.61,25.26-21.61,25.26,35.8,14.2,84.25,28.65a90.31,90.31,0,0,0,18.56,3.39c49.06-3.91,39.16-67-13.26-50.39C1289.75,1415.48,1288,1415.92,1285.58,1416.36Z"/></g></g></svg>